<svg width="50" height="53" viewBox="0 0 50 53" fill="none" xmlns="http://www.w3.org/2000/svg">
<path d="M6.84003 10.8061C5.62424 10.8067 4.43589 11.1675 3.42509 11.8431C2.41429 12.5187 1.62637 13.4788 1.16086 14.602C0.695353 15.7251 0.573139 16.961 0.809643 18.1535C1.04615 19.3461 1.63076 20.4418 2.48965 21.3023C3.3652 22.1764 4.48386 22.7664 5.6997 22.9952C6.91554 23.224 8.1721 23.0809 9.30546 22.5849L16.2293 29.512L19.395 28.3393L19.3478 26.2365L12.4729 19.4257C12.8823 18.4897 13.0521 17.4666 12.9671 16.4485C12.8821 15.4304 12.5449 14.4494 11.986 13.5943C11.427 12.7391 10.6639 12.0365 9.76547 11.55C8.86707 11.0635 7.86168 10.8085 6.84003 10.8078V10.8061ZM7.77661 13.5922L10.2049 16.0188L9.26496 19.3837L5.90011 20.3218L3.47515 17.8936L4.41003 14.5287L7.77661 13.5922ZM33.6848 29.7213L41.0676 22.4955C42.1455 22.9678 43.3369 23.1185 44.4985 22.9295C45.6601 22.7405 46.7423 22.2199 47.6149 21.4303C48.4875 20.6406 49.1132 19.6156 49.4168 18.4786C49.7204 17.3416 49.689 16.1409 49.3262 15.0214L45.0906 19.2587L41.557 18.8673L41.1638 15.3337L45.3977 11.1013C44.3285 10.7546 43.1843 10.7099 42.0913 10.972C40.9982 11.234 39.9987 11.7926 39.2029 12.5863C38.3353 13.4554 37.75 14.566 37.5233 15.7729C37.2966 16.9797 37.4391 18.2269 37.9322 19.3516L30.9257 26.1978L31.0624 28.1502L33.6848 29.7213Z" fill="#2B4255"/>
<path fill-rule="evenodd" clip-rule="evenodd" d="M19.2515 22.4077V27.8212L9.27329 33.5182C8.20532 34.1235 7.31679 35.0009 6.69816 36.0612C6.07953 37.1215 5.75288 38.3268 5.75146 39.5544V53.0002H27.5692H22.7463H44.564V39.5544C44.5626 38.3268 44.2359 37.1215 43.6173 36.0612C42.9987 35.0009 42.1101 34.1235 41.0422 33.5182L31.064 27.8212V22.4077" fill="#576D7E"/>
<path d="M20.5728 41.1875H29.7747H20.5728ZM35.0515 41.1875H37.814V53H12.5015V41.1875H15.0412" fill="#4BBFEB"/>
<path d="M28.1446 41.1846L27.6131 43.3108C27.596 43.3775 27.5831 43.4451 27.5743 43.5133C27.2773 45.9332 29.3529 47.9396 31.6125 47.9396C33.9463 47.9396 35.5325 46.0193 35.9594 44.0837L36.6851 41.1863H33.2071L32.6756 43.3125C32.6709 43.3265 32.6664 43.3406 32.6621 43.3547C32.4866 44.158 32.0816 44.5613 31.6108 44.5613C31.0741 44.5613 30.8835 44.4195 30.9358 43.9318L31.6209 41.1863H28.1446V41.1846ZM13.5039 41.1846L14.2295 44.0837C14.6548 46.0193 16.2427 47.9396 18.5765 47.9396C20.8344 47.9396 22.9117 45.9315 22.6147 43.5133C22.6065 43.4451 22.5941 43.3775 22.5776 43.3108L22.0477 41.1846H18.5647L19.2498 43.9352C19.3021 44.4229 19.1115 44.5646 18.5748 44.5646C18.104 44.5646 17.7007 44.1597 17.5235 43.3581C17.5204 43.3429 17.517 43.3276 17.5134 43.3125L16.9818 41.1863H13.5022L13.5039 41.1846Z" fill="#78C8F0"/>
<path fill-rule="evenodd" clip-rule="evenodd" d="M19.2515 22.4077V27.8212C19.6278 32.2425 31.4403 32.2425 31.064 27.8212V22.4077" fill="#FCD062"/>
<path d="M32.9407 28.9551L29.2501 43.7188C29.0696 45.1836 30.2103 46.2501 31.6126 46.2501C33.0133 46.2501 34.0106 45.0874 34.3126 43.7188L37.3434 31.5926M17.2486 28.9551L20.9392 43.7188C21.1197 45.1836 19.979 46.2501 18.5767 46.2501C17.1744 46.2501 16.1787 45.0874 15.8767 43.7188L12.8459 31.5926" fill="#4BBFEB"/>
<path fill-rule="evenodd" clip-rule="evenodd" d="M19.2515 22.4092V24.1978C19.995 25.021 20.9006 25.6817 21.9116 26.1383C22.9225 26.5949 24.0168 26.8376 25.126 26.8512C26.2352 26.8649 27.3352 26.649 28.357 26.2174C29.3789 25.7858 30.3004 25.1477 31.064 24.343V22.4092H19.2515Z" fill="#F8B84E"/>
<path d="M21.604 2.82928C21.0087 2.83038 20.4194 2.94908 19.87 3.17844C19.3206 3.40779 18.8219 3.74324 18.4026 4.16577C17.9832 4.58829 17.6513 5.08961 17.4261 5.64068C17.2008 6.19175 17.0866 6.78189 17.0899 7.37721V11.4204L17.0933 11.4709L17.0899 11.5216V16.9757C17.0899 21.5117 20.7164 25.165 25.2186 25.165C29.7209 25.165 33.3456 21.5117 33.3456 16.9757V11.5199L33.3422 11.4693L33.3456 11.4186V5.49731C32.9777 2.68087 31.6142 0.670933 28.8231 0.686121C28.7354 2.00237 27.3449 2.74828 26.1062 2.82928H21.604Z" fill="#FCD062"/>
<path d="M18.239 43.7188C18.705 43.7188 19.0828 43.341 19.0828 42.875C19.0828 42.409 18.705 42.0312 18.239 42.0312C17.773 42.0312 17.3953 42.409 17.3953 42.875C17.3953 43.341 17.773 43.7188 18.239 43.7188Z" fill="#2B4255"/>
<path d="M31.95 43.7188C31.484 43.7188 31.1062 43.341 31.1062 42.875C31.1062 42.409 31.484 42.0312 31.95 42.0312C32.4159 42.0312 32.7937 42.409 32.7937 42.875C32.7937 43.341 32.4159 43.7188 31.95 43.7188Z" fill="#2B4255"/>
<path fill-rule="evenodd" clip-rule="evenodd" d="M17.0967 13.3543C18.1092 13.3543 20.9458 10.7251 21.1872 9.83244C24.0508 14.7667 30.9797 9.88299 33.3254 13.9229L33.3456 11.5199V5.49731C32.976 2.68087 31.6142 0.670933 28.8231 0.686121C28.7354 2.00237 27.3449 2.74659 26.1062 2.82928H21.604C21.0087 2.83038 20.4194 2.94908 19.87 3.17844C19.3206 3.40779 18.8219 3.74324 18.4026 4.16577C17.9832 4.58829 17.6513 5.08961 17.4261 5.64068C17.2008 6.19175 17.0866 6.78189 17.0899 7.37721V11.4186L17.0933 11.4693L17.0899 12.9813L17.0967 13.3543Z" fill="#2B4255"/>
</svg>
