<svg width="40" height="40" viewBox="0 0 40 40" fill="none" xmlns="http://www.w3.org/2000/svg">
<g clip-path="url(#clip0_4050_16539)">
<path d="M31.668 31.6676H5.0013V11.6676C5.0013 10.751 4.2513 10.001 3.33464 10.001C2.41797 10.001 1.66797 10.751 1.66797 11.6676V31.6676C1.66797 33.501 3.16797 35.001 5.0013 35.001H31.668C32.5846 35.001 33.3346 34.251 33.3346 33.3343C33.3346 32.4176 32.5846 31.6676 31.668 31.6676Z" fill="white"/>
<path d="M35.0026 6.66732H23.3359L20.9859 4.31732C20.3526 3.68398 19.5026 3.33398 18.6193 3.33398H11.6693C9.83594 3.33398 8.3526 4.83398 8.3526 6.66732L8.33594 25.0007C8.33594 26.834 9.83594 28.334 11.6693 28.334H35.0026C36.8359 28.334 38.3359 26.834 38.3359 25.0007V10.0007C38.3359 8.16732 36.8359 6.66732 35.0026 6.66732ZM30.0026 21.6673H16.6693C15.9859 21.6673 15.5859 20.884 16.0026 20.334L18.3026 17.284C18.6359 16.834 19.3026 16.834 19.6359 17.284L21.6693 20.0007L25.3693 15.0507C25.7026 14.6006 26.3693 14.6006 26.7026 15.0507L30.6693 20.334C31.0859 20.884 30.6859 21.6673 30.0026 21.6673Z" fill="white"/>
</g>
<defs>
<clipPath id="clip0_4050_16539">
<rect width="40" height="40" fill="white"/>
</clipPath>
</defs>
</svg>
