<svg width="26" height="26" viewBox="0 0 26 26" fill="none" xmlns="http://www.w3.org/2000/svg">
<circle cx="13" cy="13" r="13" fill="#F4FDFE"/>
<g clip-path="url(#clip0_4171_31838)">
<path d="M16.8888 14.5556C16.7857 14.5556 16.6868 14.5146 16.6138 14.4417C16.5409 14.3688 16.4999 14.2699 16.4999 14.1667V11.8334C16.4999 9.47478 14.93 7.55561 12.9999 7.55561C11.0703 7.55561 9.49995 9.47478 9.49995 11.8334V14.1667C9.49995 14.2699 9.45897 14.3688 9.38604 14.4417C9.31311 14.5146 9.2142 14.5556 9.11106 14.5556C9.00792 14.5556 8.909 14.5146 8.83607 14.4417C8.76314 14.3688 8.72217 14.2699 8.72217 14.1667V11.8334C8.72217 9.04583 10.6413 6.77783 12.9999 6.77783C15.3586 6.77783 17.2777 9.04583 17.2777 11.8334V14.1667C17.2777 14.2699 17.2368 14.3688 17.1638 14.4417C17.0909 14.5146 16.992 14.5556 16.8888 14.5556Z" fill="#F4FDFE"/>
<path d="M18.9836 11.0447C18.8825 10.1953 18.1 9.5 17.2445 9.5H8.75581C7.90025 9.5 7.11781 10.1953 7.01669 11.0447L6.18369 18.0664C6.08258 18.9162 6.70014 19.6111 7.55569 19.6111H18.4446C19.3001 19.6111 19.9177 18.9162 19.8166 18.0664L18.9836 11.0447V11.0447Z" fill="#0099A8"/>
<path d="M16.8888 13.7778C16.7857 13.7778 16.6868 13.7368 16.6138 13.6639C16.5409 13.5909 16.4999 13.492 16.4999 13.3889V11.0556C16.4999 8.69694 14.93 6.77778 12.9999 6.77778C11.0703 6.77778 9.49995 8.69694 9.49995 11.0556V13.3889C9.49995 13.492 9.45897 13.5909 9.38604 13.6639C9.31311 13.7368 9.2142 13.7778 9.11106 13.7778C9.00792 13.7778 8.909 13.7368 8.83607 13.6639C8.76314 13.5909 8.72217 13.492 8.72217 13.3889V11.0556C8.72217 8.268 10.6413 6 12.9999 6C15.3586 6 17.2777 8.268 17.2777 11.0556V13.3889C17.2777 13.492 17.2368 13.5909 17.1638 13.6639C17.0909 13.7368 16.992 13.7778 16.8888 13.7778Z" fill="#0099A8"/>
</g>
<defs>
<clipPath id="clip0_4171_31838">
<rect width="14" height="14" fill="white" transform="translate(6 6)"/>
</clipPath>
</defs>
</svg>
