<svg width="32" height="32" viewBox="0 0 32 32" fill="none" xmlns="http://www.w3.org/2000/svg">
<path fill-rule="evenodd" clip-rule="evenodd" d="M14.494 13.2227V27.9967C14.494 27.9967 6.401 24.5337 3.01 23.0867L3 23.0697V8.30469L3.01 8.32369L14.484 13.2337L14.494 13.2227Z" fill="#FCD062"/>
<path fill-rule="evenodd" clip-rule="evenodd" d="M25.9801 8.30469L25.9701 8.32269L14.4961 13.2337V27.9997L25.9711 23.0877L25.9811 23.0697V8.30469H25.9801Z" fill="#F8AA3A"/>
<path fill-rule="evenodd" clip-rule="evenodd" d="M14.304 3.39844L3 8.30844V8.32044L14.497 13.2534L26 8.30844L14.616 3.39844H14.306H14.304Z" fill="#F8B84E"/>
<path d="M22.194 21.6032L19.326 22.8302L16.457 24.0582M19.326 20.8672L16.457 22.0942" stroke="#1C4D7E" stroke-width="0.908" stroke-linecap="round" stroke-linejoin="round"/>
<path fill-rule="evenodd" clip-rule="evenodd" d="M18.0447 4.88281L17.9747 4.90881L6.55469 9.84681V16.7818L8.58169 15.7818L10.5817 18.7818L10.5797 11.5758L22.0017 6.58581L18.0447 4.88281Z" fill="#E9EDED"/>
</svg>
