<svg width="20" height="21" viewBox="0 0 20 21" fill="none" xmlns="http://www.w3.org/2000/svg">
<rect y="5" width="16.5" height="16" rx="5" fill="#0099A8"/>
<path d="M6.66406 4.79102C6.3224 4.79102 6.03906 4.50768 6.03906 4.16602V1.66602C6.03906 1.32435 6.3224 1.04102 6.66406 1.04102C7.00573 1.04102 7.28906 1.32435 7.28906 1.66602V4.16602C7.28906 4.50768 7.00573 4.79102 6.66406 4.79102Z" fill="#151B33"/>
<path d="M13.3359 4.79102C12.9943 4.79102 12.7109 4.50768 12.7109 4.16602V1.66602C12.7109 1.32435 12.9943 1.04102 13.3359 1.04102C13.6776 1.04102 13.9609 1.32435 13.9609 1.66602V4.16602C13.9609 4.50768 13.6776 4.79102 13.3359 4.79102Z" fill="#151B33"/>
<path d="M7.08333 12.0839C6.975 12.0839 6.86667 12.0589 6.76667 12.0173C6.65833 11.9756 6.575 11.9172 6.49167 11.8422C6.34167 11.6839 6.25 11.4756 6.25 11.2506C6.25 11.1423 6.275 11.0339 6.31667 10.9339C6.35833 10.8339 6.41667 10.7423 6.49167 10.6589C6.575 10.5839 6.65833 10.5256 6.76667 10.4839C7.06667 10.3589 7.44167 10.4256 7.675 10.6589C7.825 10.8173 7.91667 11.0339 7.91667 11.2506C7.91667 11.3006 7.90833 11.3589 7.9 11.4173C7.89167 11.4673 7.875 11.5173 7.85 11.5673C7.83333 11.6173 7.80833 11.6672 7.775 11.7172C7.75 11.7589 7.70833 11.8006 7.675 11.8422C7.51667 11.9922 7.3 12.0839 7.08333 12.0839Z" fill="#151B33"/>
<path d="M9.9974 12.0837C9.88906 12.0837 9.78073 12.0587 9.68073 12.0171C9.57239 11.9754 9.48906 11.917 9.40573 11.842C9.25573 11.6837 9.16406 11.4754 9.16406 11.2504C9.16406 11.142 9.18906 11.0337 9.23073 10.9337C9.2724 10.8337 9.33073 10.7421 9.40573 10.6587C9.48906 10.5837 9.57239 10.5254 9.68073 10.4837C9.98073 10.3504 10.3557 10.4254 10.5891 10.6587C10.7391 10.8171 10.8307 11.0337 10.8307 11.2504C10.8307 11.3004 10.8224 11.3587 10.8141 11.4171C10.8057 11.4671 10.7891 11.5171 10.7641 11.5671C10.7474 11.6171 10.7224 11.667 10.6891 11.717C10.6641 11.7587 10.6224 11.8004 10.5891 11.842C10.4307 11.992 10.2141 12.0837 9.9974 12.0837Z" fill="#151B33"/>
<path d="M12.9193 12.0837C12.8109 12.0837 12.7026 12.0587 12.6026 12.0171C12.4943 11.9754 12.4109 11.917 12.3276 11.842C12.2943 11.8004 12.2609 11.7587 12.2276 11.717C12.1943 11.667 12.1693 11.6171 12.1526 11.5671C12.1276 11.5171 12.1109 11.4671 12.1026 11.4171C12.0943 11.3587 12.0859 11.3004 12.0859 11.2504C12.0859 11.0337 12.1776 10.8171 12.3276 10.6587C12.4109 10.5837 12.4943 10.5254 12.6026 10.4837C12.9109 10.3504 13.2776 10.4254 13.5109 10.6587C13.6609 10.8171 13.7526 11.0337 13.7526 11.2504C13.7526 11.3004 13.7443 11.3587 13.7359 11.4171C13.7276 11.4671 13.7109 11.5171 13.6859 11.5671C13.6693 11.6171 13.6443 11.667 13.6109 11.717C13.5859 11.7587 13.5443 11.8004 13.5109 11.842C13.3526 11.992 13.1359 12.0837 12.9193 12.0837Z" fill="#151B33"/>
<path d="M7.08333 15C6.975 15 6.86667 14.975 6.76667 14.9333C6.66667 14.8917 6.575 14.8333 6.49167 14.7583C6.34167 14.6 6.25 14.3833 6.25 14.1667C6.25 14.0583 6.275 13.95 6.31667 13.85C6.35833 13.7417 6.41667 13.65 6.49167 13.575C6.8 13.2667 7.36667 13.2667 7.675 13.575C7.825 13.7333 7.91667 13.95 7.91667 14.1667C7.91667 14.3833 7.825 14.6 7.675 14.7583C7.51667 14.9083 7.3 15 7.08333 15Z" fill="#151B33"/>
<path d="M9.9974 15C9.78073 15 9.56406 14.9083 9.40573 14.7583C9.25573 14.6 9.16406 14.3833 9.16406 14.1667C9.16406 14.0583 9.18906 13.95 9.23073 13.85C9.2724 13.7417 9.33073 13.65 9.40573 13.575C9.71406 13.2667 10.2807 13.2667 10.5891 13.575C10.6641 13.65 10.7224 13.7417 10.7641 13.85C10.8057 13.95 10.8307 14.0583 10.8307 14.1667C10.8307 14.3833 10.7391 14.6 10.5891 14.7583C10.4307 14.9083 10.2141 15 9.9974 15Z" fill="#151B33"/>
<path d="M12.9193 14.9994C12.7026 14.9994 12.4859 14.9078 12.3276 14.7578C12.2526 14.6828 12.1943 14.5911 12.1526 14.4828C12.1109 14.3828 12.0859 14.2744 12.0859 14.1661C12.0859 14.0578 12.1109 13.9494 12.1526 13.8494C12.1943 13.7411 12.2526 13.6494 12.3276 13.5744C12.5193 13.3828 12.8109 13.2911 13.0776 13.3494C13.1359 13.3578 13.1859 13.3744 13.2359 13.3994C13.2859 13.4161 13.3359 13.4411 13.3859 13.4745C13.4276 13.4995 13.4693 13.5411 13.5109 13.5744C13.6609 13.7328 13.7526 13.9494 13.7526 14.1661C13.7526 14.3828 13.6609 14.5994 13.5109 14.7578C13.3526 14.9078 13.1359 14.9994 12.9193 14.9994Z" fill="#151B33"/>
<path d="M17.0807 8.19922H2.91406C2.5724 8.19922 2.28906 7.91589 2.28906 7.57422C2.28906 7.23255 2.5724 6.94922 2.91406 6.94922H17.0807C17.4224 6.94922 17.7057 7.23255 17.7057 7.57422C17.7057 7.91589 17.4224 8.19922 17.0807 8.19922Z" fill="#151B33"/>
<path d="M13.3333 18.9577H6.66667C3.625 18.9577 1.875 17.2077 1.875 14.166V7.08268C1.875 4.04102 3.625 2.29102 6.66667 2.29102H13.3333C16.375 2.29102 18.125 4.04102 18.125 7.08268V14.166C18.125 17.2077 16.375 18.9577 13.3333 18.9577ZM6.66667 3.54102C4.28333 3.54102 3.125 4.69935 3.125 7.08268V14.166C3.125 16.5493 4.28333 17.7077 6.66667 17.7077H13.3333C15.7167 17.7077 16.875 16.5493 16.875 14.166V7.08268C16.875 4.69935 15.7167 3.54102 13.3333 3.54102H6.66667Z" fill="#151B33"/>
</svg>
