<svg width="24" height="24" viewBox="0 0 24 24" fill="none" xmlns="http://www.w3.org/2000/svg">
<path d="M19.97 20.33C19.97 20.69 19.89 21.06 19.72 21.42C19.55 21.78 19.33 22.12 19.04 22.44C18.55 22.98 18.01 23.37 17.4 23.62C16.8 23.87 16.15 24 15.45 24C14.43 24 13.34 23.76 12.19 23.27C11.04 22.78 9.89 22.12 8.75 21.29C7.6 20.45 6.51 19.52 5.47 18.49C4.44 17.45 3.51 16.36 2.68 15.22C1.86 14.08 1.2 12.94 0.72 11.81C0.24 10.67 0 9.58 0 8.54C0 7.86 0.12 7.21 0.36 6.61C0.6 6 0.98 5.44 1.51 4.94C2.15 4.31 2.85 4 3.59 4C3.87 4 4.15 4.06 4.4 4.18C4.66 4.3 4.89 4.48 5.07 4.74L7.39 8.01C7.57 8.26 7.7 8.49 7.79 8.71C7.88 8.92 7.93 9.13 7.93 9.32C7.93 9.56 7.86 9.8 7.72 10.03C7.59 10.26 7.4 10.5 7.16 10.74L6.4 11.53C6.29 11.64 6.24 11.77 6.24 11.93C6.24 12.01 6.25 12.08 6.27 12.16C6.3 12.24 6.33 12.3 6.35 12.36C6.53 12.69 6.84 13.12 7.28 13.64C7.73 14.16 8.21 14.69 8.73 15.22C9.27 15.75 9.79 16.24 10.32 16.69C10.84 17.13 11.27 17.43 11.61 17.61C11.66 17.63 11.72 17.66 11.79 17.69C11.87 17.72 11.95 17.73 12.04 17.73C12.21 17.73 12.34 17.67 12.45 17.56L13.21 16.81C13.46 16.56 13.7 16.37 13.93 16.25C14.16 16.11 14.39 16.04 14.64 16.04C14.83 16.04 15.03 16.08 15.25 16.17C15.47 16.26 15.7 16.39 15.95 16.56L19.26 18.91C19.52 19.09 19.7 19.3 19.81 19.55C19.91 19.8 19.97 20.05 19.97 20.33Z" fill="#0099A8"/>
<g clip-path="url(#clip0_2591_15070)">
<path d="M21.97 18.33C21.97 18.69 21.89 19.06 21.72 19.42C21.55 19.78 21.33 20.12 21.04 20.44C20.55 20.98 20.01 21.37 19.4 21.62C18.8 21.87 18.15 22 17.45 22C16.43 22 15.34 21.76 14.19 21.27C13.04 20.78 11.89 20.12 10.75 19.29C9.6 18.45 8.51 17.52 7.47 16.49C6.44 15.45 5.51 14.36 4.68 13.22C3.86 12.08 3.2 10.94 2.72 9.81C2.24 8.67 2 7.58 2 6.54C2 5.86 2.12 5.21 2.36 4.61C2.6 4 2.98 3.44 3.51 2.94C4.15 2.31 4.85 2 5.59 2C5.87 2 6.15 2.06 6.4 2.18C6.66 2.3 6.89 2.48 7.07 2.74L9.39 6.01C9.57 6.26 9.7 6.49 9.79 6.71C9.88 6.92 9.93 7.13 9.93 7.32C9.93 7.56 9.86 7.8 9.72 8.03C9.59 8.26 9.4 8.5 9.16 8.74L8.4 9.53C8.29 9.64 8.24 9.77 8.24 9.93C8.24 10.01 8.25 10.08 8.27 10.16C8.3 10.24 8.33 10.3 8.35 10.36C8.53 10.69 8.84 11.12 9.28 11.64C9.73 12.16 10.21 12.69 10.73 13.22C11.27 13.75 11.79 14.24 12.32 14.69C12.84 15.13 13.27 15.43 13.61 15.61C13.66 15.63 13.72 15.66 13.79 15.69C13.87 15.72 13.95 15.73 14.04 15.73C14.21 15.73 14.34 15.67 14.45 15.56L15.21 14.81C15.46 14.56 15.7 14.37 15.93 14.25C16.16 14.11 16.39 14.04 16.64 14.04C16.83 14.04 17.03 14.08 17.25 14.17C17.47 14.26 17.7 14.39 17.95 14.56L21.26 16.91C21.52 17.09 21.7 17.3 21.81 17.55C21.91 17.8 21.97 18.05 21.97 18.33Z" stroke="#1D272F" stroke-width="1.5" stroke-miterlimit="10"/>
</g>
<defs>
<clipPath id="clip0_2591_15070">
<rect width="24" height="24" fill="white"/>
</clipPath>
</defs>
</svg>
