<svg width="26" height="26" viewBox="0 0 26 26" fill="none" xmlns="http://www.w3.org/2000/svg">
<circle cx="13" cy="13" r="13" fill="#F4FDFE"/>
<g clip-path="url(#clip0_4191_16555)">
<path d="M13 5.5C8.875 5.5 5.5 8.875 5.5 13C5.5 17.125 8.875 20.5 13 20.5C17.125 20.5 20.5 17.125 20.5 13C20.5 8.875 17.125 5.5 13 5.5ZM15.6625 15.85L12.6025 13.9675C12.3775 13.8325 12.2425 13.5925 12.2425 13.33V9.8125C12.25 9.505 12.505 9.25 12.8125 9.25C13.12 9.25 13.375 9.505 13.375 9.8125V13.15L16.255 14.8825C16.525 15.0475 16.615 15.4 16.45 15.67C16.285 15.9325 15.9325 16.015 15.6625 15.85Z" fill="#0099A8"/>
</g>
<defs>
<clipPath id="clip0_4191_16555">
<rect width="18" height="18" fill="white" transform="translate(4 4)"/>
</clipPath>
</defs>
</svg>
