<svg width="32" height="32" viewBox="0 0 32 32" fill="none" xmlns="http://www.w3.org/2000/svg">
<circle cx="16" cy="16" r="16" fill="#F9FEFF"/>
<path fill-rule="evenodd" clip-rule="evenodd" d="M13.9378 14.3219V24.5463C13.9378 24.5463 8.34326 22.1497 5.9991 21.1483L5.99219 21.1365V10.9185L5.9991 10.9316L13.9309 14.3296L13.9378 14.3219Z" fill="#FCD062"/>
<path fill-rule="evenodd" clip-rule="evenodd" d="M21.8767 10.918L21.8698 10.9304L13.938 14.3291V24.5472L21.8705 21.1478L21.8774 21.1354V10.918H21.8767Z" fill="#F8AA3A"/>
<path fill-rule="evenodd" clip-rule="evenodd" d="M13.8055 7.52148L5.99121 10.9194V10.9277L13.9389 14.3416L21.8908 10.9194L14.0212 7.52148H13.8069H13.8055Z" fill="#F8B84E"/>
<path d="M19.2594 20.1221L17.2768 20.9713L15.2935 21.8211M17.2768 19.6128L15.2935 20.4619" stroke="#1C4D7E" stroke-width="0.908" stroke-linecap="round" stroke-linejoin="round"/>
<path fill-rule="evenodd" clip-rule="evenodd" d="M16.3902 8.54834L16.3418 8.56564L8.44727 11.983V16.7823L9.84851 16.0903L11.2311 18.1664L11.2297 13.1795L19.1256 9.72621L16.3902 8.54834Z" fill="#E9EDED"/>
<path d="M21.7606 17.2822C20.7527 17.2837 19.7864 17.6851 19.0737 18.3986C18.361 19.1121 17.96 20.0795 17.9585 21.0885C17.9585 23.1868 19.6646 24.8948 21.7606 24.8948C23.8566 24.8948 25.5627 23.1868 25.5627 21.0885C25.5627 18.9909 23.8566 17.2822 21.7606 17.2822Z" fill="#0099A8"/>
<path fill-rule="evenodd" clip-rule="evenodd" d="M20.3774 19.3633C20.3086 19.3633 20.2413 19.3838 20.1842 19.4223C20.1272 19.4608 20.0829 19.5155 20.057 19.5794C20.0312 19.6432 20.025 19.7134 20.0392 19.7808C20.0534 19.8482 20.0874 19.9098 20.1368 19.9578L22.895 22.7093C22.96 22.7741 23.0481 22.8105 23.1398 22.8103C23.2315 22.8101 23.3194 22.7734 23.3841 22.7083C23.4488 22.6432 23.4851 22.5551 23.4849 22.4633C23.4847 22.3715 23.4481 22.2835 23.3831 22.2187L20.6255 19.4671C20.5931 19.434 20.5544 19.4077 20.5116 19.3899C20.4689 19.3721 20.423 19.363 20.3767 19.3633H20.3774Z" fill="#E9EDED"/>
<path fill-rule="evenodd" clip-rule="evenodd" d="M23.1292 19.3581C23.0395 19.3605 22.9542 19.3976 22.8914 19.4618L20.1421 22.2232C20.1091 22.2551 20.0828 22.2932 20.0647 22.3355C20.0466 22.3777 20.037 22.4231 20.0366 22.469C20.0362 22.515 20.045 22.5606 20.0624 22.6031C20.0797 22.6456 20.1054 22.6842 20.1379 22.7167C20.1703 22.7492 20.2089 22.7749 20.2514 22.7923C20.2939 22.8097 20.3394 22.8185 20.3853 22.8181C20.4312 22.8177 20.4765 22.8081 20.5187 22.7899C20.5609 22.7718 20.599 22.7454 20.6309 22.7124L23.3815 19.9511C23.4313 19.9024 23.4651 19.8397 23.4787 19.7714C23.4923 19.703 23.4849 19.6321 23.4576 19.568C23.4302 19.5039 23.3842 19.4495 23.3255 19.4121C23.2667 19.3746 23.1981 19.3558 23.1285 19.3581H23.1292Z" fill="#E9EDED"/>
</svg>
