<svg width="32" height="32" viewBox="0 0 32 32" fill="none" xmlns="http://www.w3.org/2000/svg">
<circle cx="16" cy="16" r="16" fill="#F9FEFF"/>
<path d="M8.75643 10.8228H22.5822C23.0912 10.8228 23.5039 11.2359 23.5039 11.7455V20.9728C23.5039 21.4824 23.0912 21.8955 22.5822 21.8955H10.5999L8.30676 24.1912C8.13256 24.3655 7.83472 24.242 7.83472 23.9954V11.7455C7.83472 11.2359 8.24738 10.8228 8.75643 10.8228Z" fill="#DB4338"/>
<path d="M22.5822 10.8228H8.75643C8.24738 10.8228 7.83472 11.2359 7.83472 11.7455V20.9728C7.83472 21.4824 8.24738 21.8955 8.75643 21.8955H22.5822C23.0912 21.8955 23.5039 21.4824 23.5039 20.9728V11.7455C23.5039 11.2359 23.0912 10.8228 22.5822 10.8228Z" fill="#EF5448"/>
<g clip-path="url(#clip0_4200_14271)">
<path d="M13.0835 19.5002C12.9681 19.5001 12.8553 19.4659 12.7594 19.4018C12.6635 19.3377 12.5888 19.2466 12.5446 19.14C12.5005 19.0335 12.4889 18.9162 12.5114 18.8031C12.5339 18.6899 12.5895 18.586 12.671 18.5044L18.5044 12.6711C18.6144 12.5648 18.7617 12.506 18.9147 12.5073C19.0676 12.5087 19.2139 12.57 19.3221 12.6782C19.4303 12.7863 19.4916 12.9326 19.4929 13.0856C19.4943 13.2385 19.4355 13.3859 19.3292 13.4959L13.4959 19.3292C13.4418 19.3835 13.3775 19.4265 13.3067 19.4558C13.2359 19.4852 13.1601 19.5002 13.0835 19.5002Z" fill="white"/>
<path d="M18.9166 19.5002C18.84 19.5002 18.7641 19.4852 18.6933 19.4558C18.6225 19.4265 18.5583 19.3835 18.5042 19.3292L12.6708 13.4959C12.5646 13.3859 12.5058 13.2385 12.5071 13.0856C12.5084 12.9326 12.5698 12.7863 12.6779 12.6782C12.7861 12.57 12.9324 12.5087 13.0853 12.5073C13.2383 12.506 13.3856 12.5648 13.4957 12.6711L19.329 18.5044C19.4106 18.586 19.4661 18.6899 19.4886 18.8031C19.5111 18.9162 19.4995 19.0335 19.4554 19.14C19.4112 19.2466 19.3365 19.3377 19.2406 19.4018C19.1447 19.4659 19.0319 19.5001 18.9166 19.5002Z" fill="white"/>
</g>
<defs>
<clipPath id="clip0_4200_14271">
<rect width="8" height="8" fill="white" transform="translate(12 12)"/>
</clipPath>
</defs>
</svg>
