<svg width="70" height="70" viewBox="0 0 70 70" fill="none" xmlns="http://www.w3.org/2000/svg">
<g clip-path="url(#clip0_4076_14626)">
<path d="M35 70C54.33 70 70 54.33 70 35C70 15.67 54.33 0 35 0C15.67 0 0 15.67 0 35C0 54.33 15.67 70 35 70Z" fill="#FF6643"/>
<path d="M40.5715 45.2144V51.7144C40.5715 52.2173 40.3877 52.6526 40.0202 53.0202C39.6526 53.3877 39.2174 53.5715 38.7144 53.5715H31.2858C30.7828 53.5715 30.3476 53.3877 29.98 53.0202C29.6124 52.6526 29.4287 52.2173 29.4287 51.7144V45.2144C29.4287 44.7114 29.6124 44.2761 29.98 43.9086C30.3476 43.541 30.7828 43.3572 31.2858 43.3572H38.7144C39.2174 43.3572 39.6526 43.541 40.0202 43.9086C40.3877 44.2761 40.5715 44.7114 40.5715 45.2144ZM41.4421 14.5715L40.6296 36.8572C40.6102 37.3602 40.4119 37.7955 40.0347 38.163C39.6575 38.5306 39.2174 38.7144 38.7144 38.7144H31.2858C30.7828 38.7144 30.3427 38.5306 29.9655 38.163C29.5883 37.7955 29.39 37.3602 29.3706 36.8572L28.5581 14.5715C28.5388 14.0685 28.7081 13.6333 29.0659 13.2657C29.4238 12.8981 29.8543 12.7144 30.3572 12.7144H39.643C40.1459 12.7144 40.5764 12.8981 40.9342 13.2657C41.2921 13.6333 41.4614 14.0685 41.4421 14.5715Z" fill="white"/>
</g>
<defs>
<clipPath id="clip0_4076_14626">
<rect width="70" height="70" fill="white"/>
</clipPath>
</defs>
</svg>
