<svg width="91" height="91" viewBox="0 0 91 91" fill="none" xmlns="http://www.w3.org/2000/svg">
<mask id="mask0_2752_13447" style="mask-type:alpha" maskUnits="userSpaceOnUse" x="0" y="0" width="91" height="91">
<circle cx="45.5" cy="45.5" r="45.5" fill="#D9D9D9"/>
</mask>
<g mask="url(#mask0_2752_13447)">
<path d="M40.6321 31.6159C40.6321 31.6159 40.7805 34.7321 40.3353 36.6611C40.0386 37.6999 45.529 42.5967 45.529 42.5967C45.529 42.5967 49.2387 39.3321 49.5355 36.6611C49.3871 34.4353 49.2387 31.6159 49.2387 31.6159H40.6321Z" fill="#ED8A40"/>
<path d="M37.3676 20.9329C37.3676 20.9329 36.1805 20.3393 35.5869 21.8232C34.9933 23.3071 36.1805 25.5329 37.516 25.6813C38.7031 25.6813 37.3676 20.9329 37.3676 20.9329Z" fill="#FFB680"/>
<path d="M54.2839 21.2291C54.2839 21.2291 55.4711 20.7839 55.9162 22.2678C56.3614 23.7517 54.7291 25.8292 53.542 25.8292C52.3549 25.8292 54.2839 21.2291 54.2839 21.2291Z" fill="#FFB680"/>
<path d="M45.5289 33.8424C50.2822 33.8424 54.1355 28.7932 54.1355 22.5648C54.1355 16.3364 50.2822 11.2872 45.5289 11.2872C40.7757 11.2872 36.9224 16.3364 36.9224 22.5648C36.9224 28.7932 40.7757 33.8424 45.5289 33.8424Z" fill="#FFB680"/>
<path d="M36.6257 20.9353C36.6257 20.9353 37.3677 21.232 37.5161 21.3804C39.4451 21.6772 41.3742 20.1933 42.1161 19.303C43.0065 18.4126 44.0452 15.7416 44.0452 15.7416C44.0452 15.7416 46.4194 18.8578 47.9033 19.7481C50.4259 21.232 53.9873 21.8256 53.9873 21.8256L54.4324 21.3804C54.4324 21.3804 54.284 18.561 50.7227 16.9287C47.1614 15.2965 43.6 14.9997 42.7097 15.1481C42.1161 15.4449 37.2193 18.2642 36.6257 20.9353Z" fill="#3C3C3C"/>
<path d="M36.3289 19.0052L45.8258 16.631L55.3227 19.4504C55.3227 19.4504 56.0647 7.28247 45.8258 7.28247C35.587 7.28247 36.3289 19.0052 36.3289 19.0052Z" fill="#BB6125"/>
<path d="M36.3289 19.0067C36.3289 19.0067 39.8902 13.6647 45.8258 13.6647C52.3549 13.6647 55.3227 19.4519 55.3227 19.4519C55.3227 19.4519 52.9484 19.1551 51.1678 18.2648C49.3871 17.3745 44.1935 16.1873 41.0773 17.968C37.8127 19.7487 36.3289 19.0067 36.3289 19.0067Z" fill="#E67A32"/>
<path d="M36.6256 20.9351C36.6256 20.9351 41.3741 17.819 45.8258 17.819C51.4646 17.819 54.5807 21.2319 54.5807 21.2319L55.3227 19.3028C55.3227 19.3028 51.6129 15.8899 45.8258 15.8899C39.445 15.8899 36.3289 19.0061 36.3289 19.0061L36.6256 20.9351Z" fill="#BB6125"/>
<path d="M21.7867 77.1745C23.2706 69.7551 26.9803 62.0388 26.9803 62.0388L16.5931 60.4066C16.5931 60.4066 14.664 67.5292 13.6253 74.6519C13.3285 78.51 13.3285 82.9617 13.6253 86.9682C15.5544 86.6714 18.2254 86.3747 20.748 86.0779C20.8964 83.5553 21.1931 80.4391 21.7867 77.1745Z" fill="#FFB680"/>
<path d="M17.1867 104.922C19.7093 106.555 23.5674 106.406 23.2707 102.251C22.9739 98.0965 19.8577 93.6448 20.1545 92.1609C20.3029 91.7158 20.3029 89.3415 20.5997 86.077C19.4125 85.7802 17.9287 85.9286 16.7415 86.077C15.5544 86.2254 14.3673 86.3738 13.6254 86.9673C13.7738 90.2319 14.2189 93.1997 14.5157 95.2771C14.8125 97.0578 14.6641 103.29 17.1867 104.922Z" fill="#3C3C3C"/>
<path d="M69.4197 49.869C67.639 45.7141 65.8583 44.0818 61.555 41.7076C58.7356 40.0753 49.6839 36.514 49.6839 36.514C49.6839 36.514 48.7936 38.8882 45.0838 38.8882C41.8193 38.8882 40.4838 36.514 40.4838 36.514C40.4838 36.514 29.6514 40.2237 26.3868 41.856C23.1222 43.4883 21.0448 46.7528 19.2641 51.5013C17.7802 55.6562 16.1479 61.8885 16.1479 61.8885L23.8642 63.6692C24.9029 60.9982 27.1287 54.9142 27.8707 52.6884C28.9094 49.869 30.3933 49.1271 30.8385 54.1723C31.2836 59.3659 32.174 71.0886 33.3611 75.3919C33.8063 77.0242 35.1418 79.3984 36.6257 81.7727H41.9677H47.9032H54.5807C54.7291 79.5468 54.8775 77.321 54.7291 76.8758C54.284 75.9855 53.0968 75.8371 50.5742 75.8371C48.0516 75.6887 50.2775 73.6113 52.3549 72.1274C54.4324 70.4951 56.0646 68.1209 56.5098 63.6692C56.6582 61.5917 58.7356 55.3594 58.7356 53.5787C58.884 51.0561 61.2582 55.953 61.7034 57.2885C62.297 58.7724 63.3357 61.4434 64.0776 63.224L73.1294 60.9982C73.2778 61.295 70.4584 52.6884 69.4197 49.869Z" fill="#0099A8"/>
<path d="M60.0711 55.9514L63.0389 63.6677L65.2647 63.0741C64.5228 61.2934 63.3356 58.7708 62.7421 57.2869C62.1485 55.803 60.9614 53.874 60.0711 51.7965C59.0324 49.4223 57.9936 49.2739 57.6969 51.3514C57.2517 54.7643 56.9549 60.4031 56.5097 63.5193C56.0646 67.8226 54.4323 70.3452 52.3549 71.9775C50.2774 73.6097 48.0516 75.6872 50.5742 75.6872C53.0968 75.8356 54.2839 75.984 54.7291 76.7259C54.8775 77.1711 54.7291 79.3969 54.5807 81.6228H58.7356L60.0711 55.9514Z" fill="#04808C"/>
<path d="M30.8384 54.47C30.3933 49.2764 28.9094 50.0184 27.8706 52.9861C26.9803 55.212 24.7545 61.2959 23.8641 63.9669L26.2384 64.5605L28.761 57.141L30.3933 82.2188H36.6256C35.1417 79.8446 33.8062 77.4704 33.361 75.8381C32.3223 71.238 31.432 59.5153 30.8384 54.47Z" fill="#04808C"/>
<path d="M67.3422 125.254C66.1551 117.983 59.1808 75.3951 59.1808 75.3951L53.6904 49.2786H35.4385L29.9481 74.8015C29.9481 74.8015 27.8707 101.363 26.5352 114.125C25.3481 125.847 24.0126 170.661 24.0126 170.661L39.1483 170.364C39.1483 170.364 39.7418 130.596 40.4838 125.847C41.2257 121.099 44.9354 98.0986 44.9354 98.0986C44.9354 98.0986 50.2775 119.763 51.1678 126.293C52.0581 132.822 58.5872 170.512 58.5872 170.512H70.6068C70.6068 170.364 68.5293 132.376 67.3422 125.254Z" fill="#BB6125"/>
<path d="M59.7744 79.1017H29.6514L29.9481 74.7985H59.1808L59.7744 79.1017Z" fill="#E57A32"/>
<path d="M37.6643 51.9471C36.774 52.2439 35.8836 51.7987 35.5869 50.9084L32.0255 39.6308L35.1417 38.4437L38.703 49.8696C38.9998 50.76 38.4062 51.6503 37.6643 51.9471Z" fill="#3C3C3C"/>
<path d="M51.4645 51.9471C52.3549 52.2439 53.2452 51.7987 53.542 50.9084L57.1033 39.7792L53.9871 38.4437L50.4258 49.8696C50.129 50.76 50.5742 51.6503 51.4645 51.9471Z" fill="#3C3C3C"/>
<path d="M36.9224 51.0579C37.3321 51.0579 37.6643 50.7257 37.6643 50.316C37.6643 49.9062 37.3321 49.574 36.9224 49.574C36.5126 49.574 36.1804 49.9062 36.1804 50.316C36.1804 50.7257 36.5126 51.0579 36.9224 51.0579Z" fill="white"/>
<path d="M52.058 51.0579C52.4678 51.0579 52.7999 50.7257 52.7999 50.316C52.7999 49.9062 52.4678 49.574 52.058 49.574C51.6482 49.574 51.316 49.9062 51.316 50.316C51.316 50.7257 51.6482 51.0579 52.058 51.0579Z" fill="white"/>
<path d="M60.5163 83.8518H29.2062L29.6513 79.1033H59.7743L60.5163 83.8518Z" fill="#3C3C3C"/>
<path d="M58.1421 83.7036H31.1353V102.401H58.1421V83.7036Z" fill="#3C3C3C"/>
<path d="M41.3741 86.8181C41.3741 86.8181 41.5225 83.702 40.7806 80.4374C39.8902 76.8761 38.8515 74.3534 37.9612 74.7986C37.0708 75.2438 38.5547 78.3599 38.9999 81.031C39.4451 83.4052 39.8902 87.4117 39.8902 87.4117L41.3741 86.8181Z" fill="#0099A8"/>
<path d="M36.6256 88.3028C36.6256 88.3028 34.6966 85.7802 33.361 82.8124C31.8772 79.3995 31.2836 76.7285 32.1739 76.5801C33.2127 76.2833 33.8062 79.6962 35.1417 82.2188C36.1804 84.4447 38.2579 87.8576 38.2579 87.8576L36.6256 88.3028Z" fill="#0099A8"/>
<path d="M47.3096 86.8181C47.3096 86.8181 47.1612 83.702 47.9032 80.4374C48.7935 76.8761 49.8322 74.3534 50.7226 74.7986C51.6129 75.2438 50.129 78.3599 49.6838 81.031C49.2387 83.4052 48.7935 87.4117 48.7935 87.4117L47.3096 86.8181Z" fill="#FCB33D"/>
<path d="M52.0581 88.3028C52.0581 88.3028 53.9871 85.7802 55.3226 82.8124C56.8065 79.3995 57.4001 76.7285 56.5097 76.5801C55.471 76.2833 54.8775 79.6962 53.542 82.2188C52.5032 84.4447 50.4258 87.8576 50.4258 87.8576L52.0581 88.3028Z" fill="#FCB33D"/>
<path d="M43.3032 83.7036H33.2128V100.323H43.3032V83.7036Z" fill="#5B5B5B"/>
<path d="M55.9163 83.7036H45.8258V100.323H55.9163V83.7036Z" fill="#5B5B5B"/>
<path d="M58.884 81.4772C58.884 81.774 58.5873 82.2191 58.1421 82.2191C57.6969 82.2191 57.4001 81.9223 57.4001 81.4772C57.4001 81.1804 57.6969 80.7352 58.1421 80.7352C58.5873 80.7352 58.884 81.1804 58.884 81.4772Z" fill="white"/>
<path d="M31.8772 81.4772C31.8772 81.774 31.5804 82.2191 31.1353 82.2191C30.8385 82.2191 30.3933 81.9223 30.3933 81.4772C30.3933 81.1804 30.6901 80.7352 31.1353 80.7352C31.5804 80.8836 31.8772 81.1804 31.8772 81.4772Z" fill="white"/>
<path d="M74.1681 83.1114C74.6133 82.6663 74.9101 82.3695 75.2069 81.9243C77.2843 79.1049 78.9166 75.5436 78.0262 73.6145C77.4327 72.4274 73.2778 61.1498 73.2778 61.1498L63.0389 63.6725L68.6777 75.5436C68.6777 75.5436 67.7874 77.3243 66.7487 79.6985C68.6777 79.2533 71.9423 79.2533 74.1681 83.1114Z" fill="#FFB680"/>
<path d="M61.555 100.323C63.3357 102.846 66.7486 102.698 67.1938 101.065C67.4906 100.175 65.2647 98.6912 65.2647 98.6912C65.2647 98.6912 67.0454 95.4266 67.7873 91.4201C68.3809 88.3039 71.9422 85.4845 74.1681 83.1103C73.7229 79.9941 68.9745 78.6586 67.0454 79.1038C65.4131 82.5167 62.7421 87.8587 61.555 89.7878C58.5872 94.3879 59.7743 97.8008 61.555 100.323Z" fill="#3C3C3C"/>
</g>
</svg>
