<svg width="40" height="40" viewBox="0 0 40 40" fill="none" xmlns="http://www.w3.org/2000/svg">
<path d="M14.9987 3.3335C10.632 3.3335 7.08203 6.8835 7.08203 11.2502C7.08203 15.5335 10.432 19.0002 14.7987 19.1502C14.932 19.1335 15.0654 19.1335 15.1654 19.1502C15.1987 19.1502 15.2154 19.1502 15.2487 19.1502C15.2654 19.1502 15.2654 19.1502 15.282 19.1502C19.5487 19.0002 22.8987 15.5335 22.9154 11.2502C22.9154 6.8835 19.3654 3.3335 14.9987 3.3335Z" fill="white"/>
<path d="M23.4656 23.5833C18.8156 20.4833 11.2323 20.4833 6.54896 23.5833C4.43229 25 3.26562 26.9166 3.26562 28.9666C3.26562 31.0166 4.43229 32.9166 6.53229 34.3166C8.86563 35.8833 11.9323 36.6666 14.999 36.6666C18.0656 36.6666 21.1323 35.8833 23.4656 34.3166C25.5656 32.9 26.7323 31 26.7323 28.9333C26.7156 26.8833 25.5656 24.9833 23.4656 23.5833Z" fill="white"/>
<path d="M33.3156 12.2332C33.5823 15.4665 31.2823 18.2998 28.099 18.6832C28.0823 18.6832 28.0823 18.6832 28.0656 18.6832H28.0156C27.9156 18.6832 27.8156 18.6832 27.7323 18.7165C26.1156 18.7998 24.6323 18.2832 23.5156 17.3332C25.2323 15.7998 26.2156 13.4998 26.0156 10.9998C25.899 9.64984 25.4323 8.41651 24.7323 7.36651C25.3656 7.04984 26.099 6.84984 26.849 6.78317C30.1156 6.49984 33.0323 8.93317 33.3156 12.2332Z" fill="white"/>
<path d="M36.6497 27.6498C36.5164 29.2665 35.4831 30.6665 33.7497 31.6165C32.0831 32.5332 29.9831 32.9665 27.8997 32.9165C29.0997 31.8332 29.7997 30.4832 29.9331 29.0498C30.0997 26.9832 29.1164 24.9998 27.1497 23.4165C26.0331 22.5332 24.7331 21.8332 23.3164 21.3165C26.9997 20.2498 31.6331 20.9665 34.4831 23.2665C36.0164 24.4998 36.7997 26.0498 36.6497 27.6498Z" fill="white"/>
</svg>
