<svg width="64" height="64" viewBox="0 0 64 64" fill="none" xmlns="http://www.w3.org/2000/svg">
<g clip-path="url(#clip0_2632_23888)">
<path d="M36 26.1299H28V33.9999H36V26.1299Z" fill="#FBBD80"/>
<path d="M27.9999 32L22.3699 32.94C19.5399 33.41 17.2899 35.4 16.4099 38L31.9999 40C31.9999 40 47.5919 38.006 47.5899 38C46.7099 35.4 44.4599 33.41 41.6299 32.94L35.9999 32C33.7899 34.21 30.2099 34.21 27.9999 32Z" fill="#FB4455"/>
<path fill-rule="evenodd" clip-rule="evenodd" d="M35.528 32.422L38.63 32.94C41.46 33.41 43.71 35.4 44.59 38C44.592 38.004 34.41 39.307 30.502 39.807L32 40C32 40 47.592 38.006 47.59 38C46.71 35.4 44.46 33.41 41.63 32.94L36 32C35.849 32.15 35.692 32.291 35.528 32.422Z" fill="#DA4455"/>
<path d="M50 38H14V62H50V38Z" fill="#E29A6C"/>
<path fill-rule="evenodd" clip-rule="evenodd" d="M50 38C42.028 51.112 29.933 58.992 14 62H50V38Z" fill="#D48C64"/>
<path d="M30 38V44L32 42L34 44V38H30Z" fill="#615260"/>
<path fill-rule="evenodd" clip-rule="evenodd" d="M18 59H20C20.552 59 21 58.552 21 58C21 57.448 20.552 57 20 57H18C17.448 57 17 57.448 17 58C17 58.552 17.448 59 18 59ZM18 55H22C22.552 55 23 54.552 23 54C23 53.448 22.552 53 22 53H18C17.448 53 17 53.448 17 54C17 54.552 17.448 55 18 55Z" fill="#615260"/>
<path d="M14 51.9999C12.9 51.9999 12 51.0999 12 49.9999V47.9999C12 46.8999 12.9 45.9999 14 45.9999C15.1 45.9999 16 46.8999 16 47.9999V49.9999C16 51.0999 15.1 51.9999 14 51.9999ZM24 14.9199V19.9999C24 24.4199 27.58 27.9999 32 27.9999C36.42 27.9999 40 24.4199 40 19.9999V14.9199H24Z" fill="#FFD18D"/>
<path d="M40 14.9209H37V20.0009C37 23.9079 34.202 27.1589 30.5 27.8609C30.986 27.9529 31.487 28.0009 32 28.0009C36.42 28.0009 40 24.4209 40 20.0009V14.9209Z" fill="#FBBD80"/>
<path d="M23 14.3198V11.3198C23 6.34982 27.03 2.31982 32 2.31982C36.97 2.31982 41 6.34982 41 11.3198V14.3198H23Z" fill="#FB4455"/>
<path d="M30.5 2.44482C30.988 2.36282 31.489 2.31982 32 2.31982C36.97 2.31982 41 6.34982 41 11.3198V14.3198H38V11.3198C38 6.86082 34.756 3.15882 30.5 2.44482Z" fill="#DA4455"/>
<path fill-rule="evenodd" clip-rule="evenodd" d="M30 9H34C34.552 9 35 8.552 35 8C35 7.448 34.552 7 34 7H30C29.448 7 29 7.448 29 8C29 8.552 29.448 9 30 9Z" fill="#615260"/>
<path d="M41 14.3202L38.78 17.2802C38.31 17.9002 37.5 18.1602 36.76 17.9102C33.67 16.8802 30.33 16.8802 27.24 17.9102C26.5 18.1602 25.69 17.9002 25.22 17.2802L23 14.3202C28.45 10.6902 35.55 10.6902 41 14.3202Z" fill="#615260"/>
<path d="M50 52C48.9 52 48 51.1 48 50V48C48 46.9 48.9 46 50 46C51.1 46 52 46.9 52 48V50C52 51.1 51.1 52 50 52Z" fill="#FFD18D"/>
</g>
<defs>
<clipPath id="clip0_2632_23888">
<rect width="64" height="64" fill="white"/>
</clipPath>
</defs>
</svg>
