<svg width="288" height="288" viewBox="0 0 288 288" fill="none" xmlns="http://www.w3.org/2000/svg">
<path d="M144 288C223.529 288 288 223.529 288 144C288 64.471 223.529 0 144 0C64.471 0 0 64.471 0 144C0 223.529 64.471 288 144 288Z" fill="url(#paint0_linear_3982_17978)"/>
<path d="M101.571 168.565V169.912C101.571 171.258 100.697 172.557 98.9491 173.573C95.4537 175.592 89.7939 175.592 86.2985 173.573C84.5509 172.557 83.677 171.237 83.677 169.912V168.565H101.571Z" fill="#1A1A1A"/>
<path d="M92.6238 173.735C97.565 173.735 101.571 171.421 101.571 168.566C101.571 165.712 97.565 163.397 92.6238 163.397C87.6826 163.397 83.677 165.712 83.677 168.566C83.677 171.421 87.6826 173.735 92.6238 173.735Z" fill="#4D4D4D"/>
<path d="M89.9342 135.05V168.548C89.9578 168.785 90.0437 169.011 90.183 169.204C90.3223 169.396 90.5102 169.549 90.7274 169.645C91.315 169.947 91.9659 170.104 92.6263 170.104C93.2867 170.104 93.9377 169.947 94.5253 169.645C94.745 169.546 94.9339 169.389 95.0723 169.191C95.2107 168.993 95.2934 168.762 95.3117 168.521V134.869C95.2594 135.075 95.1617 135.268 95.0256 135.432C94.8896 135.596 94.7186 135.728 94.5253 135.818C93.9283 136.116 93.2701 136.272 92.6028 136.272C91.9355 136.272 91.2773 136.116 90.6804 135.818C90.3501 135.657 90.0863 135.385 89.9342 135.05Z" fill="#1A1A1A"/>
<path d="M73.8033 136.226C76.3576 135.775 81.4259 134.119 85.412 133.884C85.8556 133.884 86.2858 133.85 86.6959 133.884C87.5966 133.884 89.7073 134.227 89.9358 135.068C90.0813 135.416 90.3459 135.7 90.6819 135.869C91.2789 136.168 91.9371 136.323 92.6044 136.323C93.2717 136.323 93.9299 136.168 94.5268 135.869C94.7202 135.78 94.8911 135.648 95.0272 135.484C95.1632 135.32 95.261 135.127 95.3133 134.92V134.88V134.772L96.4493 122.866L92.3355 122.577L73.8033 136.226Z" fill="#4D4D4D"/>
<path d="M82.4318 132.895C85.8801 130.795 85.5104 128.984 90.3233 126.79L90.619 126.656C90.8677 126.548 91.1299 126.433 91.4122 126.326C91.4301 126.323 91.4481 126.323 91.466 126.326C92.0978 126.077 92.8104 125.814 93.5901 125.552C96.5679 124.549 97.5022 122.186 94.8404 120.881L94.7328 120.827C93.7459 120.37 92.6732 120.129 91.586 120.12C90.4989 120.111 89.4222 120.333 88.4277 120.773C87.2788 121.25 86.1874 121.855 85.1743 122.577L85.1205 122.617L84.5761 122.981C83.2118 124.006 81.6652 124.762 80.0186 125.208C60.9689 131.057 67.8184 141.806 82.4318 132.895Z" fill="#808080"/>
<path d="M84.6666 122.897C85.285 125.589 88.2091 126.518 90.6222 126.659L90.3332 126.794C90.6827 126.632 91.0591 126.471 91.4692 126.302C89.903 126.215 85.6211 125.676 85.1237 122.594L84.6666 122.897Z" fill="#1A1A1A"/>
<path d="M89.8862 134.716C89.8814 134.828 89.8974 134.94 89.9332 135.046C90.0787 135.393 90.3433 135.677 90.6794 135.847C91.2763 136.145 91.9345 136.301 92.6018 136.301C93.2691 136.301 93.9273 136.145 94.5243 135.847C94.7176 135.757 94.8886 135.626 95.0246 135.461C95.1607 135.297 95.2584 135.105 95.3107 134.898C95.314 134.849 95.314 134.799 95.3107 134.75C95.2865 134.512 95.1997 134.286 95.0591 134.093C94.9186 133.9 94.7293 133.748 94.5108 133.653C93.9139 133.354 93.2557 133.199 92.5884 133.199C91.9211 133.199 91.2629 133.354 90.6659 133.653C90.4557 133.748 90.2736 133.896 90.137 134.082C90.0005 134.269 89.9141 134.487 89.8862 134.716Z" fill="#4D4D4D"/>
<path d="M85.4119 133.889C85.8555 133.889 86.2857 133.855 86.6957 133.889C87.0663 133.616 87.4086 133.307 87.7175 132.967C87.8983 132.732 88.1276 132.539 88.3897 132.401C88.7634 132.301 89.1597 132.324 89.5189 132.468C89.7502 132.544 89.9892 132.594 90.2314 132.617C90.771 132.615 91.304 132.497 91.7944 132.272C92.2849 132.047 92.7215 131.719 93.0748 131.311C93.9016 130.443 94.4662 129.043 93.9486 128.302C93.552 127.744 92.7925 127.771 92.127 127.798C91.9388 127.798 91.7573 127.798 91.5893 127.798C91.4361 127.807 91.2836 127.77 91.1523 127.69C91.0717 127.602 90.9641 127.306 91.4212 126.344C91.1389 126.451 90.8767 126.566 90.628 126.674C90.5104 126.893 90.4556 127.14 90.4699 127.388C90.4841 127.637 90.5668 127.876 90.7087 128.08C90.8243 128.186 90.9602 128.268 91.108 128.32C91.2559 128.372 91.4127 128.393 91.5691 128.383C91.7573 128.383 91.9522 128.383 92.1472 128.383C92.6849 128.383 93.2496 128.343 93.4579 128.632C93.6663 128.922 93.4176 130.072 92.6446 130.887C92.35 131.229 91.9875 131.505 91.58 131.699C91.1726 131.892 90.7293 131.999 90.2785 132.011C90.0782 131.984 89.8804 131.942 89.687 131.883C89.2142 131.701 88.6954 131.678 88.2082 131.816C87.848 131.978 87.5322 132.225 87.2873 132.536C86.7825 133.134 86.1384 133.599 85.4119 133.889Z" fill="#1A1A1A"/>
<g style="mix-blend-mode:multiply" opacity="0.2">
<path d="M230.744 202.851C228.358 203.84 224.695 203.975 220.541 202.178C216.387 200.381 215.466 196.06 210.081 193.892C209.268 193.556 208.388 193.28 207.514 193.017C203.844 191.887 200.153 190.897 200.671 186.576C200.825 185.358 201.545 184.376 210.935 184.833C218.813 185.217 233.117 197.621 233.615 199.64C233.615 199.694 232.506 202.117 230.744 202.851Z" fill="#754C24"/>
</g>
<g style="mix-blend-mode:multiply" opacity="0.2">
<path d="M78.0643 220.095C91.3546 220.095 102.129 213.866 102.129 206.183C102.129 198.5 91.3546 192.271 78.0643 192.271C64.774 192.271 54 198.5 54 206.183C54 213.866 64.774 220.095 78.0643 220.095Z" fill="#754C24"/>
</g>
<g style="mix-blend-mode:multiply" opacity="0.2">
<path d="M100.084 165.724C95.8426 163.281 88.9728 163.281 84.7381 165.724C82.2644 167.158 81.2427 169.089 81.6662 170.974C63.4163 176.89 70.239 187.295 84.6977 178.485C85.863 177.769 86.9087 176.874 87.7965 175.833C91.8296 176.924 96.7568 176.506 100.084 174.595C104.326 172.145 104.326 168.174 100.084 165.724Z" fill="#754C24"/>
</g>
<g style="mix-blend-mode:multiply" opacity="0.2">
<path d="M189.943 212.784H189.829C189.601 212.78 189.38 212.714 189.187 212.594C188.994 212.473 188.838 212.303 188.735 212.1C188.632 211.897 188.586 211.67 188.602 211.443C188.619 211.216 188.696 210.998 188.827 210.812C193.889 203.954 191.583 195.709 181.903 190.109C173.622 185.324 162 183.654 151.386 185.102C149.441 185.33 147.471 184.994 145.712 184.132C143.953 183.27 142.478 181.92 141.465 180.242C140.061 178.179 138.185 176.483 135.993 175.295C126.683 169.911 111.546 169.965 102.343 175.437C93.5378 180.673 93.7596 189.571 102.646 194.645C106.813 197.041 112.144 198.347 117.575 198.569C119.684 198.636 121.712 199.398 123.344 200.737C124.976 202.076 126.121 203.916 126.603 205.973C126.617 206.012 126.628 206.053 126.636 206.094L115.317 210.879C114.919 211.971 114.299 212.968 113.496 213.807C112.693 214.646 111.724 215.309 110.652 215.752C105.274 217.98 101.174 221.305 101.523 223.829C101.523 224.031 101.57 224.212 101.604 224.401C101.832 225.012 102.274 225.519 102.848 225.828L103.11 225.976C103.73 226.313 104.395 226.558 105.086 226.703C108.783 227.504 113.616 226.03 116.99 224.441C118.217 223.85 119.211 222.864 119.814 221.641C122.549 217.152 124.371 218.276 128.552 216.728L128.908 216.593L129.365 216.398C130.371 215.943 131.47 215.733 132.573 215.783C133.675 215.833 134.75 216.143 135.711 216.688L135.832 216.762C143.488 221.184 153.981 222.947 163.943 222.045C164.412 222.009 164.885 222.069 165.331 222.22C165.777 222.372 166.188 222.612 166.54 222.926C166.891 223.24 167.176 223.622 167.376 224.049C167.577 224.476 167.689 224.939 167.707 225.41C167.868 227.43 169.905 228.776 173.595 228.951C179.934 229.227 193.344 223.755 197.848 219.292C202.526 214.635 196.497 213.053 189.943 212.784Z" fill="#754C24"/>
</g>
<path d="M76.2369 204.746L77.6283 202.343L58.6794 191.386L57.7249 194.044L76.2369 204.746Z" fill="#C7B299"/>
<path d="M96.1949 191.551L75.96 203.249L77.3481 205.656L97.583 193.958L96.1949 191.551Z" fill="#C7B299"/>
<path d="M59.633 194.05L77.6275 183.651L76.236 181.242L58.4029 191.553L59.633 194.05Z" fill="#C7B299"/>
<path d="M96.1929 194.437L96.744 191.549L77.3447 180.336L75.96 182.746L96.1929 194.437Z" fill="#C7B299"/>
<path d="M77.4935 216.585C76.3642 216.585 75.4769 217.218 75.4769 217.992C75.4769 218.766 76.3911 219.399 77.4935 219.399C78.5959 219.399 79.5437 218.773 79.5437 217.992C79.5437 217.211 78.6228 216.585 77.4935 216.585Z" fill="#C7B299"/>
<path d="M77.4935 196.072C76.3642 196.072 75.4769 196.704 75.4769 197.478C75.4769 198.252 76.3911 198.885 77.4935 198.885C78.5959 198.885 79.5437 198.252 79.5437 197.478C79.5437 196.704 78.6228 196.072 77.4935 196.072Z" fill="#E3D1B3"/>
<path d="M59.3302 204.252C59.3302 203.472 58.4093 202.846 57.28 202.846C56.1507 202.846 55.2634 203.472 55.2634 204.252C55.2634 205.033 56.1843 205.652 57.28 205.652C58.3757 205.652 59.3302 205.026 59.3302 204.252Z" fill="#C7B299"/>
<path d="M100.328 207.053C100.328 206.279 99.4075 205.646 98.2783 205.646C97.149 205.646 96.2281 206.279 96.2281 207.053C96.2281 207.827 97.149 208.46 98.2783 208.46C99.4075 208.46 100.328 207.834 100.328 207.053Z" fill="#C7B299"/>
<path d="M77.4933 169.448C76.0212 169.448 74.8046 170.269 74.8046 171.278C74.8046 172.288 75.9943 173.109 77.4933 173.109C78.9923 173.109 80.1821 172.288 80.1821 171.278C80.1821 170.269 78.9654 169.448 77.4933 169.448Z" fill="#E3D1B3"/>
<path d="M68.695 163.405C68.695 162.395 67.5053 161.581 66.0063 161.581C64.5073 161.581 63.3175 162.395 63.3175 163.405C63.3175 164.415 64.5073 165.236 66.0063 165.236C67.5053 165.236 68.695 164.421 68.695 163.405Z" fill="#E3D1B3"/>
<path d="M91.622 163.405C91.622 162.395 90.4255 161.581 88.9333 161.581C87.441 161.581 86.2445 162.395 86.2445 163.405C86.2445 164.415 87.4343 165.236 88.9333 165.236C90.4322 165.236 91.622 164.421 91.622 163.405Z" fill="#E3D1B3"/>
<path d="M96.2331 207.063H100.327L91.6219 163.416H86.2914L96.2331 207.063Z" fill="#C7B299"/>
<path d="M59.3309 204.249H55.2306L63.3708 163.416H68.7012L59.3309 204.249Z" fill="#C7B299"/>
<path d="M75.4964 218H79.4959L80.1613 171.284H74.8309L75.4964 218Z" fill="#C7B299"/>
<path d="M77.4912 177.618C88.4056 177.618 97.2535 172.505 97.2535 166.197C97.2535 159.889 88.4056 154.775 77.4912 154.775C66.5767 154.775 57.7289 159.889 57.7289 166.197C57.7289 172.505 66.5767 177.618 77.4912 177.618Z" fill="#1A1A1A"/>
<path d="M63.5254 154.795C55.802 159.25 55.802 166.486 63.5254 170.948C71.2489 175.41 83.7515 175.41 91.4682 170.948C99.1849 166.486 99.1849 159.25 91.4682 154.795C83.7515 150.339 71.2354 150.333 63.5254 154.795Z" fill="#C7B299"/>
<path d="M91.9601 161.11C91.8327 160.968 91.6828 160.847 91.5164 160.754C91.0096 160.495 90.4487 160.36 89.8797 160.36C89.3107 160.36 88.7498 160.495 88.2429 160.754L82.1394 164.28L80.0422 164.819V165.492L83.3158 167.383L91.5164 162.672C91.7022 162.587 91.8622 162.455 91.9803 162.288C92.0983 162.121 92.1702 161.926 92.1886 161.723V161.05L91.9601 161.11Z" fill="#534741"/>
<path d="M88.2429 160.071L80.0422 164.783L83.3158 166.674L91.5164 161.963C92.4172 161.438 92.4172 160.617 91.5164 160.071C91.0096 159.813 90.4487 159.678 89.8797 159.678C89.3107 159.678 88.7498 159.813 88.2429 160.071Z" fill="#998675"/>
<path d="M91.5159 160.071C91.009 159.813 90.4481 159.678 89.8791 159.678C89.3101 159.678 88.7492 159.813 88.2424 160.071L75.6187 167.374L75.6657 171.123L91.5159 161.963C92.4166 161.438 92.4166 160.59 91.5159 160.071Z" fill="#9D9D9C"/>
<path d="M74.8376 167.726L74.8309 171.515L75.6644 171.138L75.6174 167.383L74.8376 167.726Z" fill="#9D9D9C"/>
<path d="M91.5146 159.883C91.0078 159.625 90.4469 159.49 89.8779 159.49C89.3089 159.49 88.748 159.625 88.2411 159.883L75.6107 167.186L75.6577 170.935L91.5146 161.775C92.4154 161.23 92.4154 160.375 91.5146 159.883Z" fill="white"/>
<path d="M74.8376 167.717L74.8309 171.506L75.6577 170.907L75.6106 167.152L74.8376 167.717Z" fill="#E6E6E6"/>
<path d="M91.9578 160.235C91.8326 160.088 91.6824 159.965 91.5142 159.871C91.0073 159.612 90.4464 159.478 89.8774 159.478C89.3084 159.478 88.7475 159.612 88.2406 159.871L82.1371 163.405L80.0399 163.943V164.616L83.3135 166.508L91.5142 161.796C91.6999 161.712 91.8599 161.579 91.978 161.412C92.096 161.246 92.1679 161.051 92.1863 160.847V160.174L91.9578 160.235Z" fill="#534741"/>
<path d="M88.2406 159.209L80.0399 163.92L83.3135 165.805L91.5142 161.094C92.4149 160.575 92.4149 159.748 91.5142 159.202C91.0058 158.948 90.445 158.816 89.8766 158.817C89.3082 158.818 88.7479 158.952 88.2406 159.209Z" fill="#998675"/>
<path d="M89.9368 160.44C90.2969 160.44 90.5888 160.272 90.5888 160.063C90.5888 159.855 90.2969 159.687 89.9368 159.687C89.5767 159.687 89.2848 159.855 89.2848 160.063C89.2848 160.272 89.5767 160.44 89.9368 160.44Z" fill="#534741"/>
<path d="M75.9257 170.578L82.3115 166.116L82.9635 166.513L75.9257 170.578Z" fill="#E6E6E6"/>
<path d="M102.142 221.907C102.141 222.1 102.168 222.293 102.223 222.479C102.427 223.084 102.849 223.593 103.406 223.906L103.655 224.054C107.231 226.127 113.065 224.451 116.877 222.519C118.061 221.914 119.008 220.928 119.565 219.719C122.174 215.23 123.901 216.354 127.901 214.806C130.811 213.695 132.693 211.602 130.206 209.94L130.099 209.872C128.149 208.748 125.931 208.594 123.377 209.374C122.034 209.803 120.739 210.369 119.512 211.064C117.58 212.108 115.534 212.923 113.415 213.493C111.462 214.009 109.579 214.762 107.809 215.735C105.154 217.323 102.142 219.82 102.142 221.907Z" fill="black"/>
<path d="M102.141 221.906C102.141 222.108 102.188 222.29 102.222 222.478C102.426 223.084 102.848 223.592 103.405 223.905L103.654 224.053C104.241 224.389 104.875 224.634 105.536 224.78C109.058 225.574 113.662 224.141 116.875 222.519C118.06 221.914 119.007 220.927 119.564 219.719C122.172 215.229 123.9 216.353 127.899 214.805C128.014 214.758 128.128 214.718 128.235 214.664C130.077 213.91 131.489 212.813 131.442 211.73C131.247 206.911 128.511 206.769 127.409 203.572L115.262 208.957C114.895 210.031 114.311 211.018 113.547 211.856C112.782 212.694 111.854 213.366 110.819 213.83C105.71 216.051 101.812 219.382 102.141 221.906Z" fill="#998675"/>
<path d="M127.018 204.484L118.018 209.686C117.666 209.866 117.277 209.959 116.882 209.959C116.487 209.959 116.098 209.866 115.746 209.686C115.597 209.653 115.465 209.569 115.37 209.45C115.275 209.331 115.223 209.183 115.223 209.03C115.223 208.878 115.275 208.73 115.37 208.611C115.465 208.491 115.597 208.408 115.746 208.374L124.746 203.171C125.098 202.992 125.488 202.899 125.882 202.899C126.277 202.899 126.666 202.992 127.018 203.171C127.167 203.205 127.3 203.289 127.395 203.408C127.49 203.527 127.541 203.675 127.541 203.828C127.541 203.98 127.49 204.128 127.395 204.247C127.3 204.367 127.167 204.45 127.018 204.484Z" fill="#C7B299"/>
<g style="mix-blend-mode:multiply" opacity="0.3">
<path d="M105.542 224.777C109.057 225.571 113.662 224.138 116.875 222.516C118.059 221.911 119.006 220.925 119.564 219.716C122.172 215.227 123.899 216.351 127.899 214.803C128.013 214.755 128.127 214.715 128.235 214.661C124.699 215.334 120.895 214.594 119.57 211.007C119.449 210.684 118.676 210.381 118.589 211.007C118.32 212.925 118.643 214.937 118.018 216.768C115.954 222.805 108.681 224.643 105.542 224.777Z" fill="#998675"/>
</g>
<g style="mix-blend-mode:multiply">
<path d="M125.212 203.554C124.896 203.742 124.896 204.039 125.212 204.227C125.389 204.32 125.587 204.368 125.787 204.368C125.987 204.368 126.184 204.32 126.361 204.227C126.677 204.045 126.677 203.749 126.361 203.554C126.183 203.465 125.986 203.418 125.787 203.418C125.587 203.418 125.39 203.465 125.212 203.554Z" fill="#534741"/>
</g>
<g style="mix-blend-mode:multiply">
<path d="M116.317 208.55C116.001 208.738 116.001 209.034 116.317 209.223C116.495 209.315 116.692 209.364 116.892 209.364C117.092 209.364 117.289 209.315 117.467 209.223C117.789 209.041 117.789 208.745 117.467 208.55C117.288 208.46 117.091 208.414 116.892 208.414C116.692 208.414 116.496 208.46 116.317 208.55Z" fill="#534741"/>
</g>
<path d="M118.106 184.101L119.41 181.846L101.637 171.575L100.737 174.065L118.106 184.101Z" fill="#C7B299"/>
<path d="M136.824 171.724L117.847 182.695L119.147 184.951L138.125 173.98L136.824 171.724Z" fill="#C7B299"/>
<path d="M102.539 174.06L119.411 164.301L118.107 162.046L101.383 171.718L102.539 174.06Z" fill="#C7B299"/>
<path d="M136.825 174.433L137.336 171.72L119.147 161.201L117.843 163.462L136.825 174.433Z" fill="#C7B299"/>
<path d="M119.288 195.202C118.226 195.202 117.365 195.794 117.365 196.548C117.365 197.302 118.226 197.894 119.288 197.894C120.35 197.894 121.204 197.308 121.204 196.548C121.204 195.787 120.343 195.202 119.288 195.202Z" fill="#C7B299"/>
<path d="M119.288 175.964C118.226 175.964 117.365 176.556 117.365 177.31C117.365 178.064 118.226 178.656 119.288 178.656C120.35 178.656 121.204 178.064 121.204 177.31C121.204 176.556 120.343 175.964 119.288 175.964Z" fill="#E3D1B3"/>
<path d="M102.25 183.629C102.25 182.902 101.39 182.283 100.328 182.283C99.2658 182.283 98.4054 182.875 98.4054 183.629C98.4054 184.383 99.2658 184.975 100.328 184.975C101.39 184.975 102.25 184.356 102.25 183.629Z" fill="#C7B299"/>
<path d="M140.698 186.262C140.698 185.535 139.838 184.916 138.783 184.916C137.727 184.916 136.86 185.508 136.86 186.262C136.86 187.015 137.721 187.608 138.783 187.608C139.845 187.608 140.698 186.989 140.698 186.262Z" fill="#754C24"/>
<path d="M119.289 150.991C117.905 150.991 116.789 151.765 116.789 152.707C116.789 153.65 117.905 154.424 119.289 154.424C120.674 154.424 121.783 153.656 121.783 152.707C121.783 151.758 120.667 150.991 119.289 150.991Z" fill="#E3D1B3"/>
<path d="M111.036 145.328C111.036 144.379 109.92 143.611 108.536 143.611C107.151 143.611 106.035 144.379 106.035 145.328C106.035 146.277 107.158 147.044 108.536 147.044C109.914 147.044 111.036 146.277 111.036 145.328Z" fill="#E3D1B3"/>
<path d="M132.537 145.328C132.537 144.379 131.415 143.611 130.037 143.611C128.659 143.611 127.536 144.379 127.536 145.328C127.536 146.277 128.659 147.044 130.037 147.044C131.415 147.044 132.537 146.277 132.537 145.328Z" fill="#E3D1B3"/>
<path d="M136.859 186.272H140.704L132.537 145.33H127.536L136.859 186.272Z" fill="#C7B299"/>
<path d="M102.25 183.633H98.4054L106.041 145.33H111.036L102.25 183.633Z" fill="#C7B299"/>
<path d="M117.414 196.53H121.165L121.79 152.714H116.789L117.414 196.53Z" fill="#C7B299"/>
<path d="M106.183 140.366C98.9434 144.546 98.9434 151.33 106.183 155.516C113.422 159.703 125.152 159.703 132.398 155.516C139.644 151.33 139.638 144.546 132.398 140.366C125.159 136.187 113.422 136.187 106.183 140.366Z" fill="#1A1A1A"/>
<path d="M119.289 155.537C129.524 155.537 137.821 150.74 137.821 144.822C137.821 138.904 129.524 134.107 119.289 134.107C109.054 134.107 100.757 138.904 100.757 144.822C100.757 150.74 109.054 155.537 119.289 155.537Z" fill="#C7B299"/>
<path d="M141.309 92.7874L150.855 76.6343C160.581 85.8483 169.32 95.0287 174.926 104.263C175.938 105.425 176.87 106.655 177.715 107.944L165.394 115.086L162.154 110.98L141.309 92.7874Z" fill="#BB6125"/>
<path d="M161.543 191.92V195.245C163.56 197.163 165.617 198.967 167.25 198.859C170.08 205.132 174.046 208.484 178.96 209.419C184.25 209.574 186.354 207.4 186.354 204.344C185.95 199.559 177.844 195.938 176.62 190.742C175.518 187.283 174.234 183.231 174.879 178.89H163.23L161.543 191.92Z" fill="#1A1A1A"/>
<path d="M125.003 124.395C125.36 123.049 125.87 121.46 126.462 119.165L141.445 118.613L145.243 118.479C152.503 121.42 156.482 124.018 172.803 140.373C173.643 141.194 174.49 142.062 175.391 142.964C177.804 146.02 177.226 148.49 177.111 150.583C177.111 150.643 177.111 150.704 177.111 150.771C177.111 150.839 176.211 182.405 176.211 189.573C173.206 192.595 165.53 192.5 162.034 188.179C160.434 187.91 158.001 160.699 159.392 155.2C156.457 152.618 153.139 150.506 149.558 148.941C139.173 144.075 127.524 141.537 124.755 130.546C124.674 130.163 124.62 129.799 124.573 129.463C124.34 127.762 124.487 126.031 125.003 124.395Z" fill="#666666"/>
<path d="M138.223 200.971L137.551 208.193C138.585 210.174 140.189 211.799 142.155 212.857C145.301 218.961 149.664 222.111 155.088 222.656C159.901 223.08 162.892 221.431 163.242 218.457C162.771 211.867 153.401 208.973 152.352 203.609L150.396 182.65L144.763 186.487L138.223 200.971Z" fill="#1A1A1A"/>
<path d="M106.257 133.773C109.987 148.493 124.406 152.04 135.618 162.391C135.537 162.721 135.456 163.064 135.396 163.394C134.763 166.794 134.585 170.264 134.865 173.712C134.865 174.223 134.912 174.748 134.932 175.293C135.524 189.313 137.083 198.238 138.105 202.693C138.858 207.135 153.323 205.554 152.254 202.693C152.187 197.982 153.195 163.569 153.269 160.682C153.269 159.006 153.337 157.949 153.337 157.949C153.432 155.812 152.869 153.697 151.723 151.891L149.559 148.445L143.449 138.801L137.325 129.109L134.636 124.815L130.879 118.831H130.462L126.463 118.683L108.119 118.01C107.756 119.437 107.446 120.857 107.097 122.277C106.136 126.598 105.631 130.61 106.257 133.773Z" fill="#666666"/>
<path d="M106.806 122.662C106.84 122.871 106.887 123.066 106.927 123.261C109.428 126.626 114.59 128.746 120.572 129.123C128.793 129.648 138.574 126.929 145.208 119.788C146.512 117.15 147.816 114.713 149.046 112.344C149.671 111.146 150.283 109.955 150.861 108.77C153.839 102.713 156.151 96.7901 156.797 88.9357C156.857 88.1953 156.904 87.428 156.938 86.6406C157.119 82.0033 159.795 78.1534 158.598 73.3277C154.565 69.6259 149.282 67.876 143.481 69.4105C142.338 69.7114 141.226 70.1192 140.16 70.6288C136.888 72.2507 133.938 74.4562 131.455 77.1371C124.323 78.6986 119.45 82.0235 115.833 86.3713C114.039 88.7118 112.571 91.2863 111.471 94.0239C110.385 96.6642 109.563 99.4056 109.017 102.208C107.478 109.645 106.134 118.691 106.806 122.662Z" fill="#BB6125"/>
<path d="M106.397 125.949L112.81 129.18C112.804 130.537 113.103 131.879 113.685 133.106C114.267 134.333 115.116 135.413 116.171 136.267L131.88 148.9C134.276 150.824 136.209 153.262 137.538 156.035C138.866 158.807 139.556 161.843 139.556 164.918V180.459C150.815 182.007 163.083 178.09 170.477 172.295C173.488 169.933 175.693 167.247 176.681 164.488C177.83 158.394 177.905 152.146 176.903 146.026C176.686 144.701 176.069 143.475 175.135 142.513C164.676 131.609 154.532 121.063 146.076 118.821C149.538 112.959 152.173 108.12 153.289 103.341C153.765 101.432 153.973 99.4658 153.907 97.4992C153.8 86.7304 150.372 78.0481 143.717 71.4858H138.534C148.026 78.2163 151.918 86.7977 150.385 97.2232L133.338 100.588C134.757 90.6206 133.258 82.7661 126.825 78.5192L123 80.323C128.821 86.8044 131.739 93.9724 127.463 102.81L119.317 115.745L115.888 121.13L113.603 124.751L106.639 121.164L106.397 125.949Z" fill="#0099A8"/>
<g style="mix-blend-mode:multiply" opacity="0.5">
<path d="M114.276 117.477L115.89 121.166L120.252 131.066C128.211 139.816 138.899 143.235 156.792 146.714L162.217 160.128L170.559 172.297C173.57 169.935 175.775 167.249 176.763 164.49C177.912 158.396 177.987 152.148 176.985 146.028C176.768 144.704 176.151 143.477 175.217 142.515C164.677 131.611 154.534 121.065 146.078 118.823C149.539 112.961 152.174 108.122 153.29 103.343C152.793 104.05 145.043 115.162 139.591 116.804C133.972 118.48 124.87 113.836 124.87 113.836L119.318 115.754L114.276 117.477Z" fill="#333333"/>
</g>
<path d="M114.404 90.209C110.909 98.0836 106.553 111.356 110.801 123.646C116.562 131.487 131.639 137.174 147.543 136.609C146.481 134.011 149.983 130.861 151.294 129.333C128.44 120.799 130.12 118.894 124.077 116.236C125.966 110.979 128.07 101.429 128.11 93.8838C126.396 81.4594 119.183 84.34 114.404 90.209Z" fill="#BB6125"/>
<path d="M200.623 213.951V215.392C200.623 216.785 199.702 218.178 197.861 219.241C194.184 221.375 188.215 221.375 184.538 219.241C182.696 218.178 181.775 216.785 181.775 215.392V213.951H200.623Z" fill="#1A1A1A"/>
<path d="M184.538 210.099C180.854 212.226 180.854 215.679 184.538 217.805C188.221 219.932 194.184 219.932 197.861 217.805C201.537 215.679 201.544 212.226 197.861 210.099C194.177 207.972 188.215 207.972 184.538 210.099Z" fill="#4D4D4D"/>
<path d="M188.371 157.624V213.938C188.394 214.188 188.483 214.426 188.628 214.63C188.773 214.833 188.97 214.994 189.198 215.096C189.823 215.416 190.514 215.582 191.215 215.582C191.916 215.582 192.607 215.416 193.231 215.096C193.464 214.993 193.664 214.828 193.809 214.619C193.955 214.41 194.041 214.166 194.058 213.911V157.463C194.005 157.682 193.903 157.885 193.759 158.059C193.616 158.233 193.436 158.372 193.231 158.466C192.605 158.778 191.915 158.94 191.215 158.94C190.515 158.94 189.825 158.778 189.198 158.466C188.828 158.298 188.533 157.998 188.371 157.624Z" fill="#1A1A1A"/>
<path d="M171.371 158.854C174.06 158.377 179.404 156.633 183.605 156.384C184.069 156.384 184.526 156.351 184.949 156.384C185.897 156.418 188.122 156.748 188.364 157.636C188.514 158.001 188.791 158.3 189.144 158.477C189.77 158.789 190.46 158.952 191.16 158.952C191.86 158.952 192.55 158.789 193.177 158.477C193.381 158.383 193.562 158.244 193.705 158.071C193.848 157.897 193.95 157.693 194.003 157.475C194.003 157.441 194.003 157.32 194.003 157.32L195.193 144.821L190.858 144.512L171.371 158.854Z" fill="#4D4D4D"/>
<path d="M180.458 155.359C184.102 153.138 183.705 151.24 188.78 148.925L189.089 148.783C189.351 148.669 189.627 148.548 189.923 148.433C190.649 148.144 191.388 147.868 192.222 147.592C195.361 146.535 196.342 144.032 193.532 142.672L193.425 142.611C192.385 142.131 191.255 141.878 190.11 141.868C188.965 141.859 187.831 142.094 186.784 142.558C185.569 143.057 184.416 143.696 183.349 144.462L182.724 144.886C181.285 145.966 179.654 146.761 177.918 147.229C157.893 153.421 165.059 164.748 180.458 155.359Z" fill="#808080"/>
<path d="M182.817 144.826C183.489 147.653 186.548 148.636 189.089 148.784L188.779 148.925C189.149 148.75 189.552 148.582 189.983 148.407C188.336 148.313 183.819 147.734 183.294 144.497L182.817 144.826Z" fill="#1A1A1A"/>
<path d="M188.315 157.27C188.31 157.39 188.329 157.508 188.369 157.62C188.52 157.986 188.796 158.284 189.149 158.462C189.776 158.774 190.466 158.936 191.166 158.936C191.865 158.936 192.556 158.774 193.182 158.462C193.386 158.368 193.567 158.229 193.71 158.055C193.853 157.881 193.955 157.678 194.009 157.459C194.016 157.408 194.016 157.356 194.009 157.304C193.982 157.054 193.891 156.816 193.743 156.613C193.596 156.41 193.398 156.249 193.169 156.147C192.542 155.835 191.852 155.672 191.152 155.672C190.452 155.672 189.762 155.835 189.136 156.147C188.915 156.249 188.724 156.406 188.581 156.603C188.438 156.799 188.346 157.029 188.315 157.27Z" fill="#4D4D4D"/>
<path d="M183.605 156.392C184.069 156.392 184.526 156.358 184.95 156.392C185.342 156.103 185.702 155.773 186.025 155.409C186.215 155.165 186.456 154.965 186.731 154.823C187.124 154.713 187.543 154.737 187.921 154.891C188.161 154.969 188.409 155.021 188.66 155.045C189.228 155.049 189.79 154.93 190.308 154.698C190.826 154.466 191.289 154.125 191.665 153.699C192.532 152.784 193.13 151.31 192.579 150.529C192.169 149.937 191.362 149.971 190.657 149.991C190.468 149.991 190.273 149.991 190.092 149.991C189.91 149.991 189.729 149.991 189.635 149.87C189.541 149.749 189.44 149.473 189.917 148.47C189.621 148.584 189.346 148.705 189.084 148.82C188.962 149.051 188.906 149.311 188.921 149.572C188.937 149.833 189.023 150.085 189.171 150.3C189.292 150.411 189.434 150.497 189.589 150.553C189.744 150.608 189.908 150.632 190.072 150.623H190.683C191.255 150.623 191.846 150.583 192.028 150.893C192.209 151.202 191.987 152.4 191.174 153.262C190.866 153.625 190.484 153.918 190.054 154.122C189.624 154.326 189.156 154.437 188.68 154.446C188.468 154.42 188.259 154.375 188.055 154.312C187.623 154.107 187.133 154.062 186.671 154.185C186.21 154.308 185.807 154.592 185.534 154.985C185.011 155.599 184.35 156.081 183.605 156.392Z" fill="#1A1A1A"/>
<path d="M168.649 162.604C173.502 163.162 178.597 158.66 181.474 161.338C183.128 162.873 180.695 171.178 182.819 174.126C187.417 177.061 192.794 172.437 195.994 170.761C196.874 165.996 195.261 158.491 195.053 154.413C194.936 153.57 195.024 152.711 195.308 151.909C196.186 150.383 196.568 148.621 196.404 146.868C196.361 146.459 196.254 146.059 196.088 145.683L191.618 142.883L163.897 155.671C163.897 155.671 163.077 161.944 168.649 162.604Z" fill="#754C24"/>
<path d="M188.812 150.695C189.303 151.402 189.839 152.077 190.419 152.714C190.871 153.229 191.407 153.664 192.005 153.999C192.944 154.492 194.024 154.646 195.063 154.437C194.947 153.594 195.034 152.735 195.319 151.933C196.196 150.407 196.579 148.646 196.414 146.892L196.199 146.488L188.812 150.695Z" fill="#603813"/>
<path d="M163.177 155.842L163.896 155.627C165.079 153.769 167.526 151.884 169.744 150.545C171.798 149.415 173.984 148.542 176.251 147.947C178.714 147.283 181.092 146.335 183.336 145.12C184.759 144.315 186.262 143.659 187.819 143.162C190.811 142.253 193.392 142.435 195.65 143.74L195.778 143.815C195.991 143.941 196.194 144.085 196.383 144.245L197.203 143.613V145.78C197.203 147.126 195.476 148.553 193.083 149.461C188.445 151.225 186.435 149.959 183.403 155.176C182.753 156.578 181.653 157.723 180.277 158.426C175.828 160.668 169.079 162.613 164.925 160.21C164.824 160.156 164.73 160.096 164.636 160.035C164.209 159.811 163.849 159.479 163.591 159.071C163.334 158.663 163.189 158.195 163.17 157.713C163.17 157.713 163.177 155.842 163.177 155.842Z" fill="black"/>
<path d="M176.25 146.095C178.797 145.39 181.255 144.396 183.577 143.133C183.765 143.032 183.577 142.252 183.577 141.868C184.8 141.531 185.99 141.242 187.664 140.879C190.349 140.189 193.196 140.552 195.622 141.895L195.75 141.969C198.755 143.773 196.597 145.543 193.007 146.916C191.647 147.385 190.21 147.588 188.773 147.515C188.773 147.952 188.773 148.336 188.773 148.821C186.756 149.339 185.291 150.066 183.395 153.33C182.747 154.732 181.646 155.875 180.27 156.574C175.82 158.815 169.071 160.767 164.917 158.364L164.628 158.189C160.642 155.612 165.569 151.196 169.723 148.693C171.786 147.567 173.978 146.694 176.25 146.095Z" fill="#998675"/>
<path d="M188.8 147.522L183.604 141.868L183.577 143.14L188.793 148.827L188.8 147.522Z" fill="#6B5E52"/>
<path d="M169.151 154.964V155.846C169.176 156.112 169.271 156.367 169.427 156.583C169.583 156.8 169.794 156.971 170.038 157.078C170.701 157.417 171.435 157.594 172.179 157.594C172.924 157.594 173.657 157.417 174.32 157.078C174.563 156.969 174.772 156.798 174.927 156.581C175.082 156.365 175.176 156.111 175.201 155.846V154.971L169.151 154.964Z" fill="#333333"/>
<path d="M174.32 153.725C175.497 154.398 175.497 155.515 174.32 156.202C173.656 156.537 172.923 156.712 172.179 156.712C171.436 156.712 170.702 156.537 170.038 156.202C168.855 155.529 168.855 154.412 170.038 153.725C170.702 153.39 171.436 153.215 172.179 153.215C172.923 153.215 173.656 153.39 174.32 153.725Z" fill="#E6E6E6"/>
<path d="M174.382 145.443L174.161 145.571C173.935 145.719 173.748 145.918 173.613 146.151C173.479 146.385 173.402 146.648 173.388 146.917V148.546C173.377 148.643 173.393 148.742 173.435 148.831C173.476 148.92 173.541 148.996 173.623 149.051L147.905 134.432C147.824 134.377 147.759 134.301 147.717 134.212C147.676 134.123 147.659 134.025 147.67 133.927V132.292C147.684 132.022 147.761 131.76 147.895 131.526C148.03 131.292 148.217 131.093 148.443 130.946L148.665 130.818C148.743 130.762 148.835 130.728 148.93 130.72C149.026 130.711 149.122 130.729 149.209 130.771L174.927 145.383C174.839 145.344 174.742 145.329 174.646 145.339C174.551 145.35 174.46 145.386 174.382 145.443Z" fill="#754C24"/>
<path d="M170.805 135.968L173.467 134.427L173.137 134.225L170.475 135.76L170.805 135.968Z" fill="#706F6F"/>
<path d="M172.944 147.257C172.944 145.635 171.506 138.978 170.806 135.963L173.495 134.422C174.167 137.437 175.734 144.053 175.734 145.675C175.734 149.37 173.717 150.945 173.233 154.782L171.741 155.636C172.184 151.807 172.944 150.952 172.944 147.257Z" fill="#CCCCCC"/>
<path d="M171.572 147.774C171.572 147.626 171.572 147.484 171.572 147.33C171.505 142.948 170.51 135.888 170.483 135.767L170.813 135.975C171.485 138.991 172.95 145.647 172.95 147.269C172.95 150.977 172.184 151.812 171.714 155.689L171.317 155.487C171.478 151.307 171.572 151.213 171.572 147.774Z" fill="#4D4D4D"/>
<path d="M175.154 145.888C175.154 145.397 174.804 145.215 174.381 145.437L174.159 145.565C173.933 145.713 173.746 145.912 173.612 146.146C173.477 146.38 173.4 146.642 173.386 146.911V148.54C173.386 149.032 173.735 149.213 174.159 148.991L174.381 148.863C174.606 148.716 174.794 148.517 174.928 148.283C175.062 148.049 175.14 147.787 175.154 147.517V145.888Z" fill="#754C24"/>
<path d="M175.154 145.888C175.154 145.397 174.804 145.215 174.381 145.437L174.159 145.565C173.933 145.713 173.746 145.912 173.612 146.146C173.477 146.38 173.4 146.642 173.386 146.911V148.54C173.386 149.032 173.735 149.213 174.159 148.991L174.381 148.863C174.606 148.716 174.794 148.517 174.928 148.283C175.062 148.049 175.14 147.787 175.154 147.517V145.888Z" fill="#754C24"/>
<path d="M146.855 135.791C145.913 132.123 148.165 127.93 152.588 129.222L158.94 132.123L162.113 138.113L158.866 136.262C156.931 136.666 157.253 137.81 157.522 139.883L160.829 141.761C160.204 141.404 157.267 144.002 157.267 144.002L150.33 141.31L146.855 135.791Z" fill="#FFBB7D"/>
<path d="M188.814 133.375C190.34 134.861 191.588 136.609 192.498 138.537L196.974 145.086C197.552 146.203 196.511 146.654 195.724 145.759L194.192 143.847L196.107 147.758C196.679 148.989 195.543 149.595 194.649 148.66L190.696 143.006L192.847 149.508C193.277 150.928 191.866 151.285 191.22 150.019L188.068 143.511L187.355 143.356L187.739 149.838C187.92 151.103 186.394 151.318 186.119 149.804L184.485 142.501L183.047 140.873L181.191 143.437L180.465 146.062C180.424 146.361 180.303 146.644 180.115 146.881C179.927 147.118 179.679 147.3 179.397 147.408C179.306 147.441 179.21 147.454 179.114 147.446C179.019 147.439 178.925 147.411 178.841 147.364C178.757 147.318 178.684 147.254 178.627 147.176C178.57 147.099 178.53 147.011 178.509 146.916L179.061 144.689L179.471 141L182.643 134.438L181.736 132.008L186.139 130.46L188.814 133.375Z" fill="#FFBB7D"/>
<path d="M187.825 132.291C185.755 132.291 183.792 133.455 181.903 136.006L165.394 115.06L177.715 107.919C182.031 114.374 185.13 122.989 187.825 132.291Z" fill="#BB6125"/>
<path d="M142.883 73.3354C142.634 73.3354 138.803 76.2094 138.803 76.2094C133.197 79.3861 139.609 94.6576 147.817 90.828L155.466 85.5042L142.883 73.3354Z" fill="#FFBB7D"/>
<g style="mix-blend-mode:multiply" opacity="0.3">
<path d="M154.941 91.842C153.463 95.9947 153.799 101.157 150.411 102.113C146.64 102.618 143.958 96.7822 142.983 90.9334L143.723 75.1841L163.216 76.6917C162.067 82.5405 159.667 88.3556 154.941 91.842Z" fill="#BB6125"/>
</g>
<path d="M152.36 60.3403C145.497 60.4076 141.605 63.645 141.309 70.8197C141.511 78.3578 141.888 82.9346 145.517 88.0564C147.783 90.9034 150.861 92.9562 154.37 92.7678C158.544 92.5591 164.715 82.5375 165.307 75.2685C166.322 67.9592 160.084 62.3393 152.36 60.3403Z" fill="#FFBB7D"/>
<path d="M164.454 80.5769C162.901 84.2383 153.793 83.5787 149.8 79.0827L149.35 81.7749L145.673 78.7126L142.473 82.8787L141.31 81.2365C138.4 75.381 138.548 65.7564 146.849 60.9037C157.947 56.4414 171.707 69.3774 164.454 80.5769Z" fill="black"/>
<path d="M144.647 81.8717C144.174 81.146 143.864 80.3262 143.739 79.4689C143.679 79.0461 143.72 78.615 143.859 78.2113C143.998 77.8075 144.231 77.4427 144.539 77.1469C144.867 76.8591 145.282 76.6905 145.718 76.6685C146.153 76.6465 146.584 76.7724 146.939 77.0258C147.159 77.2274 147.333 77.4744 147.449 77.7497C147.565 78.025 147.62 78.3222 147.611 78.6209C147.591 79.2105 147.482 79.7936 147.288 80.3506C147.14 80.8622 146.993 81.3804 146.838 81.8919C146.81 82.0745 146.745 82.2495 146.648 82.4067C146.551 82.5639 146.424 82.7001 146.273 82.8073C146.111 82.8744 145.934 82.8966 145.76 82.8718C145.586 82.8469 145.422 82.7758 145.285 82.6659C145.02 82.4481 144.803 82.1777 144.647 81.8717Z" fill="#FFBB7D"/>
<path d="M179.773 160.556L181.91 162.184C186.159 161.128 189.304 158.005 191.993 154.014C191.396 153.678 190.859 153.243 190.407 152.728C187.691 156.093 184.438 159.566 179.773 160.556Z" fill="#42210B"/>
<path d="M211.301 192.128L216.208 189.248L214.447 187.72L211.207 189.725L211.301 192.128Z" fill="#998675"/>
<path d="M206.81 182.403L203.025 184.422C202.813 185.412 202.813 186.435 203.025 187.424C203.523 189.376 207.69 191.018 211.3 192.136L211.36 190.83C215.972 192.849 217.504 197.123 220.771 199.25C224.24 201.525 229.509 201.767 231.714 201.02C234.047 200.226 235.075 198.328 234.632 196.403C233.623 191.813 225.772 188.784 225.772 188.784L206.81 182.403Z" fill="#1A1A1A"/>
<path d="M232.934 199.056C230.548 200.039 226.884 200.174 222.73 198.383C218.576 196.593 217.655 192.265 212.278 190.091C211.458 189.762 210.584 189.486 209.71 189.216C206.033 188.092 202.316 187.103 202.867 182.782C202.867 182.782 202.988 181.793 203.459 179.208C203.459 179.053 203.512 178.892 203.546 178.724C203.627 178.286 203.714 177.815 203.815 177.303C205.126 170.418 198.437 165.734 198.498 159.427C198.498 159.34 222.589 163.142 222.589 163.142C223.107 170.97 218.556 175.486 220.317 181.988C221.998 188.24 233.089 190.287 234.52 196.014C234.52 196.028 234.709 198.316 232.934 199.056Z" fill="#754C24"/>
<path d="M198.499 159.449C199.494 153.25 212.299 157.86 215.384 161.205C218.577 160.31 220.567 161.057 222.146 162.511C224.163 164.389 217.757 166.401 212.413 164.718C208.978 163.635 197.867 163.359 198.499 159.449Z" fill="black"/>
<path d="M207.043 184.415C212.374 184.57 217.798 184.456 220.319 181.999C221.123 182.736 221.658 183.722 221.838 184.799C218.834 187.282 213.98 187.525 208.583 187.033L207.043 184.415Z" fill="#42210B"/>
<path d="M209.712 189.241C206.035 188.117 202.318 187.128 202.869 182.807C202.869 182.807 202.99 181.817 203.461 179.233C203.501 180.31 204.684 182.315 206.822 184.22C208.23 185.595 209.23 187.332 209.712 189.241Z" fill="#603813"/>
<path d="M80.0466 153.207C77.9965 154.385 78.3191 155.67 75.7245 157.164C74.4204 157.952 74.2255 159.076 74.77 160.058C75.3144 161.041 76.3899 161.472 77.7679 160.731C80.3626 159.244 81.3171 160.173 83.3605 158.995C85.6191 157.649 85.9552 155.63 85.0477 154.095C84.1403 152.561 82.3321 151.982 80.0466 153.207Z" fill="#754C24"/>
<path d="M76.6932 160.772C77.0167 160.723 77.3286 160.616 77.6141 160.456C78.6101 159.865 79.7272 159.508 80.881 159.412C81.697 159.367 82.4922 159.137 83.2067 158.739C85.0754 157.622 85.4653 156.047 85.0418 154.822C85.0418 155.872 84.5041 157.01 83.0252 157.878C82.312 158.278 81.5161 158.509 80.6995 158.551C79.5457 158.646 78.4286 159.003 77.4326 159.594C77.2035 159.719 76.9596 159.814 76.7067 159.877C76.7691 160.018 76.8003 160.171 76.7979 160.326C76.7956 160.48 76.7599 160.633 76.6932 160.772Z" fill="#A67C52"/>
<path d="M75.2133 161.681L76.2552 161.082C76.366 160.999 76.4539 160.89 76.5104 160.764C76.5668 160.638 76.5901 160.499 76.5778 160.362C76.5565 159.976 76.445 159.601 76.2524 159.267C76.0597 158.932 75.7913 158.648 75.4687 158.437C75.3561 158.356 75.2243 158.305 75.0863 158.291C74.9483 158.277 74.809 158.299 74.6823 158.356L73.6404 158.962L75.2133 161.681Z" fill="#534741"/>
<path d="M73.299 159.677C73.299 158.964 73.7965 158.681 74.4082 159.004C74.7307 159.216 74.9992 159.5 75.1918 159.834C75.3845 160.169 75.4959 160.544 75.5173 160.929C75.5173 161.636 75.0198 161.925 74.4082 161.602C74.0845 161.392 73.8152 161.108 73.6224 160.773C73.4296 160.439 73.3188 160.063 73.299 159.677Z" fill="#CCCCCC"/>
<path d="M68.6529 164.043L74.6085 160.603C74.6347 160.586 74.6555 160.562 74.6685 160.533C74.6816 160.505 74.6864 160.473 74.6825 160.442C74.6771 160.358 74.6518 160.276 74.6085 160.203C74.5653 160.131 74.5053 160.069 74.4338 160.025C74.4084 160.009 74.3794 160.001 74.3497 160.001C74.3201 160.001 74.291 160.009 74.2657 160.025L68.3101 163.464C67.6379 163.874 64.6602 165.974 64.6602 165.974C64.6602 165.974 67.9606 164.447 68.6529 164.043Z" fill="white"/>
<defs>
<linearGradient id="paint0_linear_3982_17978" x1="144" y1="0" x2="144" y2="288" gradientUnits="userSpaceOnUse">
<stop stop-color="#E3ECFA" stop-opacity="0.27"/>
<stop offset="1" stop-color="#DAE7FF" stop-opacity="0.22"/>
</linearGradient>
</defs>
</svg>
