<svg width="123" height="38" viewBox="0 0 123 38" fill="none" xmlns="http://www.w3.org/2000/svg">
<g clip-path="url(#clip0_2752_16725)">
<path d="M5.43571 22.683V25.8966H1.47503V22.683H0V30.3186H1.47503V27.0954H5.43571V30.3186H6.91073V22.683" fill="white"/>
<path d="M13.9033 22.5843C14.6432 22.5696 15.3756 22.7348 16.0376 23.0657C16.6641 23.3892 17.1898 23.8785 17.5573 24.4804C17.9249 25.0823 18.1202 25.7735 18.1219 26.4788C18.1237 27.1841 17.9318 27.8763 17.5672 28.48C17.2026 29.0837 16.6793 29.5756 16.0544 29.9022C15.3842 30.237 14.6452 30.4113 13.896 30.4113C13.1469 30.4113 12.4079 30.237 11.7376 29.9022C11.2763 29.6583 10.8693 29.3231 10.5414 28.9171C10.2135 28.511 9.97151 28.0425 9.83018 27.54C9.68885 27.0375 9.65111 26.5115 9.71924 25.9939C9.78737 25.4764 9.95996 24.9781 10.2265 24.5293C10.5781 23.917 11.0952 23.4164 11.7184 23.085C12.3921 22.7334 13.1435 22.5571 13.9033 22.5723M11.2107 26.5032C11.2024 26.9814 11.3212 27.4532 11.5548 27.8705C11.7796 28.2694 12.1135 28.5959 12.5173 28.8117C12.9457 29.0373 13.424 29.1516 13.9081 29.1439C14.2619 29.1561 14.6145 29.0973 14.9452 28.9707C15.2758 28.8442 15.5777 28.6526 15.8331 28.4073C16.0838 28.1595 16.2804 27.8623 16.4105 27.5345C16.5405 27.2068 16.6012 26.8556 16.5886 26.5032C16.5962 26.0254 16.4784 25.5539 16.2469 25.1359C16.0249 24.7342 15.6904 24.4062 15.2844 24.1923C14.8544 23.966 14.3746 23.851 13.8888 23.8577C13.4026 23.85 12.9224 23.9659 12.4932 24.1947C12.0863 24.4063 11.7514 24.7338 11.5307 25.1359C11.3032 25.5552 11.188 26.0262 11.1962 26.5032" fill="white"/>
<path d="M22.1857 22.683L26.7214 28.0125V22.683H28.1628V30.3186H26.8971L22.3349 24.9024V30.3186H20.8911V22.683" fill="white"/>
<path d="M36.173 22.683V23.836H32.7128V25.8436H36.0238V26.9967H32.7128V29.1656H36.2476V30.3186H31.2378V22.683" fill="white"/>
<path d="M41.2357 22.5843C41.9875 22.5874 42.7264 22.7794 43.3845 23.1428V24.4547C42.5937 23.9732 41.8918 23.7325 41.2791 23.7325C40.9738 23.7145 40.6702 23.7892 40.408 23.9468C40.3103 24.0079 40.23 24.0932 40.1748 24.1944C40.1196 24.2955 40.0913 24.4092 40.0928 24.5245C40.0928 24.8109 40.2901 25.0781 40.6799 25.3213C40.7882 25.3959 41.2093 25.5981 41.9408 25.9351C42.463 26.1518 42.927 26.4882 43.2955 26.9172C43.5772 27.2919 43.7239 27.7509 43.7118 28.2195C43.7219 28.5203 43.6634 28.8195 43.5409 29.0943C43.4183 29.3691 43.2348 29.6125 43.0043 29.8059C42.4877 30.2251 41.8353 30.44 41.1708 30.4101C40.7456 30.4189 40.3215 30.3645 39.9123 30.2488C39.4967 30.1128 39.0992 29.9269 38.7284 29.6951V28.2508C39.5434 28.9265 40.3117 29.2651 41.0336 29.2667C41.3436 29.2804 41.65 29.1962 41.9095 29.0259C42.0132 28.9594 42.0982 28.8674 42.1563 28.7587C42.2145 28.65 42.2438 28.5282 42.2416 28.4049C42.2355 28.221 42.178 28.0424 42.0754 27.8896C41.9729 27.7368 41.8295 27.6159 41.6616 27.5407C41.3408 27.3642 40.9277 27.1548 40.4224 26.9124C39.9056 26.6987 39.4447 26.3693 39.0749 25.9496C38.7811 25.5937 38.6233 25.1449 38.6298 24.6834C38.6196 24.3888 38.6797 24.096 38.8053 23.8293C38.9308 23.5626 39.1181 23.3297 39.3517 23.15C39.8966 22.7472 40.5638 22.5448 41.2406 22.5771" fill="white"/>
<path d="M52.5067 22.683V23.836H49.7973V30.3186H48.3222V23.836H45.6128V22.683" fill="white"/>
<path d="M62.1508 22.5843C62.5795 22.5842 63.0067 22.6343 63.4237 22.7335C63.8896 22.85 64.3408 23.0187 64.7688 23.2367V24.6232C64.3579 24.3783 63.9203 24.1812 63.4646 24.0358C63.0591 23.9166 62.6384 23.8566 62.2158 23.8577C61.7067 23.8497 61.2032 23.9644 60.7479 24.1923C60.3241 24.4042 59.97 24.7334 59.7277 25.1407C59.4903 25.5569 59.3655 26.0277 59.3655 26.5068C59.3655 26.9859 59.4903 27.4568 59.7277 27.8729C59.9686 28.2773 60.3212 28.6033 60.7431 28.8117C61.2021 29.0361 61.7074 29.149 62.2182 29.1415C62.6261 29.1438 63.032 29.0829 63.4213 28.961C63.9211 28.7882 64.4043 28.5707 64.865 28.311V29.7C64.4313 29.9338 63.9729 30.1187 63.4983 30.2512C63.026 30.3674 62.5408 30.4224 62.0545 30.4149C61.3045 30.4303 60.5618 30.2652 59.8889 29.9335C59.2678 29.6259 58.7489 29.1452 58.3946 28.5493C58.0335 27.9521 57.8453 27.2662 57.8508 26.5682C57.8393 25.8387 58.0327 25.1206 58.4091 24.4956C58.7797 23.8879 59.3143 23.3973 59.9515 23.0802C60.6377 22.7407 61.395 22.5699 62.1604 22.5819" fill="white"/>
<path d="M70.3948 22.683C71.0334 22.6561 71.6591 22.8691 72.1489 23.28C72.3701 23.472 72.5456 23.7111 72.6626 23.9797C72.7796 24.2484 72.8351 24.5398 72.8251 24.8326C72.8343 25.2362 72.7174 25.6325 72.4906 25.9664C72.2377 26.3106 71.891 26.5747 71.492 26.7271C71.7416 26.8628 71.9629 27.045 72.1441 27.2639C72.4151 27.6216 72.6511 28.0045 72.8491 28.4073C73.3143 29.3317 73.66 29.9688 73.8862 30.3186H72.2404C72.1273 30.1525 71.9757 29.8853 71.7808 29.517C71.5026 28.9522 71.1933 28.4034 70.8544 27.8729C70.7029 27.6397 70.5105 27.4358 70.2865 27.2711C70.0989 27.1522 69.8805 27.0911 69.6585 27.0954H69.1291V30.3186H67.6541V22.683M70.0603 25.9423C70.3897 25.9606 70.7144 25.8569 70.9723 25.6511C71.0805 25.5516 71.1655 25.4295 71.2212 25.2934C71.2769 25.1574 71.302 25.0107 71.2947 24.8639C71.3052 24.7166 71.281 24.5689 71.2242 24.4327C71.1674 24.2964 71.0794 24.1753 70.9675 24.0792C70.6936 23.8896 70.3638 23.798 70.0314 23.8192H69.1291V25.9471L70.0603 25.9423Z" fill="white"/>
<path d="M80.1182 22.683L83.487 30.3186H81.9301L81.1385 28.4603H77.7457L77.007 30.3186H75.4622L78.6095 22.683M78.1932 27.3409H80.6572L79.3675 24.3175L78.1932 27.3409Z" fill="white"/>
<path d="M90.4386 22.683V23.836H87.2599V25.8099H90.4386V26.975H87.2599V30.3186H85.7849V22.683" fill="white"/>
<path d="M99.5149 22.683V23.836H96.8055V30.3186H95.3305V23.836H92.6187V22.683" fill="white"/>
<path d="M106.967 22.683V23.836H103.509V25.8436H106.818V26.9967H103.509V29.1656H107.042V30.3186H102.032V22.683" fill="white"/>
<path d="M112.567 22.683C113.205 22.6559 113.83 22.8689 114.318 23.28C114.54 23.472 114.716 23.711 114.833 23.9796C114.95 24.2482 115.006 24.5397 114.997 24.8327C115.005 25.2365 114.887 25.6328 114.66 25.9665C114.408 26.3106 114.062 26.5747 113.664 26.7271C113.912 26.8635 114.133 27.0457 114.313 27.2639C114.585 27.6211 114.821 28.0041 115.019 28.4074C115.485 29.3317 115.831 29.9688 116.056 30.3187H114.412C114.299 30.1526 114.147 29.8854 113.953 29.5171C113.673 28.9528 113.364 28.404 113.026 27.873C112.875 27.639 112.681 27.435 112.456 27.2712C112.268 27.1523 112.05 27.0912 111.828 27.0954H111.291V30.3187H109.819V22.683M112.225 25.9424C112.554 25.9612 112.878 25.8574 113.134 25.6511C113.245 25.5522 113.333 25.4298 113.39 25.2927C113.448 25.1557 113.474 25.0076 113.466 24.8591C113.477 24.7116 113.453 24.5637 113.395 24.4274C113.338 24.291 113.25 24.1701 113.137 24.0744C112.864 23.8845 112.535 23.7928 112.203 23.8144H111.284V25.9424H112.225Z" fill="white"/>
<path d="M120.524 22.5843C121.276 22.5871 122.015 22.7791 122.673 23.1428V24.4547C121.882 23.9732 121.181 23.7325 120.57 23.7325C120.264 23.7139 119.961 23.7887 119.699 23.9468C119.601 24.0079 119.521 24.0932 119.465 24.1944C119.41 24.2955 119.382 24.4092 119.383 24.5245C119.383 24.8109 119.578 25.0781 119.968 25.3213C120.076 25.3959 120.498 25.5981 121.231 25.9351C121.753 26.1522 122.216 26.4885 122.584 26.9172C122.866 27.2914 123.013 27.7507 123 28.2195C123.01 28.5203 122.952 28.8195 122.829 29.0943C122.707 29.3691 122.523 29.6125 122.293 29.8059C121.776 30.2251 121.124 30.44 120.459 30.4101C120.034 30.4189 119.61 30.3645 119.201 30.2488C118.785 30.1128 118.387 29.9269 118.017 29.6951V28.2508C118.832 28.9265 119.601 29.2651 120.324 29.2667C120.633 29.2801 120.939 29.1959 121.198 29.0259C121.302 28.9594 121.386 28.8674 121.445 28.7587C121.503 28.65 121.532 28.5282 121.53 28.4049C121.524 28.2213 121.466 28.0431 121.364 27.8903C121.262 27.7376 121.12 27.6165 120.952 27.5407C120.63 27.365 120.23 27.1556 119.711 26.9124C119.195 26.6987 118.734 26.3692 118.366 25.9496C118.07 25.5946 117.912 25.1452 117.92 24.6834C117.911 24.3888 117.971 24.0962 118.096 23.8295C118.222 23.5629 118.409 23.33 118.642 23.15C119.187 22.7472 119.854 22.5448 120.531 22.5771" fill="white"/>
<path d="M30.8072 37.598V37.9639H28.7402V35.3738H29.1685V37.598" fill="white"/>
<path d="M35.1048 37.598V37.9639H32.9006V35.3738H35.0687V35.7421H33.3289V36.4498H34.958V36.8205H33.3289V37.598" fill="white"/>
<path d="M39.8425 37.923V37.9639H39.3853L39.1014 37.3525H37.7274L37.4435 37.9639H36.9839V37.923L38.2279 35.3738H38.6009M38.9329 36.9842L38.4156 35.8576L37.8959 36.9842H38.9329Z" fill="white"/>
<path d="M43.6637 35.7421H42.6651V37.9639H42.2344V35.7421H41.2334V35.3738H43.6637" fill="white"/>
<path d="M48.1898 35.3738V37.9663H47.7639V36.8181H46.1854V37.9663H45.7571V35.3738H46.1854V36.4522H47.7639V35.3738" fill="white"/>
<path d="M52.7786 37.598V37.9639H50.5745V35.3738H52.7401V35.7421H51.0028V36.4498H52.6318V36.8205H51.0028V37.598" fill="white"/>
<path d="M57.3745 37.923V37.9639H56.9126L56.376 36.9794H55.4327V37.9639H55.0044V35.3738H56.4C56.9462 35.3738 57.3072 35.6939 57.3072 36.1802C57.3098 36.3392 57.2618 36.4948 57.1701 36.6247C57.0784 36.7545 56.9477 36.8518 56.797 36.9024M55.4327 36.6111H56.376C56.436 36.6155 56.4964 36.6076 56.5532 36.5876C56.6101 36.5677 56.6622 36.5362 56.7064 36.4952C56.7505 36.4542 56.7857 36.4045 56.8098 36.3493C56.8339 36.2941 56.8463 36.2344 56.8463 36.1742C56.8463 36.1139 56.8339 36.0543 56.8098 35.999C56.7857 35.9438 56.7505 35.8941 56.7064 35.8531C56.6622 35.8121 56.6101 35.7807 56.5532 35.7607C56.4964 35.7408 56.436 35.7328 56.376 35.7373H55.4327V36.6111Z" fill="white"/>
<path d="M64.5691 37.923V37.9639H64.1119L63.8352 37.3525H62.4565L62.1749 37.9639H61.7153V37.923L62.9594 35.3738H63.3323M63.6644 36.9842L63.1446 35.8576L62.6321 36.9842H63.6644Z" fill="white"/>
<path d="M68.987 37.923V37.9639H68.5226L67.9836 36.9794H67.0404V37.9639H66.6121V35.3738H68.0077C68.5539 35.3738 68.9148 35.6939 68.9148 36.1802C68.9175 36.3392 68.8695 36.4948 68.7777 36.6247C68.686 36.7545 68.5554 36.8518 68.4047 36.9024M67.0404 36.6111H67.9836C68.0437 36.6155 68.1041 36.6076 68.1609 36.5876C68.2178 36.5677 68.2699 36.5362 68.314 36.4952C68.3582 36.4542 68.3934 36.4045 68.4175 36.3493C68.4416 36.2941 68.454 36.2344 68.454 36.1742C68.454 36.1139 68.4416 36.0543 68.4175 35.999C68.3934 35.9438 68.3582 35.8941 68.314 35.8531C68.2699 35.8121 68.2178 35.7807 68.1609 35.7607C68.1041 35.7408 68.0437 35.7328 67.9836 35.7373H67.0404V36.6111Z" fill="white"/>
<path d="M73.2485 35.7421H72.2499V37.9639H71.8216V35.7421H70.8206V35.3738H73.2485" fill="white"/>
<path d="M75.7701 35.3738H75.3418V37.9639H75.7701V35.3738Z" fill="white"/>
<path d="M78.0322 37.7063V37.2899C78.3859 37.4972 78.787 37.61 79.1968 37.6172C79.6661 37.6172 79.9765 37.4704 79.9765 37.2297C79.9765 36.989 79.7575 36.9192 79.4639 36.8806L78.937 36.8132C78.4774 36.7555 78.0322 36.6255 78.0322 36.1272C78.0322 35.6289 78.4798 35.34 79.1583 35.34C79.5439 35.3428 79.9239 35.4325 80.27 35.6024V36.0357C79.9408 35.8388 79.5659 35.7309 79.1824 35.7228C78.7589 35.7228 78.4774 35.8792 78.4774 36.1031C78.4774 36.327 78.718 36.3968 79.038 36.4377L79.5818 36.5099C80.0198 36.5677 80.4216 36.7169 80.4216 37.2008C80.4216 37.6846 79.9404 38 79.2185 38C78.8048 38.0091 78.3961 37.9078 78.0346 37.7063" fill="white"/>
<path d="M85.1162 37.923V37.9639H84.6614L84.3775 37.3525H83.0011L82.7172 37.9639H82.2576V37.923L83.5016 35.3738H83.877M84.2066 36.9842L83.6893 35.8576L83.1719 36.9842H84.2066Z" fill="white"/>
<path d="M89.6157 35.3738V37.9663H89.1994L87.5752 35.9997V37.9663H87.1589V35.3738H87.5752L89.1994 37.3405V35.3738" fill="white"/>
<path d="M91.8679 37.7063V37.2899C92.2226 37.4968 92.6244 37.6095 93.0349 37.6172C93.5042 37.6172 93.8146 37.4704 93.8146 37.2297C93.8146 36.989 93.5956 36.9192 93.302 36.8806L92.7751 36.8132C92.3131 36.7555 91.8679 36.6255 91.8679 36.1272C91.8679 35.6289 92.3179 35.34 92.9964 35.34C93.382 35.3428 93.762 35.4325 94.1081 35.6024V36.0357C93.7787 35.8391 93.404 35.7313 93.0205 35.7228C92.597 35.7228 92.3131 35.8792 92.3131 36.1031C92.3131 36.327 92.5537 36.3968 92.8761 36.4377L93.4175 36.5099C93.8579 36.5677 94.2597 36.7169 94.2597 37.2008C94.2597 37.6846 93.7785 38 93.0566 38C92.6422 38.0088 92.2328 37.9074 91.8703 37.7063" fill="white"/>
<path d="M60.7962 9.6986V8.80312H62.2039V9.6986H60.7962ZM61.2775 15.6709H61.7178L61.8381 9.6986H61.1572L61.2775 15.6709ZM60.4834 8.80312H62.5119L63.1928 1.92576C63.2216 1.61609 63.1641 1.30449 63.0268 1.02547L62.9642 0.907518C62.828 0.63482 62.6184 0.405478 62.3592 0.24519C62.0999 0.0849018 61.8012 0 61.4964 0C61.1917 0 60.8929 0.0849018 60.6337 0.24519C60.3744 0.405478 60.1649 0.63482 60.0286 0.907518L59.9685 1.02547C59.8288 1.30371 59.7712 1.61598 59.8024 1.92576L60.4834 8.80312ZM67.0597 3.56506C66.4538 4.12867 65.9736 4.81389 65.6506 5.5759C65.3276 6.33791 65.169 7.15955 65.1852 7.98708C65.1797 9.06783 65.4621 10.1305 66.0033 11.0659C66.5316 11.9959 67.2993 12.7673 68.2267 13.2998C69.2761 13.8663 70.4565 14.1453 71.6484 14.1086C71.8409 14.1086 72.0286 14.1086 72.2139 14.0941C72.5322 13.5551 72.8074 12.9917 73.0368 12.4091C72.614 12.4896 72.1846 12.5307 71.7543 12.5319C70.357 12.5319 69.2101 12.1066 68.3133 11.2561C67.8694 10.8381 67.5195 10.3305 67.2868 9.76688C67.054 9.20327 66.9438 8.59657 66.9634 7.98708C66.9478 7.37621 67.0615 6.76894 67.297 6.20514C67.5326 5.64133 67.8847 5.13375 68.3302 4.7157C68.7894 4.28041 69.3304 3.94071 69.922 3.71632C70.5135 3.49194 71.1437 3.38733 71.7759 3.40859C72.2382 3.41094 72.6992 3.45851 73.1523 3.55062C72.9307 2.94787 72.662 2.36352 72.3486 1.803C72.1248 1.78374 71.9035 1.7717 71.6893 1.7717C70.8381 1.74965 69.9911 1.8968 69.1972 2.20464C68.4033 2.51249 67.6784 2.97489 67.0645 3.56506M57.0377 13.9714V1.93539H55.3148V7.14456H49.1091C49.0971 7.38528 49.0898 7.60915 49.0898 7.84506C49.0898 8.14596 49.0898 8.44445 49.1235 8.73813H55.3124V13.981L57.0377 13.9714Z" fill="white"/>
</g>
<defs>
<clipPath id="clip0_2752_16725">
<rect width="123" height="38" fill="white"/>
</clipPath>
</defs>
</svg>
