<svg width="26" height="26" viewBox="0 0 26 26" fill="none" xmlns="http://www.w3.org/2000/svg">
<circle cx="13" cy="13" r="13" fill="#F4FDFE"/>
<path d="M20 11.8188V12.5844C20 12.6938 19.9125 12.8031 19.7812 12.8031H18.4469C18.3375 12.8031 18.2281 12.7156 18.2281 12.5844V11.8188C18.2281 11.7094 18.3156 11.6 18.4469 11.6H19.7812C19.9125 11.6 20 11.6875 20 11.8188ZM7.24687 9.4125C7.24687 9.04063 7.55313 8.73438 7.925 8.73438H12.1031C12.475 8.73438 12.7812 9.04062 12.7812 9.39062V12.7812H8.86563C8.73438 12.7812 8.625 12.8906 8.625 13.0219C8.625 13.1531 8.73438 13.2625 8.86563 13.2625H13H17.1344C17.2656 13.2625 17.375 13.1531 17.375 13.0219C17.375 12.8906 17.2656 12.7812 17.1344 12.7812H13.2406V9.4125C13.2406 9.04063 13.5469 8.75625 13.9188 8.75625H18.0969C18.4687 8.75625 18.775 9.0625 18.775 9.43437V11.1625H18.4688C18.0969 11.1625 17.7906 11.4688 17.7906 11.8406V12.6063C17.7906 12.9781 18.0969 13.2844 18.4688 13.2844H19.5625V14.575H6.45937V13.2844H7.55312C7.925 13.2844 8.23125 12.9781 8.23125 12.6063V11.8406C8.23125 11.4688 7.925 11.1625 7.55312 11.1625H7.24687V9.4125ZM6 11.8188C6 11.7094 6.0875 11.6 6.21875 11.6H7.55312C7.68437 11.6 7.77188 11.6875 7.77188 11.8188V12.5844C7.77188 12.6938 7.68437 12.8031 7.55312 12.8031H6.21875C6.10938 12.8031 6 12.7156 6 12.5844V11.8188ZM9.12813 17.2656H7.6625V16.7844H9.12813V17.2656ZM18.3375 17.2656H16.8719V16.7844H18.3375V17.2656ZM19.1031 16.325H18.5781H16.6531H9.36875H7.42188H6.89687C6.65625 16.325 6.45937 16.1281 6.45937 15.8875V15.0344H19.5406V15.8875C19.5406 16.1063 19.3438 16.325 19.1031 16.325Z" fill="#0099A8"/>
</svg>
