<svg width="26" height="26" viewBox="0 0 26 26" fill="none" xmlns="http://www.w3.org/2000/svg">
<path d="M9.17578 22.0519L22.7788 19.1105V3.05469L9.17578 5.57926V22.0519Z" fill="#D97826"/>
<path d="M22.7793 3.05592L17.1374 1.17927L12.9521 0L0 2.26476L9.1763 5.58049L22.7793 3.05592Z" fill="#FFA04F"/>
<path d="M9.1763 5.58086V22.0537L2.17106 19.0595L0.197253 18.2154L0.062813 7.36642L0 2.26562L9.1763 5.58086Z" fill="#EE8932"/>
<path d="M3.75224 3.71073H3.75665L17.1419 1.2038C17.1488 1.20222 17.1548 1.19817 17.1586 1.19251C17.1625 1.18685 17.1638 1.18002 17.1624 1.17344C17.1619 1.17023 17.1608 1.16714 17.159 1.16436C17.1573 1.16157 17.155 1.15914 17.1522 1.1572C17.1495 1.15526 17.1463 1.15386 17.143 1.15307C17.1397 1.15229 17.1362 1.15214 17.1328 1.15262L3.74757 3.65931C3.74069 3.66095 3.73472 3.665 3.73091 3.67064C3.7271 3.67629 3.72572 3.6831 3.72706 3.68968C3.72793 3.69544 3.73093 3.70072 3.73554 3.70458C3.74015 3.70843 3.74607 3.71062 3.75224 3.71073Z" fill="#9E6331"/>
<path d="M9.10989 5.64424C9.11533 5.6441 9.12059 5.64235 9.12493 5.63923C9.12926 5.6361 9.13244 5.63178 9.13402 5.62686C9.13637 5.62048 9.13607 5.61349 9.13318 5.60731C9.13029 5.60113 9.12503 5.59621 9.11845 5.59355L0.0573858 2.32533C0.0508464 2.32341 0.0437694 2.324 0.0376922 2.32698C0.0316151 2.32996 0.0270305 2.33509 0.0249433 2.34124C0.0226535 2.34763 0.0229856 2.35459 0.0258685 2.36076C0.0287513 2.36692 0.0339779 2.37184 0.0405183 2.37455L9.1008 5.64277C9.10371 5.64377 9.10679 5.64427 9.10989 5.64424Z" fill="#9E6331"/>
<g style="mix-blend-mode:soft-light">
<path d="M17.8248 1.41572L4.57734 3.96722V7.57214L3.20957 6.91247L3.11328 3.45595L16.232 0.9375L17.8248 1.41572Z" fill="white"/>
</g>
<path d="M21.9309 4.51562V7.26375L17.8281 8.12054V5.22476L21.9309 4.51562Z" fill="#FFBF8A"/>
<path d="M9.47656 13.3025L10.91 21.6769L17.7196 20.2045L11.5306 13.1367H9.5456L9.47656 13.3025Z" fill="#33201B"/>
<path d="M9.5456 13.1367L9.47656 13.3025L14.516 26.0005L25.1904 25.2679L25.2685 25.1021L9.5456 13.1367Z" fill="#045187"/>
<path d="M9.54688 13.1356L14.6087 25.8233L25.2698 25.101L19.6645 12.7734L9.54688 13.1356Z" fill="#2775C0"/>
<path d="M19.0007 13.5039L23.6379 23.8047L15.085 24.3233L11.0273 14.0091L19.0007 13.5039Z" fill="white"/>
<path d="M12.0195 12.8613L12.6863 14.3871L18.8244 14.1109L18.0528 12.6211L12.0195 12.8613Z" fill="#045187"/>
<path d="M19.2288 15.0952L12.2969 15.375L12.3029 15.5069L19.2348 15.227L19.2288 15.0952Z" fill="#848484"/>
<path d="M19.4383 16.2811L12.5 16.543L12.5056 16.6749L19.4439 16.4131L19.4383 16.2811Z" fill="#848484"/>
<path d="M20.0101 16.7397L13.0781 17.0195L13.0841 17.1514L20.016 16.8716L20.0101 16.7397Z" fill="#848484"/>
<path d="M20.4007 17.56L13.4688 17.8398L13.4747 17.9717L20.4067 17.6919L20.4007 17.56Z" fill="#848484"/>
<path d="M20.7952 18.3842L13.8633 18.6641L13.8693 18.7959L20.8012 18.5161L20.7952 18.3842Z" fill="#848484"/>
<path d="M21.1859 19.2124L14.2539 19.4922L14.2599 19.6241L21.1918 19.3442L21.1859 19.2124Z" fill="#848484"/>
<path d="M17.8003 22.5945C17.7887 22.5944 17.7772 22.5927 17.7663 22.5893C17.6414 22.5519 17.6105 22.3332 17.5501 21.8425C17.4945 21.3865 17.4185 20.7619 17.2082 20.6426C17.1873 20.6313 17.1638 20.6251 17.1397 20.6245C17.1156 20.6239 17.0917 20.629 17.0702 20.6392C16.4247 20.8841 16.398 22.5702 16.398 22.5874L16.2578 22.5859C16.2578 22.5124 16.2866 20.7925 17.0183 20.5165C17.0598 20.4986 17.1053 20.4903 17.1509 20.4925C17.1965 20.4948 17.2408 20.5074 17.2801 20.5293C17.5498 20.6811 17.6238 21.2896 17.6892 21.8271C17.7177 22.0612 17.7559 22.3758 17.8044 22.4532L17.8078 22.4495C17.9202 22.3312 18.0629 22.0731 18.201 21.8236C18.4686 21.34 18.6422 21.044 18.8169 21.0601C18.9293 21.0704 18.9687 21.1946 18.9817 21.2355C19.0286 21.3891 19.0633 21.5459 19.0855 21.7044C19.1094 21.8547 19.1283 21.9737 19.18 22.0031C19.2098 22.02 19.2669 22.0149 19.3497 21.9874C19.4532 21.9497 19.5518 21.9009 19.6435 21.842C19.8812 21.7005 20.1273 21.5543 20.6209 21.8163L20.5524 21.9316C20.1312 21.7081 19.949 21.8165 19.7183 21.9537C19.6178 22.0181 19.5097 22.0713 19.3962 22.1121C19.2687 22.1542 19.1771 22.1554 19.1078 22.1162C18.9996 22.0548 18.978 21.9159 18.9469 21.7245C18.9258 21.5722 18.8928 21.4216 18.8483 21.2739C18.8252 21.2004 18.8039 21.1921 18.8039 21.1921C18.8039 21.1921 18.752 21.1909 18.6201 21.3846C18.528 21.5195 18.4252 21.7054 18.3256 21.8853C18.1768 22.1547 18.0367 22.4074 17.9126 22.5379C17.8994 22.5545 17.8825 22.5682 17.8631 22.5779C17.8437 22.5877 17.8222 22.5933 17.8003 22.5945Z" fill="#282828"/>
<path d="M22.4134 20.7058L21.4531 20.375L24.8048 11.7153C24.8279 11.6558 24.8631 11.6012 24.9085 11.5545C24.9539 11.5079 25.0086 11.4701 25.0694 11.4434C25.1303 11.4167 25.1961 11.4016 25.2632 11.3989C25.3303 11.3962 25.3972 11.406 25.4603 11.4277C25.5233 11.4494 25.5813 11.4826 25.6307 11.5255C25.6801 11.5683 25.7202 11.6199 25.7485 11.6773C25.7768 11.7348 25.7928 11.7969 25.7957 11.8602C25.7985 11.9234 25.7882 11.9866 25.7651 12.0461L22.4134 20.7058Z" fill="#025BB3"/>
<path d="M24.5774 12.0074L23.5234 14.7305L24.7102 15.1393L25.7642 12.4162L24.5774 12.0074Z" fill="#0076EB"/>
<path d="M24.3706 16.7634H24.2305C24.2323 15.9671 24.4866 15.6165 24.8087 15.1718C25.0125 14.8909 25.2432 14.5726 25.4739 14.0699C25.8918 13.1597 25.8965 12.7927 25.8269 12.6448C25.789 12.5647 25.7265 12.5449 25.6764 12.529L25.6564 12.5226L25.7044 12.3984L25.721 12.4038C25.7724 12.4164 25.8201 12.4398 25.8605 12.4723C25.901 12.5047 25.9331 12.5453 25.9546 12.5911C26.0742 12.8448 25.9587 13.3456 25.6021 14.1225C25.3662 14.6368 25.1313 14.96 24.924 15.246C24.6037 15.6887 24.3722 16.008 24.3706 16.7634Z" fill="#025BB3"/>
<path d="M21.375 21.5663L21.6579 21.6642C21.7521 21.5454 22.3031 20.8481 22.4106 20.7136L21.4503 20.3828C21.4386 20.5554 21.3843 21.4142 21.375 21.5663Z" fill="black"/>
<path d="M21.4032 21.9137C21.3806 21.9058 21.3623 21.8899 21.3522 21.8693C21.3421 21.8487 21.341 21.8251 21.3492 21.8038C21.4055 21.7408 21.479 21.2428 21.6365 21.3111C21.6591 21.3189 21.6775 21.3348 21.6877 21.3554C21.6979 21.3759 21.699 21.3995 21.6908 21.4208C21.6345 21.485 21.56 21.982 21.4032 21.9137Z" fill="black"/>
</svg>
