<svg width="108" height="107" viewBox="0 0 108 107" fill="none" xmlns="http://www.w3.org/2000/svg">
<path d="M55.1007 107C84.3162 107 108 83.0472 108 53.5C108 23.9528 84.3162 0 55.1007 0C25.8852 0 2.20142 23.9528 2.20142 53.5C2.20142 83.0472 25.8852 107 55.1007 107Z" fill="#0099A8"/>
<path d="M52.5192 62.4525V58.4284H58.8341V62.4864L52.5192 62.4525ZM54.6875 89.5812H56.6658L57.2023 62.4525H54.1511L54.6875 89.5812ZM51.1222 58.4284H60.22L63.2713 27.2305C63.4096 25.8308 63.1539 24.4201 62.5336 23.1612L62.2654 22.6186C61.6538 21.3808 60.7134 20.3398 59.5497 19.6122C58.386 18.8846 57.0448 18.4992 55.6767 18.4992C54.3085 18.4992 52.9675 18.8846 51.8037 19.6122C50.64 20.3398 49.6996 21.3808 49.0881 22.6186L48.8198 23.1612C48.1956 24.419 47.9361 25.8297 48.0709 27.2305L51.1222 58.4284ZM80.6286 34.6909C77.9104 37.2486 75.7566 40.3579 74.3083 43.8153C72.8599 47.2728 72.1496 51.0006 72.2238 54.7548C72.2113 59.6174 73.4764 64.396 75.8897 68.6017C78.2549 72.8363 81.7021 76.35 85.8705 78.775C90.576 81.3463 95.8701 82.6137 101.216 82.4486C102.077 82.4486 102.915 82.4486 103.753 82.3808C105.177 79.9185 106.41 77.3487 107.442 74.6944C105.543 75.0533 103.617 75.2387 101.686 75.2482C95.4192 75.2482 90.2742 73.3191 86.2506 69.4608C84.3322 67.5107 82.8129 65.1973 81.7796 62.6528C80.7463 60.1083 80.2192 57.3827 80.2286 54.6319C80.2379 51.8812 80.7835 49.1593 81.834 46.6221C82.8846 44.0848 84.4196 41.782 86.3511 39.8453C88.4044 37.8784 90.8226 36.3423 93.466 35.3256C96.1095 34.309 98.9259 33.832 101.753 33.9222C103.832 33.9312 105.906 34.147 107.944 34.5665C106.939 31.841 105.733 29.196 104.334 26.654C103.329 26.5636 102.334 26.507 101.373 26.507C97.5515 26.4157 93.7505 27.0919 90.1898 28.4967C86.629 29.9015 83.3792 32.0069 80.6286 34.6909ZM35.6537 81.8269V27.2079H27.9194V50.8211H0.10062C0.0447368 51.8836 0 52.9462 0 54.0087C0 55.3765 0.0670874 56.7216 0.167678 58.0554H27.9194V81.793L35.6537 81.8269Z" fill="white"/>
</svg>
