<svg width="164" height="161" viewBox="0 0 164 161" fill="none" xmlns="http://www.w3.org/2000/svg">
<path d="M83.6716 161C128.036 161 164 124.959 164 80.5C164 36.0411 128.036 0 83.6716 0C39.3073 0 3.34302 36.0411 3.34302 80.5C3.34302 124.959 39.3073 161 83.6716 161Z" fill="white"/>
<path d="M79.7514 93.9706V87.9156H89.3407V94.0216L79.7514 93.9706ZM83.044 134.79H86.0481L86.8627 93.9706H82.2294L83.044 134.79ZM77.6299 87.9156H91.4452L96.0786 40.9729C96.2887 38.8669 95.9003 36.7443 94.9584 34.8499L94.5511 34.0335C93.6224 32.1711 92.1945 30.6047 90.4273 29.5099C88.6602 28.4151 86.6236 27.8352 84.5461 27.8352C82.4685 27.8352 80.4321 28.4151 78.6649 29.5099C76.8978 30.6047 75.4698 32.1711 74.5411 34.0335L74.1337 34.8499C73.186 36.7426 72.7918 38.8653 72.9966 40.9729L77.6299 87.9156ZM122.436 52.1983C118.308 56.0469 115.038 60.7253 112.838 65.9277C110.639 71.13 109.56 76.7391 109.673 82.388C109.654 89.7046 111.575 96.8949 115.24 103.223C118.831 109.595 124.066 114.882 130.396 118.53C137.541 122.4 145.581 124.307 153.699 124.058C155.005 124.058 156.278 124.058 157.551 123.956C159.712 120.251 161.585 116.384 163.152 112.391C160.269 112.931 157.344 113.21 154.411 113.224C144.896 113.224 137.083 110.321 130.973 104.516C128.06 101.582 125.753 98.1005 124.184 94.2719C122.615 90.4432 121.814 86.3421 121.829 82.2031C121.843 78.0642 122.671 73.9687 124.267 70.1509C125.862 66.3332 128.193 62.8681 131.126 59.9541C134.244 56.9945 137.916 54.6832 141.93 53.1535C145.944 51.6238 150.221 50.9061 154.513 51.0418C157.672 51.0553 160.821 51.3801 163.916 52.0113C162.389 47.9103 160.557 43.9304 158.434 40.1055C156.906 39.9694 155.396 39.8844 153.936 39.8844C148.134 39.7469 142.362 40.7644 136.955 42.8782C131.548 44.9919 126.613 48.1598 122.436 52.1983ZM54.1407 123.123V40.9389H42.3961V76.4691H0.152794C0.0679336 78.0679 0 79.6666 0 81.2654C0 83.3234 0.101873 85.3474 0.254622 87.3544H42.3961V123.072L54.1407 123.123Z" fill="#0099A8"/>
</svg>
