<svg width="58" height="58" viewBox="0 0 58 58" fill="none" xmlns="http://www.w3.org/2000/svg">
<path d="M28.7565 28.3008C28.8643 28.3008 28.9365 28.3765 28.9365 28.489V28.7489C28.9365 28.8611 28.8643 28.9367 28.7565 28.9367H28.4808C28.373 28.9367 28.3005 28.8611 28.3005 28.7489V28.489C28.3005 28.3765 28.373 28.3008 28.4808 28.3008H28.7565ZM28.7514 28.5234C28.7406 28.5126 28.7228 28.5126 28.712 28.5234L28.5807 28.6547L28.525 28.599C28.5142 28.5882 28.4964 28.5882 28.4856 28.599C28.4748 28.6099 28.4748 28.6273 28.4856 28.6385L28.5613 28.7138C28.5667 28.7192 28.5737 28.7218 28.5807 28.7218C28.588 28.7218 28.595 28.7192 28.6004 28.7138L28.7514 28.5628C28.7622 28.552 28.7622 28.5345 28.7514 28.5234Z" fill="#006EE9"/>
<g clip-path="url(#clip0_3394_14224)">
<path fill-rule="evenodd" clip-rule="evenodd" d="M35.4036 31.4604C34.4472 32.8243 33.3228 34.0621 32.0569 35.1448L41.1569 44.065L44.6211 40.4949L35.4036 31.4604Z" fill="#A79BA7"/>
<path fill-rule="evenodd" clip-rule="evenodd" d="M35.4645 31.4004C35.2856 31.9873 34.952 32.4334 34.4739 32.7287L43.5136 41.7091L44.6207 40.4961L35.4645 31.4004Z" fill="#837683"/>
<path fill-rule="evenodd" clip-rule="evenodd" d="M52.6796 55.6424L56.5894 51.6131C57.2761 50.9055 57.2586 49.765 56.5512 49.0783L45.722 38.5699C45.0145 37.8832 43.8734 37.9004 43.1869 38.608L39.2772 42.6373C38.5906 43.3447 38.6077 44.4858 39.3153 45.1723L50.1446 55.6805C50.8522 56.367 51.9929 56.3501 52.6796 55.6424Z" fill="#F1BA84"/>
<path fill-rule="evenodd" clip-rule="evenodd" d="M44.1206 38.5701L54.9497 49.0784C55.6571 49.7651 55.6746 50.9056 54.9879 51.6132L51.0781 55.6425C50.9376 55.7875 50.7734 55.9075 50.5926 55.9974C51.2725 56.3354 52.1249 56.2149 52.6802 55.6425L56.59 51.6132C57.2767 50.9055 57.2593 49.7651 56.5518 49.0783L45.7227 38.57C45.1641 38.0278 44.3355 37.9244 43.6733 38.2531C43.8379 38.3351 43.9887 38.442 44.1206 38.5701Z" fill="#E3A76F"/>
<path d="M34.5698 35.4774C42.2706 27.7762 42.2704 15.2904 34.5693 7.58954C26.8681 -0.111327 14.3823 -0.111109 6.68146 7.59003C-1.01942 15.2912 -1.0192 27.777 6.68194 35.4778C14.3831 43.1787 26.8689 43.1785 34.5698 35.4774Z" fill="#837683"/>
<path d="M34.4073 24.7893C36.2045 17.1783 31.4915 9.55145 23.8805 7.75425C16.2695 5.95705 8.64263 10.6701 6.84543 18.2811C5.04823 25.8921 9.76125 33.5189 17.3722 35.3161C24.9833 37.1133 32.6101 32.4003 34.4073 24.7893Z" fill="#ECEFF1"/>
<path fill-rule="evenodd" clip-rule="evenodd" d="M21.0875 10.3546L30.0766 15.5445C30.3701 15.714 30.5381 16.0049 30.5381 16.3438V26.7236C30.5381 27.0625 30.3701 27.3535 30.0766 27.5229L21.0875 32.7127C20.794 32.8822 20.458 32.8822 20.1645 32.7127L11.1754 27.5229C10.8819 27.3534 10.7139 27.0625 10.7139 26.7236V16.3438C10.7139 16.0049 10.8819 15.7139 11.1754 15.5445L20.1645 10.3546C20.458 10.1852 20.794 10.1852 21.0875 10.3546Z" fill="#F2D1A5"/>
<path fill-rule="evenodd" clip-rule="evenodd" d="M30.4174 15.8804C30.4958 16.0162 30.5379 16.173 30.5381 16.3419V26.7251C30.5375 27.0633 30.3696 27.3535 30.0766 27.5227L21.0875 32.7126C20.9407 32.7973 20.7833 32.8397 20.626 32.8397V21.5336L30.4174 15.8804Z" fill="#E3A76F"/>
<path fill-rule="evenodd" clip-rule="evenodd" d="M21.0874 10.3546L30.0765 15.5445C30.2233 15.6292 30.3387 15.7443 30.4174 15.8806L20.6259 21.5337L10.8345 15.8806C10.9132 15.7443 11.0285 15.6292 11.1753 15.5445L20.1644 10.3546C20.4579 10.1852 20.7939 10.1852 21.0874 10.3546Z" fill="#C48958"/>
<path fill-rule="evenodd" clip-rule="evenodd" d="M14.2327 17.8443L17.1072 19.5039L27.0193 13.7812L24.1448 12.1216L14.2327 17.8443Z" fill="#D1D1D6"/>
<path fill-rule="evenodd" clip-rule="evenodd" d="M16.761 23.8095L14.4634 22.483C14.3166 22.3983 14.2327 22.2528 14.2327 22.0833V17.8428L17.1072 19.5023V23.6097C17.1072 23.6944 17.0653 23.7672 16.9919 23.8095C16.9569 23.8303 16.9171 23.8413 16.8764 23.8413C16.8358 23.8413 16.7959 23.8303 16.761 23.8095Z" fill="#ECEFF1"/>
<path fill-rule="evenodd" clip-rule="evenodd" d="M43.2417 12.4009C43.0013 12.4009 42.7708 12.3054 42.6009 12.1354C42.4309 11.9655 42.3354 11.735 42.3354 11.4946C42.3354 11.2543 42.4309 11.0238 42.6009 10.8538C42.7708 10.6839 43.0013 10.5884 43.2417 10.5884H56.1877C56.4281 10.5884 56.6586 10.6839 56.8285 10.8538C56.9985 11.0238 57.094 11.2543 57.094 11.4946C57.094 11.735 56.9985 11.9655 56.8285 12.1354C56.6586 12.3054 56.4281 12.4009 56.1877 12.4009H43.2417ZM43.2417 26.1644C43.0013 26.1644 42.7708 26.069 42.6009 25.899C42.4309 25.729 42.3354 25.4985 42.3354 25.2582C42.3354 25.0178 42.4309 24.7873 42.6009 24.6174C42.7708 24.4474 43.0013 24.3519 43.2417 24.3519H56.1877C56.4281 24.3519 56.6586 24.4474 56.8285 24.6174C56.9985 24.7873 57.094 25.0178 57.094 25.2582C57.094 25.4985 56.9985 25.729 56.8285 25.899C56.6586 26.069 56.4281 26.1644 56.1877 26.1644H43.2417ZM43.2417 19.2827C43.0013 19.2827 42.7708 19.1872 42.6009 19.0173C42.4309 18.8473 42.3354 18.6168 42.3354 18.3765C42.3354 18.1361 42.4309 17.9056 42.6009 17.7356C42.7708 17.5657 43.0013 17.4702 43.2417 17.4702H52.4175C52.6578 17.4702 52.8883 17.5657 53.0583 17.7356C53.2283 17.9056 53.3237 18.1361 53.3237 18.3765C53.3237 18.6168 53.2283 18.8473 53.0583 19.0173C52.8883 19.1872 52.6578 19.2827 52.4175 19.2827H43.2417Z" fill="#A79BA7"/>
</g>
<defs>
<clipPath id="clip0_3394_14224">
<rect width="58" height="58" fill="white"/>
</clipPath>
</defs>
</svg>
