<svg width="40" height="40" viewBox="0 0 40 40" fill="none" xmlns="http://www.w3.org/2000/svg">
<g clip-path="url(#clip0_4050_16404)">
<path d="M32.3513 12.3502L24.3013 4.30016C23.6846 3.6835 22.8346 3.3335 21.9513 3.3335H10.0013C8.16797 3.3335 6.68464 4.8335 6.68464 6.66683L6.66797 33.3335C6.66797 35.1668 8.1513 36.6668 9.98463 36.6668H30.0013C31.8346 36.6668 33.3346 35.1668 33.3346 33.3335V14.7168C33.3346 13.8335 32.9846 12.9835 32.3513 12.3502ZM17.0513 28.8168L13.518 25.2835C12.868 24.6335 12.868 23.5835 13.518 22.9335C14.168 22.2835 15.218 22.2835 15.868 22.9335L18.218 25.2835L24.118 19.3835C24.768 18.7335 25.818 18.7335 26.468 19.3835C27.118 20.0335 27.118 21.0835 26.468 21.7335L19.4013 28.8002C18.768 29.4668 17.7013 29.4668 17.0513 28.8168ZM23.3346 15.0002C22.418 15.0002 21.668 14.2502 21.668 13.3335V5.8335L30.8346 15.0002H23.3346Z" fill="white"/>
</g>
<defs>
<clipPath id="clip0_4050_16404">
<rect width="40" height="40" fill="white"/>
</clipPath>
</defs>
</svg>
