<svg width="40" height="40" viewBox="0 0 40 40" fill="none" xmlns="http://www.w3.org/2000/svg">
<path d="M33.6856 13.0337L20.8523 20.4671C20.3356 20.7671 19.6856 20.7671 19.1523 20.4671L6.31898 13.0337C5.40231 12.5004 5.16898 11.2504 5.86898 10.4671C6.35231 9.91706 6.90231 9.46706 7.48564 9.15039L16.519 4.15039C18.4523 3.06706 21.5856 3.06706 23.519 4.15039L32.5523 9.15039C33.1357 9.46706 33.6856 9.93372 34.169 10.4671C34.8356 11.2504 34.6023 12.5004 33.6856 13.0337Z" fill="white"/>
<path d="M19.0482 23.5661V34.9328C19.0482 36.1995 17.7648 37.0328 16.6315 36.4828C13.1982 34.7995 7.41484 31.6495 7.41484 31.6495C5.38151 30.4995 3.71484 27.5995 3.71484 25.2161V16.6161C3.71484 15.2995 5.09818 14.4661 6.23151 15.1161L18.2148 22.0661C18.7148 22.3828 19.0482 22.9495 19.0482 23.5661Z" fill="white"/>
<path d="M20.9492 23.5661V34.9328C20.9492 36.1995 22.2326 37.0328 23.3659 36.4828C26.7992 34.7995 32.5826 31.6495 32.5826 31.6495C34.6159 30.4995 36.2826 27.5995 36.2826 25.2161V16.6161C36.2826 15.2995 34.8992 14.4661 33.7659 15.1161L21.7826 22.0661C21.2826 22.3828 20.9492 22.9495 20.9492 23.5661Z" fill="white"/>
</svg>
