<svg width="20" height="20" viewBox="0 0 20 20" fill="none" xmlns="http://www.w3.org/2000/svg">
<path d="M4.29961 13.8C2.28294 15.15 2.28294 17.35 4.29961 18.6917C6.59128 20.225 10.3496 20.225 12.6413 18.6917C14.6579 17.3417 14.6579 15.1417 12.6413 13.8C10.3579 12.275 6.59961 12.275 4.29961 13.8Z" fill="#0099A8"/>
<path d="M8.46615 10.7252C8.38281 10.7168 8.28281 10.7168 8.19115 10.7252C6.20781 10.6585 4.63281 9.0335 4.63281 7.0335C4.63281 4.99183 6.28281 3.3335 8.33281 3.3335C10.3745 3.3335 12.0328 4.99183 12.0328 7.0335C12.0245 9.0335 10.4495 10.6585 8.46615 10.7252Z" fill="#0099A8"/>
<g clip-path="url(#clip0_4171_32027)">
<path d="M10.1331 9.05817C10.0498 9.04984 9.9498 9.04984 9.85814 9.05817C7.8748 8.9915 6.2998 7.3665 6.2998 5.3665C6.2998 3.32484 7.9498 1.6665 9.9998 1.6665C12.0415 1.6665 13.6998 3.32484 13.6998 5.3665C13.6915 7.3665 12.1165 8.9915 10.1331 9.05817Z" stroke="#1D272F" stroke-width="1.5" stroke-linecap="round" stroke-linejoin="round"/>
<path d="M5.9666 12.1335C3.94993 13.4835 3.94993 15.6835 5.9666 17.0252C8.25827 18.5585 12.0166 18.5585 14.3083 17.0252C16.3249 15.6752 16.3249 13.4752 14.3083 12.1335C12.0249 10.6085 8.2666 10.6085 5.9666 12.1335Z" stroke="#1D272F" stroke-width="1.5" stroke-linecap="round" stroke-linejoin="round"/>
</g>
<defs>
<clipPath id="clip0_4171_32027">
<rect width="20" height="20" fill="white"/>
</clipPath>
</defs>
</svg>
