<svg width="89" height="93" viewBox="0 0 89 93" fill="none" xmlns="http://www.w3.org/2000/svg">
<mask id="mask0_2752_13578" style="mask-type:alpha" maskUnits="userSpaceOnUse" x="0" y="0" width="89" height="93">
<ellipse cx="44.5" cy="46.5" rx="44.5" ry="46.5" fill="#D9D9D9"/>
</mask>
<g mask="url(#mask0_2752_13578)">
<path d="M50.4177 6.79819C50.4177 6.79819 58.2405 10.6334 56.3102 21.0467C54.3799 31.4601 53.5164 32.857 55.6752 36.9208C57.8341 40.9845 60.3993 58.3571 58.4437 61.6335C56.488 64.9353 34.3405 47.1817 31.2673 32.2982C28.1941 17.4147 33.223 10.7858 35.0009 8.3221C36.7534 5.83305 43.5094 3.29321 50.4177 6.79819Z" fill="#0E2D3D"/>
<path d="M52.5767 44.3885C52.5767 44.3885 56.5642 45.2013 58.7993 48.5031C60.3486 50.789 60.4756 55.8941 60.7042 56.8338C60.9328 57.7989 63.9044 68.6441 63.9044 68.6441L55.5991 74.2063L52.5767 44.3885Z" fill="#0099A8"/>
<path d="M45.2111 41.671C45.2111 41.671 50.0876 43.9822 51.7893 44.3124C53.491 44.6426 60.0438 53.1765 61.2121 56.3005C62.355 59.4245 61.2121 64.0978 58.85 69.5839C56.488 75.07 58.723 76.8986 57.6309 82.3847C56.5388 87.8708 55.599 99.4779 55.8022 102.526C56.0054 105.574 28.3973 106.158 22.0985 100.595C22.0985 100.595 28.4227 91.1218 29.2354 89.7503C30.0482 88.4041 29.3624 81.0132 28.6259 79.1083C27.8893 77.2034 22.9112 61.0754 22.9112 61.0754C22.9112 61.0754 18.8475 48.6809 22.5302 45.8363C25.705 43.3727 34.3913 42.4837 35.9406 41.9504C37.5153 41.4424 42.0363 41.2138 45.2111 41.671Z" fill="#EDDAD3"/>
<path d="M46.7857 52.5433L49.7573 49.0637L47.1921 39.9202C47.1667 39.9456 46.3031 45.0253 46.7857 52.5433Z" fill="#D6C5BE"/>
<path d="M47.5478 36.0578C47.5478 36.0578 47.4208 37.2769 47.2684 38.9786C47.1922 39.7152 47.116 40.5787 47.0652 41.4423C46.862 43.9059 46.7096 46.5728 46.8112 47.9189C46.8112 47.9189 41.7315 52.9986 35.9915 42.001C35.9915 42.001 38.4043 37.4547 36.601 31.2829C34.7215 25.0857 47.5478 36.0578 47.5478 36.0578Z" fill="#EEA886"/>
<path d="M46.7859 47.9195V52.542L40.9442 48.1988L46.7859 47.9195Z" fill="#EEA886"/>
<path d="M46.7857 52.5412L44.3474 49.5442L36.1945 41.4167L33.5531 43.9565L46.7857 52.5412Z" fill="#D6C5BE"/>
<path d="M35.077 42.2038C35.077 42.2038 41.9092 52.5918 42.2394 57.1635C42.5696 61.7352 39.6995 95.9216 37.3883 106.919C35.077 117.917 18.4664 105.675 18.4664 105.675C18.4664 105.675 29.6418 87.6163 25.3748 73.1392C21.0825 58.662 19.5332 52.8966 19.5332 52.8966C19.5332 52.8966 21.0063 44.8453 26.2384 43.7023C30.8101 42.7118 35.077 42.2038 35.077 42.2038Z" fill="#0099A8"/>
<path d="M61.6692 57.6993C61.6692 57.6993 62.9138 62.0678 58.0881 71.7192C58.0881 71.7192 58.1643 84.0883 58.2912 87.9488C58.4182 91.8094 61.1613 105.702 61.1613 105.702L54.5831 109.207C53.6179 109.766 52.4496 108.979 52.5766 107.887C53.9227 96.7621 58.3166 54.6007 48.843 43.2729L52.6528 44.3905C52.6274 44.4159 59.3834 49.9273 61.6692 57.6993Z" fill="#0099A8"/>
<path d="M49.732 49.0881L53.4656 50.1041L47.1667 39.9447L49.732 49.0881Z" fill="#FAE6DE"/>
<path d="M44.3475 49.5452L40.9441 54.0153L33.9341 42.3574L36.3723 40.9859L44.3475 49.5452Z" fill="#FAE6DE"/>
<path d="M50.2744 66.8611L49.2986 67.6336L58.3634 79.0847L59.3392 78.3122L50.2744 66.8611Z" fill="#EB4747"/>
<path d="M48.7415 77.7877C48.7415 77.7877 49.605 77.8131 50.1892 77.3813C51.1797 76.6447 51.5353 74.816 53.2624 74.943C54.9895 75.07 55.8022 80.5053 55.3704 81.5466C54.9387 82.588 52.5258 83.0959 48.97 82.3848C45.3889 81.6736 48.7415 77.7877 48.7415 77.7877Z" fill="#EEA886"/>
<path d="M52.6528 74.9678C52.6528 74.9678 55.1418 74.1297 58.0118 73.4947C60.5263 72.9613 63.5487 72.7581 63.8535 73.2153C64.1837 73.6979 61.3898 74.1297 58.9262 74.8154C56.6403 75.4504 57.1991 75.7044 57.1991 75.7044C57.1991 75.7044 57.0467 75.6282 59.6373 75.3742C62.4312 75.1202 65.3012 75.1202 65.606 75.679C65.733 75.9583 65.6568 76.1361 64.6408 76.3901C65.2504 76.3647 65.3266 76.5171 65.352 76.7711C65.479 78.041 61.3898 79.0316 59.7643 79.4379C61.0089 79.1331 61.9486 79.057 61.4914 79.8951C60.9835 80.8602 55.1672 82.0286 53.1099 82.6381C50.8749 83.2985 52.6528 74.9678 52.6528 74.9678Z" fill="#EEA886"/>
<path d="M27.1781 43.906C25.4511 43.3473 20.4222 45.1252 19.584 50.3065C18.7205 55.4624 18.3903 61.2024 17.6029 63.9708C16.8156 66.7393 14.7837 79.0575 16.4854 80.0989C18.1871 81.1148 21.4127 82.0545 25.9336 82.0545C30.6069 82.0545 48.6906 82.8673 48.6906 82.8673L49.8336 76.4415C49.8336 76.4415 42.9506 76.0859 39.3948 75.5525C36.22 75.07 31.8261 73.7238 26.6448 73.1651C26.6448 73.1651 27.7369 65.5455 28.5243 63.3867C29.337 61.177 34.8993 46.3951 27.1781 43.906Z" fill="#0099A8"/>
<path d="M50.3162 87.6938L68.5523 84.0872L82.0896 55.133L62.609 57.1902L50.3162 87.6938Z" fill="#FFB855"/>
<path d="M70.8382 79.1589C70.8382 79.1589 71.8287 78.2192 72.7177 76.9239C73.6066 75.6286 76.5274 70.6759 76.248 70.3457C75.9941 70.0409 71.6509 69.9393 70.8636 70.6251C70.0762 71.3362 71.6255 71.6156 71.6255 71.6156C71.6255 71.6156 69.2635 71.8696 69.4413 72.5299C69.619 73.1903 71.0414 73.0125 71.0414 73.0125C71.0414 73.0125 69.1365 73.3681 69.4159 73.9523C69.6952 74.5364 70.6096 74.5364 70.6096 74.5364C70.6096 74.5364 68.9333 74.7396 69.1365 75.4C69.3397 76.0349 72.0065 76.6445 71.6509 77.1779C71.3207 77.7366 70.8382 79.1589 70.8382 79.1589Z" fill="#EEA886"/>
<path d="M49.2749 7.94452C49.2749 7.94452 60.628 11.5257 54.4816 31.1333C48.3098 50.7409 32.7913 28.8729 34.4168 16.9102C36.0423 4.9729 49.2749 7.94452 49.2749 7.94452Z" fill="#EEA987"/>
<path d="M55.6244 19.3973C55.6244 19.3973 49.986 24.9341 40.5377 25.6199C40.5377 25.6199 36.9058 29.8868 36.6264 31.5377C36.6264 31.5377 28.1941 17.1622 38.5567 8.55212C48.9192 -0.0579562 59.4342 15.8415 55.6244 19.3973Z" fill="#0E2D3D"/>
<path d="M40.6646 25.9994C40.5884 24.5771 39.6995 21.3261 37.5914 22.2405C35.4834 23.1548 37.7184 29.7584 39.1407 29.352C39.1153 29.352 40.817 29.3774 40.6646 25.9994Z" fill="#EEA987"/>
<path d="M47.2684 38.9536C47.1922 39.6901 47.116 40.5537 47.0652 41.4172C40.487 38.1662 39.4965 33.4929 39.4711 33.3405C44.119 39.4107 47.2684 38.9536 47.2684 38.9536Z" fill="#A77860"/>
</g>
</svg>
