<svg width="48" height="48" viewBox="0 0 48 48" fill="none" xmlns="http://www.w3.org/2000/svg">
<g clip-path="url(#clip0_4164_18151)">
<path d="M47.5 24C47.5 36.9787 36.9787 47.5 24 47.5C11.0213 47.5 0.5 36.9787 0.5 24C0.5 11.0213 11.0213 0.5 24 0.5C36.9787 0.5 47.5 11.0213 47.5 24Z" fill="#0099A8" stroke="#0099A8"/>
</g>
<path d="M18.8959 24.0002L10.8799 29.2194V18.781L18.8959 24.0002ZM29.1039 24.0002L37.1199 29.2194V18.781L29.1039 24.0002ZM27.9327 24.765L24.3487 27.0978C24.2431 27.165 24.1215 27.2002 23.9999 27.2002C23.8783 27.2002 23.7567 27.165 23.6511 27.0978L20.0671 24.765L11.4111 30.4002L10.9087 30.7266C11.0655 31.629 11.8527 32.3202 12.7999 32.3202H35.1999C36.1471 32.3202 36.9343 31.6322 37.0911 30.7266L36.5855 30.4002L27.9327 24.765ZM23.9999 25.7954L36.5855 17.6002L37.0911 17.2738C36.9343 16.3682 36.1471 15.6802 35.1999 15.6802H12.7999C11.8527 15.6802 11.0655 16.3714 10.9087 17.2738L11.4111 17.6002L23.9999 25.7954Z" fill="white"/>
<defs>
<clipPath id="clip0_4164_18151">
<rect width="48" height="48" fill="white"/>
</clipPath>
</defs>
</svg>
