<svg width="71" height="92" viewBox="0 0 71 92" fill="none" xmlns="http://www.w3.org/2000/svg">
<g clip-path="url(#clip0_2561_11343)">
<path d="M41.6434 37.2024H29.4551V48.4072H41.6434V37.2024Z" fill="#FBBD80"/>
<path d="M29.455 45.5597L20.8775 46.898C16.5659 47.5672 13.138 50.4004 11.7972 54.1021L35.5492 56.9496C35.5492 56.9496 59.3041 54.1107 59.3011 54.1021C57.9604 50.4004 54.5324 47.5672 50.2208 46.898L41.6433 45.5597C38.2763 48.7062 32.822 48.7062 29.455 45.5597Z" fill="#FB4455"/>
<path fill-rule="evenodd" clip-rule="evenodd" d="M40.9241 46.1605L45.6501 46.898C49.9618 47.5672 53.3897 50.4004 54.7304 54.1021C54.7335 54.1078 39.2208 55.963 33.2668 56.6748L35.5491 56.9496C35.5491 56.9496 59.3041 54.1107 59.301 54.1021C57.9603 50.4004 54.5324 47.5672 50.2208 46.898L41.6432 45.5597C41.4132 45.7733 41.174 45.974 40.9241 46.1605Z" fill="#DA4455"/>
<path d="M62.9728 54.1021H8.12549V88.2719H62.9728V54.1021Z" fill="#E29A6C"/>
<path fill-rule="evenodd" clip-rule="evenodd" d="M62.9728 54.1021C50.8272 72.7702 32.4 83.9893 8.12549 88.2719H62.9728V54.1021Z" fill="#D48C64"/>
<path d="M32.5021 54.1021V62.6446L35.5491 59.7971L38.5962 62.6446V54.1021H32.5021Z" fill="#615260"/>
<path fill-rule="evenodd" clip-rule="evenodd" d="M14.2197 84.0007H17.2668C18.1078 84.0007 18.7903 83.3629 18.7903 82.577C18.7903 81.7911 18.1078 81.1532 17.2668 81.1532H14.2197C13.3787 81.1532 12.6962 81.7911 12.6962 82.577C12.6962 83.3629 13.3787 84.0007 14.2197 84.0007ZM14.2197 78.3057H20.3138C21.1548 78.3057 21.8374 77.6679 21.8374 76.882C21.8374 76.0961 21.1548 75.4583 20.3138 75.4583H14.2197C13.3787 75.4583 12.6962 76.0961 12.6962 76.882C12.6962 77.6679 13.3787 78.3057 14.2197 78.3057Z" fill="#615260"/>
<path d="M8.12556 74.0345C6.44967 74.0345 5.07849 72.7532 5.07849 71.187V68.3396C5.07849 66.7734 6.44967 65.4921 8.12556 65.4921C9.80145 65.4921 11.1726 66.7734 11.1726 68.3396V71.187C11.1726 72.7532 9.80145 74.0345 8.12556 74.0345ZM23.3609 21.2422V28.4748C23.3609 34.7678 28.8152 39.8647 35.5492 39.8647C42.2832 39.8647 47.7375 34.7678 47.7375 28.4748V21.2422H23.3609Z" fill="#FFD18D"/>
<path d="M47.7375 21.2436H43.1669V28.4762C43.1669 34.0387 38.904 38.6673 33.2639 39.6668C34.0044 39.7978 34.7676 39.8661 35.5492 39.8661C42.2832 39.8661 47.7375 34.7691 47.7375 28.4762V21.2436Z" fill="#FBBD80"/>
<path d="M21.8374 20.388V16.1167C21.8374 9.04075 27.9773 3.30307 35.5492 3.30307C43.1212 3.30307 49.261 9.04075 49.261 16.1167V20.388H21.8374Z" fill="#FB4455"/>
<path d="M33.2639 3.48104C34.0074 3.36429 34.7707 3.30307 35.5492 3.30307C43.1212 3.30307 49.261 9.04075 49.261 16.1167V20.388H44.6904V16.1167C44.6904 9.76828 39.7481 4.49759 33.2639 3.48104Z" fill="#DA4455"/>
<path fill-rule="evenodd" clip-rule="evenodd" d="M32.5021 12.8137H38.5962C39.4372 12.8137 40.1197 12.1758 40.1197 11.3899C40.1197 10.604 39.4372 9.96619 38.5962 9.96619H32.5021C31.6611 9.96619 30.9785 10.604 30.9785 11.3899C30.9785 12.1758 31.6611 12.8137 32.5021 12.8137Z" fill="#615260"/>
<path d="M49.261 20.3879L45.8788 24.6022C45.1627 25.4849 43.9287 25.8551 42.8013 25.4992C38.0935 24.0327 33.0049 24.0327 28.2972 25.4992C27.1698 25.8551 25.9357 25.4849 25.2197 24.6022L21.8374 20.3879C30.1407 15.2198 40.9578 15.2198 49.261 20.3879Z" fill="#615260"/>
<path d="M62.9729 74.0345C61.297 74.0345 59.9258 72.7531 59.9258 71.187V68.3395C59.9258 66.7734 61.297 65.4921 62.9729 65.4921C64.6487 65.4921 66.0199 66.7734 66.0199 68.3395V71.187C66.0199 72.7531 64.6487 74.0345 62.9729 74.0345Z" fill="#FFD18D"/>
</g>
<defs>
<clipPath id="clip0_2561_11343">
<rect width="70.0826" height="91.1194" fill="white"/>
</clipPath>
</defs>
</svg>
