<svg width="17" height="19" viewBox="0 0 17 19" fill="none" xmlns="http://www.w3.org/2000/svg">
<path d="M14.5732 9.88479L8.9082 15.559C8.16553 16.219 7.19874 16.5703 6.20561 16.5411C5.21247 16.5118 4.26803 16.1042 3.56547 15.4017C2.86291 14.6991 2.45533 13.7547 2.42609 12.7615C2.39686 11.7684 2.74818 10.8016 3.4082 10.059L10.7415 2.72562C11.1794 2.30973 11.7602 2.07784 12.364 2.07784C12.9679 2.07784 13.5487 2.30973 13.9865 2.72562C14.4131 3.15791 14.6523 3.7408 14.6523 4.34812C14.6523 4.95544 14.4131 5.53833 13.9865 5.97062L7.66153 12.2865C7.59893 12.3539 7.52367 12.4083 7.44004 12.4466C7.35641 12.4849 7.26605 12.5064 7.17412 12.5098C7.08219 12.5132 6.99049 12.4985 6.90426 12.4665C6.81802 12.4344 6.73894 12.3857 6.67153 12.3231C6.60412 12.2605 6.54969 12.1853 6.51137 12.1016C6.47304 12.018 6.45156 11.9276 6.44816 11.8357C6.44475 11.7438 6.45949 11.6521 6.49152 11.5658C6.52356 11.4796 6.57227 11.4005 6.63486 11.3331L11.3374 6.63979C11.51 6.46718 11.6069 6.23306 11.6069 5.98895C11.6069 5.74484 11.51 5.51073 11.3374 5.33812C11.1648 5.16551 10.9306 5.06854 10.6865 5.06854C10.4424 5.06854 10.2083 5.16551 10.0357 5.33812L5.3332 10.0498C5.09789 10.2833 4.91113 10.561 4.78368 10.867C4.65623 11.173 4.59062 11.5012 4.59062 11.8327C4.59062 12.1642 4.65623 12.4924 4.78368 12.7984C4.91113 13.1044 5.09789 13.3821 5.3332 13.6156C5.81387 14.0735 6.45227 14.3289 7.11611 14.3289C7.77995 14.3289 8.41835 14.0735 8.89903 13.6156L15.2149 7.29062C15.9435 6.50866 16.3402 5.4744 16.3213 4.40575C16.3025 3.33709 15.8696 2.31747 15.1138 1.5617C14.358 0.805929 13.3384 0.373013 12.2697 0.354158C11.2011 0.335303 10.1668 0.731981 9.38486 1.46062L2.05153 8.79395C1.06263 9.88922 0.534471 11.3238 0.577101 12.7988C0.61973 14.2739 1.22986 15.6756 2.28036 16.7119C3.33087 17.7482 4.74073 18.3393 6.21621 18.3618C7.69168 18.3844 9.11897 17.8368 10.2007 16.8331L15.8749 11.1681C15.9603 11.0827 16.0281 10.9812 16.0744 10.8695C16.1206 10.7578 16.1444 10.6382 16.1444 10.5173C16.1444 10.3964 16.1206 10.2767 16.0744 10.1651C16.0281 10.0534 15.9603 9.95192 15.8749 9.86645C15.7894 9.78098 15.6879 9.71319 15.5763 9.66693C15.4646 9.62068 15.3449 9.59687 15.224 9.59687C15.1032 9.59687 14.9835 9.62068 14.8718 9.66693C14.7601 9.71319 14.6587 9.78098 14.5732 9.86645V9.88479Z" fill="#0099A8"/>
</svg>
