<svg width="68" height="68" viewBox="0 0 68 68" fill="none" xmlns="http://www.w3.org/2000/svg">
<g clip-path="url(#clip0_4050_25450)">
<path fill-rule="evenodd" clip-rule="evenodd" d="M34.1128 -1.48619e-06C52.8022 -2.30313e-06 67.8875 15.3106 67.8875 34C67.8875 52.6894 52.8 68 34.1128 68C15.2003 68 0.112792 52.6894 0.112791 34C0.112791 15.3106 15.4234 -6.69249e-07 34.1128 -1.48619e-06Z" fill="#00AB6F"/>
<path d="M33.7237 9.1373L32.6188 10.2423L25.9972 16.8659L28.2051 18.7975L32.3446 14.658L32.3446 30.6635C32.0684 34.803 28.7555 38.1159 24.616 38.1159L22.9606 38.1159C22.1319 35.9059 20.4765 34.5268 17.9945 34.5268C14.9558 34.5268 12.75 37.013 12.75 39.7713C12.75 42.8058 15.2341 45.0137 17.9945 45.0137C20.4765 45.0137 22.6844 43.082 23.2369 40.8742L24.6181 40.8742C28.4814 40.8742 32.0684 38.6663 34 35.6318C35.9337 38.6663 39.2445 40.8742 43.384 40.8742L45.0394 40.8742C45.5919 43.3604 47.5235 45.0137 50.0055 45.0137C53.0421 45.0137 55.25 42.5317 55.25 39.7713C55.25 36.7347 52.7659 34.5268 50.0055 34.5268C47.7976 34.5268 45.5919 36.1843 45.0394 38.1159L43.1056 38.1159C38.9682 38.1159 35.6554 34.803 35.3791 30.6635L35.3791 14.9343L39.2445 19.0738L41.4502 16.8638L34.8287 10.2423L33.7237 9.1373ZM17.7183 37.5634C19.0974 37.5634 20.2002 38.6684 20.2002 40.0475C20.2002 41.4288 19.0974 42.5317 17.7183 42.5317C16.337 42.5317 15.232 41.4267 15.232 40.0454C15.5083 38.6663 16.6133 37.5634 17.7183 37.5634ZM50.2817 37.5634C51.663 37.5634 52.768 38.6684 52.768 40.0475C52.768 41.4288 51.663 42.5317 50.2817 42.5317C48.9026 42.5317 47.7976 41.4267 47.7976 40.0454C47.7976 38.6663 48.9026 37.5634 50.2839 37.5634L50.2817 37.5634Z" fill="white"/>
</g>
<defs>
<clipPath id="clip0_4050_25450">
<rect width="68" height="68" fill="white" transform="translate(0 68) rotate(-90)"/>
</clipPath>
</defs>
</svg>
