<svg width="40" height="40" viewBox="0 0 40 40" fill="none" xmlns="http://www.w3.org/2000/svg">
<rect width="40" height="40" rx="16" fill="#0099A8"/>
<path d="M27.1202 17.1199C26.7302 17.1199 26.4202 17.4299 26.4202 17.8199V19.3999C26.4202 22.9399 23.5402 25.8199 20.0002 25.8199C16.4602 25.8199 13.5802 22.9399 13.5802 19.3999V17.8099C13.5802 17.4199 13.2702 17.1099 12.8802 17.1099C12.4902 17.1099 12.1802 17.4199 12.1802 17.8099V19.3899C12.1802 23.4599 15.3102 26.8099 19.3002 27.1699V29.2999C19.3002 29.6899 19.6102 29.9999 20.0002 29.9999C20.3902 29.9999 20.7002 29.6899 20.7002 29.2999V27.1699C24.6802 26.8199 27.8202 23.4599 27.8202 19.3899V17.8099C27.8102 17.4299 27.5002 17.1199 27.1202 17.1199Z" fill="white"/>
<path d="M20.0001 10C17.5601 10 15.5801 11.98 15.5801 14.42V19.54C15.5801 21.98 17.5601 23.96 20.0001 23.96C22.4401 23.96 24.4201 21.98 24.4201 19.54V14.42C24.4201 11.98 22.4401 10 20.0001 10ZM21.3101 16.95C21.2401 17.21 21.0101 17.38 20.7501 17.38C20.7001 17.38 20.6501 17.37 20.6001 17.36C20.2101 17.25 19.8001 17.25 19.4101 17.36C19.0901 17.45 18.7801 17.26 18.7001 16.95C18.6101 16.64 18.8001 16.32 19.1101 16.24C19.7001 16.08 20.3201 16.08 20.9101 16.24C21.2101 16.32 21.3901 16.64 21.3101 16.95ZM21.8401 15.01C21.7501 15.25 21.5301 15.39 21.2901 15.39C21.2201 15.39 21.1601 15.38 21.0901 15.36C20.3901 15.1 19.6101 15.1 18.9101 15.36C18.6101 15.47 18.2701 15.31 18.1601 15.01C18.0501 14.71 18.2101 14.37 18.5101 14.27C19.4701 13.92 20.5301 13.92 21.4901 14.27C21.7901 14.38 21.9501 14.71 21.8401 15.01Z" fill="white"/>
</svg>
