<svg width="46" height="28" viewBox="0 0 46 28" fill="none" xmlns="http://www.w3.org/2000/svg">
<g clip-path="url(#clip0_4191_16582)">
<path fill-rule="evenodd" clip-rule="evenodd" d="M18.2648 12.3682C18.1681 12.3619 18.0718 12.386 17.9885 12.4374C17.9051 12.4887 17.8386 12.5648 17.7975 12.6559C17.7564 12.747 17.7427 12.8489 17.7581 12.9482C17.7735 13.0475 17.8174 13.1397 17.8839 13.2128C17.9505 13.2859 18.0367 13.3365 18.1314 13.358C18.226 13.3796 18.3247 13.3711 18.4147 13.3336C18.5046 13.2962 18.5816 13.2315 18.6357 13.148C18.6897 13.0645 18.7183 12.9661 18.7178 12.8655C18.7228 12.7394 18.6796 12.6163 18.5976 12.5231C18.5155 12.4299 18.4013 12.3742 18.2798 12.3682H18.2648Z" fill="white"/>
<path fill-rule="evenodd" clip-rule="evenodd" d="M36.7686 23.7374C36.7427 23.9136 36.7301 24.0916 36.7311 24.2698C36.7292 24.7894 36.8319 25.3038 37.0325 25.7799C37.2331 26.2561 37.5273 26.6835 37.8961 27.0349C38.265 27.3863 38.7005 27.6539 39.1747 27.8206C39.6489 27.9872 40.1514 28.0494 40.6501 28.0029C41.1487 27.9565 41.6325 27.8025 42.0706 27.5509C42.5086 27.2992 42.8913 26.9555 43.194 26.5415C43.4967 26.1276 43.7129 25.6527 43.8286 25.1471C43.9444 24.6415 43.9572 24.1164 43.8662 23.6053C44.4347 23.5883 44.9746 23.3431 45.3726 22.9213C45.7705 22.4996 45.9954 21.9342 46 21.3439V14.0272L41.5303 9.03414H35.4059V20.116H19.9191C19.6827 20.1118 19.4543 20.2045 19.2833 20.374C19.1123 20.5435 19.0126 20.7761 19.0057 21.0214V22.8321C19.0126 23.077 19.1124 23.3092 19.2835 23.4781C19.4546 23.647 19.6831 23.7388 19.9191 23.7336H21.7122C21.6312 24.2362 21.6516 24.7508 21.7722 25.2448C21.8928 25.7388 22.111 26.2014 22.4128 26.6033C22.7147 27.0053 23.0937 27.3377 23.5258 27.5796C23.958 27.8215 24.4338 27.9677 24.9232 28.0087C25.4125 28.0497 25.9048 27.9848 26.3687 27.8181C26.8327 27.6513 27.2582 27.3863 27.6183 27.04C27.9784 26.6936 28.2653 26.2733 28.4608 25.8058C28.6562 25.3383 28.756 24.8338 28.7537 24.3242C28.7533 24.1278 28.7396 23.9318 28.7126 23.7374H36.7686ZM9.79297 1.0025H8.23568C8.16829 1.0025 8.1346 1.06467 8.11589 1.13072L7.88753 1.98945C7.86882 2.05551 7.93994 2.11768 8.00358 2.11768H9.16781C9.07201 2.43833 9.02651 2.77288 9.03304 3.10852C9.01908 3.51076 9.08335 3.91179 9.22201 4.28768C9.36068 4.66357 9.57089 5.00659 9.84011 5.29628C10.1093 5.58597 10.432 5.81638 10.7889 5.97375C11.1458 6.13112 11.5296 6.21223 11.9174 6.21223C12.3052 6.21223 12.689 6.13112 13.0459 5.97375C13.4028 5.81638 13.7255 5.58597 13.9947 5.29628C14.2639 5.00659 14.4741 4.66357 14.6128 4.28768C14.7515 3.91179 14.8157 3.51076 14.8018 3.10852C14.8097 2.7078 14.7414 2.3094 14.6007 1.93614C14.4601 1.56288 14.2498 1.2221 13.982 0.933328C13.7143 0.644556 13.3942 0.41347 13.0403 0.253312C12.6863 0.0931541 12.3053 0.0070724 11.9193 0C11.5165 0.000441863 11.1185 0.0900986 10.7519 0.262979C10.3852 0.43586 10.0583 0.687982 9.79297 1.0025ZM1.93164 5.58368V9.41882C1.59044 9.68686 1.34325 10.0636 1.22786 10.4913L0 9.71413L0.0374349 4.35581L1.90918 5.58368H1.93164ZM2.71777 3.84291L4.58952 4.93866L2.16748 5.26117L0.441732 4.14988L2.68783 3.84291H2.71777ZM2.2985 9.17791V5.64197L4.82161 5.3078L4.90397 7.81016L5.79118 7.18457L6.67839 7.70525L6.49495 5.08632L7.99235 4.90369V6.79212C7.4369 7.12484 6.95383 7.57334 6.57357 8.10935C6.39388 8.32695 6.19922 8.54843 6.04199 8.72329C6.01896 8.74333 5.99766 8.76543 5.97835 8.78934C5.604 9.27116 4.26009 9.14294 3.41406 9.06134C3.06966 9.03025 3.85579 9.10019 3.23812 9.04191C2.91395 8.99026 2.5823 9.03751 2.28353 9.17791H2.2985ZM6.25911 4.71329L4.45101 3.602L5.19971 3.52429L7.48698 4.56953L6.24788 4.71329H6.25911ZM14.5659 16.1138L15.1012 19.9761L18.7362 17.5165V8.30752C18.7362 7.99836 18.8545 7.70186 19.0651 7.48325C19.2757 7.26464 19.5614 7.14183 19.8592 7.14183H33.2497C33.5475 7.14183 33.8332 7.26464 34.0438 7.48325C34.2544 7.70186 34.3727 7.99836 34.3727 8.30752V19.1873H20.1886L7.83512 27.3744H4.14779L8.48275 24.4446C8.43603 24.2555 8.42711 24.0585 8.45654 23.8657L8.83089 19.6497L9.20524 15.3755C8.60628 13.7086 9.13411 12.6012 9.09668 10.6428C8.0223 11.7619 7.19124 12.5856 5.55908 12.64C5.04248 12.64 4.21891 12.5779 3.68734 12.5196C3.05469 12.4341 2.62044 12.4768 2.21615 11.8862C1.59847 10.9537 2.41455 9.88121 3.21566 10.0561C4.12158 10.1377 5.75 10.3514 6.36768 9.56259C7.00407 8.92923 7.49072 8.04718 8.32926 7.76353C13.0161 6.18596 14.1803 6.80377 14.5996 8.54843C14.7614 10.3047 14.8326 12.0687 14.813 13.8329C14.8139 14.6009 14.7361 15.3668 14.5809 16.1177L14.5659 16.1138ZM12.4771 21.7596C12.4391 21.6647 12.4114 21.5657 12.3947 21.4643L11.9193 16.8482L11.4401 22.4513L12.4771 21.7596ZM23.846 24.3281C23.846 24.7032 23.9896 25.0629 24.2451 25.3282C24.5007 25.5934 24.8473 25.7424 25.2087 25.7424C25.57 25.7424 25.9166 25.5934 26.1722 25.3282C26.4277 25.0629 26.5713 24.7032 26.5713 24.3281C26.5713 23.9529 26.4277 23.5932 26.1722 23.3279C25.9166 23.0627 25.57 22.9137 25.2087 22.9137C24.8473 22.9137 24.5007 23.0627 24.2451 23.3279C23.9896 23.5932 23.846 23.9529 23.846 24.3281ZM41.5527 23.6131V23.5898V23.5665V23.547C41.5369 23.5279 41.5231 23.5071 41.5116 23.4849L41.4666 23.4344H41.4479H41.4255H41.403H41.3805H41.3581L40.804 22.9253H40.7816H40.7591H40.7404H40.7104H40.688H40.1489H40.1152H40.0815H40.0553H40.0291H40.0067H39.988H39.9618H39.9393H39.9168H39.8944H39.8719H39.8494H39.8195H39.8008H39.7821V22.9448V22.9642V22.9914V23.0108V23.0341C39.6792 23.2364 39.6265 23.4621 39.6286 23.6908C39.6314 23.9059 39.6808 24.1176 39.7731 24.3102C39.8654 24.5028 39.9983 24.6714 40.1619 24.8034C40.3255 24.9354 40.5157 25.0276 40.7182 25.073C40.9208 25.1184 41.1306 25.1159 41.3322 25.0657C41.5337 25.0155 41.7218 24.9189 41.8824 24.783C42.0431 24.6471 42.1722 24.4754 42.2603 24.2807C42.3483 24.0859 42.393 23.8731 42.3911 23.658C42.3891 23.4429 42.3406 23.231 42.249 23.038L41.5527 23.6131ZM41.5078 11.179L43.7539 13.965V14.9831H37.6483V11.1907L41.5078 11.179Z" fill="white"/>
</g>
<defs>
<clipPath id="clip0_4191_16582">
<rect width="46" height="28" fill="white"/>
</clipPath>
</defs>
</svg>
