<svg width="96" height="74" viewBox="0 0 96 74" fill="none" xmlns="http://www.w3.org/2000/svg">
<path opacity="0.15" d="M92.625 10.3125V58.125H76.6875V74.0625L61.9517 58.125H19.083L28.9292 47.0038L74.3351 46.7042L75.5719 10.3125H92.625Z" fill="black"/>
<path d="M95.8125 10.3125V58.125H79.875V74.0625L65.1392 58.125H22.2705L32.1167 47.0038L79.4096 46.7042V10.3125H95.8125Z" fill="#BB6125"/>
<path opacity="0.15" d="M0.1875 3.9375V51.75H16.125V67.6875L30.8608 51.75H79.875V3.9375H0.1875Z" fill="black"/>
<path d="M3.375 0.75V48.5625H19.3125V64.5L34.0483 48.5625H83.0625V0.75H3.375Z" fill="#0099A8"/>
<g opacity="0.15">
<path d="M24.0938 32.625C26.7344 32.625 28.875 30.4844 28.875 27.8438C28.875 25.2031 26.7344 23.0625 24.0938 23.0625C21.4531 23.0625 19.3125 25.2031 19.3125 27.8438C19.3125 30.4844 21.4531 32.625 24.0938 32.625Z" fill="black"/>
<path d="M40.0312 32.625C42.6719 32.625 44.8125 30.4844 44.8125 27.8438C44.8125 25.2031 42.6719 23.0625 40.0312 23.0625C37.3906 23.0625 35.25 25.2031 35.25 27.8438C35.25 30.4844 37.3906 32.625 40.0312 32.625Z" fill="black"/>
<path d="M55.9688 32.625C58.6094 32.625 60.75 30.4844 60.75 27.8438C60.75 25.2031 58.6094 23.0625 55.9688 23.0625C53.3281 23.0625 51.1875 25.2031 51.1875 27.8438C51.1875 30.4844 53.3281 32.625 55.9688 32.625Z" fill="black"/>
</g>
<path d="M27.2812 29.4375C29.9219 29.4375 32.0625 27.2969 32.0625 24.6562C32.0625 22.0156 29.9219 19.875 27.2812 19.875C24.6406 19.875 22.5 22.0156 22.5 24.6562C22.5 27.2969 24.6406 29.4375 27.2812 29.4375Z" fill="white"/>
<path d="M43.2188 29.4375C45.8594 29.4375 48 27.2969 48 24.6562C48 22.0156 45.8594 19.875 43.2188 19.875C40.5781 19.875 38.4375 22.0156 38.4375 24.6562C38.4375 27.2969 40.5781 29.4375 43.2188 29.4375Z" fill="white"/>
<path d="M59.1562 29.4375C61.7969 29.4375 63.9375 27.2969 63.9375 24.6562C63.9375 22.0156 61.7969 19.875 59.1562 19.875C56.5156 19.875 54.375 22.0156 54.375 24.6562C54.375 27.2969 56.5156 29.4375 59.1562 29.4375Z" fill="white"/>
</svg>
