<svg width="32" height="32" viewBox="0 0 32 32" fill="none" xmlns="http://www.w3.org/2000/svg">
<circle cx="16" cy="16" r="16" fill="#FDFDFD" fill-opacity="0.1"/>
<path d="M21.017 16.2743L20.0003 15.2577C19.7587 15.0493 19.617 14.741 19.6087 14.3993C19.592 14.0243 19.742 13.6493 20.017 13.3743L21.017 12.3743C21.8837 11.5077 22.2087 10.6743 21.9337 10.016C21.667 9.36602 20.842 9.00768 19.6253 9.00768H10.917V8.29102C10.917 7.94935 10.6337 7.66602 10.292 7.66602C9.95033 7.66602 9.66699 7.94935 9.66699 8.29102V23.7077C9.66699 24.0493 9.95033 24.3327 10.292 24.3327C10.6337 24.3327 10.917 24.0493 10.917 23.7077V19.641H19.6253C20.8253 19.641 21.6337 19.2743 21.9087 18.616C22.1837 17.9577 21.867 17.1327 21.017 16.2743Z" fill="white"/>
</svg>
