<svg width="206" height="206" viewBox="0 0 206 206" fill="none" xmlns="http://www.w3.org/2000/svg">
<path d="M103 206C159.885 206 206 159.885 206 103C206 46.1147 159.885 0 103 0C46.1147 0 0 46.1147 0 103C0 159.885 46.1147 206 103 206Z" fill="url(#paint0_linear_3538_24405)"/>
<g clip-path="url(#clip0_3538_24405)">
<path fill-rule="evenodd" clip-rule="evenodd" d="M116.911 108.345C114.833 111.307 112.391 113.997 109.641 116.349L129.41 135.727L136.935 127.971L116.911 108.345Z" fill="#0CA8B6"/>
<path fill-rule="evenodd" clip-rule="evenodd" d="M117.043 108.214C116.654 109.489 115.929 110.458 114.891 111.1L134.529 130.609L136.934 127.973L117.043 108.214Z" fill="#0A9BA8"/>
<path fill-rule="evenodd" clip-rule="evenodd" d="M154.441 160.879L162.935 152.125C164.426 150.588 164.388 148.11 162.852 146.619L139.326 123.79C137.789 122.298 135.31 122.336 133.819 123.873L125.325 132.626C123.834 134.163 123.871 136.642 125.408 138.133L148.934 160.961C150.471 162.453 152.949 162.416 154.441 160.879Z" fill="#F1BA84"/>
<path fill-rule="evenodd" clip-rule="evenodd" d="M135.849 123.791L159.374 146.619C160.911 148.111 160.949 150.588 159.457 152.126L150.963 160.879C150.658 161.194 150.301 161.455 149.908 161.65C151.385 162.384 153.237 162.122 154.444 160.879L162.937 152.126C164.429 150.588 164.391 148.111 162.854 146.619L139.329 123.79C138.116 122.612 136.315 122.388 134.877 123.102C135.234 123.28 135.562 123.512 135.849 123.791Z" fill="#E3A76F"/>
<path d="M115.101 117.072C131.83 100.342 131.83 73.2172 115.1 56.4877C98.3698 39.7583 71.2455 39.7587 54.516 56.4888C37.7865 73.2189 37.787 100.343 54.5171 117.073C71.2471 133.802 98.3715 133.802 115.101 117.072Z" fill="#0A9BA8"/>
<path d="M114.748 93.853C118.652 77.3188 108.413 60.7501 91.8792 56.8458C75.345 52.9416 58.7763 63.1802 54.872 79.7144C50.9678 96.2487 61.2064 112.817 77.7406 116.722C94.2749 120.626 110.844 110.387 114.748 93.853Z" fill="#ECEFF1"/>
<path fill-rule="evenodd" clip-rule="evenodd" d="M85.8112 62.4949L105.339 73.7694C105.977 74.1376 106.342 74.7695 106.342 75.5058V98.0549C106.342 98.7912 105.977 99.4235 105.339 99.7914L85.8112 111.066C85.1735 111.434 84.4436 111.434 83.806 111.066L64.278 99.7914C63.6403 99.4232 63.2754 98.7912 63.2754 98.0549V75.5058C63.2754 74.7695 63.6403 74.1373 64.278 73.7694L83.806 62.4949C84.4436 62.1267 85.1735 62.1267 85.8112 62.4949Z" fill="#F2D1A5"/>
<path fill-rule="evenodd" clip-rule="evenodd" d="M106.08 74.4995C106.25 74.7946 106.341 75.1352 106.342 75.5021V98.0588C106.341 98.7934 105.976 99.4239 105.339 99.7916L85.8112 111.066C85.4922 111.25 85.1504 111.342 84.8086 111.342V86.7806L106.08 74.4995Z" fill="#E8A172"/>
<path fill-rule="evenodd" clip-rule="evenodd" d="M85.8108 62.4949L105.339 73.7694C105.658 73.9535 105.908 74.2035 106.079 74.4996L84.8082 86.7804L63.5371 74.4996C63.7081 74.2035 63.9587 73.9535 64.2776 73.7694L83.8056 62.4949C84.4433 62.1267 85.1732 62.1267 85.8108 62.4949Z" fill="#D68753"/>
<path fill-rule="evenodd" clip-rule="evenodd" d="M70.9199 78.7652L77.1646 82.3704L98.6978 69.9383L92.4531 66.333L70.9199 78.7652Z" fill="#D1D1D6"/>
<path fill-rule="evenodd" clip-rule="evenodd" d="M76.4125 91.724L71.4212 88.8422C71.1023 88.6581 70.9199 88.3421 70.9199 87.974V78.7617L77.1646 82.367V91.2899C77.1646 91.4739 77.0735 91.6319 76.914 91.724C76.8382 91.7692 76.7515 91.793 76.6633 91.793C76.575 91.793 76.4883 91.7692 76.4125 91.724Z" fill="#ECEFF1"/>
<path fill-rule="evenodd" clip-rule="evenodd" d="M133.939 66.9395C133.417 66.9395 132.917 66.732 132.547 66.3628C132.178 65.9936 131.971 65.4928 131.971 64.9707C131.971 64.4486 132.178 63.9478 132.547 63.5786C132.917 63.2094 133.417 63.002 133.939 63.002H162.064C162.586 63.002 163.086 63.2094 163.456 63.5786C163.825 63.9478 164.032 64.4486 164.032 64.9707C164.032 65.4928 163.825 65.9936 163.456 66.3628C163.086 66.732 162.586 66.9395 162.064 66.9395H133.939ZM133.939 96.8396C133.417 96.8396 132.917 96.6322 132.547 96.263C132.178 95.8938 131.971 95.393 131.971 94.8708C131.971 94.3487 132.178 93.8479 132.547 93.4787C132.917 93.1095 133.417 92.9021 133.939 92.9021H162.064C162.586 92.9021 163.086 93.1095 163.456 93.4787C163.825 93.8479 164.032 94.3487 164.032 94.8708C164.032 95.393 163.825 95.8938 163.456 96.263C163.086 96.6322 162.586 96.8396 162.064 96.8396H133.939ZM133.939 81.8896C133.417 81.8896 132.917 81.6822 132.547 81.313C132.178 80.9438 131.971 80.443 131.971 79.9209C131.971 79.3988 132.178 78.898 132.547 78.5288C132.917 78.1596 133.417 77.9521 133.939 77.9521H153.873C154.395 77.9521 154.896 78.1596 155.265 78.5288C155.634 78.898 155.842 79.3988 155.842 79.9209C155.842 80.443 155.634 80.9438 155.265 81.313C154.896 81.6822 154.395 81.8896 153.873 81.8896H133.939Z" fill="#0CA8B6"/>
</g>
<defs>
<linearGradient id="paint0_linear_3538_24405" x1="103" y1="0" x2="103" y2="206" gradientUnits="userSpaceOnUse">
<stop stop-color="#E3ECFA"/>
<stop offset="1" stop-color="#DAE7FF"/>
</linearGradient>
<clipPath id="clip0_3538_24405">
<rect width="126" height="126" fill="white" transform="translate(40 40)"/>
</clipPath>
</defs>
</svg>
