<svg width="88" height="88" viewBox="0 0 88 88" fill="none" xmlns="http://www.w3.org/2000/svg">
<path d="M66.0001 11H11.0001C8.81205 11 6.71363 11.8692 5.16646 13.4164C3.61928 14.9635 2.75009 17.062 2.75009 19.25V57.75C2.7445 58.9392 3.00772 60.1143 3.52009 61.1875C3.71471 61.5964 4.00732 61.951 4.37192 62.2196C4.73653 62.4883 5.16184 62.6628 5.61009 62.7275H5.99509C6.38555 62.727 6.77142 62.6434 7.12705 62.4822C7.48267 62.3209 7.79988 62.0858 8.05759 61.7925L27.3076 39.985L37.9501 53.2675C38.1815 53.554 38.468 53.7912 38.7928 53.9649C39.1176 54.1385 39.4739 54.2452 39.8407 54.2786C40.2074 54.3119 40.5772 54.2712 40.9279 54.159C41.2787 54.0467 41.6033 53.8651 41.8826 53.625L52.2501 44.88L61.4351 52.745C61.8265 53.0821 62.3049 53.3022 62.8156 53.38C63.3263 53.4579 63.8485 53.3903 64.3226 53.185C66.3936 52.262 68.702 52.0119 70.9226 52.47C71.3268 52.5526 71.7444 52.5432 72.1444 52.4425C72.5445 52.3418 72.9167 52.1524 73.2337 51.8883C73.5506 51.6242 73.804 51.2922 73.9752 50.9168C74.1464 50.5415 74.2309 50.1325 74.2226 49.72V19.25C74.2226 17.0667 73.3572 14.9725 71.8159 13.4261C70.2747 11.8797 68.1834 11.0073 66.0001 11Z" fill="#07B1C1"/>
<path d="M65.01 48.565L54.01 39.16C53.5119 38.7339 52.878 38.4998 52.2225 38.4998C51.5671 38.4998 50.9331 38.7339 50.435 39.16L40.5075 47.6575L29.5075 33.9075C29.2535 33.626 28.9441 33.4001 28.5986 33.2439C28.2532 33.0877 27.8791 33.0047 27.5 33C27.1003 32.9926 26.7038 33.0724 26.3381 33.2338C25.9724 33.3953 25.6463 33.6346 25.3825 33.935L3.93253 58.19C3.58469 58.5866 3.35826 59.0749 3.28024 59.5966C3.20223 60.1183 3.27592 60.6515 3.49253 61.1325C4.14319 62.58 5.19752 63.809 6.52911 64.6724C7.86071 65.5357 9.41305 65.9967 11 66H55C55.7294 66 56.4288 65.7103 56.9446 65.1945C57.4603 64.6788 57.75 63.9793 57.75 63.25C57.7489 61.805 58.0325 60.374 58.5845 59.0386C59.1366 57.7033 59.9464 56.4898 60.9675 55.4675C61.93 54.4996 63.0688 53.7248 64.3225 53.185C64.7535 53.0021 65.1307 52.7123 65.4183 52.3428C65.7059 51.9734 65.8945 51.5367 65.9661 51.074C66.0377 50.6113 65.99 50.1381 65.8275 49.699C65.665 49.2599 65.3931 48.8696 65.0375 48.565H65.01Z" fill="#0099A8"/>
<path d="M78.4867 72.9849C75.9049 75.5668 72.4031 77.0173 68.7517 77.0173C65.1004 77.0173 61.5986 75.5668 59.0167 72.9849C56.4349 70.403 54.9844 66.9012 54.9844 63.2499C54.9844 59.5986 56.4349 56.0968 59.0167 53.5149C60.2339 52.3419 61.6614 51.409 63.2242 50.7649C65.7496 49.6345 68.5572 49.2922 71.2802 49.7829C74.0031 50.2735 76.5148 51.5742 78.4867 53.5149C79.7672 54.7922 80.7832 56.3095 81.4763 57.98C82.1695 59.6505 82.5263 61.4413 82.5263 63.2499C82.5263 65.0585 82.1695 66.8493 81.4763 68.5198C80.7832 70.1903 79.7672 71.7077 78.4867 72.9849Z" fill="white"/>
<path d="M68.7513 79.7502C65.4877 79.7528 62.2966 78.7874 59.5816 76.9763C56.8667 75.1651 54.7498 72.5895 53.4987 69.5752C52.2477 66.5609 51.9186 63.2433 52.5532 60.042C53.1878 56.8406 54.7575 53.8994 57.0638 51.5902C58.5962 50.0561 60.4159 48.8391 62.419 48.0087C64.4221 47.1784 66.5692 46.751 68.7375 46.751C70.9059 46.751 73.053 47.1784 75.056 48.0087C77.0591 48.8391 78.8789 50.0561 80.4113 51.5902C81.9454 53.1226 83.1624 54.9424 83.9928 56.9454C84.8231 58.9485 85.2505 61.0956 85.2505 63.264C85.2505 65.4323 84.8231 67.5794 83.9928 69.5825C83.1624 71.5855 81.9454 73.4053 80.4113 74.9377C77.3154 78.0229 73.1219 79.7537 68.7513 79.7502ZM68.7513 52.2502C65.8425 52.2552 63.0542 53.4121 60.9963 55.4677C59.9694 56.4898 59.1546 57.7047 58.5986 59.0426C58.0426 60.3805 57.7563 61.8151 57.7563 63.264C57.7563 64.7128 58.0426 66.1474 58.5986 67.4853C59.1546 68.8232 59.9694 70.0381 60.9963 71.0602C63.064 73.1243 65.8669 74.2824 68.7885 74.2798C71.7101 74.2772 74.511 73.1141 76.575 71.0465C78.6391 68.9788 79.7972 66.1758 79.7946 63.2542C79.792 60.3327 78.629 57.5318 76.5613 55.4677C75.0635 53.9536 73.1488 52.9197 71.0613 52.4977C70.3022 52.3339 69.5279 52.2509 68.7513 52.2502Z" fill="#07B1C1"/>
<path d="M59.016 75.735C58.4698 75.7381 57.935 75.5786 57.4798 75.2766C57.0246 74.9747 56.6697 74.544 56.4602 74.0395C56.2508 73.5351 56.1963 72.9797 56.3037 72.4441C56.4112 71.9085 56.6757 71.4171 57.0635 71.0325L76.506 51.59C77.0321 51.1394 77.7088 50.904 78.4009 50.9308C79.093 50.9575 79.7495 51.2444 80.2393 51.7342C80.7291 52.2239 81.016 52.8805 81.0427 53.5726C81.0694 54.2647 80.834 54.9414 80.3835 55.4675L60.941 74.91C60.4333 75.4281 59.7414 75.7246 59.016 75.735Z" fill="#07B1C1"/>
<path d="M44 33C47.0376 33 49.5 30.5376 49.5 27.5C49.5 24.4624 47.0376 22 44 22C40.9624 22 38.5 24.4624 38.5 27.5C38.5 30.5376 40.9624 33 44 33Z" fill="white"/>
</svg>
