<svg width="206" height="206" viewBox="0 0 206 206" fill="none" xmlns="http://www.w3.org/2000/svg">
<path d="M103 206C159.885 206 206 159.885 206 103C206 46.1147 159.885 0 103 0C46.1147 0 0 46.1147 0 103C0 159.885 46.1147 206 103 206Z" fill="url(#paint0_linear_3983_18081)"/>
<path d="M139.167 33.3335H56.8333C52.6341 33.3335 48.6068 35.0016 45.6375 37.971C42.6681 40.9403 41 44.9676 41 49.1668V106.167C41 107.007 41.3336 107.812 41.9275 108.406C42.5214 109 43.3268 109.333 44.1667 109.333H66.3333V169.5C66.3334 170.059 66.4815 170.608 66.7624 171.091C67.0433 171.574 67.4471 171.975 67.9328 172.251C68.4185 172.528 68.9687 172.671 69.5277 172.666C70.0866 172.661 70.6342 172.509 71.115 172.223L85.1433 163.8L96.1 172.033C96.6481 172.445 97.3148 172.667 98 172.667C98.6852 172.667 99.3519 172.445 99.9 172.033L110.667 163.927L121.718 171.875C122.261 172.271 122.915 172.485 123.587 172.485C124.258 172.485 124.913 172.271 125.455 171.875L136.158 163.832L150.187 172.255C150.67 172.55 151.224 172.709 151.791 172.717C152.357 172.725 152.915 172.58 153.407 172.299C153.898 172.017 154.306 171.609 154.586 171.117C154.866 170.625 155.009 170.066 155 169.5V49.1668C155 44.9676 153.332 40.9403 150.363 37.971C147.393 35.0016 143.366 33.3335 139.167 33.3335ZM47.3333 103V49.1668C47.3333 47.9193 47.5791 46.6839 48.0565 45.5313C48.5339 44.3787 49.2337 43.3315 50.1158 42.4493C50.998 41.5672 52.0452 40.8674 53.1978 40.39C54.3504 39.9126 55.5858 39.6668 56.8333 39.6668C58.0809 39.6668 59.3162 39.9126 60.4688 40.39C61.6214 40.8674 62.6687 41.5672 63.5508 42.4493C64.433 43.3315 65.1328 44.3787 65.6102 45.5313C66.0876 46.6839 66.3333 47.9193 66.3333 49.1668V103H47.3333Z" fill="white"/>
<path d="M128.186 126H92.4794C90.204 126 88.3594 127.845 88.3594 130.12C88.3594 132.395 90.204 134.24 92.4794 134.24H128.186C130.461 134.24 132.306 132.395 132.306 130.12C132.306 127.845 130.461 126 128.186 126Z" fill="#DFEAFB"/>
<path d="M140.547 142.479H80.12C77.8446 142.479 76 144.323 76 146.599C76 148.874 77.8446 150.719 80.12 150.719H140.547C142.822 150.719 144.667 148.874 144.667 146.599C144.667 144.323 142.822 142.479 140.547 142.479Z" fill="#DFEAFB"/>
<path d="M110.29 102.58C124.257 102.58 135.58 91.2573 135.58 77.29C135.58 63.3227 124.257 52 110.29 52C96.3227 52 85 63.3227 85 77.29C85 91.2573 96.3227 102.58 110.29 102.58Z" fill="#0099A8"/>
<path d="M119.234 89.2123L110.293 80.2709L101.352 89.2123L98.3711 86.2318L107.313 77.2905L98.3711 68.3491L101.352 65.3686L110.293 74.31L119.234 65.3686L122.215 68.3491L113.273 77.2905L122.215 86.2318L119.234 89.2123Z" fill="white"/>
<defs>
<linearGradient id="paint0_linear_3983_18081" x1="103" y1="0" x2="103" y2="206" gradientUnits="userSpaceOnUse">
<stop stop-color="#E3ECFA"/>
<stop offset="1" stop-color="#DAE7FF"/>
</linearGradient>
</defs>
</svg>
