<svg width="26" height="26" viewBox="0 0 26 26" fill="none" xmlns="http://www.w3.org/2000/svg">
<circle cx="13" cy="13" r="13" fill="#F4FDFE"/>
<path d="M13.0003 4.00064C9.68208 4.00064 7 6.73041 7 10.1074C7 10.8969 7.37466 12.1039 7.95903 13.4225C8.5434 14.741 9.32852 16.1835 10.1143 17.5158C11.556 19.9598 12.7714 21.6738 13.0003 22C13.2286 21.6738 14.444 19.9598 15.8857 17.5158C16.6721 16.1835 17.4572 14.741 18.041 13.4225C18.6253 12.1039 19 10.8962 19 10.1068C19 6.73043 16.3179 4 13.0003 4V4.00064ZM13.0003 5.30551C15.6447 5.30551 17.7955 7.49964 17.7955 10.1988C17.7955 12.8972 15.6447 15.092 13.0003 15.092C10.3553 15.092 8.20518 12.8972 8.20518 10.1988C8.20518 7.50029 10.3553 5.30551 13.0003 5.30551ZM13.0003 5.95794C12.4544 5.95725 11.9137 6.0665 11.4092 6.27938C10.9047 6.49226 10.4463 6.8046 10.0602 7.19854C9.6742 7.59247 9.36811 8.06025 9.1595 8.57508C8.95089 9.08991 8.84386 9.64166 8.84453 10.1988C8.84453 12.5449 10.7012 14.4396 13.0003 14.4396C15.2988 14.4396 17.1561 12.5449 17.1561 10.1988C17.1561 7.85261 15.2988 5.95794 13.0003 5.95794ZM13.0003 6.93659L14.6211 8.46326V8.39151C14.6201 8.3486 14.6276 8.30595 14.6429 8.26599C14.6583 8.22603 14.6812 8.18954 14.7105 8.15871C14.7398 8.12788 14.7747 8.10333 14.8134 8.08639C14.852 8.06946 14.8936 8.06053 14.9356 8.06011C15.1159 8.06011 15.263 8.20752 15.2604 8.39151V8.98397C15.2606 9.00898 15.258 9.03393 15.2528 9.05836L15.8774 9.64548H15.0827V12.8072H13.5482V10.7749H12.4518V12.8072H10.9173V9.64548H10.1232L13.0003 6.93659Z" fill="#0099A8"/>
</svg>
