<svg width="32" height="32" viewBox="0 0 32 32" fill="none" xmlns="http://www.w3.org/2000/svg">
<circle cx="16" cy="16" r="16" fill="#F9FEFF"/>
<path fill-rule="evenodd" clip-rule="evenodd" d="M13.9378 14.3219V24.5463C13.9378 24.5463 8.34326 22.1497 5.9991 21.1483L5.99219 21.1365V10.9185L5.9991 10.9316L13.9309 14.3296L13.9378 14.3219Z" fill="#FCD062"/>
<path fill-rule="evenodd" clip-rule="evenodd" d="M21.8767 10.918L21.8698 10.9304L13.938 14.3291V24.5472L21.8705 21.1478L21.8774 21.1354V10.918H21.8767Z" fill="#F8AA3A"/>
<path fill-rule="evenodd" clip-rule="evenodd" d="M13.8055 7.52148L5.99121 10.9194V10.9277L13.9389 14.3416L21.8908 10.9194L14.0212 7.52148H13.8069H13.8055Z" fill="#F8B84E"/>
<path d="M19.2594 20.1221L17.2768 20.9713L15.2935 21.8211M17.2768 19.6128L15.2935 20.4619" stroke="#1C4D7E" stroke-width="0.908" stroke-linecap="round" stroke-linejoin="round"/>
<path fill-rule="evenodd" clip-rule="evenodd" d="M16.3902 8.54834L16.3418 8.56564L8.44727 11.983V16.7823L9.84851 16.0903L11.2311 18.1664L11.2297 13.1795L19.1256 9.72621L16.3902 8.54834Z" fill="#E9EDED"/>
<path d="M21.7606 17.2822C20.7527 17.2837 19.7864 17.6851 19.0737 18.3986C18.361 19.1121 17.96 20.0795 17.9585 21.0885C17.9585 23.1868 19.6646 24.8948 21.7606 24.8948C23.8566 24.8948 25.5627 23.1868 25.5627 21.0885C25.5627 18.9902 23.8566 17.2822 21.7606 17.2822Z" fill="#0099A8"/>
<path fill-rule="evenodd" clip-rule="evenodd" d="M23.6518 19.7041C23.5742 19.7038 23.4987 19.7296 23.4375 19.7774L20.9634 21.6494L20.1387 20.646C20.1097 20.6109 20.0742 20.5819 20.0341 20.5605C19.994 20.5392 19.95 20.5259 19.9048 20.5216C19.8596 20.5173 19.814 20.5219 19.7705 20.5352C19.7271 20.5485 19.6867 20.5703 19.6517 20.5992C19.6166 20.6282 19.5876 20.6637 19.5663 20.7039C19.545 20.7441 19.5318 20.7881 19.5275 20.8333C19.5231 20.8786 19.5277 20.9243 19.541 20.9678C19.5543 21.0113 19.5761 21.0517 19.605 21.0868L20.6405 22.3457C20.6971 22.4148 20.7783 22.4593 20.8669 22.4698C20.9556 22.4804 21.0449 22.4562 21.1161 22.4023L23.8536 20.329C23.9122 20.286 23.9557 20.2256 23.978 20.1564C24.0003 20.0872 24.0003 20.0128 23.9779 19.9436C23.9556 19.8744 23.9121 19.8141 23.8535 19.7711C23.795 19.7281 23.7244 19.7047 23.6518 19.7041Z" fill="#E9EDED"/>
</svg>
