<svg width="125" height="130" viewBox="0 0 125 130" fill="none" xmlns="http://www.w3.org/2000/svg">
<g clip-path="url(#clip0_1007_2694)">
<rect width="125" height="130" rx="10" fill="#0099A8"/>
<path d="M38.732 76.144C38.732 76.568 38.632 76.968 38.432 77.344C38.232 77.72 37.912 78.028 37.472 78.268C37.032 78.5 36.468 78.616 35.78 78.616H34.268V82H32.9V73.66H35.78C36.42 73.66 36.96 73.772 37.4 73.996C37.848 74.212 38.18 74.508 38.396 74.884C38.62 75.26 38.732 75.68 38.732 76.144ZM35.78 77.5C36.3 77.5 36.688 77.384 36.944 77.152C37.2 76.912 37.328 76.576 37.328 76.144C37.328 75.232 36.812 74.776 35.78 74.776H34.268V77.5H35.78ZM39.5807 78.664C39.5807 78 39.7167 77.412 39.9887 76.9C40.2687 76.388 40.6447 75.992 41.1167 75.712C41.5967 75.424 42.1247 75.28 42.7007 75.28C43.2207 75.28 43.6727 75.384 44.0567 75.592C44.4487 75.792 44.7607 76.044 44.9927 76.348V75.388H46.3727V82H44.9927V81.016C44.7607 81.328 44.4447 81.588 44.0447 81.796C43.6447 82.004 43.1887 82.108 42.6767 82.108C42.1087 82.108 41.5887 81.964 41.1167 81.676C40.6447 81.38 40.2687 80.972 39.9887 80.452C39.7167 79.924 39.5807 79.328 39.5807 78.664ZM44.9927 78.688C44.9927 78.232 44.8967 77.836 44.7047 77.5C44.5207 77.164 44.2767 76.908 43.9727 76.732C43.6687 76.556 43.3407 76.468 42.9887 76.468C42.6367 76.468 42.3087 76.556 42.0047 76.732C41.7007 76.9 41.4527 77.152 41.2607 77.488C41.0767 77.816 40.9847 78.208 40.9847 78.664C40.9847 79.12 41.0767 79.52 41.2607 79.864C41.4527 80.208 41.7007 80.472 42.0047 80.656C42.3167 80.832 42.6447 80.92 42.9887 80.92C43.3407 80.92 43.6687 80.832 43.9727 80.656C44.2767 80.48 44.5207 80.224 44.7047 79.888C44.8967 79.544 44.9927 79.144 44.9927 78.688ZM54.1215 75.388L50.0655 85.108H48.6495L49.9935 81.892L47.3895 75.388H48.9135L50.7735 80.428L52.7055 75.388H54.1215ZM63.1579 75.28C63.6779 75.28 64.1419 75.388 64.5499 75.604C64.9659 75.82 65.2899 76.14 65.5219 76.564C65.7619 76.988 65.8819 77.5 65.8819 78.1V82H64.5259V78.304C64.5259 77.712 64.3779 77.26 64.0819 76.948C63.7859 76.628 63.3819 76.468 62.8699 76.468C62.3579 76.468 61.9499 76.628 61.6459 76.948C61.3499 77.26 61.2019 77.712 61.2019 78.304V82H59.8459V78.304C59.8459 77.712 59.6979 77.26 59.4019 76.948C59.1059 76.628 58.7019 76.468 58.1899 76.468C57.6779 76.468 57.2699 76.628 56.9659 76.948C56.6699 77.26 56.5219 77.712 56.5219 78.304V82H55.1539V75.388H56.5219V76.144C56.7459 75.872 57.0299 75.66 57.3739 75.508C57.7179 75.356 58.0859 75.28 58.4779 75.28C59.0059 75.28 59.4779 75.392 59.8939 75.616C60.3099 75.84 60.6299 76.164 60.8539 76.588C61.0539 76.188 61.3659 75.872 61.7899 75.64C62.2139 75.4 62.6699 75.28 63.1579 75.28ZM73.6827 78.532C73.6827 78.78 73.6667 79.004 73.6347 79.204H68.5827C68.6227 79.732 68.8187 80.156 69.1707 80.476C69.5227 80.796 69.9547 80.956 70.4667 80.956C71.2027 80.956 71.7227 80.648 72.0267 80.032H73.5027C73.3027 80.64 72.9387 81.14 72.4107 81.532C71.8907 81.916 71.2427 82.108 70.4667 82.108C69.8347 82.108 69.2667 81.968 68.7627 81.688C68.2667 81.4 67.8747 81 67.5867 80.488C67.3067 79.968 67.1667 79.368 67.1667 78.688C67.1667 78.008 67.3027 77.412 67.5747 76.9C67.8547 76.38 68.2427 75.98 68.7387 75.7C69.2427 75.42 69.8187 75.28 70.4667 75.28C71.0907 75.28 71.6467 75.416 72.1347 75.688C72.6227 75.96 73.0027 76.344 73.2747 76.84C73.5467 77.328 73.6827 77.892 73.6827 78.532ZM72.2547 78.1C72.2467 77.596 72.0667 77.192 71.7147 76.888C71.3627 76.584 70.9267 76.432 70.4067 76.432C69.9347 76.432 69.5307 76.584 69.1947 76.888C68.8587 77.184 68.6587 77.588 68.5947 78.1H72.2547ZM78.3649 75.28C78.8849 75.28 79.3489 75.388 79.7569 75.604C80.1729 75.82 80.4969 76.14 80.7289 76.564C80.9609 76.988 81.0769 77.5 81.0769 78.1V82H79.7209V78.304C79.7209 77.712 79.5729 77.26 79.2769 76.948C78.9809 76.628 78.5769 76.468 78.0649 76.468C77.5529 76.468 77.1449 76.628 76.8409 76.948C76.5449 77.26 76.3969 77.712 76.3969 78.304V82H75.0289V75.388H76.3969V76.144C76.6209 75.872 76.9049 75.66 77.2489 75.508C77.6009 75.356 77.9729 75.28 78.3649 75.28ZM84.4179 76.504V80.164C84.4179 80.412 84.4739 80.592 84.5859 80.704C84.7059 80.808 84.9059 80.86 85.1859 80.86H86.0259V82H84.9459C84.3299 82 83.8579 81.856 83.5299 81.568C83.2019 81.28 83.0379 80.812 83.0379 80.164V76.504H82.2579V75.388H83.0379V73.744H84.4179V75.388H86.0259V76.504H84.4179ZM89.6867 82.108C89.1667 82.108 88.6987 82.016 88.2827 81.832C87.8747 81.64 87.5507 81.384 87.3107 81.064C87.0707 80.736 86.9427 80.372 86.9267 79.972H88.3427C88.3667 80.252 88.4987 80.488 88.7387 80.68C88.9867 80.864 89.2947 80.956 89.6627 80.956C90.0467 80.956 90.3427 80.884 90.5507 80.74C90.7667 80.588 90.8747 80.396 90.8747 80.164C90.8747 79.916 90.7547 79.732 90.5147 79.612C90.2827 79.492 89.9107 79.36 89.3987 79.216C88.9027 79.08 88.4987 78.948 88.1867 78.82C87.8747 78.692 87.6027 78.496 87.3707 78.232C87.1467 77.968 87.0347 77.62 87.0347 77.188C87.0347 76.836 87.1387 76.516 87.3467 76.228C87.5547 75.932 87.8507 75.7 88.2347 75.532C88.6267 75.364 89.0747 75.28 89.5787 75.28C90.3307 75.28 90.9347 75.472 91.3907 75.856C91.8547 76.232 92.1027 76.748 92.1347 77.404H90.7667C90.7427 77.108 90.6227 76.872 90.4067 76.696C90.1907 76.52 89.8987 76.432 89.5307 76.432C89.1707 76.432 88.8947 76.5 88.7027 76.636C88.5107 76.772 88.4147 76.952 88.4147 77.176C88.4147 77.352 88.4787 77.5 88.6067 77.62C88.7347 77.74 88.8907 77.836 89.0747 77.908C89.2587 77.972 89.5307 78.056 89.8907 78.16C90.3707 78.288 90.7627 78.42 91.0667 78.556C91.3787 78.684 91.6467 78.876 91.8707 79.132C92.0947 79.388 92.2107 79.728 92.2187 80.152C92.2187 80.528 92.1147 80.864 91.9067 81.16C91.6987 81.456 91.4027 81.688 91.0187 81.856C90.6427 82.024 90.1987 82.108 89.6867 82.108Z" fill="white"/>
<path d="M44.8831 113.408C44.8831 114.624 44.5525 115.744 43.8911 116.768C43.2511 117.771 42.3018 118.581 41.0431 119.2C39.8058 119.819 38.3125 120.16 36.5631 120.224V122.784H34.5471V120.16C32.2005 119.947 30.2805 119.232 28.7871 118.016C27.3151 116.8 26.5365 115.147 26.4511 113.056H33.1391C33.2245 114.144 33.6938 114.859 34.5471 115.2V111.104C32.7551 110.613 31.3471 110.165 30.3231 109.76C29.2991 109.333 28.3818 108.651 27.5711 107.712C26.7818 106.773 26.3871 105.493 26.3871 103.872C26.3871 102.528 26.7391 101.365 27.4431 100.384C28.1685 99.3813 29.1498 98.6133 30.3871 98.08C31.6245 97.5253 33.0111 97.2053 34.5471 97.12V94.528H36.5631V97.12C38.9311 97.2907 40.8085 97.9733 42.1951 99.168C43.6031 100.363 44.3818 102.005 44.5311 104.096H37.7791C37.6938 103.115 37.2885 102.464 36.5631 102.144V106.208L37.3631 106.464C38.8991 106.891 40.1685 107.339 41.1711 107.808C42.1951 108.256 43.0698 108.939 43.7951 109.856C44.5205 110.752 44.8831 111.936 44.8831 113.408ZM33.0751 103.584C33.0751 104.352 33.5658 104.981 34.5471 105.472V101.952C33.5658 102.123 33.0751 102.667 33.0751 103.584ZM36.5631 115.36C37.0751 115.253 37.4805 115.051 37.7791 114.752C38.0778 114.432 38.2271 114.037 38.2271 113.568C38.2271 112.821 37.6725 112.213 36.5631 111.744V115.36ZM46.9354 102.496V96.608H56.7914V120H50.2314V102.496H46.9354ZM59.9824 107.968C59.9824 104.299 60.729 101.408 62.2224 99.296C63.7157 97.184 66.0624 96.128 69.2624 96.128C72.4624 96.128 74.809 97.184 76.3024 99.296C77.817 101.408 78.5744 104.299 78.5744 107.968C78.5744 111.68 77.8277 114.592 76.3344 116.704C74.841 118.816 72.4837 119.872 69.2624 119.872C66.041 119.872 63.6837 118.816 62.1904 116.704C60.7184 114.592 59.9824 111.68 59.9824 107.968ZM72.3664 107.968C72.3664 106.048 72.1637 104.587 71.7584 103.584C71.353 102.56 70.521 102.048 69.2624 102.048C68.0037 102.048 67.1717 102.56 66.7664 103.584C66.361 104.587 66.1584 106.048 66.1584 107.968C66.1584 109.931 66.3504 111.424 66.7344 112.448C67.1397 113.451 67.9824 113.952 69.2624 113.952C70.5424 113.952 71.3744 113.451 71.7584 112.448C72.1637 111.424 72.3664 109.931 72.3664 107.968ZM81.0136 107.968C81.0136 104.299 81.7603 101.408 83.2536 99.296C84.747 97.184 87.0936 96.128 90.2936 96.128C93.4936 96.128 95.8403 97.184 97.3336 99.296C98.8483 101.408 99.6056 104.299 99.6056 107.968C99.6056 111.68 98.859 114.592 97.3656 116.704C95.8723 118.816 93.515 119.872 90.2936 119.872C87.0723 119.872 84.715 118.816 83.2216 116.704C81.7496 114.592 81.0136 111.68 81.0136 107.968ZM93.3976 107.968C93.3976 106.048 93.195 104.587 92.7896 103.584C92.3843 102.56 91.5523 102.048 90.2936 102.048C89.035 102.048 88.203 102.56 87.7976 103.584C87.3923 104.587 87.1896 106.048 87.1896 107.968C87.1896 109.931 87.3816 111.424 87.7656 112.448C88.171 113.451 89.0136 113.952 90.2936 113.952C91.5736 113.952 92.4056 113.451 92.7896 112.448C93.195 111.424 93.3976 109.931 93.3976 107.968Z" fill="white"/>
<path d="M47.5683 -31.4438L141 -31.4438V58.2231C141 58.2231 99.0097 62.6722 88.9794 15.9564C78.9491 -30.7594 47.5683 -31.4438 47.5683 -31.4438Z" fill="white" fill-opacity="0.1"/>
<path d="M41.9214 -40L135.353 -40V49.6669C135.353 49.6669 135.524 9.28259 83.3324 7.40026C31.1408 5.51794 41.9214 -40 41.9214 -40Z" fill="white" fill-opacity="0.1"/>
<g clip-path="url(#clip1_1007_2694)">
<path d="M55.1666 6.66665V35C55.1666 38.1166 52.6166 40.6666 49.4999 40.6666H4.16658C2.60825 40.6666 1.33325 39.3916 1.33325 37.8333C1.33325 36.275 2.60825 35 4.16658 35H49.4999V6.66665C49.4999 5.10831 50.7749 3.83331 52.3333 3.83331C53.8916 3.83331 55.1666 5.10831 55.1666 6.66665ZM1.33325 29.3333C-3.37008 29.3333 -7.16675 25.5366 -7.16675 20.8333V3.83331C-7.16675 -0.87002 -3.37008 -4.66669 1.33325 -4.66669H35.3333C40.0366 -4.66669 43.8333 -0.87002 43.8333 3.83331V23.6666C43.8333 26.7833 41.2832 29.3333 38.1666 29.3333H1.33325ZM9.83325 12.3333C9.83325 17.0366 13.6299 20.8333 18.3333 20.8333C23.0366 20.8333 26.8333 17.0366 26.8333 12.3333C26.8333 7.62998 23.0366 3.83331 18.3333 3.83331C13.6299 3.83331 9.83325 7.62998 9.83325 12.3333Z" fill="white" fill-opacity="0.2"/>
</g>
</g>
<defs>
<clipPath id="clip0_1007_2694">
<rect width="125" height="130" rx="10" fill="white"/>
</clipPath>
<clipPath id="clip1_1007_2694">
<rect width="68" height="68" fill="white" transform="translate(-10 -16)"/>
</clipPath>
</defs>
</svg>
