<svg width="40" height="11" viewBox="0 0 40 11" fill="none" xmlns="http://www.w3.org/2000/svg">
<path d="M6.77082 0.51742C6.26946 0.172752 5.61522 0 4.8081 0H1.6834C1.43597 0 1.29927 0.123744 1.2733 0.370993L0.00398437 8.33884C-0.00920786 8.4171 0.0103715 8.48867 0.0625435 8.55373C0.114417 8.61892 0.179662 8.65133 0.2578 8.65133H1.74202C2.00234 8.65133 2.14542 8.52789 2.17169 8.28034L2.52316 6.13222C2.536 6.02812 2.58178 5.94347 2.65992 5.87829C2.738 5.81322 2.83566 5.77066 2.95284 5.7512C3.07001 5.73186 3.18051 5.72207 3.28485 5.72207C3.3889 5.72207 3.51252 5.72869 3.65596 5.74165C3.79905 5.7546 3.89026 5.76099 3.92936 5.76099C5.04897 5.76099 5.92777 5.44551 6.56583 4.81384C7.2036 4.18252 7.52284 3.30706 7.52284 2.1871C7.52284 1.41897 7.27195 0.862447 6.77082 0.517241V0.51742ZM5.15976 2.90992C5.09445 3.36568 4.9254 3.66498 4.65201 3.80825C4.37855 3.95169 3.98798 4.02308 3.48029 4.02308L2.83578 4.04254L3.16785 1.95286C3.19376 1.80978 3.27834 1.73815 3.42167 1.73815H3.79284C4.31337 1.73815 4.69116 1.81318 4.92552 1.96265C5.15976 2.11248 5.2379 2.42832 5.15976 2.90992Z" fill="#003087"/>
<path d="M39.7458 0H38.3008C38.1571 0 38.0726 0.0716326 38.0468 0.214956L36.7774 8.3392L36.7578 8.37824C36.7578 8.44366 36.7838 8.5052 36.8361 8.56382C36.8878 8.62232 36.9532 8.65163 37.0313 8.65163H38.3204C38.5674 8.65163 38.7041 8.52818 38.7306 8.28064L39.9999 0.293094V0.273694C39.9998 0.091331 39.9149 0.000239552 39.7458 0.000239552V0Z" fill="#009CDE"/>
<path d="M22.2868 3.14547C22.2868 3.08052 22.2606 3.01856 22.2089 2.96012C22.1567 2.90156 22.098 2.87207 22.0331 2.87207H20.5294C20.3858 2.87207 20.2687 2.93749 20.1777 3.06733L18.1076 6.11401L17.2484 3.18462C17.1829 2.97647 17.0399 2.87207 16.8187 2.87207H15.3538C15.2886 2.87207 15.23 2.90144 15.1782 2.96012C15.126 3.01856 15.1001 3.08064 15.1001 3.14547C15.1001 3.17167 15.2271 3.55562 15.4809 4.29772C15.7347 5.04007 16.0081 5.84079 16.3011 6.70013C16.5941 7.5593 16.7469 8.01523 16.76 8.06687C15.6923 9.52529 15.1587 10.3064 15.1587 10.4104C15.1587 10.5798 15.2432 10.6644 15.4126 10.6644H16.9163C17.0595 10.6644 17.1766 10.5994 17.2679 10.4692L22.248 3.2821C22.2738 3.25632 22.2868 3.21095 22.2868 3.14541V3.14547Z" fill="#003087"/>
<path d="M36.2897 2.87107H34.8055C34.623 2.87107 34.5128 3.08597 34.4737 3.5157C34.1347 2.99506 33.5167 2.73438 32.6182 2.73438C31.6808 2.73438 30.8833 3.08597 30.2259 3.78904C29.5684 4.49211 29.2397 5.3191 29.2397 6.26942C29.2397 7.03773 29.4643 7.64959 29.9134 8.10511C30.3626 8.56111 30.9646 8.78866 31.72 8.78866C32.0975 8.78866 32.4816 8.71041 32.8722 8.55431C33.2627 8.39809 33.5684 8.18988 33.7902 7.92938C33.7902 7.94245 33.7769 8.00083 33.7511 8.10494C33.7248 8.20928 33.712 8.28766 33.712 8.33929C33.712 8.54786 33.7964 8.65173 33.9659 8.65173H35.3135C35.5606 8.65173 35.704 8.52828 35.7429 8.28073L36.5437 3.18351C36.5566 3.10531 36.5371 3.03386 36.4851 2.96867C36.4328 2.90372 36.3678 2.87107 36.2897 2.87107ZM33.7412 6.71856C33.4092 7.04406 33.0088 7.20673 32.5402 7.20673C32.1624 7.20673 31.8567 7.10274 31.6223 6.89429C31.3878 6.68644 31.2706 6.39997 31.2706 6.035C31.2706 5.55364 31.4334 5.14641 31.759 4.81445C32.084 4.48244 32.488 4.31649 32.9698 4.31649C33.334 4.31649 33.6368 4.42388 33.8779 4.6386C34.1185 4.85349 34.2393 5.14969 34.2393 5.52737C34.2392 5.99603 34.0732 6.39323 33.7412 6.71856Z" fill="#009CDE"/>
<path d="M14.1039 2.87107H12.6197C12.4371 2.87107 12.3267 3.08597 12.2876 3.5157C11.9361 2.99506 11.3176 2.73438 10.4323 2.73438C9.49485 2.73438 8.6973 3.08597 8.0399 3.78904C7.38232 4.49211 7.05371 5.3191 7.05371 6.26942C7.05371 7.03773 7.27834 7.64959 7.72753 8.10511C8.17672 8.56111 8.77872 8.78866 9.53395 8.78866C9.89832 8.78866 10.2761 8.71041 10.6666 8.55431C11.0572 8.39809 11.3697 8.18988 11.604 7.92938C11.5518 8.08548 11.5259 8.22223 11.5259 8.33929C11.5259 8.54786 11.6105 8.65173 11.7798 8.65173H13.1273C13.3745 8.65173 13.5179 8.52828 13.557 8.28073L14.3576 3.18351C14.3705 3.10531 14.351 3.03386 14.2991 2.96867C14.247 2.90372 14.1819 2.87107 14.1039 2.87107ZM11.5553 6.72822C11.2233 7.04758 10.8162 7.20673 10.3348 7.20673C9.957 7.20673 9.65429 7.10274 9.42663 6.89429C9.19866 6.68644 9.08482 6.39997 9.08482 6.035C9.08482 5.55364 9.24749 5.14641 9.57311 4.81445C9.89838 4.48244 10.302 4.31643 10.7839 4.31643C11.1483 4.31643 11.451 4.42388 11.6921 4.6386C11.9328 4.85349 12.0534 5.14969 12.0534 5.52737C12.0533 6.0091 11.8873 6.40958 11.5553 6.72822Z" fill="#003087"/>
<path d="M28.9565 0.51742C28.4552 0.172752 27.8011 0 26.9938 0H23.8886C23.6281 0 23.4848 0.123744 23.459 0.370993L22.1895 8.33884C22.1763 8.4171 22.1959 8.48867 22.2481 8.55373C22.2998 8.61892 22.3652 8.65133 22.4433 8.65133H24.0447C24.2009 8.65133 24.305 8.5668 24.3572 8.39752L24.7088 6.13222C24.7217 6.02812 24.7673 5.94347 24.8455 5.87829C24.9237 5.81322 25.0212 5.77066 25.1385 5.7512C25.2555 5.73186 25.366 5.72207 25.4704 5.72207C25.5746 5.72207 25.6981 5.72869 25.8414 5.74165C25.9846 5.7546 26.076 5.76099 26.1148 5.76099C27.2347 5.76099 28.1133 5.44551 28.7514 4.81384C29.3894 4.18252 29.7083 3.30706 29.7083 2.1871C29.7084 1.41897 29.4576 0.862387 28.9565 0.517241V0.51742ZM26.9548 3.73005C26.6683 3.9253 26.2386 4.0229 25.6659 4.0229L25.0408 4.04248L25.3728 1.95274C25.3986 1.80972 25.4833 1.73797 25.6267 1.73797H25.9781C26.2645 1.73797 26.4923 1.75104 26.6619 1.77701C26.8308 1.80315 26.9938 1.88439 27.15 2.02103C27.3064 2.15779 27.3844 2.35645 27.3844 2.61671C27.3844 3.16374 27.241 3.53461 26.9548 3.73005Z" fill="#009CDE"/>
</svg>
