<svg width="60" height="60" viewBox="0 0 60 60" fill="none" xmlns="http://www.w3.org/2000/svg">
<path fill-rule="evenodd" clip-rule="evenodd" d="M33.5535 3.41483L37.1261 6.08905C38.1032 6.82042 39.1317 7.19472 40.3503 7.26257L44.8059 7.51042C47.4739 7.65878 49.6408 9.47694 50.2502 12.0787L51.2681 16.4237C51.5464 17.612 52.0936 18.5598 52.9836 19.395L56.2375 22.449C58.1859 24.2776 58.677 27.0633 57.4716 29.448L55.4585 33.4307C54.9079 34.5199 54.7178 35.5977 54.8627 36.8095L55.3924 41.2406C55.7095 43.8939 54.2951 46.3434 51.8389 47.3954L47.7366 49.1523C46.6147 49.6328 45.7763 50.3362 45.1083 51.3576L42.6658 55.0924C41.2033 57.3287 38.5452 58.2961 35.9875 57.5231L31.7158 56.2322C30.5476 55.8791 29.4531 55.8791 28.2848 56.2322L24.0131 57.5231C21.4553 58.2961 18.7973 57.3287 17.3348 55.0924L14.8922 51.3576C14.2242 50.3362 13.3858 49.6328 12.264 49.1523L8.16146 47.3952C5.70521 46.3432 4.29087 43.8936 4.60798 41.2404L5.13767 36.8093C5.28251 35.5975 5.09244 34.5197 4.54189 33.4304L2.52873 29.4478C1.32334 27.0632 1.81447 24.2775 3.76283 22.4488L7.01677 19.3948C7.90669 18.5596 8.45384 17.6117 8.73216 16.4235L9.75005 12.0785C10.3594 9.47683 12.5263 7.65866 15.1944 7.51019L19.6499 7.26233C20.8686 7.1946 21.897 6.82019 22.8741 6.08882L26.4467 3.4146C28.5857 1.81358 31.4144 1.81358 33.5535 3.41483Z" fill="#FFE177"/>
<path fill-rule="evenodd" clip-rule="evenodd" d="M33.5535 3.41473L37.1261 6.08895C38.1032 6.82032 39.1316 7.19461 40.3502 7.26247L44.8058 7.51032C47.4738 7.65868 49.6407 9.47684 50.2501 12.0786L51.268 16.4236C51.5463 17.6119 52.0936 18.5597 52.9835 19.3949L56.2375 22.4489C58.1858 24.2775 58.677 27.0632 57.4716 29.4479L55.4584 33.4306C54.9078 34.5198 54.7178 35.5976 54.8626 36.8094L55.3923 41.2405C55.7094 43.8938 54.2951 46.3433 51.8388 47.3953L47.7366 49.1522C46.6146 49.6327 45.7763 50.3361 45.1083 51.3575L42.6657 55.0923C41.3137 57.1596 38.9402 58.1423 36.5687 57.6684C38.0711 57.3626 39.4226 56.4675 40.322 55.0923L42.7645 51.3575C43.4325 50.3361 44.2709 49.6325 45.3928 49.1522L49.4951 47.3953C51.9514 46.3433 53.3657 43.8938 53.0486 41.2405L52.5189 36.8094C52.374 35.5976 52.5641 34.5198 53.1146 33.4306L55.1278 29.4479C56.3332 27.0633 55.8421 24.2776 53.8937 22.4489L50.6398 19.3949C49.7498 18.5597 49.2027 17.6119 48.9243 16.4236L47.9064 12.0786C47.297 9.47696 45.1301 7.65879 42.4621 7.51032L38.0065 7.26247C36.7879 7.19473 35.7594 6.82032 34.7823 6.08895L31.2097 3.41473C30.4781 2.86712 29.6659 2.50688 28.8282 2.33379C30.4398 2.00086 32.1459 2.3611 33.5535 3.41473ZM28.8281 56.092C28.645 56.1309 28.4637 56.1775 28.2846 56.2318L24.0129 57.5228C23.028 57.8204 22.0284 57.8597 21.0879 57.6682C21.2838 57.629 21.4777 57.5805 21.669 57.5228L25.9407 56.2318C26.9262 55.9341 27.8591 55.8874 28.8281 56.092Z" fill="#FFD064"/>
<path d="M42.8889 42.889C50.0073 35.7704 50.0071 24.229 42.8885 17.1106C35.7699 9.99227 24.2285 9.99247 17.1101 17.1111C9.99177 24.2297 9.99197 35.7711 17.1106 42.8894C24.2292 50.0078 35.7706 50.0076 42.8889 42.889Z" fill="#FFD064"/>
<path fill-rule="evenodd" clip-rule="evenodd" d="M29.9999 11.772C30.3938 11.772 30.7842 11.7859 31.1718 11.8105C21.651 12.4149 14.1157 20.3268 14.1157 30C14.1157 39.6733 21.6511 47.5852 31.1719 48.1895C30.7844 48.2141 30.3938 48.2281 30 48.2281C19.9329 48.2281 11.772 40.0671 11.772 30C11.7719 19.933 19.9328 11.772 29.9999 11.772Z" fill="#FFC338"/>
<path fill-rule="evenodd" clip-rule="evenodd" d="M27.7211 31.5306L36.1581 23.0095C37.1568 22.0008 38.7862 21.9979 39.7919 22.9982C40.7975 23.9982 40.8006 25.6229 39.803 26.6298C36.3817 30.0827 32.9835 33.5586 29.5464 36.9957C28.5415 38.0006 26.9117 38.0005 25.9068 36.9957L20.2043 31.2933C19.1995 30.2885 19.1995 28.6586 20.2043 27.6537C21.2091 26.6489 22.8392 26.6489 23.844 27.6537L27.7211 31.5306Z" fill="#ECEFF1"/>
</svg>
