<svg width="24" height="24" viewBox="0 0 24 24" fill="none" xmlns="http://www.w3.org/2000/svg">
<rect width="24" height="24" fill="white"/>
<path d="M1.36133 1.36182H2.21239V2.21288H1.36133V1.36182ZM2.21239 1.36182H3.06346V2.21288H2.21239V1.36182ZM3.06346 1.36182H3.91452V2.21288H3.06346V1.36182ZM3.91452 1.36182H4.76558V2.21288H3.91452V1.36182ZM4.76558 1.36182H5.61665V2.21288H4.76558V1.36182ZM5.61665 1.36182H6.46771V2.21288H5.61665V1.36182ZM6.46771 1.36182H7.31878V2.21288H6.46771V1.36182ZM10.723 1.36182H11.5741V2.21288H10.723V1.36182ZM13.2762 1.36182H14.1273V2.21288H13.2762V1.36182ZM14.1273 1.36182H14.9783V2.21288H14.1273V1.36182ZM14.9783 1.36182H15.8294V2.21288H14.9783V1.36182ZM16.6805 1.36182H17.5315V2.21288H16.6805V1.36182ZM17.5315 1.36182H18.3826V2.21288H17.5315V1.36182ZM18.3826 1.36182H19.2337V2.21288H18.3826V1.36182ZM19.2337 1.36182H20.0847V2.21288H19.2337V1.36182ZM20.0847 1.36182H20.9358V2.21288H20.0847V1.36182ZM20.9358 1.36182H21.7869V2.21288H20.9358V1.36182ZM21.7869 1.36182H22.6379V2.21288H21.7869V1.36182ZM1.36133 2.21288H2.21239V3.06394H1.36133V2.21288ZM6.46771 2.21288H7.31878V3.06394H6.46771V2.21288ZM9.0209 2.21288H9.87197V3.06394H9.0209V2.21288ZM12.4252 2.21288H13.2762V3.06394H12.4252V2.21288ZM13.2762 2.21288H14.1273V3.06394H13.2762V2.21288ZM14.9783 2.21288H15.8294V3.06394H14.9783V2.21288ZM16.6805 2.21288H17.5315V3.06394H16.6805V2.21288ZM21.7869 2.21288H22.6379V3.06394H21.7869V2.21288ZM1.36133 3.06394H2.21239V3.91501H1.36133V3.06394ZM3.06346 3.06394H3.91452V3.91501H3.06346V3.06394ZM3.91452 3.06394H4.76558V3.91501H3.91452V3.06394ZM4.76558 3.06394H5.61665V3.91501H4.76558V3.06394ZM6.46771 3.06394H7.31878V3.91501H6.46771V3.06394ZM9.0209 3.06394H9.87197V3.91501H9.0209V3.06394ZM9.87197 3.06394H10.723V3.91501H9.87197V3.06394ZM11.5741 3.06394H12.4252V3.91501H11.5741V3.06394ZM13.2762 3.06394H14.1273V3.91501H13.2762V3.06394ZM14.1273 3.06394H14.9783V3.91501H14.1273V3.06394ZM16.6805 3.06394H17.5315V3.91501H16.6805V3.06394ZM18.3826 3.06394H19.2337V3.91501H18.3826V3.06394ZM19.2337 3.06394H20.0847V3.91501H19.2337V3.06394ZM20.0847 3.06394H20.9358V3.91501H20.0847V3.06394ZM21.7869 3.06394H22.6379V3.91501H21.7869V3.06394ZM1.36133 3.91501H2.21239V4.76607H1.36133V3.91501ZM3.06346 3.91501H3.91452V4.76607H3.06346V3.91501ZM3.91452 3.91501H4.76558V4.76607H3.91452V3.91501ZM4.76558 3.91501H5.61665V4.76607H4.76558V3.91501ZM6.46771 3.91501H7.31878V4.76607H6.46771V3.91501ZM8.16984 3.91501H9.0209V4.76607H8.16984V3.91501ZM9.0209 3.91501H9.87197V4.76607H9.0209V3.91501ZM11.5741 3.91501H12.4252V4.76607H11.5741V3.91501ZM13.2762 3.91501H14.1273V4.76607H13.2762V3.91501ZM14.1273 3.91501H14.9783V4.76607H14.1273V3.91501ZM16.6805 3.91501H17.5315V4.76607H16.6805V3.91501ZM18.3826 3.91501H19.2337V4.76607H18.3826V3.91501ZM19.2337 3.91501H20.0847V4.76607H19.2337V3.91501ZM20.0847 3.91501H20.9358V4.76607H20.0847V3.91501ZM21.7869 3.91501H22.6379V4.76607H21.7869V3.91501ZM1.36133 4.76607H2.21239V5.61714H1.36133V4.76607ZM3.06346 4.76607H3.91452V5.61714H3.06346V4.76607ZM3.91452 4.76607H4.76558V5.61714H3.91452V4.76607ZM4.76558 4.76607H5.61665V5.61714H4.76558V4.76607ZM6.46771 4.76607H7.31878V5.61714H6.46771V4.76607ZM9.87197 4.76607H10.723V5.61714H9.87197V4.76607ZM10.723 4.76607H11.5741V5.61714H10.723V4.76607ZM11.5741 4.76607H12.4252V5.61714H11.5741V4.76607ZM12.4252 4.76607H13.2762V5.61714H12.4252V4.76607ZM13.2762 4.76607H14.1273V5.61714H13.2762V4.76607ZM16.6805 4.76607H17.5315V5.61714H16.6805V4.76607ZM18.3826 4.76607H19.2337V5.61714H18.3826V4.76607ZM19.2337 4.76607H20.0847V5.61714H19.2337V4.76607ZM20.0847 4.76607H20.9358V5.61714H20.0847V4.76607ZM21.7869 4.76607H22.6379V5.61714H21.7869V4.76607ZM1.36133 5.61714H2.21239V6.4682H1.36133V5.61714ZM6.46771 5.61714H7.31878V6.4682H6.46771V5.61714ZM8.16984 5.61714H9.0209V6.4682H8.16984V5.61714ZM10.723 5.61714H11.5741V6.4682H10.723V5.61714ZM14.9783 5.61714H15.8294V6.4682H14.9783V5.61714ZM16.6805 5.61714H17.5315V6.4682H16.6805V5.61714ZM21.7869 5.61714H22.6379V6.4682H21.7869V5.61714ZM1.36133 6.4682H2.21239V7.31926H1.36133V6.4682ZM2.21239 6.4682H3.06346V7.31926H2.21239V6.4682ZM3.06346 6.4682H3.91452V7.31926H3.06346V6.4682ZM3.91452 6.4682H4.76558V7.31926H3.91452V6.4682ZM4.76558 6.4682H5.61665V7.31926H4.76558V6.4682ZM5.61665 6.4682H6.46771V7.31926H5.61665V6.4682ZM6.46771 6.4682H7.31878V7.31926H6.46771V6.4682ZM8.16984 6.4682H9.0209V7.31926H8.16984V6.4682ZM9.87197 6.4682H10.723V7.31926H9.87197V6.4682ZM11.5741 6.4682H12.4252V7.31926H11.5741V6.4682ZM13.2762 6.4682H14.1273V7.31926H13.2762V6.4682ZM14.9783 6.4682H15.8294V7.31926H14.9783V6.4682ZM16.6805 6.4682H17.5315V7.31926H16.6805V6.4682ZM17.5315 6.4682H18.3826V7.31926H17.5315V6.4682ZM18.3826 6.4682H19.2337V7.31926H18.3826V6.4682ZM19.2337 6.4682H20.0847V7.31926H19.2337V6.4682ZM20.0847 6.4682H20.9358V7.31926H20.0847V6.4682ZM20.9358 6.4682H21.7869V7.31926H20.9358V6.4682ZM21.7869 6.4682H22.6379V7.31926H21.7869V6.4682ZM8.16984 7.31926H9.0209V8.17033H8.16984V7.31926ZM9.0209 7.31926H9.87197V8.17033H9.0209V7.31926ZM9.87197 7.31926H10.723V8.17033H9.87197V7.31926ZM13.2762 7.31926H14.1273V8.17033H13.2762V7.31926ZM14.1273 7.31926H14.9783V8.17033H14.1273V7.31926ZM14.9783 7.31926H15.8294V8.17033H14.9783V7.31926ZM2.21239 8.17033H3.06346V9.02139H2.21239V8.17033ZM3.06346 8.17033H3.91452V9.02139H3.06346V8.17033ZM6.46771 8.17033H7.31878V9.02139H6.46771V8.17033ZM12.4252 8.17033H13.2762V9.02139H12.4252V8.17033ZM13.2762 8.17033H14.1273V9.02139H13.2762V8.17033ZM14.9783 8.17033H15.8294V9.02139H14.9783V8.17033ZM16.6805 8.17033H17.5315V9.02139H16.6805V8.17033ZM17.5315 8.17033H18.3826V9.02139H17.5315V8.17033ZM19.2337 8.17033H20.0847V9.02139H19.2337V8.17033ZM2.21239 9.02139H3.06346V9.87246H2.21239V9.02139ZM3.06346 9.02139H3.91452V9.87246H3.06346V9.02139ZM4.76558 9.02139H5.61665V9.87246H4.76558V9.02139ZM7.31878 9.02139H8.16984V9.87246H7.31878V9.02139ZM9.87197 9.02139H10.723V9.87246H9.87197V9.02139ZM10.723 9.02139H11.5741V9.87246H10.723V9.02139ZM11.5741 9.02139H12.4252V9.87246H11.5741V9.02139ZM12.4252 9.02139H13.2762V9.87246H12.4252V9.02139ZM13.2762 9.02139H14.1273V9.87246H13.2762V9.02139ZM14.1273 9.02139H14.9783V9.87246H14.1273V9.02139ZM14.9783 9.02139H15.8294V9.87246H14.9783V9.02139ZM16.6805 9.02139H17.5315V9.87246H16.6805V9.02139ZM17.5315 9.02139H18.3826V9.87246H17.5315V9.02139ZM19.2337 9.02139H20.0847V9.87246H19.2337V9.02139ZM20.9358 9.02139H21.7869V9.87246H20.9358V9.02139ZM21.7869 9.02139H22.6379V9.87246H21.7869V9.02139ZM6.46771 9.87246H7.31878V10.7235H6.46771V9.87246ZM10.723 9.87246H11.5741V10.7235H10.723V9.87246ZM14.1273 9.87246H14.9783V10.7235H14.1273V9.87246ZM15.8294 9.87246H16.6805V10.7235H15.8294V9.87246ZM17.5315 9.87246H18.3826V10.7235H17.5315V9.87246ZM19.2337 9.87246H20.0847V10.7235H19.2337V9.87246ZM20.0847 9.87246H20.9358V10.7235H20.0847V9.87246ZM21.7869 9.87246H22.6379V10.7235H21.7869V9.87246ZM1.36133 10.7235H2.21239V11.5746H1.36133V10.7235ZM2.21239 10.7235H3.06346V11.5746H2.21239V10.7235ZM4.76558 10.7235H5.61665V11.5746H4.76558V10.7235ZM7.31878 10.7235H8.16984V11.5746H7.31878V10.7235ZM9.0209 10.7235H9.87197V11.5746H9.0209V10.7235ZM9.87197 10.7235H10.723V11.5746H9.87197V10.7235ZM12.4252 10.7235H13.2762V11.5746H12.4252V10.7235ZM14.1273 10.7235H14.9783V11.5746H14.1273V10.7235ZM15.8294 10.7235H16.6805V11.5746H15.8294V10.7235ZM17.5315 10.7235H18.3826V11.5746H17.5315V10.7235ZM19.2337 10.7235H20.0847V11.5746H19.2337V10.7235ZM1.36133 11.5746H2.21239V12.4256H1.36133V11.5746ZM2.21239 11.5746H3.06346V12.4256H2.21239V11.5746ZM3.91452 11.5746H4.76558V12.4256H3.91452V11.5746ZM6.46771 11.5746H7.31878V12.4256H6.46771V11.5746ZM7.31878 11.5746H8.16984V12.4256H7.31878V11.5746ZM8.16984 11.5746H9.0209V12.4256H8.16984V11.5746ZM9.0209 11.5746H9.87197V12.4256H9.0209V11.5746ZM9.87197 11.5746H10.723V12.4256H9.87197V11.5746ZM12.4252 11.5746H13.2762V12.4256H12.4252V11.5746ZM14.1273 11.5746H14.9783V12.4256H14.1273V11.5746ZM14.9783 11.5746H15.8294V12.4256H14.9783V11.5746ZM16.6805 11.5746H17.5315V12.4256H16.6805V11.5746ZM17.5315 11.5746H18.3826V12.4256H17.5315V11.5746ZM21.7869 11.5746H22.6379V12.4256H21.7869V11.5746ZM3.06346 12.4256H3.91452V13.2767H3.06346V12.4256ZM3.91452 12.4256H4.76558V13.2767H3.91452V12.4256ZM4.76558 12.4256H5.61665V13.2767H4.76558V12.4256ZM9.87197 12.4256H10.723V13.2767H9.87197V12.4256ZM10.723 12.4256H11.5741V13.2767H10.723V12.4256ZM11.5741 12.4256H12.4252V13.2767H11.5741V12.4256ZM14.1273 12.4256H14.9783V13.2767H14.1273V12.4256ZM14.9783 12.4256H15.8294V13.2767H14.9783V12.4256ZM16.6805 12.4256H17.5315V13.2767H16.6805V12.4256ZM17.5315 12.4256H18.3826V13.2767H17.5315V12.4256ZM20.9358 12.4256H21.7869V13.2767H20.9358V12.4256ZM21.7869 12.4256H22.6379V13.2767H21.7869V12.4256ZM1.36133 13.2767H2.21239V14.1278H1.36133V13.2767ZM2.21239 13.2767H3.06346V14.1278H2.21239V13.2767ZM3.91452 13.2767H4.76558V14.1278H3.91452V13.2767ZM5.61665 13.2767H6.46771V14.1278H5.61665V13.2767ZM6.46771 13.2767H7.31878V14.1278H6.46771V13.2767ZM8.16984 13.2767H9.0209V14.1278H8.16984V13.2767ZM9.0209 13.2767H9.87197V14.1278H9.0209V13.2767ZM9.87197 13.2767H10.723V14.1278H9.87197V13.2767ZM11.5741 13.2767H12.4252V14.1278H11.5741V13.2767ZM14.1273 13.2767H14.9783V14.1278H14.1273V13.2767ZM14.9783 13.2767H15.8294V14.1278H14.9783V13.2767ZM16.6805 13.2767H17.5315V14.1278H16.6805V13.2767ZM19.2337 13.2767H20.0847V14.1278H19.2337V13.2767ZM20.0847 13.2767H20.9358V14.1278H20.0847V13.2767ZM21.7869 13.2767H22.6379V14.1278H21.7869V13.2767ZM3.06346 14.1278H3.91452V14.9788H3.06346V14.1278ZM3.91452 14.1278H4.76558V14.9788H3.91452V14.1278ZM4.76558 14.1278H5.61665V14.9788H4.76558V14.1278ZM7.31878 14.1278H8.16984V14.9788H7.31878V14.1278ZM9.87197 14.1278H10.723V14.9788H9.87197V14.1278ZM13.2762 14.1278H14.1273V14.9788H13.2762V14.1278ZM14.1273 14.1278H14.9783V14.9788H14.1273V14.1278ZM14.9783 14.1278H15.8294V14.9788H14.9783V14.1278ZM15.8294 14.1278H16.6805V14.9788H15.8294V14.1278ZM16.6805 14.1278H17.5315V14.9788H16.6805V14.1278ZM17.5315 14.1278H18.3826V14.9788H17.5315V14.1278ZM18.3826 14.1278H19.2337V14.9788H18.3826V14.1278ZM19.2337 14.1278H20.0847V14.9788H19.2337V14.1278ZM1.36133 14.9788H2.21239V15.8299H1.36133V14.9788ZM2.21239 14.9788H3.06346V15.8299H2.21239V14.9788ZM3.06346 14.9788H3.91452V15.8299H3.06346V14.9788ZM4.76558 14.9788H5.61665V15.8299H4.76558V14.9788ZM6.46771 14.9788H7.31878V15.8299H6.46771V14.9788ZM8.16984 14.9788H9.0209V15.8299H8.16984V14.9788ZM10.723 14.9788H11.5741V15.8299H10.723V14.9788ZM14.9783 14.9788H15.8294V15.8299H14.9783V14.9788ZM15.8294 14.9788H16.6805V15.8299H15.8294V14.9788ZM16.6805 14.9788H17.5315V15.8299H16.6805V14.9788ZM17.5315 14.9788H18.3826V15.8299H17.5315V14.9788ZM18.3826 14.9788H19.2337V15.8299H18.3826V14.9788ZM20.9358 14.9788H21.7869V15.8299H20.9358V14.9788ZM8.16984 15.8299H9.0209V16.681H8.16984V15.8299ZM9.0209 15.8299H9.87197V16.681H9.0209V15.8299ZM9.87197 15.8299H10.723V16.681H9.87197V15.8299ZM10.723 15.8299H11.5741V16.681H10.723V15.8299ZM12.4252 15.8299H13.2762V16.681H12.4252V15.8299ZM13.2762 15.8299H14.1273V16.681H13.2762V15.8299ZM14.9783 15.8299H15.8294V16.681H14.9783V15.8299ZM18.3826 15.8299H19.2337V16.681H18.3826V15.8299ZM21.7869 15.8299H22.6379V16.681H21.7869V15.8299ZM1.36133 16.681H2.21239V17.532H1.36133V16.681ZM2.21239 16.681H3.06346V17.532H2.21239V16.681ZM3.06346 16.681H3.91452V17.532H3.06346V16.681ZM3.91452 16.681H4.76558V17.532H3.91452V16.681ZM4.76558 16.681H5.61665V17.532H4.76558V16.681ZM5.61665 16.681H6.46771V17.532H5.61665V16.681ZM6.46771 16.681H7.31878V17.532H6.46771V16.681ZM9.87197 16.681H10.723V17.532H9.87197V16.681ZM10.723 16.681H11.5741V17.532H10.723V16.681ZM13.2762 16.681H14.1273V17.532H13.2762V16.681ZM14.9783 16.681H15.8294V17.532H14.9783V16.681ZM16.6805 16.681H17.5315V17.532H16.6805V16.681ZM18.3826 16.681H19.2337V17.532H18.3826V16.681ZM21.7869 16.681H22.6379V17.532H21.7869V16.681ZM1.36133 17.532H2.21239V18.3831H1.36133V17.532ZM6.46771 17.532H7.31878V18.3831H6.46771V17.532ZM9.0209 17.532H9.87197V18.3831H9.0209V17.532ZM9.87197 17.532H10.723V18.3831H9.87197V17.532ZM11.5741 17.532H12.4252V18.3831H11.5741V17.532ZM12.4252 17.532H13.2762V18.3831H12.4252V17.532ZM14.9783 17.532H15.8294V18.3831H14.9783V17.532ZM18.3826 17.532H19.2337V18.3831H18.3826V17.532ZM20.9358 17.532H21.7869V18.3831H20.9358V17.532ZM1.36133 18.3831H2.21239V19.2342H1.36133V18.3831ZM3.06346 18.3831H3.91452V19.2342H3.06346V18.3831ZM3.91452 18.3831H4.76558V19.2342H3.91452V18.3831ZM4.76558 18.3831H5.61665V19.2342H4.76558V18.3831ZM6.46771 18.3831H7.31878V19.2342H6.46771V18.3831ZM9.0209 18.3831H9.87197V19.2342H9.0209V18.3831ZM9.87197 18.3831H10.723V19.2342H9.87197V18.3831ZM13.2762 18.3831H14.1273V19.2342H13.2762V18.3831ZM14.1273 18.3831H14.9783V19.2342H14.1273V18.3831ZM14.9783 18.3831H15.8294V19.2342H14.9783V18.3831ZM15.8294 18.3831H16.6805V19.2342H15.8294V18.3831ZM16.6805 18.3831H17.5315V19.2342H16.6805V18.3831ZM17.5315 18.3831H18.3826V19.2342H17.5315V18.3831ZM18.3826 18.3831H19.2337V19.2342H18.3826V18.3831ZM20.9358 18.3831H21.7869V19.2342H20.9358V18.3831ZM21.7869 18.3831H22.6379V19.2342H21.7869V18.3831ZM1.36133 19.2342H2.21239V20.0852H1.36133V19.2342ZM3.06346 19.2342H3.91452V20.0852H3.06346V19.2342ZM3.91452 19.2342H4.76558V20.0852H3.91452V19.2342ZM4.76558 19.2342H5.61665V20.0852H4.76558V19.2342ZM6.46771 19.2342H7.31878V20.0852H6.46771V19.2342ZM9.0209 19.2342H9.87197V20.0852H9.0209V19.2342ZM9.87197 19.2342H10.723V20.0852H9.87197V19.2342ZM10.723 19.2342H11.5741V20.0852H10.723V19.2342ZM11.5741 19.2342H12.4252V20.0852H11.5741V19.2342ZM14.1273 19.2342H14.9783V20.0852H14.1273V19.2342ZM15.8294 19.2342H16.6805V20.0852H15.8294V19.2342ZM18.3826 19.2342H19.2337V20.0852H18.3826V19.2342ZM20.0847 19.2342H20.9358V20.0852H20.0847V19.2342ZM20.9358 19.2342H21.7869V20.0852H20.9358V19.2342ZM1.36133 20.0852H2.21239V20.9363H1.36133V20.0852ZM3.06346 20.0852H3.91452V20.9363H3.06346V20.0852ZM3.91452 20.0852H4.76558V20.9363H3.91452V20.0852ZM4.76558 20.0852H5.61665V20.9363H4.76558V20.0852ZM6.46771 20.0852H7.31878V20.9363H6.46771V20.0852ZM8.16984 20.0852H9.0209V20.9363H8.16984V20.0852ZM12.4252 20.0852H13.2762V20.9363H12.4252V20.0852ZM13.2762 20.0852H14.1273V20.9363H13.2762V20.0852ZM14.1273 20.0852H14.9783V20.9363H14.1273V20.0852ZM14.9783 20.0852H15.8294V20.9363H14.9783V20.0852ZM15.8294 20.0852H16.6805V20.9363H15.8294V20.0852ZM17.5315 20.0852H18.3826V20.9363H17.5315V20.0852ZM18.3826 20.0852H19.2337V20.9363H18.3826V20.0852ZM19.2337 20.0852H20.0847V20.9363H19.2337V20.0852ZM20.9358 20.0852H21.7869V20.9363H20.9358V20.0852ZM21.7869 20.0852H22.6379V20.9363H21.7869V20.0852ZM1.36133 20.9363H2.21239V21.7873H1.36133V20.9363ZM6.46771 20.9363H7.31878V21.7873H6.46771V20.9363ZM8.16984 20.9363H9.0209V21.7873H8.16984V20.9363ZM9.0209 20.9363H9.87197V21.7873H9.0209V20.9363ZM9.87197 20.9363H10.723V21.7873H9.87197V20.9363ZM12.4252 20.9363H13.2762V21.7873H12.4252V20.9363ZM14.9783 20.9363H15.8294V21.7873H14.9783V20.9363ZM15.8294 20.9363H16.6805V21.7873H15.8294V20.9363ZM16.6805 20.9363H17.5315V21.7873H16.6805V20.9363ZM17.5315 20.9363H18.3826V21.7873H17.5315V20.9363ZM18.3826 20.9363H19.2337V21.7873H18.3826V20.9363ZM1.36133 21.7873H2.21239V22.6384H1.36133V21.7873ZM2.21239 21.7873H3.06346V22.6384H2.21239V21.7873ZM3.06346 21.7873H3.91452V22.6384H3.06346V21.7873ZM3.91452 21.7873H4.76558V22.6384H3.91452V21.7873ZM4.76558 21.7873H5.61665V22.6384H4.76558V21.7873ZM5.61665 21.7873H6.46771V22.6384H5.61665V21.7873ZM6.46771 21.7873H7.31878V22.6384H6.46771V21.7873ZM9.87197 21.7873H10.723V22.6384H9.87197V21.7873ZM11.5741 21.7873H12.4252V22.6384H11.5741V21.7873ZM14.9783 21.7873H15.8294V22.6384H14.9783V21.7873ZM16.6805 21.7873H17.5315V22.6384H16.6805V21.7873ZM19.2337 21.7873H20.0847V22.6384H19.2337V21.7873ZM21.7869 21.7873H22.6379V22.6384H21.7869V21.7873Z" fill="black"/>
</svg>
