<svg width="20" height="20" viewBox="0 0 20 20" fill="none" xmlns="http://www.w3.org/2000/svg">
<path d="M10.0001 19.8801C15.4567 19.8801 19.8801 15.4567 19.8801 10.0001C19.8801 4.54354 15.4567 0.120117 10.0001 0.120117C4.54354 0.120117 0.120117 4.54354 0.120117 10.0001C0.120117 15.4567 4.54354 19.8801 10.0001 19.8801Z" fill="#EBFDFF"/>
<path d="M13.0001 4.58029C12.3325 4.04747 11.4931 3.77717 10.6401 3.82029C10.1226 3.77535 9.60163 3.85031 9.11776 4.03935C8.63389 4.22839 8.20011 4.52642 7.8501 4.91029C7.21623 5.74568 6.86586 6.76175 6.8501 7.81029L9.4401 8.21029C9.44584 7.72253 9.58411 7.24551 9.8401 6.83029C9.93222 6.7106 10.0503 6.61333 10.1853 6.54578C10.3204 6.47824 10.4691 6.44217 10.6201 6.44029C10.7419 6.42871 10.8647 6.44523 10.9792 6.48857C11.0936 6.53191 11.1965 6.60092 11.2801 6.69029C11.4399 6.89484 11.5183 7.15134 11.5001 7.41029C11.4522 7.79966 11.2594 8.15671 10.9601 8.41029C10.4917 8.8746 10.0541 9.36898 9.6501 9.89029C9.45788 10.173 9.30953 10.4832 9.2101 10.8103C9.08215 11.2493 9.01156 11.7031 9.0001 12.1603V12.4803H11.5401C11.5288 12.1161 11.5865 11.753 11.7101 11.4103C11.9357 11.0056 12.2262 10.6408 12.5701 10.3303C13.0843 9.86562 13.517 9.31803 13.8501 8.71029C14.0552 8.28277 14.1612 7.81447 14.1601 7.34029C14.1872 6.82257 14.097 6.30541 13.8961 5.82747C13.6952 5.34954 13.3889 4.92319 13.0001 4.58029ZM10.3501 13.3703C10.1009 13.3703 9.85728 13.4442 9.65008 13.5826C9.44287 13.7211 9.28138 13.9179 9.18601 14.1481C9.09064 14.3783 9.06569 14.6317 9.11431 14.8761C9.16292 15.1205 9.28293 15.345 9.45914 15.5212C9.63536 15.6975 9.85987 15.8175 10.1043 15.8661C10.3487 15.9147 10.602 15.8897 10.8323 15.7944C11.0625 15.699 11.2593 15.5375 11.3977 15.3303C11.5362 15.1231 11.6101 14.8795 11.6101 14.6303C11.6101 14.2961 11.4773 13.9756 11.2411 13.7393C11.0048 13.503 10.6843 13.3703 10.3501 13.3703Z" fill="#F5AB35"/>
<path d="M12.0001 4.58029C11.3325 4.04747 10.4931 3.77717 9.6401 3.82029C9.12256 3.77535 8.60163 3.85031 8.11776 4.03935C7.63389 4.22839 7.20011 4.52642 6.8501 4.91029C6.21623 5.74568 5.86586 6.76175 5.8501 7.81029L8.4401 8.21029C8.44584 7.72253 8.58411 7.24551 8.8401 6.83029C8.93222 6.7106 9.05025 6.61333 9.18535 6.54578C9.32044 6.47824 9.46907 6.44217 9.6201 6.44029C9.7419 6.42871 9.86474 6.44523 9.97916 6.48857C10.0936 6.53191 10.1965 6.60092 10.2801 6.69029C10.4399 6.89484 10.5183 7.15134 10.5001 7.41029C10.4522 7.79966 10.2594 8.15671 9.9601 8.41029C9.4917 8.8746 9.05411 9.36898 8.6501 9.89029C8.45788 10.173 8.30953 10.4832 8.2101 10.8103C8.08215 11.2493 8.01156 11.7031 8.0001 12.1603V12.4803H10.5401C10.5288 12.1161 10.5865 11.753 10.7101 11.4103C10.9357 11.0056 11.2262 10.6408 11.5701 10.3303C12.0843 9.86562 12.517 9.31803 12.8501 8.71029C13.0552 8.28277 13.1612 7.81447 13.1601 7.34029C13.1872 6.82257 13.097 6.30541 12.8961 5.82747C12.6952 5.34954 12.3889 4.92319 12.0001 4.58029ZM9.3501 13.3703C9.10089 13.3703 8.85729 13.4442 8.65008 13.5826C8.44287 13.7211 8.28138 13.9179 8.18601 14.1481C8.09064 14.3783 8.06569 14.6317 8.11431 14.8761C8.16293 15.1205 8.28293 15.345 8.45914 15.5212C8.63536 15.6975 8.85987 15.8175 9.10428 15.8661C9.3487 15.9147 9.60204 15.8897 9.83228 15.7944C10.0625 15.699 10.2593 15.5375 10.3977 15.3303C10.5362 15.1231 10.6101 14.8795 10.6101 14.6303C10.6101 14.2961 10.4773 13.9756 10.2411 13.7393C10.0048 13.503 9.68427 13.3703 9.3501 13.3703Z" fill="#0099A8"/>
</svg>
