<svg width="24" height="24" viewBox="0 0 24 24" fill="none" xmlns="http://www.w3.org/2000/svg">
<circle cx="12" cy="12" r="12" fill="#EBFDFF"/>
<path d="M6.1665 6.16634C6.1665 5.7061 6.5396 5.33301 6.99984 5.33301H16.9998C17.4601 5.33301 17.8332 5.7061 17.8332 6.16634V17.833C17.8332 18.2932 17.4601 18.6663 16.9998 18.6663H6.99984C6.5396 18.6663 6.1665 18.2932 6.1665 17.833V6.16634Z" fill="#51B4FF"/>
<path fill-rule="evenodd" clip-rule="evenodd" d="M16.3529 13.2941C16.5588 13.397 16.6422 13.6473 16.5393 13.8531L14.8726 17.1864C14.7697 17.3923 14.5194 17.4757 14.3136 17.3728L12.6469 16.5394C12.4411 16.4365 12.3577 16.1862 12.4606 15.9804C12.5635 15.7746 12.8138 15.6912 13.0196 15.7941L14.3136 15.9804L15.7939 13.4804C15.8968 13.2746 16.1471 13.1912 16.3529 13.2941Z" fill="white"/>
<g style="mix-blend-mode:multiply">
<path d="M8.24967 10.333C8.01956 10.333 7.83301 10.5196 7.83301 10.7497C7.83301 10.9798 8.01956 11.1663 8.24967 11.1663H9.08301C9.31313 11.1663 9.49967 10.9798 9.49967 10.7497C9.49967 10.5196 9.31313 10.333 9.08301 10.333H8.24967Z" fill="#6690FF"/>
<path d="M8.24967 11.9997C8.01956 11.9997 7.83301 12.1862 7.83301 12.4163C7.83301 12.6465 8.01956 12.833 8.24967 12.833H9.08301C9.31313 12.833 9.49967 12.6465 9.49967 12.4163C9.49967 12.1862 9.31313 11.9997 9.08301 11.9997H8.24967Z" fill="#6690FF"/>
<path d="M10.333 10.7497C10.333 10.5196 10.5196 10.333 10.7497 10.333H14.083C14.3131 10.333 14.4997 10.5196 14.4997 10.7497C14.4997 10.9798 14.3131 11.1663 14.083 11.1663H10.7497C10.5196 11.1663 10.333 10.9798 10.333 10.7497Z" fill="#6690FF"/>
<path d="M10.7497 11.9997C10.5196 11.9997 10.333 12.1862 10.333 12.4163C10.333 12.6465 10.5196 12.833 10.7497 12.833H12.4163C12.6465 12.833 12.833 12.6465 12.833 12.4163C12.833 12.1862 12.6465 11.9997 12.4163 11.9997H10.7497Z" fill="#6690FF"/>
</g>
<g style="mix-blend-mode:multiply">
<path d="M8.24967 7C8.01956 7 7.83301 7.18655 7.83301 7.41667C7.83301 7.64679 8.01956 7.83333 8.24967 7.83333H9.08301C9.31313 7.83333 9.49967 7.64679 9.49967 7.41667C9.49967 7.18655 9.31313 7 9.08301 7H8.24967Z" fill="#6690FF"/>
<path d="M8.24967 8.66667C8.01956 8.66667 7.83301 8.85321 7.83301 9.08333C7.83301 9.31345 8.01956 9.5 8.24967 9.5H9.08301C9.31313 9.5 9.49967 9.31345 9.49967 9.08333C9.49967 8.85321 9.31313 8.66667 9.08301 8.66667H8.24967Z" fill="#6690FF"/>
<path d="M10.333 7.41667C10.333 7.18655 10.5196 7 10.7497 7H14.9163C15.1465 7 15.333 7.18655 15.333 7.41667C15.333 7.64679 15.1465 7.83333 14.9163 7.83333H10.7497C10.5196 7.83333 10.333 7.64679 10.333 7.41667Z" fill="#6690FF"/>
<path d="M10.7497 8.66667C10.5196 8.66667 10.333 8.85321 10.333 9.08333C10.333 9.31345 10.5196 9.5 10.7497 9.5H13.2497C13.4798 9.5 13.6663 9.31345 13.6663 9.08333C13.6663 8.85321 13.4798 8.66667 13.2497 8.66667H10.7497Z" fill="#6690FF"/>
</g>
</svg>
