<svg width="30" height="34" viewBox="0 0 30 34" fill="none" xmlns="http://www.w3.org/2000/svg">
<path d="M27.5 2.8335L25 0.333496L22.5 2.8335L20 0.333496L17.5 2.8335L15 0.333496L12.5 2.8335L10 0.333496L7.5 2.8335L5 0.333496V23.6668H0V28.6668C0 31.4335 2.23333 33.6668 5 33.6668H25C27.7667 33.6668 30 31.4335 30 28.6668V0.333496L27.5 2.8335ZM26.6667 28.6668C26.6667 29.5835 25.9167 30.3335 25 30.3335C24.0833 30.3335 23.3333 29.5835 23.3333 28.6668V23.6668H8.33333V5.3335H26.6667V28.6668Z" fill="white" fill-opacity="0.2"/>
<path d="M20 8.66699H10V12.0003H20V8.66699Z" fill="white" fill-opacity="0.2"/>
<path d="M25.0013 8.66699H21.668V12.0003H25.0013V8.66699Z" fill="white" fill-opacity="0.2"/>
<path d="M20 13.667H10V17.0003H20V13.667Z" fill="white" fill-opacity="0.2"/>
<path d="M25.0013 13.667H21.668V17.0003H25.0013V13.667Z" fill="white" fill-opacity="0.2"/>
</svg>
