<svg width="54" height="80" viewBox="0 0 54 80" fill="none" xmlns="http://www.w3.org/2000/svg">
<path d="M38.6329 6.59497C39.4946 6.73834 40.2127 7.02508 40.9308 7.31182C41.6489 7.59855 42.367 8.02866 42.9414 8.45877C46.101 10.6093 47.968 14.3369 47.968 18.2079V21.5054H46.6755V18.3512C46.6755 14.767 45.0957 11.6129 42.2234 9.60572C41.6489 9.17562 41.0744 8.88888 40.3563 8.60214C39.7819 8.3154 39.0638 8.02866 38.3457 7.88529L38.6329 6.59497Z" fill="#414243"/>
<path d="M15.367 6.59497C14.5053 6.73834 13.7872 7.02508 13.0692 7.31182C12.3511 7.59855 11.633 8.02866 11.0585 8.45877C7.89894 10.7527 6.17554 14.3369 6.17554 18.3512V21.5054H7.46809V18.3512C7.46809 14.767 9.04788 11.6129 11.9202 9.60572C12.3511 9.17562 12.9255 8.88888 13.6436 8.60214C14.2181 8.3154 14.9362 8.02866 15.6543 7.88529L15.367 6.59497Z" fill="#414243"/>
<path fill-rule="evenodd" clip-rule="evenodd" d="M26.9999 0C37.1968 0 43.9468 8.02867 44.234 17.9211C44.5212 27.957 46.2446 45.3047 50.8404 55.1971C44.8085 52.1864 39.6382 49.4624 35.1861 46.0215L26.9999 45.3047L18.8138 46.0215C15.0797 48.7455 11.0585 51.1828 6.31909 53.6201C10.7712 42.8674 9.90952 29.2473 9.90952 17.9211C9.90952 8.02867 16.8031 0 26.9999 0Z" fill="#A5896B"/>
<path fill-rule="evenodd" clip-rule="evenodd" d="M1.86702 55.914C8.61702 52.7599 14.0745 49.7491 18.8138 46.1649L27 45.448V72.5448V80.1434C18.8138 80.1434 0.143617 71.2545 0 58.2079C0 57.3477 0.861702 56.3441 1.86702 55.914Z" fill="#1BC7D8"/>
<path fill-rule="evenodd" clip-rule="evenodd" d="M52.133 55.914C45.383 52.7599 39.9255 49.7491 35.1862 46.1649L27 45.448V72.5448V80.1434C35.1862 80.2867 54 71.2545 54 58.2079C54 57.3477 53.1383 56.3441 52.133 55.914Z" fill="#0099A8"/>
<path fill-rule="evenodd" clip-rule="evenodd" d="M47.25 59.4982L35.1862 47.3118L27 47.8853V75.8423L40.2128 62.2222L37.9149 57.6344L47.25 59.4982Z" fill="white"/>
<path fill-rule="evenodd" clip-rule="evenodd" d="M6.75 59.4982L18.8138 47.3118L27 47.8853V75.8423L13.7872 62.2222L16.0851 57.6344L6.75 59.4982Z" fill="white"/>
<path fill-rule="evenodd" clip-rule="evenodd" d="M26.9999 42.8674V74.8387C22.4042 68.1004 17.6648 59.4982 18.0957 53.9068C18.8138 49.6057 18.9574 43.4409 18.9574 38.2796C21.3989 40.5735 24.4148 42.724 26.9999 42.8674Z" fill="#FFE5CA"/>
<path fill-rule="evenodd" clip-rule="evenodd" d="M27.0001 37.9928V42.8674V74.8387C31.5958 68.1004 36.3352 59.4982 35.9043 53.9068C35.1862 49.6057 35.0426 43.4409 35.0426 38.2796C32.4575 40.5735 29.5852 42.724 26.8564 42.8674V37.9928H27.0001Z" fill="#FDCF9D"/>
<path fill-rule="evenodd" clip-rule="evenodd" d="M27 46.0215C23.9841 46.0215 20.1064 41.7204 18.8138 39.5699C18.8138 39.1398 18.8138 38.7097 18.8138 38.2796C21.3989 40.5735 24.2713 42.724 27 42.8674V46.0215Z" fill="#E5BD90"/>
<path fill-rule="evenodd" clip-rule="evenodd" d="M27 46.0215C30.016 46.0215 33.8936 41.7204 35.1862 39.5699C35.1862 39.1398 35.1862 38.7097 35.1862 38.2796C32.6011 40.5735 29.7287 42.724 27 42.8674V37.9928V42.8674V46.0215Z" fill="#E5BD90"/>
<path fill-rule="evenodd" clip-rule="evenodd" d="M27 13.9068V42.724C23.4095 42.5806 19.3883 38.853 16.5159 35.8423C11.9202 31.2545 10.1968 24.5161 14.9361 12.3297C16.3723 11.8996 17.3776 10.7527 19.2447 10.1792C23.984 8.45876 25.133 11.4695 25.9947 12.7598C26.2819 13.1899 26.5691 13.6201 27 13.9068Z" fill="#FFE5CA"/>
<path fill-rule="evenodd" clip-rule="evenodd" d="M27 13.9068V42.724C30.5904 42.5806 34.6117 38.853 37.484 35.8423C41.3617 31.9713 43.0851 26.6667 40.9309 18.0645C40.0691 17.3477 39.3511 16.3441 38.9202 14.6236C33.75 16.7742 29.1543 15.6272 27 13.9068Z" fill="#FDCF9D"/>
<path fill-rule="evenodd" clip-rule="evenodd" d="M11.2021 17.0609H11.9202C12.4947 17.0609 13.0692 17.6344 13.0692 18.2079V29.6774C13.0692 30.2509 12.4947 30.8244 11.9202 30.8244H11.2021C10.1968 30.8244 9.33512 29.9641 9.33512 28.9606V19.0681C9.1915 17.9211 10.0532 17.0609 11.2021 17.0609Z" fill="#6E6F71"/>
<path fill-rule="evenodd" clip-rule="evenodd" d="M43.2287 17.0609H42.5106C41.9362 17.0609 41.3617 17.6344 41.3617 18.2079V29.6774C41.3617 30.2509 41.9362 30.8244 42.5106 30.8244H43.2287C44.234 30.8244 45.0957 29.9641 45.0957 28.9606V19.0681C45.0957 17.9211 44.234 17.0609 43.2287 17.0609Z" fill="#6E6F71"/>
<path fill-rule="evenodd" clip-rule="evenodd" d="M8.61697 29.104C6.60634 28.2437 5.17017 26.2366 5.17017 23.9427C5.17017 21.6488 6.60634 19.6416 8.61697 18.7814V29.104Z" fill="#DC662B"/>
<path fill-rule="evenodd" clip-rule="evenodd" d="M45.6702 29.104C47.6808 28.2437 49.117 26.2366 49.117 23.9427C49.117 21.6488 47.6808 19.6416 45.6702 18.7814V29.104Z" fill="#DC662B"/>
<path fill-rule="evenodd" clip-rule="evenodd" d="M18.3829 51.7563C18.3829 52.9032 18.3829 54.4803 18.3829 54.767C18.8138 58.9247 22.9787 67.2402 26.9999 72.8316V74.8387C22.4042 68.1004 17.6648 59.4982 18.0957 53.9068C18.2393 53.19 18.2393 52.4731 18.3829 51.7563Z" fill="#E5BD90"/>
<path d="M48.1117 25.0896V28.5305C48.1117 29.2473 47.968 29.9642 47.8244 30.681C47.6808 31.3978 47.3936 31.9713 47.1063 32.6882C45.5265 35.8423 42.2234 37.8495 38.3457 38.2796L32.8882 38.7097L32.7446 37.4194L38.2021 36.8459C41.6489 36.5591 44.5212 34.6953 45.9574 31.9713C46.2446 31.3978 46.3883 30.8244 46.5319 30.2509C46.6755 29.6774 46.6755 28.9606 46.6755 28.3871V24.9462C46.8191 24.5161 48.1117 24.5161 48.1117 25.0896Z" fill="#414243"/>
<path fill-rule="evenodd" clip-rule="evenodd" d="M31.5957 40.8602C33.0319 40.8602 34.1808 39.7133 34.1808 38.2796C34.1808 36.8459 33.0319 35.6989 31.5957 35.6989C30.1596 35.6989 29.0106 36.8459 29.0106 38.2796C29.0106 39.7133 30.1596 40.8602 31.5957 40.8602Z" fill="#6E6F71"/>
</svg>
