<svg width="288" height="288" viewBox="0 0 288 288" fill="none" xmlns="http://www.w3.org/2000/svg">
<path d="M144 288C223.529 288 288 223.529 288 144C288 64.471 223.529 0 144 0C64.471 0 0 64.471 0 144C0 223.529 64.471 288 144 288Z" fill="url(#paint0_linear_3982_18118)"/>
<path d="M116.578 186.383C116.192 188.351 116.064 190.36 116.197 192.361C116.578 194.148 121.34 195.291 121.34 195.291C121.34 195.291 125.368 200.199 131.024 199.686C134.349 199.422 135.419 198.543 136.005 197.562C136.193 197.032 136.235 196.461 136.126 195.91C136.018 195.358 135.764 194.846 135.389 194.426C134.73 193.503 130.452 191.95 128.723 189.181C127.874 187.834 126.467 185.006 126.467 185.006L126.306 183.541C126.192 182.498 125.708 181.53 124.942 180.813C124.176 180.095 123.179 179.675 122.131 179.629H122.028C121.361 179.603 120.695 179.717 120.075 179.966C119.455 180.214 118.895 180.59 118.43 181.07C117.965 181.55 117.607 182.123 117.379 182.75C117.151 183.378 117.058 184.047 117.105 184.713V185.636L116.578 186.383Z" fill="black"/>
<path d="M99.2468 195.277C98.5582 196.595 98.5582 198.837 98.4996 202.075C99.2275 203.797 100.608 205.161 102.338 205.869C102.338 205.869 103.583 211.729 111.348 211.876C118.674 212.052 118.586 209.092 118.542 209.107C118.489 208.507 118.313 207.924 118.026 207.395C117.739 206.866 117.346 206.401 116.872 206.03C114.809 204.346 112.851 202.535 111.011 200.61C110.316 199.609 109.736 198.533 109.282 197.401L108.96 192.142H99.1443L99.2468 195.277Z" fill="black"/>
<path d="M125.881 107.635C125.793 115.444 124.05 119.356 116.344 123.648L113.868 140.702L112.124 152.598C110.387 167.566 109.409 182.612 109.194 197.678C108.614 198.403 107.895 199.005 107.081 199.45C106.266 199.895 105.371 200.174 104.447 200.271C100.697 200.843 96.536 199.319 96.3895 197.341C95.1149 179.76 94.7633 169.578 97.8545 154.048C96.2576 144.745 95.2321 133.845 96.0818 125.304C94.4837 119.894 94.3824 114.153 95.7888 108.69L96.7264 108.456L97.459 108.28C98.1622 108.119 99.0559 107.884 100.096 107.621C100.682 107.489 101.297 107.342 101.942 107.166L104.008 106.654L106.337 106.082L107.729 105.745L114.688 104.031L120.666 102.566L124.079 101.716L125.324 101.423L125.574 101.335H125.779C125.779 101.497 125.779 101.643 125.779 101.775C125.771 101.877 125.771 101.98 125.779 102.083C125.779 102.757 125.852 103.401 125.867 104.031C125.881 105.277 125.91 106.507 125.881 107.635Z" fill="#666666"/>
<g style="mix-blend-mode:multiply" opacity="0.3">
<path d="M120.065 113.072C114.615 114.625 113.589 120.705 110.322 128.104C105.414 134.228 105.311 143.267 107.392 154.021C103.143 170.312 98.8066 185.769 104.462 200.273C100.711 200.844 96.5504 199.32 96.4039 197.343C95.1293 179.762 94.7777 169.58 97.8689 154.05C96.272 144.747 95.2465 133.847 96.0962 125.305C94.4981 119.896 94.3968 114.154 95.8032 108.692L96.7408 108.457L97.4734 108.281C98.1766 108.12 99.0703 107.886 100.11 107.622L120.065 113.072Z" fill="#333333"/>
</g>
<path d="M125.882 107.636L111.729 124.558C112.432 129.905 113.56 140.527 114.806 145.567C112.271 164.949 113.971 186.193 115.538 187.409C117.721 189.211 125.252 190.866 128.284 186.325C127.028 171.935 127.229 157.455 128.885 143.105L125.882 107.636Z" fill="#666666"/>
<path d="M144.473 95.5351L137.689 76.8555C136.591 69.5302 132.239 68.0651 128.591 66.8198L126.115 79.815L128.606 84.9134L136.166 100.487C137.24 102.86 138.422 105.248 139.711 107.651L147.037 101.542C146.216 99.5347 145.366 97.5569 144.473 95.5351Z" fill="#C76D29"/>
<g style="mix-blend-mode:multiply">
<path d="M136.752 94.8469L133.91 76.856L128.548 84.9138L136.166 100.487C137.241 102.861 138.423 105.249 139.712 107.652L141.309 106.318C139.499 102.617 137.976 98.7815 136.752 94.8469Z" fill="#C76D29"/>
</g>
<path d="M134.906 80.8109C134.906 98.8018 123.186 110.361 123.186 110.918C122.102 111.724 121.076 112.383 120.08 113.072C102.221 124.396 95.7012 108.676 95.7012 108.676C96.5216 102.816 94.1336 98.4209 95.0566 90.3777C95.0566 90.0261 95.1298 89.6891 95.1884 89.3522C95.5381 85.5394 97.0574 81.9279 99.5383 79.0116C102.019 76.0954 105.341 74.017 109.048 73.0607C111.127 72.555 113.04 71.5204 114.601 70.0573C118.6 66.2775 121.794 65.6621 127.552 66.3653C132.504 69.1636 134.687 74.1155 134.906 80.8109Z" fill="#C76D29"/>
<g style="mix-blend-mode:multiply">
<path d="M120.08 113.072C102.221 124.397 95.7012 108.677 95.7012 108.677C96.5216 102.817 94.1336 98.4214 95.0566 90.3782C95.9356 84.518 99.8766 83.7561 105.664 86.1881L112.989 101.264L120.08 113.072Z" fill="#C76D29"/>
</g>
<path d="M95.012 112.778C98.0562 116.625 101.9 119.765 106.278 121.979L103.89 184.61C114.966 190.471 122.936 180.552 132.649 178.354C133.051 156.624 130.947 134.92 126.379 113.672C127.712 101.629 135.169 93.3075 133.968 85.279C133.558 80.5175 132.503 76.8549 130.51 74.9503L127.917 75.844C129.159 77.2613 130.096 78.9185 130.67 80.7128C131.245 82.5072 131.445 84.4004 131.258 86.2752L114.951 91.5934C114.951 83.1107 111.699 75.6974 105.487 74.4668C104.361 74.9072 103.324 75.5474 102.425 76.3567C109.501 79.0671 111.567 84.649 111.435 92.6776C112.505 99.3729 111.142 107.108 109.018 115.181C103.67 114.126 98.9969 112.251 95.7152 108.779L95.012 112.778Z" fill="#3C978D"/>
<path d="M118.322 66.0435C118.117 66.0435 114.6 70.087 114.6 70.087C109.751 73.6178 115.948 82.7891 122.292 81.8076L127.581 78.1156L118.322 66.0435Z" fill="#FFBB7D"/>
<g style="mix-blend-mode:multiply" opacity="0.5">
<path d="M130.218 77.5019C130.218 82.1754 129.031 85.8235 125.823 85.2814C118.996 84.4463 117.824 74.8648 118.497 71.2461L130.218 77.5019Z" fill="#FFBB7D"/>
</g>
<path d="M126.116 54.2793C120.432 54.2793 117.179 57.0043 116.959 62.9525C117.121 69.179 117.443 72.9442 120.446 77.2075C121.266 78.3975 122.359 79.3738 123.633 80.0544C124.908 80.735 126.327 81.1002 127.772 81.1193C131.229 80.9435 136.342 72.6512 136.826 66.6444C137.631 60.5791 132.46 55.9348 126.116 54.2793Z" fill="#FFBB7D"/>
<path d="M136.078 71.025C134.788 74.0576 127.287 73.5009 123.932 69.7943L123.566 72.0212L120.519 69.4866L117.867 72.9295L116.9 71.567C114.497 66.7177 114.615 58.7477 121.486 54.7481C130.686 51.0561 142.084 61.7511 136.078 71.025Z" fill="black"/>
<path d="M119.669 72.0936C119.275 71.4916 119.016 70.8121 118.907 70.1011C118.861 69.7508 118.899 69.3946 119.016 69.0612C119.133 68.7279 119.326 68.4267 119.581 68.1819C119.85 67.9423 120.192 67.8015 120.552 67.7829C120.912 67.7642 121.267 67.8688 121.559 68.0793C121.746 68.2434 121.894 68.4467 121.992 68.6746C122.091 68.9026 122.138 69.1495 122.13 69.3979C122.12 69.897 122.031 70.3914 121.867 70.8629C121.735 71.2878 121.618 71.7127 121.5 72.1375C121.474 72.2902 121.418 72.4361 121.335 72.5668C121.252 72.6976 121.144 72.8106 121.017 72.8994C120.884 72.9532 120.74 72.9706 120.598 72.95C120.457 72.9294 120.323 72.8715 120.211 72.7822C119.985 72.5925 119.8 72.3581 119.669 72.0936Z" fill="#FFBB7D"/>
<path d="M108.637 227.802L98.9676 207.159L92.9169 213.005L87.9797 215.876L77.8268 210.016L93.2978 195.072L77.9586 162.343L82.8959 159.471L93.0488 165.331L102.733 185.974L108.769 180.143L113.721 177.272L123.859 183.132L108.388 198.061L123.727 230.791L118.79 233.662L108.637 227.802Z" fill="#9B2F07"/>
<path d="M118.79 233.662L103.451 200.932L118.922 186.003L108.769 180.143L98.3963 190.149L88.1115 168.203L77.9586 162.342L93.2978 195.072L77.8268 210.015L87.9797 215.876L98.3523 205.855L108.637 227.801L118.79 233.662Z" fill="#C7B299"/>
<path d="M118.79 233.662L103.451 200.932L118.922 186.003L108.769 180.143L98.3963 190.149L88.1115 168.203L77.9586 162.342L93.2978 195.072L77.8268 210.015L87.9797 215.876L98.3523 205.855L108.637 227.801L118.79 233.662Z" fill="#E0AF75"/>
<path d="M194.329 178.37L184.659 157.727L178.609 163.573L173.671 166.444L163.518 160.584L178.99 145.641L163.65 112.911L168.588 110.04L178.74 115.9L188.41 136.543L194.461 130.697L199.398 127.825L209.551 133.686L194.08 148.629L209.419 181.359L204.482 184.23L194.329 178.37Z" fill="#9B2F07"/>
<path d="M204.482 184.23L189.142 151.5L204.614 136.557L194.461 130.697L184.088 140.718L173.803 118.771L163.65 112.911L178.99 145.64L163.518 160.584L173.671 166.444L184.044 156.423L194.329 178.37L204.482 184.23Z" fill="#C7B299"/>
<path d="M204.482 184.23L189.142 151.5L204.614 136.557L194.461 130.697L184.088 140.718L173.803 118.771L163.65 112.911L178.99 145.64L163.518 160.584L173.671 166.444L184.044 156.423L194.329 178.37L204.482 184.23Z" fill="#E0AF75"/>
<path d="M212.862 126.609L205.742 122.463L172.558 141.084L205.229 122.199V120.441L203.925 120.046L201.728 120.177L196.072 116.91L194.417 115.958L161.277 134.579L193.977 115.694V113.936L188.982 112.793L184.411 110.156L183.18 109.453L150.773 127.547L182.652 109.145V107.387C176.192 105.615 176.792 105.776 171.84 102.904L154.113 113.16L146.978 117.291L138.613 122.111L133.001 125.393L71 159.368V164.364L81.8122 170.605L82.2663 170.341V170.913L93.0785 177.154L93.6206 176.831V177.417L104.433 183.659L104.916 183.38V183.966L115.728 190.207L194.974 144.439L195.765 143.999L216.627 131.942V126.931C216.627 126.931 212.291 126.609 212.862 126.609Z" fill="#9B2F07"/>
<path d="M171.826 101.148L182.638 107.39L81.8122 165.611L71 159.37L171.826 101.148Z" fill="#E0AF75"/>
<path opacity="0.2" d="M121.545 141.349C111.758 146.227 102.88 151.809 93.7084 157.113C89.2839 159.681 84.835 162.231 80.3617 164.76L80.1712 164.643C84.4785 162.035 88.8248 159.437 93.2103 156.849C102.373 151.182 111.831 146.008 121.545 141.349Z" fill="black"/>
<path opacity="0.2" d="M152.751 122.098C149.088 124.281 145.967 126.596 142.407 128.823C137.866 131.65 132.914 134.258 127.932 136.763C122.951 139.269 117.955 141.642 113.062 144.191C109.18 146.213 105.517 148.293 101.942 150.491C105.18 148.323 108.535 146.286 112.198 144.294C117.106 141.598 122.204 139.093 127.259 136.558C132.313 134.024 137.118 131.562 141.733 128.823C145.469 126.596 148.839 124.252 152.751 122.098Z" fill="black"/>
<path opacity="0.2" d="M180.455 106.112L180.704 106.259C179.576 106.947 178.448 107.621 177.275 108.295C172.324 111.152 167.152 113.906 161.907 116.5C158.611 118.14 155.285 119.679 152.047 121.334C149.82 122.462 147.652 123.634 145.572 124.924C141.411 127.458 137.66 130.037 133.104 132.366C137.499 129.949 141.103 127.356 145.103 124.777C150.315 121.652 155.695 118.816 161.218 116.28C166.434 113.716 171.591 111.05 176.602 108.281C177.92 107.563 179.195 106.845 180.455 106.112Z" fill="black"/>
<path opacity="0.2" d="M181.876 106.95L182.154 107.111C178.272 108.986 174.565 111.037 170.888 113.206C165.731 116.238 160.632 119.168 155.109 121.996C160.31 119.066 165.277 115.989 170.375 112.971C174.086 110.738 177.927 108.728 181.876 106.95Z" fill="black"/>
<path opacity="0.2" d="M132.079 131.253C133.104 131.854 128.724 134.491 127.171 135.385C124.548 136.85 121.706 138.183 118.937 139.516C115.934 140.981 113.223 142.446 110.484 144.116C108.213 145.494 106.089 146.929 103.847 148.336L102.66 149.098C97.474 152.35 92.2291 155.544 86.7204 158.65C83.8489 160.242 80.9578 161.814 78.0472 163.367C81.3876 161.404 84.7572 159.485 88.1269 157.507C93.533 154.372 98.7632 151.075 103.788 147.779C106.382 146.08 108.989 144.424 111.714 142.769C114.439 141.113 117.326 139.751 120.226 138.373C123.207 137.057 126.095 135.54 128.87 133.832C129.603 133.348 131.522 132.118 131.317 131.737C131.112 131.356 128.929 131.986 127.947 132.367C125.524 133.166 123.379 134.64 121.765 136.615C122.053 136.533 122.337 136.435 122.614 136.322C123.318 136.029 123.948 135.707 124.607 135.355C125.537 134.842 126.411 134.233 127.215 133.539C126.434 134.276 125.574 134.924 124.651 135.473C124.015 135.84 123.359 136.172 122.688 136.469C122.215 136.694 121.725 136.88 121.223 137.026C121.076 137.026 121.662 136.264 121.735 136.161C122.017 135.81 122.331 135.486 122.673 135.194C123.637 134.378 124.689 133.67 125.808 133.085C127.684 132.118 131.141 130.755 132.079 131.253Z" fill="black"/>
<path opacity="0.2" d="M161.277 114.435C159.226 115.68 157.117 116.705 154.904 117.819C152.228 119.167 149.615 120.573 147.066 122.038C142.935 124.397 138.964 126.858 134.965 129.364C138.569 126.8 142.451 124.207 146.597 121.804C149.132 120.339 151.784 118.962 154.523 117.687C156.882 116.603 159.08 115.607 161.277 114.435Z" fill="black"/>
<path opacity="0.2" d="M175.928 103.534L176.309 103.754C174.214 105.219 172.353 106.831 170.273 108.369C167.645 110.341 164.799 112.003 161.79 113.321C159.827 114.185 157.864 115.006 155.93 115.841C157.834 114.888 159.783 113.995 161.702 113.072C164.559 111.692 167.265 110.017 169.775 108.076C171.826 106.552 173.803 104.985 175.928 103.534Z" fill="black"/>
<path opacity="0.2" d="M178.595 105.042L179.078 105.336C175.708 107.328 172.178 109.262 168.588 111.049C171.738 108.984 175.093 106.976 178.595 105.042Z" fill="black"/>
<path opacity="0.2" d="M112.813 141.113C109.323 142.78 105.968 144.715 102.777 146.9C98.953 149.478 95.4515 152.13 91.2907 154.621C87.1232 157.024 82.8183 159.182 78.3982 161.082C77.5777 161.448 76.772 161.843 75.9662 162.224L75.6732 162.049L77.8708 160.935C82.2712 158.96 86.5693 156.765 90.7487 154.357C94.8508 151.91 98.4109 149.288 102.308 146.768C104.419 145.391 106.6 144.125 108.842 142.973C110.102 142.329 111.465 141.699 112.813 141.113Z" fill="black"/>
<path opacity="0.2" d="M94.0014 150.298C94.1918 150.709 93.43 151.426 92.5363 152.027C88.3195 154.713 83.9126 157.087 79.3507 159.133C77.7685 159.88 76.2155 160.598 74.6625 161.418L74.3842 161.257L76.0836 160.349C79.8781 158.4 83.7752 156.554 87.4672 154.488C88.4341 153.961 89.3571 153.419 90.2654 152.862C91.0368 152.427 91.7761 151.937 92.4777 151.397C93.5032 150.562 92.4777 150.342 91.1445 150.811C90.3396 151.12 89.5607 151.492 88.815 151.924C88.0746 152.285 87.3769 152.727 86.7346 153.243C86.0607 153.917 87.2767 153.507 87.9213 153.243C88.7021 152.934 89.4444 152.536 90.1336 152.056C89.769 152.006 89.3975 152.062 89.0641 152.218C88.6757 152.371 88.2987 152.552 87.936 152.76L88.4927 152.408C88.9554 152.168 89.4481 151.99 89.9578 151.881C90.324 151.881 90.8222 151.749 90.4266 152.056C90.031 152.364 89.738 152.54 89.3425 152.76C88.4609 153.328 87.4974 153.758 86.4856 154.034C85.5772 154.151 85.8996 153.492 86.4856 152.994C88.1558 151.699 90.0401 150.708 92.0528 150.064C92.9612 149.932 93.8841 149.947 94.0014 150.298Z" fill="black"/>
<path opacity="0.2" d="M87.7016 152.951C87.7016 152.951 87.7016 152.951 87.8339 152.834C87.9662 152.716 87.6869 152.951 87.7016 152.951Z" fill="black"/>
<path opacity="0.2" d="M83.2478 155.223C82.9333 155.332 82.6251 155.46 82.3248 155.604C81.6948 155.926 81.0795 156.292 80.4788 156.644C79.0137 157.464 77.6366 158.299 76.1715 159.105C75.1899 159.662 74.223 160.175 73.2414 160.643L72.8165 160.409L75.395 158.944C76.8601 158.167 78.208 157.376 79.673 156.658C80.79 156.012 81.9938 155.528 83.2478 155.223Z" fill="black"/>
<path opacity="0.2" d="M116.226 135.4C112.427 136.993 108.745 138.853 105.209 140.967L92.2432 148.585C87.9164 151.096 83.57 153.591 79.2041 156.072C77.3582 157.112 75.4829 158.167 73.549 159.134C73.0216 159.412 72.4942 159.661 71.9667 159.91C74.3255 158.519 76.7428 157.141 79.1748 155.706C83.4528 153.156 87.7601 150.607 92.0821 148.102C96.404 145.597 100.755 143.048 105.18 140.572C108.723 138.565 112.416 136.836 116.226 135.4Z" fill="black"/>
<path opacity="0.2" d="M149.469 118.199C145.641 120.802 141.658 123.17 137.543 125.29C132.401 127.986 127.053 130.594 122.219 133.538C119.86 135.003 117.662 136.469 115.436 137.934C113.209 139.399 110.747 140.864 108.11 142.329C104.234 144.361 100.219 146.118 96.0967 147.588C100.112 146.015 104.026 144.195 107.817 142.138C113.018 139.281 117.047 136.073 121.999 133.114C126.951 130.154 131.903 127.795 136.957 125.232C141.249 123.11 145.425 120.762 149.469 118.199Z" fill="black"/>
<path opacity="0.2" d="M133.001 123.576L138.613 120.324C136.649 121.584 134.76 122.873 132.855 124.162L129.485 126.433L120.695 132.293L119.772 132.909L128.372 126.858L133.001 123.576Z" fill="black"/>
<path opacity="0.2" d="M172.69 101.644L172.896 101.761C170.942 103.011 168.915 104.218 166.816 105.38C161.16 108.53 155.095 111.313 149.323 114.288L146.979 115.504L154.113 111.372C160.469 108.452 166.67 105.205 172.69 101.644Z" fill="black"/>
<path opacity="0.2" d="M174.272 102.553L174.58 102.729C169.848 105.879 164.94 108.985 159.68 111.944C156.194 113.907 152.604 115.709 148.971 117.497L143.418 120.178C139.023 122.273 134.921 124.397 130.848 126.771C134.789 124.295 138.862 122.082 143.213 119.885C148.883 117.043 154.538 114.288 159.973 111.212C164.925 108.413 169.628 105.498 174.272 102.553Z" fill="black"/>
<path opacity="0.2" d="M158.42 110.523C154.377 113.008 150.156 115.192 145.791 117.057C149.84 114.581 154.06 112.397 158.42 110.523Z" fill="black"/>
<path d="M183.092 107.695L193.904 113.936L93.0783 172.143L82.2662 165.902L183.092 107.695Z" fill="#E0AF75"/>
<path opacity="0.2" d="M114.659 157.286C110.264 160.216 105.693 163.044 100.917 165.784C97.9868 167.454 95.0079 169.095 91.9801 170.706L91.2475 171.087L90.9252 170.897L91.5406 170.56C94.4707 168.86 97.4008 167.175 100.433 165.49C105.21 162.765 109.883 160.011 114.659 157.286Z" fill="black"/>
<path opacity="0.2" d="M160.764 132.22C156.735 134.608 152.501 136.777 148.311 139.033C142.783 142.021 137.372 145.074 132.078 148.189C123.918 152.98 115.963 157.873 107.963 162.737C115.289 157.859 122.98 152.995 130.892 148.307C136.225 145.142 141.714 142.085 147.359 139.135C151.827 136.821 156.384 134.623 160.764 132.22Z" fill="black"/>
<path opacity="0.2" d="M190.579 112.047C187.018 114.259 183.576 116.442 180.206 118.757C175.532 121.877 170.917 125.013 165.848 128.001C160.222 131.298 154.128 134.287 148.062 137.246C141.997 140.205 136.342 143.253 130.789 146.461C125.881 149.259 121.047 152.102 116.139 154.885C112.227 157.083 108.242 159.178 104.198 161.244C108.594 158.856 112.989 156.453 117.281 153.918L121.559 151.398C125.251 149.201 128.885 147.003 132.709 144.85C138.452 141.553 144.429 138.506 150.465 135.503C155.578 132.968 160.721 130.433 165.482 127.664C166.229 127.24 166.947 126.815 167.709 126.375C172.397 123.577 176.748 120.661 181.202 117.775C184.279 115.841 187.399 113.922 190.579 112.047Z" fill="black"/>
<path opacity="0.2" d="M187.194 115.519C187.605 115.401 186.345 116.529 186.257 116.588C185.627 117.028 184.323 117.804 183.737 117.658C182.521 117.335 186.286 115.299 187.444 114.727C188.285 114.294 189.175 113.965 190.095 113.746C191.004 113.614 191.223 114.039 190.784 114.596C189.276 115.988 187.591 117.175 185.773 118.126C181.686 120.544 177.188 122.771 172.925 125.085C170.214 126.551 167.533 128.016 164.823 129.481C167.108 128.089 169.394 126.682 171.738 125.335C175.518 123.152 179.4 121.086 183.224 118.947C185.055 117.921 186.828 116.866 188.469 115.768C189.04 115.387 189.832 114.845 189.934 114.478C190.037 114.112 189.084 114.361 188.469 114.64C187.37 115.094 184.074 116.573 184.074 117.233C184.074 117.892 185.671 116.793 186.125 116.5C186.579 116.207 187.121 115.841 187.194 115.519Z" fill="black"/>
<path opacity="0.2" d="M168.764 124.675C165.995 126.404 163.197 128.059 160.12 129.612C156.003 131.678 151.74 133.392 147.55 135.267C140.488 138.443 133.68 142.156 127.185 146.372C133.291 142.017 139.802 138.259 146.627 135.15C150.831 133.245 155.109 131.561 159.299 129.641C162.581 128.132 165.673 126.404 168.764 124.675Z" fill="black"/>
<path opacity="0.2" d="M188.777 110.979C187.048 111.975 185.275 112.942 183.488 113.909C180.558 115.784 177.54 117.674 174.595 119.549C171.65 121.424 168.734 123.226 165.57 124.97C164.105 125.746 162.757 126.435 161.307 127.241C160.545 127.636 159.724 128.09 158.904 128.471C158.426 128.692 157.937 128.887 157.439 129.057C158.619 128.552 159.76 127.959 160.852 127.285L165.028 124.882C168.095 123.065 171.079 121.219 173.979 119.344C176.91 117.425 180.001 115.55 183.151 113.718C185.026 112.766 186.872 111.843 188.777 110.979Z" fill="black"/>
<path opacity="0.2" d="M102.089 162.665C98.0378 165.376 93.8307 167.847 89.4892 170.064L89.1816 169.888C90.8225 168.892 92.4926 167.939 94.1774 166.958C96.7267 165.493 99.3784 164.042 102.089 162.665Z" fill="black"/>
<path opacity="0.2" d="M123.347 148.982C122.501 149.731 121.572 150.38 120.578 150.916L119.919 151.297C109.268 157.26 98.1332 162.93 87.8924 169.156C90.2804 167.442 92.8736 165.83 95.5693 164.263C101.049 161.069 106.675 157.978 112.344 154.886L116.739 152.513C118.205 151.722 119.67 150.931 121.135 150.081C121.984 149.554 123.318 148.616 122.995 148.22C122.673 147.825 120.065 149.041 119.303 149.378C118.013 149.966 116.778 150.667 115.611 151.473C115.099 151.839 114.644 152.191 114.146 152.572C113.648 152.952 114.85 152.572 115.143 152.469C116.35 152.003 117.504 151.408 118.585 150.696C118.952 150.462 119.45 150.125 119.435 149.934C119.421 149.744 119.171 149.832 118.878 149.934C119.245 149.803 119.538 149.744 119.479 149.934C119.362 150.447 117.531 151.502 116.652 151.956C115.773 152.41 113.721 153.421 113.428 153.011C113.135 152.601 115.099 151.385 115.699 150.975C116.3 150.564 116.637 150.359 117.164 150.066C117.912 149.641 118.717 149.231 119.538 148.85C120.804 148.195 122.171 147.754 123.581 147.546C124.372 147.62 123.962 148.367 123.347 148.982Z" fill="black"/>
<path opacity="0.2" d="M117.97 150.373L118.234 150.212L118.571 150.051L117.97 150.373Z" fill="black"/>
<path opacity="0.2" d="M132.532 141.612C130.935 142.549 129.339 143.487 127.639 144.366C125.324 145.538 122.995 146.593 120.636 147.677C119.171 148.351 117.852 149.025 116.592 149.743C115.669 150.27 114.761 150.842 113.867 151.442C111.699 152.907 109.619 154.373 107.48 155.838C103.381 158.76 99.1154 161.441 94.7044 163.866C92.4482 165.038 90.192 166.196 87.9505 167.382L86.3096 168.276C86.6604 167.939 87.0605 167.657 87.4963 167.441C89.6939 166.196 91.8915 164.98 94.1331 163.778C98.6009 161.238 102.92 158.445 107.07 155.413C109.209 153.948 111.318 152.483 113.545 151.017C115.771 149.604 118.114 148.384 120.548 147.37C122.892 146.344 125.207 145.348 127.522 144.234C129.236 143.399 130.891 142.491 132.532 141.612Z" fill="black"/>
<path opacity="0.2" d="M105.385 155.237C101.766 157.64 98.0596 159.925 94.0453 162.181C90.8515 163.91 87.6576 165.551 84.3759 167.119L84.1854 167.016C87.2914 165.287 90.4412 163.573 93.5911 161.874C97.4735 159.647 101.429 157.405 105.385 155.237Z" fill="black"/>
<path opacity="0.2" d="M144.209 132.089C142.041 133.027 139.975 133.979 137.91 135.092C135.097 136.631 132.489 138.257 129.808 139.854C124.387 143.077 118.981 146.315 113.472 149.508C107.964 152.702 102.543 155.779 97.0344 158.885C92.4488 161.463 87.8339 163.983 83.0138 166.342C86.5739 164.394 90.1193 162.445 93.6208 160.482C98.8072 157.552 103.876 154.49 109.107 151.501C114.688 148.292 120.241 145.04 125.808 141.817C130.813 138.717 135.983 135.89 141.294 133.349C142.232 132.851 143.228 132.47 144.209 132.089Z" fill="black"/>
<path opacity="0.2" d="M184.117 108.283L184.337 108.4C182.55 109.441 180.792 110.495 179.048 111.58C173.847 114.803 168.939 118.143 164.031 121.454C161.394 123.241 158.742 125.029 156.047 126.787C154.201 128.003 152.281 129.292 150.289 130.494C149.542 130.933 148.824 131.373 148.018 131.783C142.524 134.786 136.752 137.526 131.229 140.573C129.031 141.76 126.833 142.976 124.65 144.177C128.928 141.701 133.192 139.269 137.616 136.852C140.4 135.387 143.271 133.922 146.055 132.383C148.839 130.845 151.329 129.278 153.82 127.651C163.768 121.117 173.232 114.436 184.117 108.283Z" fill="black"/>
<path opacity="0.2" d="M166.068 117.527L163.138 119.593C160.574 121.439 157.922 123.3 155.124 125.102C152.926 126.567 150.641 127.827 148.282 129.16C150.45 127.768 152.677 126.406 154.67 124.97C156.662 123.534 159.167 121.791 161.365 120.194L166.068 117.527Z" fill="black"/>
<path opacity="0.2" d="M186.798 109.835L187.018 109.952C184.996 111.007 182.999 112.091 181.026 113.205C176.03 115.988 171.21 118.933 166.463 121.848C161.717 124.764 157.175 127.533 152.399 130.317C148.634 132.499 144.751 134.565 140.825 136.646C144.224 134.697 147.623 132.778 150.934 130.785L152.047 130.111C156.691 127.299 161.292 124.442 165.892 121.585C170.492 118.728 175.591 115.725 180.704 112.956C182.726 111.886 184.718 110.846 186.798 109.835Z" fill="black"/>
<path d="M104.433 178.649L93.6208 172.408L194.446 114.201L205.259 120.442L104.433 178.649Z" fill="#E0AF75"/>
<path opacity="0.2" d="M154.728 138.447C164.5 133.569 173.393 128.001 182.565 122.683C186.96 120.134 191.355 117.57 195.911 115.05L196.102 115.153C191.794 117.775 187.429 120.368 183.063 122.947C173.9 128.614 164.442 133.788 154.728 138.447Z" fill="black"/>
<path opacity="0.2" d="M123.522 157.713C127.185 155.516 130.306 153.201 133.866 150.989C138.407 148.161 143.359 145.539 148.341 143.048C153.322 140.557 158.347 138.155 163.196 135.649C167.093 133.628 170.756 131.547 174.331 129.335C171.093 131.503 167.738 133.554 164.075 135.547C159.167 138.228 154.069 140.733 149.014 143.268C143.96 145.802 139.155 148.264 134.54 151.003C130.804 153.23 127.434 155.545 123.522 157.713Z" fill="black"/>
<path opacity="0.2" d="M95.8184 173.74L95.5693 173.594C96.6974 172.92 97.8255 172.231 98.9829 171.572C103.949 168.642 109.121 165.946 114.366 163.353C117.662 161.727 120.988 160.174 124.226 158.533C126.453 157.39 128.621 156.218 130.702 154.944C134.862 152.394 138.613 149.83 143.169 147.501C138.774 149.918 135.17 152.512 131.17 155.075C125.964 158.212 120.584 161.049 115.055 163.573C109.839 166.137 104.682 168.803 99.6715 171.587C98.353 172.275 97.0783 172.964 95.8184 173.74Z" fill="black"/>
<path opacity="0.2" d="M94.3973 172.862L94.1043 172.7C97.9867 170.825 101.708 168.759 105.371 166.591C110.528 163.558 115.626 160.628 121.149 157.801C115.963 160.731 110.996 163.808 105.898 166.811C102.187 169.053 98.3471 171.074 94.3973 172.862Z" fill="black"/>
<path opacity="0.2" d="M144.195 148.499C143.154 147.898 147.535 145.261 149.103 144.367C151.725 142.902 154.567 141.569 157.336 140.221C160.266 138.756 163.035 137.291 165.79 135.636C168.06 134.259 170.185 132.823 172.426 131.416L173.613 130.654C178.799 127.402 184.044 124.194 189.553 121.102C192.483 119.491 195.311 117.923 198.226 116.37C194.886 118.333 191.501 120.267 188.132 122.23C182.74 125.366 177.51 128.677 172.485 131.958C169.892 133.658 167.284 135.328 164.559 136.969C161.834 138.61 158.948 140.002 156.047 141.364C153.066 142.68 150.178 144.197 147.403 145.906C146.67 146.375 144.737 147.605 144.956 148.001C145.176 148.396 147.344 147.752 148.326 147.371C150.744 146.561 152.886 145.089 154.509 143.122C154.22 143.205 153.937 143.303 153.659 143.415C152.956 143.708 152.326 144.031 151.666 144.367C150.739 144.891 149.866 145.505 149.059 146.199C149.829 145.479 150.68 144.85 151.593 144.324C152.238 143.972 152.853 143.635 153.556 143.327C154.028 143.1 154.518 142.913 155.021 142.771C155.168 142.771 154.582 143.532 154.509 143.65C154.219 143.994 153.906 144.317 153.571 144.617C152.61 145.433 151.558 146.136 150.436 146.712C148.59 147.679 145.161 149.041 144.195 148.499Z" fill="black"/>
<path opacity="0.2" d="M114.967 165.36C117.018 164.115 119.113 163.089 121.34 161.976C124.016 160.638 126.629 159.236 129.178 157.771C133.309 155.398 137.265 152.936 141.279 150.446C137.675 153.024 133.793 155.617 129.647 158.006C127.112 159.471 124.46 160.862 121.721 162.122C119.435 163.25 117.194 164.203 114.967 165.36Z" fill="black"/>
<path opacity="0.2" d="M100.301 176.275L99.9204 176.041C102.015 174.576 103.861 172.964 105.956 171.426C108.571 169.442 111.402 167.761 114.395 166.415L120.255 163.896C118.351 164.848 116.402 165.741 114.483 166.679C111.624 168.058 108.914 169.727 106.396 171.66C104.447 173.257 102.47 174.81 100.301 176.275Z" fill="black"/>
<path opacity="0.2" d="M97.6791 174.752L97.181 174.474C100.551 172.481 104.096 170.547 107.685 168.76C104.536 170.811 101.21 172.833 97.6791 174.752Z" fill="black"/>
<path opacity="0.2" d="M163.46 138.697C166.948 137.026 170.303 135.092 173.496 132.91C177.32 130.317 180.821 127.665 184.982 125.174C189.147 122.77 193.452 120.617 197.875 118.728L200.307 117.571L200.6 117.747C199.882 118.128 199.135 118.494 198.402 118.86C194.007 120.97 189.48 122.992 185.524 125.438C181.569 127.885 177.862 130.522 173.965 133.027C171.854 134.404 169.673 135.67 167.431 136.822C166.171 137.466 164.838 138.096 163.46 138.697Z" fill="black"/>
<path opacity="0.2" d="M182.272 129.48C182.081 129.055 182.843 128.352 183.737 127.736C187.959 125.065 192.365 122.695 196.922 120.645L201.596 118.36L201.889 118.521L200.189 119.415C196.38 121.378 192.498 123.209 188.806 125.275C187.839 125.817 186.916 126.359 186.007 126.901C185.237 127.345 184.493 127.834 183.781 128.366C182.77 129.216 183.781 129.421 185.114 128.952C185.927 128.658 186.711 128.29 187.458 127.853C188.199 127.488 188.897 127.041 189.538 126.52C190.212 125.846 188.982 126.271 188.352 126.52C187.574 126.835 186.832 127.233 186.139 127.707C186.502 127.764 186.874 127.713 187.209 127.56C187.282 127.56 187.985 127.209 188.337 127.004L187.78 127.37C187.317 127.606 186.824 127.779 186.315 127.883C185.949 127.883 185.451 128.015 185.846 127.707C186.242 127.399 186.535 127.238 186.93 127.004C187.835 126.433 188.824 126.008 189.861 125.744C190.769 125.627 190.447 126.286 189.861 126.784C188.19 128.079 186.306 129.07 184.293 129.714C183.253 129.875 182.462 129.787 182.272 129.48Z" fill="black"/>
<path opacity="0.2" d="M188.572 126.858C188.572 126.858 188.572 126.858 188.439 126.976C188.307 127.094 188.586 126.858 188.572 126.858Z" fill="black"/>
<path opacity="0.2" d="M193.025 124.573C193.216 124.573 193.875 124.236 193.948 124.207C194.578 123.87 195.193 123.504 195.794 123.167C197.259 122.346 198.636 121.511 200.101 120.691C201.083 120.149 202.05 119.636 203.032 119.152L203.456 119.401L200.878 120.866C199.413 121.643 198.065 122.419 196.6 123.152C195.486 123.801 194.281 124.28 193.025 124.573Z" fill="black"/>
<path opacity="0.2" d="M160.047 144.441C163.848 142.859 167.531 141.003 171.064 138.889C175.386 136.354 179.678 133.79 184.03 131.27C188.381 128.75 192.688 126.26 197.069 123.784C198.915 122.729 200.79 121.689 202.724 120.707L204.306 119.931C201.947 121.396 199.53 122.7 197.098 124.15C192.82 126.699 188.518 129.234 184.191 131.754C179.796 134.274 175.518 136.808 171.005 139.27C167.495 141.281 163.831 143.01 160.047 144.441Z" fill="black"/>
<path opacity="0.2" d="M126.804 161.609C130.629 159.001 134.612 156.633 138.73 154.518C143.858 151.808 149.205 149.2 154.055 146.27C156.413 144.805 158.611 143.34 160.838 141.875C163.065 140.41 165.511 138.945 168.163 137.48C172.043 135.454 176.057 133.697 180.177 132.22C176.165 133.803 172.252 135.623 168.456 137.67C163.27 140.6 159.241 143.75 154.289 146.695C149.337 149.64 144.37 152.057 139.301 154.606C135.018 156.725 130.847 159.062 126.804 161.609Z" fill="black"/>
<path opacity="0.2" d="M143.272 156.233L137.66 159.471C139.624 158.211 141.514 156.936 143.418 155.647L146.788 153.376L155.578 147.516L156.501 146.9L147.945 152.98L143.272 156.233Z" fill="black"/>
<path opacity="0.2" d="M103.583 178.135L103.378 178.018C105.312 176.758 107.334 175.557 109.458 174.385C115.113 171.25 121.179 168.525 126.951 165.477L129.295 164.276L122.16 168.393C115.804 171.318 109.604 174.57 103.583 178.135Z" fill="black"/>
<path opacity="0.2" d="M102.001 177.256L101.693 177.065C106.425 173.915 111.333 170.824 116.578 167.865C120.079 165.887 123.654 164.085 127.302 162.312L132.84 159.631C137.235 157.536 141.352 155.397 145.41 153.023C141.469 155.499 137.411 157.726 133.045 159.909C127.39 162.766 121.735 165.506 116.3 168.597C111.348 171.395 106.63 174.296 102.001 177.256Z" fill="black"/>
<path opacity="0.2" d="M117.852 169.344C121.908 166.842 126.138 164.633 130.511 162.737C126.461 165.251 122.23 167.46 117.852 169.344Z" fill="black"/>
<path d="M216.554 126.976L205.742 120.749L104.916 178.956L115.729 185.197L216.554 126.976Z" fill="#E0AF75"/>
<path opacity="0.2" d="M130.643 166.488C125.618 169.037 120.68 171.674 115.992 174.428C113.062 176.128 110.264 177.842 107.48 179.585L106.806 180.01L107.129 180.201L107.729 179.849L116.52 174.721C121.149 171.953 125.955 169.257 130.643 166.488Z" fill="black"/>
<path opacity="0.2" d="M174.067 139.868C169.951 142.212 166.185 144.644 162.259 147.076C157.102 150.26 151.818 153.381 146.407 156.438C138.115 161.156 129.632 165.741 121.223 170.371C129.661 166.093 138.085 161.683 146.129 157.185C151.608 154.109 156.926 150.929 162.025 147.677C166.112 145.04 169.907 142.403 174.067 139.868Z" fill="black"/>
<path opacity="0.2" d="M209.024 122.625C205.2 124.691 201.347 126.669 197.391 128.618C191.985 131.328 186.55 133.98 181.393 136.91C175.664 140.162 170.507 143.708 165.365 147.165C160.222 150.623 154.963 153.905 149.425 157.128C144.561 159.97 139.638 162.768 134.774 165.625C130.965 167.881 127.346 170.181 123.772 172.526C127.889 169.947 132.064 167.456 136.386 164.966C137.851 164.131 139.316 163.31 140.781 162.49C144.561 160.351 148.385 158.227 152.121 156.058C157.805 152.733 163.094 149.304 168.236 145.803C172.632 142.873 177.027 139.943 181.803 137.13C182.535 136.705 183.268 136.265 184.044 135.855C188.894 133.145 193.948 130.625 198.944 128.061C202.446 126.303 205.757 124.501 209.024 122.625Z" fill="black"/>
<path opacity="0.2" d="M202.988 124.617C203.193 124.383 201.259 125.115 201.156 125.159C200.38 125.525 199.032 126.273 199.296 126.624C199.838 127.342 203.383 125.159 204.35 124.485C205 124.109 205.572 123.612 206.035 123.02C206.255 122.493 205.551 122.361 204.57 122.625C202.428 123.375 200.374 124.357 198.446 125.555C194.256 127.913 190.388 130.521 186.403 132.968C183.839 134.55 181.231 136.088 178.667 137.641C181.085 136.338 183.517 135.019 185.861 133.656C189.641 131.474 193.186 129.261 196.922 127.02C198.695 125.965 200.526 124.954 202.431 124.002C203.128 123.612 203.878 123.326 204.658 123.152C205.449 123.064 204.877 123.635 204.394 124.031C203.603 124.676 201.039 126.58 199.896 126.551C199.105 126.551 200.658 125.628 201.156 125.364C201.71 124.993 202.333 124.739 202.988 124.617Z" fill="black"/>
<path opacity="0.2" d="M187.15 135.252C184.22 136.849 181.29 138.475 178.594 140.248C175.019 142.621 172.045 145.083 168.807 147.573C162.716 151.984 156.284 155.903 149.571 159.294C156.387 156.182 162.892 152.429 168.998 148.086C172.309 145.654 175.21 143.193 178.535 140.761C181.158 138.827 184.147 137.025 187.15 135.252Z" fill="black"/>
<path opacity="0.2" d="M210.884 123.709C209.141 124.706 207.47 125.731 205.654 126.757C202.401 128.486 199.149 130.185 195.882 131.885C192.615 133.584 189.523 135.298 186.505 137.1C185.158 137.921 183.854 138.726 182.564 139.561C181.876 140.001 181.099 140.484 180.44 140.953C180.079 141.207 179.741 141.491 179.429 141.803C180.394 141.061 181.418 140.399 182.491 139.825C183.956 139.019 185.26 138.214 186.667 137.422C189.802 135.65 193.01 133.921 196.263 132.251C199.515 130.581 202.812 128.779 205.991 126.947C207.778 125.878 209.375 124.808 210.884 123.709Z" fill="black"/>
<path opacity="0.2" d="M121.34 173.741C116.936 175.937 112.66 178.383 108.535 181.067L108.843 181.242C110.557 180.305 112.227 179.338 113.868 178.312C116.432 176.847 118.966 175.323 121.34 173.741Z" fill="black"/>
<path opacity="0.2" d="M145.044 161.478C143.88 161.908 142.758 162.443 141.689 163.075L141.045 163.455C130.701 169.609 120.886 176.04 110.103 181.959C113.033 180.582 115.846 179.029 118.571 177.564C124.109 174.399 129.471 171.147 134.804 167.88L138.92 165.375C140.298 164.525 141.675 163.631 143.154 162.84C144.125 162.224 145.232 161.857 146.378 161.771C146.92 161.946 144.913 163.455 144.356 163.895C143.229 164.707 142.027 165.409 140.766 165.99C140.136 166.283 139.506 166.547 138.862 166.81C138.217 167.074 138.862 166.4 139.038 166.239C139.976 165.449 141.009 164.779 142.114 164.247C142.517 163.999 142.965 163.835 143.433 163.763C143.682 163.763 143.594 163.91 143.433 164.071C143.682 163.866 143.77 163.705 143.433 163.734C142.189 164.074 141.013 164.629 139.961 165.375C139.331 165.77 137.441 167.074 138.115 167.221C139.353 166.976 140.545 166.536 141.645 165.917C142.173 165.653 142.7 165.375 143.213 165.082C143.941 164.662 144.645 164.202 145.323 163.705C146.202 163.045 147.667 161.888 147.579 161.375C147.491 160.862 146.114 161.126 145.044 161.478Z" fill="black"/>
<path opacity="0.2" d="M142.642 164.585L142.905 164.439L143.184 164.234C143.01 164.361 142.829 164.479 142.642 164.585Z" fill="black"/>
<path opacity="0.2" d="M157.82 156.16C156.193 157.083 154.552 158.006 153.043 158.988C150.992 160.321 149.161 161.669 147.3 163.031C146.146 163.882 144.942 164.665 143.696 165.375C142.788 165.917 141.821 166.43 140.766 166.958C138.261 168.203 135.741 169.404 133.221 170.65C128.458 172.838 123.816 175.284 119.318 177.975C117.267 179.279 115.274 180.583 113.223 181.872L111.655 182.824C112.171 182.659 112.664 182.427 113.12 182.136C115.245 180.876 117.369 179.601 119.45 178.297C124.123 175.56 128.935 173.066 133.866 170.825C136.386 169.58 138.935 168.364 141.411 167.075C143.665 165.93 145.812 164.587 147.828 163.061C149.586 161.698 151.315 160.365 153.249 159.032C154.699 158.079 156.281 157.127 157.82 156.16Z" fill="black"/>
<path opacity="0.2" d="M134.218 171.853C130.042 173.948 126.101 176.116 122.175 178.401C119.245 180.247 116.315 182.093 113.619 183.983L113.824 184.1C116.754 182.298 119.787 180.482 122.717 178.665C126.57 176.424 130.511 174.138 134.218 171.853Z" fill="black"/>
<path opacity="0.2" d="M174.287 149.435C172.628 150.749 170.891 151.962 169.086 153.068C166.449 154.695 163.622 156.204 160.853 157.757C155.256 160.877 149.659 164.012 144.136 167.177C138.613 170.341 133.265 173.491 127.889 176.671C123.493 179.322 119.098 181.989 114.981 184.772C118.351 182.707 121.735 180.67 125.237 178.648C130.409 175.718 135.624 172.7 140.781 169.712C146.363 166.488 151.989 163.28 157.556 160.057C162.611 157.369 167.503 154.384 172.207 151.12C172.998 150.548 173.628 149.992 174.287 149.435Z" fill="black"/>
<path opacity="0.2" d="M215.484 126.391L215.265 126.273C213.463 127.299 211.631 128.31 209.756 129.321C204.174 132.324 198.402 135.181 192.673 137.994C189.582 139.459 186.476 141.041 183.414 142.594C181.319 143.664 179.019 144.777 177.012 145.935C176.25 146.359 175.547 146.799 174.785 147.238C169.569 150.403 164.823 153.743 159.636 156.937L153.366 160.732C157.761 158.256 161.878 155.794 166.009 153.245C168.617 151.634 171.108 149.978 173.73 148.367C176.353 146.755 179.107 145.334 181.934 143.883C193.303 138.14 204.877 132.72 215.484 126.391Z" fill="black"/>
<path opacity="0.2" d="M199.515 136.819L195.955 138.46C192.732 139.925 189.538 141.478 186.403 143.09C183.956 144.35 181.686 145.683 179.385 147.045C181.788 145.786 184.147 144.54 186.623 143.354C189.363 142.035 192.132 140.76 194.901 139.486L199.515 136.819Z" fill="black"/>
<path opacity="0.2" d="M212.862 124.852L212.642 124.72C210.811 125.892 208.95 127.035 207.017 128.178C202.182 131.108 197.098 133.848 192.029 136.587C186.96 139.327 182.198 141.949 177.378 144.704C173.584 146.887 170.053 149.099 166.405 151.399C169.775 149.421 173.1 147.473 176.543 145.539L177.701 144.894C182.579 142.213 187.531 139.561 192.468 136.895C197.406 134.228 202.651 131.298 207.412 128.354C209.302 127.196 211.089 126.024 212.862 124.852Z" fill="black"/>
<path d="M144.444 120.765L125.061 131.958C125.691 132.265 130.159 134.023 131.727 134.653C135.14 136.016 141.763 138.858 144.795 140.44C146.799 141.277 148.454 142.777 149.483 144.689C148.434 143.302 147.047 142.208 145.455 141.51C142.524 139.942 135.858 137.115 132.459 135.752C130.446 134.787 128.179 134.485 125.984 134.888C125.643 134.983 125.309 135.106 124.988 135.254L124.797 135.371C123.332 136.221 122.951 137.686 123.947 138.638C125.56 139.952 127.44 140.897 129.456 141.407C130.101 141.627 130.76 141.847 131.39 142.096C132.418 142.535 133.262 143.317 133.778 144.308C134.452 145.489 135.396 146.493 136.532 147.238C138.966 148.842 141.782 149.772 144.693 149.934C145.697 149.973 146.698 149.788 147.623 149.392C146.466 150.088 145.133 150.434 143.784 150.388H143.696C140.617 150.167 137.652 149.125 135.111 147.37C133.91 146.578 132.908 145.52 132.181 144.279C131.749 143.425 131.034 142.747 130.159 142.36C129.544 142.111 128.885 141.891 128.255 141.671C126.174 140.968 117.633 136.265 117.604 136.25L104.418 143.854L134.774 161.435L174.858 138.287L144.444 120.765Z" fill="#3C3C3B"/>
<path d="M100.609 81.0762C105.224 81.3838 107.465 84.0063 108.813 91.5221L113.326 110.29C118.6 114.817 123.215 121.19 128.548 129.731C126.79 131.02 125.193 133.13 125.779 135.327C117.238 130.302 109.953 123.398 104.477 115.139C99.0853 101.309 91.6867 85.6618 100.609 81.0762Z" fill="#C76D29"/>
<path d="M130.511 134.768C130.4 134.883 130.31 135.017 130.247 135.164C130.073 135.599 130.007 136.07 130.052 136.536C130.098 137.003 130.255 137.452 130.511 137.845L133.895 142.562L134.51 144.232H135.052L136.342 141.405L131.8 135.076C131.716 134.928 131.595 134.805 131.448 134.72C131.301 134.635 131.135 134.591 130.965 134.592H130.423L130.511 134.768Z" fill="#534741"/>
<path d="M129.998 137.905L134.54 144.234L135.814 141.392L131.273 135.063C131.191 134.933 131.074 134.829 130.935 134.762C130.797 134.696 130.643 134.669 130.49 134.686C130.337 134.703 130.192 134.762 130.072 134.857C129.951 134.952 129.86 135.079 129.808 135.224C129.623 135.653 129.544 136.121 129.577 136.587C129.61 137.054 129.755 137.506 129.998 137.905Z" fill="#998675"/>
<path d="M129.734 135.224C129.561 135.659 129.494 136.13 129.54 136.596C129.586 137.063 129.743 137.512 129.998 137.905L136.987 147.648L140.063 147.296L131.273 135.063C131.2 134.91 131.081 134.783 130.933 134.7C130.785 134.617 130.615 134.582 130.447 134.6C130.278 134.617 130.119 134.687 129.991 134.799C129.864 134.91 129.774 135.059 129.734 135.224Z" fill="#9D9D9C"/>
<path d="M137.323 148.248L140.429 147.955L140.048 147.311L136.986 147.648L137.323 148.248Z" fill="#9D9D9C"/>
<path d="M129.544 135.238C129.37 135.673 129.304 136.144 129.35 136.61C129.395 137.077 129.553 137.525 129.808 137.919L136.811 147.661L139.873 147.324L131.082 135.091C131.011 134.938 130.893 134.811 130.746 134.727C130.599 134.643 130.43 134.606 130.262 134.622C130.093 134.638 129.934 134.706 129.805 134.816C129.677 134.926 129.586 135.074 129.544 135.238Z" fill="#CCCCCC"/>
<path d="M137.323 148.248L140.429 147.955L139.872 147.325L136.81 147.662L137.323 148.248Z" fill="#E6E6E6"/>
<path d="M129.823 134.842C129.721 134.961 129.638 135.095 129.573 135.237C129.4 135.673 129.333 136.144 129.379 136.61C129.425 137.077 129.582 137.525 129.837 137.918L133.221 142.636L133.822 144.291H134.379L135.653 141.449L131.112 135.135C131.031 134.988 130.912 134.866 130.768 134.781C130.623 134.696 130.459 134.651 130.291 134.651H129.735L129.823 134.842Z" fill="#534741"/>
<path d="M129.281 137.963L133.822 144.292L135.112 141.464L130.511 135.135C129.998 134.446 129.31 134.505 128.958 135.296C128.796 135.734 128.74 136.205 128.796 136.669C128.852 137.132 129.018 137.576 129.281 137.963Z" fill="#998675"/>
<path d="M129.588 136.162C129.69 135.942 129.881 135.927 130.027 136.162C130.088 136.279 130.119 136.41 130.119 136.542C130.119 136.675 130.088 136.806 130.027 136.923C129.925 137.143 129.734 137.158 129.588 136.923C129.531 136.805 129.501 136.674 129.501 136.542C129.501 136.411 129.531 136.28 129.588 136.162Z" fill="#534741"/>
<path d="M139.58 147.135L135.404 142.271L135.683 141.699L139.58 147.135Z" fill="#E6E6E6"/>
<path d="M124.65 132.718C125.149 129.788 128.064 127.619 130.76 129.934L134.305 133.978L134.745 139.12L132.943 136.864C131.478 136.527 131.097 137.933 130.613 139.472C131.144 140.286 131.633 141.127 132.078 141.992C131.741 142.416 129.28 141.787 129.28 141.787L125.251 137.684L124.65 132.718Z" fill="#FFBB7D"/>
<path d="M161.277 128.324C161.79 129.189 160.852 130.17 160.149 129.526L159.841 129.364C160.149 129.98 159.241 131.049 158.523 130.375L157.673 129.584C157.6 130.449 157.307 130.873 156.443 130.317L153.952 127.357L151.022 125.174V126.859L151.945 128.485C152.458 129.555 151.52 130.434 150.817 129.482L149.996 128.339L149.527 127.694L148.897 125.79C148.94 124.342 149.181 122.908 149.615 121.526L148.619 120.721L151.549 118.655L153.014 119.505C155.105 120.098 157.001 121.235 158.508 122.801L160.852 126.258C161.6 127.211 161.643 128.134 160.852 127.826L161.277 128.324Z" fill="#FFBB7D"/>
<path d="M139.712 107.637C142.508 112.942 145.69 118.035 149.235 122.873L150.216 121.701C150.55 121.15 150.996 120.675 151.526 120.309C152.057 119.943 152.659 119.693 153.293 119.577C152.194 114.127 149.586 107.856 147.008 101.527L139.712 107.637Z" fill="#C76D29"/>
<g style="mix-blend-mode:multiply">
<path d="M139.712 107.637C142.538 112.941 145.746 118.033 149.308 122.874L150.275 121.702C146.899 116.82 143.901 111.687 141.309 106.348L139.712 107.637Z" fill="#C76D29"/>
</g>
<g style="mix-blend-mode:multiply" opacity="0.5">
<path d="M158.523 130.435L157.673 129.643C157.6 130.508 157.307 130.933 156.443 130.376L153.952 127.358L151.022 125.175V126.86L151.945 128.486C152.458 129.556 151.52 130.435 150.817 129.482L149.996 128.34C150.48 128.911 150.963 129.321 151.461 129.248C151.652 128.589 151.095 127.68 150.538 126.772C150.867 125.831 150.943 124.821 150.758 123.842C151.147 124.5 151.672 125.067 152.299 125.504C152.926 125.942 153.64 126.239 154.392 126.376C154.857 127.822 155.72 129.106 156.882 130.083C157.351 130.083 157.541 129.643 157.6 129.116C157.755 129.421 157.996 129.675 158.292 129.847C158.588 130.018 158.928 130.1 159.27 130.083L159.827 129.424C160.149 130.039 159.241 131.109 158.523 130.435Z" fill="#FFBB7D"/>
</g>
<path d="M111.186 165.522C109.541 164.737 107.796 164.18 106 163.866C104.565 163.684 103.188 163.183 101.971 162.401C101.532 162.02 101.121 161.625 100.726 161.229C99.362 159.724 97.6452 158.581 95.7299 157.904C93.7803 157.344 91.6925 157.527 89.8696 158.416L89.6645 158.548C88.0383 159.603 88.346 161.215 90.5582 163.046C93.0195 165.112 98.1473 169.082 100.989 170.899C105.385 173.697 110.542 174.429 114.248 172.759C115.552 172.173 116.197 171.382 116.168 170.445C116.036 168.965 114.248 167.163 111.186 165.522Z" fill="#3C3C3B"/>
<path d="M112.271 164.086C111.074 163.357 110.07 162.352 109.341 161.156C108.799 160.12 107.92 159.298 106.85 158.827L104.813 158.109C102.705 157.561 100.74 156.561 99.0558 155.179C98.0156 154.182 98.4112 152.644 99.9348 151.75L100.155 151.648C102.001 150.696 104.77 150.886 107.963 152.146C111.523 153.611 118.409 156.541 121.559 158.182C126.394 160.687 127.654 163.691 124.768 165.83C123.591 166.626 122.187 167.017 120.768 166.943C117.734 166.753 114.803 165.768 112.271 164.086Z" fill="#3C3C3B"/>
<path d="M168.603 116.897C170.683 118.083 170.361 119.402 172.998 120.926C173.26 121.05 173.494 121.228 173.685 121.448C173.875 121.667 174.019 121.924 174.105 122.202C174.192 122.479 174.22 122.772 174.189 123.061C174.157 123.35 174.066 123.629 173.921 123.881C173.776 124.133 173.581 124.353 173.347 124.526C173.113 124.699 172.847 124.822 172.563 124.887C172.28 124.952 171.986 124.958 171.7 124.904C171.415 124.85 171.143 124.737 170.903 124.574C168.251 123.108 167.284 124.002 165.189 122.801C163.094 121.599 162.537 119.343 163.475 117.805C164.413 116.267 166.273 115.651 168.603 116.897Z" fill="#C76D29"/>
<path d="M172.031 124.617C171.702 124.564 171.385 124.455 171.093 124.295C170.073 123.696 168.932 123.33 167.753 123.225C166.913 123.159 166.101 122.898 165.38 122.463C164.637 122.14 164.037 121.557 163.692 120.824C163.347 120.091 163.28 119.257 163.504 118.479C163.53 119.132 163.733 119.767 164.092 120.314C164.45 120.861 164.951 121.3 165.541 121.584C166.264 122.005 167.078 122.247 167.914 122.288C169.093 122.393 170.234 122.758 171.255 123.357C171.486 123.492 171.739 123.586 172.002 123.636C171.932 123.791 171.899 123.96 171.904 124.13C171.909 124.3 171.952 124.466 172.031 124.617Z" fill="#E38C4B"/>
<path d="M173.569 125.54L172.499 124.924C172.386 124.841 172.297 124.729 172.241 124.601C172.184 124.472 172.162 124.331 172.177 124.192C172.194 123.798 172.306 123.414 172.502 123.073C172.698 122.731 172.974 122.442 173.305 122.228C173.419 122.143 173.554 122.089 173.696 122.074C173.838 122.058 173.981 122.081 174.111 122.141L175.166 122.756L173.569 125.54Z" fill="#534741"/>
<path d="M175.503 123.489C175.503 122.771 174.99 122.478 174.375 122.845C174.041 123.057 173.764 123.346 173.565 123.687C173.366 124.029 173.252 124.413 173.232 124.808C173.232 125.526 173.745 125.819 174.375 125.452C174.704 125.237 174.977 124.947 175.173 124.605C175.369 124.264 175.482 123.882 175.503 123.489Z" fill="#CCCCCC"/>
<path d="M180.323 127.942L174.243 124.441C174.231 124.415 174.225 124.388 174.225 124.36C174.225 124.332 174.231 124.305 174.243 124.279C174.247 124.192 174.272 124.106 174.315 124.03C174.358 123.953 174.419 123.888 174.492 123.84C174.519 123.826 174.549 123.818 174.58 123.818C174.611 123.818 174.641 123.826 174.668 123.84L180.748 127.356C181.466 127.766 184.469 129.905 184.469 129.905C184.469 129.905 180.953 128.323 180.323 127.942Z" fill="white"/>
<path d="M187.824 121.379L186.11 120.573L173.013 113.248C172.06 114.449 179.884 119.474 183.004 121.188C183.107 121.188 184.001 120.749 184.103 120.807C184.528 121.042 184.865 121.203 185.085 121.305C185.253 121.38 185.437 121.413 185.621 121.4C185.805 121.387 185.983 121.33 186.14 121.232L186.389 121.086L187.458 121.554L187.824 121.379Z" fill="#4D4D4D"/>
<path d="M185.656 122.361L184.704 121.218L175.503 112.208C178.712 111.915 183.751 117.043 186.008 119.255C186.125 119.372 185.539 120.134 185.641 120.237C185.949 120.559 186.183 120.794 186.301 120.94C186.418 121.087 186.301 121.321 185.964 121.453C185.841 121.502 185.713 121.537 185.583 121.555L186.125 122.273L185.656 122.361Z" fill="white"/>
<path d="M185.319 120.794L185.817 121.145C185.845 121.132 185.869 121.112 185.885 121.086C185.902 121.06 185.911 121.03 185.911 120.999C185.911 120.968 185.902 120.938 185.885 120.912C185.869 120.886 185.845 120.865 185.817 120.852C185.742 120.81 185.659 120.783 185.574 120.772C185.488 120.762 185.402 120.77 185.319 120.794Z" fill="white"/>
<path d="M185.187 120.851C185.159 120.863 185.135 120.884 185.119 120.91C185.102 120.936 185.093 120.966 185.093 120.997C185.093 121.028 185.102 121.058 185.119 121.084C185.135 121.11 185.159 121.131 185.187 121.144C185.351 121.211 185.536 121.211 185.7 121.144L185.187 120.851Z" fill="white"/>
<path d="M187.751 125.13H187.956V124.662H187.751V125.13Z" fill="#0091A1"/>
<path d="M182.667 125.027H182.945V124.646H182.667V125.027Z" fill="#0091A1"/>
<path d="M184.85 122.331H185.26V121.964H184.85V122.331Z" fill="#0091A1"/>
<path d="M194.153 122.111H194.431V121.715H194.153V122.111Z" fill="#0091A1"/>
<path d="M186.638 121.804L190.271 123.269C190.614 123.403 190.974 123.487 191.341 123.518C192.202 123.634 193.077 123.447 193.817 122.991C193.947 122.929 194.063 122.841 194.158 122.732C194.252 122.624 194.323 122.496 194.366 122.358C194.409 122.221 194.422 122.075 194.406 121.932C194.389 121.789 194.343 121.65 194.271 121.526C194.024 121.226 193.716 120.984 193.367 120.814C193.018 120.645 192.637 120.553 192.249 120.544C191.385 120.43 190.507 120.61 189.758 121.057C189.589 121.158 189.446 121.296 189.339 121.461C189.232 121.626 189.165 121.814 189.143 122.009L187.414 121.189C187.121 121.189 186.83 121.234 186.55 121.321V121.614C186.565 121.731 186.55 121.775 186.638 121.804ZM189.89 122.478C189.832 122.38 189.795 122.271 189.782 122.158C189.768 122.046 189.778 121.931 189.811 121.822C189.844 121.713 189.9 121.613 189.974 121.526C190.048 121.44 190.139 121.37 190.242 121.321C190.809 120.979 191.475 120.84 192.132 120.925C192.431 120.931 192.726 121.001 192.996 121.13C193.266 121.259 193.506 121.444 193.699 121.672C193.757 121.77 193.794 121.879 193.808 121.992C193.821 122.105 193.811 122.22 193.778 122.329C193.745 122.437 193.69 122.538 193.616 122.624C193.542 122.711 193.45 122.781 193.348 122.83C192.776 123.175 192.105 123.314 191.443 123.225C191.145 123.218 190.851 123.146 190.583 123.015C190.315 122.883 190.079 122.695 189.89 122.464V122.478Z" fill="#534741"/>
<path d="M183.868 126.317C184.719 126.61 185.637 126.641 186.505 126.405C187.355 126.156 187.971 125.672 187.971 125.115C187.986 124.88 187.918 124.647 187.78 124.456L186.051 122.068C186.011 122.045 185.966 122.033 185.919 122.033C185.873 122.033 185.828 122.045 185.788 122.068L184.982 122.273C184.879 122.273 184.821 122.376 184.879 122.434L185.875 123.592C185.291 123.518 184.698 123.563 184.132 123.724C183.282 123.973 182.74 124.456 182.667 124.998C182.594 125.54 183.077 126.009 183.868 126.317ZM183.297 124.969C183.297 124.544 183.766 124.178 184.41 123.987C185.068 123.775 185.775 123.775 186.432 123.987C187.048 124.207 187.384 124.603 187.341 125.027C187.297 125.452 186.886 125.819 186.227 126.009C185.561 126.19 184.856 126.165 184.205 125.936C183.605 125.775 183.253 125.394 183.253 124.969H183.297Z" fill="#534741"/>
<path d="M186.637 121.454L190.271 122.919C190.615 123.046 190.975 123.13 191.34 123.168C192.201 123.269 193.071 123.084 193.816 122.641C194.432 122.216 194.607 121.644 194.27 121.176C194.024 120.876 193.716 120.633 193.367 120.464C193.018 120.295 192.636 120.202 192.249 120.194C191.382 120.076 190.502 120.263 189.758 120.721C189.588 120.818 189.444 120.953 189.337 121.116C189.23 121.279 189.164 121.465 189.143 121.659L187.414 120.839C187.369 120.813 187.319 120.799 187.267 120.799C187.216 120.799 187.165 120.813 187.121 120.839L186.593 121.234C186.593 121.234 186.549 121.41 186.637 121.454ZM189.89 122.113C189.832 122.015 189.795 121.906 189.781 121.793C189.768 121.68 189.778 121.566 189.811 121.457C189.844 121.348 189.899 121.248 189.974 121.161C190.048 121.075 190.139 121.005 190.241 120.956C190.809 120.614 191.475 120.475 192.131 120.56C192.431 120.566 192.725 120.636 192.996 120.765C193.266 120.894 193.506 121.079 193.699 121.307C193.757 121.405 193.794 121.514 193.807 121.627C193.821 121.74 193.811 121.855 193.778 121.963C193.745 122.072 193.689 122.173 193.615 122.259C193.541 122.346 193.45 122.416 193.347 122.465C192.776 122.81 192.104 122.949 191.443 122.86C191.145 122.858 190.851 122.79 190.583 122.661C190.314 122.531 190.078 122.344 189.89 122.113Z" fill="#C1272D"/>
<path d="M184.498 126.125C185.166 126.243 185.851 126.213 186.506 126.037L186.725 125.964C186.949 125.887 187.161 125.778 187.355 125.642L187.531 125.51C187.531 125.51 187.531 125.51 187.619 125.422C187.803 125.261 187.922 125.038 187.954 124.796C187.987 124.553 187.93 124.307 187.795 124.104L186.051 121.715C186.011 121.692 185.966 121.68 185.92 121.68C185.873 121.68 185.828 121.692 185.788 121.715L184.982 121.906C184.879 121.906 184.821 122.009 184.879 122.067L185.876 123.239C185.292 123.167 184.701 123.207 184.132 123.356C183.282 123.605 182.74 124.089 182.667 124.646C182.594 125.202 183.429 125.92 184.498 126.125ZM187.341 124.734C187.341 125.158 186.886 125.525 186.227 125.715C185.893 125.806 185.547 125.846 185.202 125.832C184.994 125.831 184.788 125.806 184.586 125.759L184.205 125.642C183.605 125.422 183.253 125.012 183.297 124.602C183.341 124.191 183.766 123.811 184.411 123.62C185.068 123.407 185.775 123.407 186.432 123.62C187.048 123.928 187.385 124.323 187.341 124.734Z" fill="#C1272D"/>
<path d="M175.503 112.208L175.694 112.295L184.938 120.851L184.645 121.218L175.503 112.208Z" fill="#CCCCCC"/>
<defs>
<linearGradient id="paint0_linear_3982_18118" x1="144" y1="0" x2="144" y2="288" gradientUnits="userSpaceOnUse">
<stop stop-color="#E3ECFA" stop-opacity="0.27"/>
<stop offset="1" stop-color="#DAE7FF" stop-opacity="0.22"/>
</linearGradient>
</defs>
</svg>
