<svg width="18" height="18" viewBox="0 0 18 18" fill="none" xmlns="http://www.w3.org/2000/svg">
<path d="M15.0698 5.51013L6.50978 1.23013C0.759776 -1.64987 -1.60022 0.710135 1.27978 6.46013L2.14978 8.20013C2.39978 8.71013 2.39978 9.30013 2.14978 9.81013L1.27978 11.5401C-1.60022 17.2901 0.749775 19.6501 6.50978 16.7701L15.0698 12.4901C18.9098 10.5701 18.9098 7.43013 15.0698 5.51013ZM11.8398 9.75013H6.43977C6.02978 9.75013 5.68977 9.41013 5.68977 9.00013C5.68977 8.59013 6.02978 8.25013 6.43977 8.25013H11.8398C12.2498 8.25013 12.5898 8.59013 12.5898 9.00013C12.5898 9.41013 12.2498 9.75013 11.8398 9.75013Z" fill="#0099A8"/>
</svg>
