<svg width="70" height="70" viewBox="0 0 70 70" fill="none" xmlns="http://www.w3.org/2000/svg">
<g clip-path="url(#clip0_4164_18158)">
<path d="M35 70C54.33 70 70 54.33 70 35C70 15.67 54.33 0 35 0C15.67 0 0 15.67 0 35C0 54.33 15.67 70 35 70Z" fill="#00AB6F"/>
<path d="M39.9002 21.9334L24.8502 26.9334C14.7335 30.3167 14.7335 35.8334 24.8502 39.2001L29.3169 40.6834L30.8002 45.1501C34.1669 55.2667 39.7002 55.2667 43.0669 45.1501L48.0835 30.1167C50.3169 23.3667 46.6502 19.6834 39.9002 21.9334ZM40.4335 30.9001L34.1002 37.2667C33.8502 37.5167 33.5335 37.6334 33.2169 37.6334C32.9002 37.6334 32.5835 37.5167 32.3335 37.2667C31.8502 36.7834 31.8502 35.9834 32.3335 35.5001L38.6669 29.1334C39.1502 28.6501 39.9502 28.6501 40.4335 29.1334C40.9169 29.6167 40.9169 30.4167 40.4335 30.9001Z" fill="white"/>
</g>
<defs>
<clipPath id="clip0_4164_18158">
<rect width="70" height="70" fill="white"/>
</clipPath>
</defs>
</svg>
