<svg width="26" height="26" viewBox="0 0 26 26" fill="none" xmlns="http://www.w3.org/2000/svg">
<circle cx="13" cy="13" r="13" fill="#F4FDFE"/>
<g clip-path="url(#clip0_4171_31832)">
<path d="M4.11644 14.0105C4.17568 14.1017 4.27524 14.151 4.37634 14.151C4.43465 14.151 4.49327 14.1345 4.54568 14.1004C4.68928 14.0068 4.7296 13.8145 4.63563 13.6712C4.58848 13.5989 4.54475 13.5205 4.50567 13.4376C4.43217 13.2829 4.2467 13.2165 4.09256 13.2897C4.06775 13.3015 4.04945 13.3198 4.0296 13.3368C4.05658 13.1142 4.10341 12.8757 4.17599 12.6195C4.20018 12.5336 4.2343 12.4514 4.26438 12.3828L5.01246 10.3923C5.12938 10.0809 5.4203 9.88026 5.75371 9.88026C6.00772 9.88026 6.23971 9.99812 6.39013 10.2037C6.75951 10.7087 7.31809 11.0222 7.84782 11.0222L9.1402 11.021L10.2884 9.73853L10.3392 9.69324C10.6767 9.45257 11.1248 9.4045 11.5051 9.56825C11.9452 9.75899 12.4163 10.0614 12.9618 10.4112C13.1079 10.5049 13.2599 10.602 13.4162 10.7006L11.5358 12.6679C11.4173 12.7916 11.422 12.9879 11.5454 13.1064C11.6056 13.1641 11.6828 13.1923 11.7597 13.1923C11.8416 13.1923 11.9228 13.1601 11.9839 13.0965L13.9577 11.0315C14.1767 11.1618 14.4059 11.2911 14.6459 11.4183L13.0912 12.973C12.9699 13.0943 12.9699 13.2903 13.0912 13.4116C13.1516 13.4721 13.231 13.5025 13.3104 13.5025C13.3898 13.5025 13.4692 13.4721 13.5297 13.4116L15.2312 11.7101C15.4523 11.8131 15.679 11.9136 15.9185 12.0063L14.6416 13.2832C14.5203 13.4045 14.5203 13.6005 14.6416 13.7217C14.7021 13.7822 14.7815 13.8126 14.8609 13.8126C14.9403 13.8126 15.0197 13.7822 15.0801 13.7217L16.5679 12.234C16.7698 12.2979 16.977 12.3577 17.1922 12.4108C17.481 12.4824 17.7787 12.5209 18.0938 12.5615L20.5055 12.5733C20.9124 12.5317 21.2936 12.684 21.5715 12.961C21.4766 13.0949 21.5002 13.2804 21.6307 13.3834C21.6875 13.428 21.7548 13.4494 21.8218 13.4494C21.8451 13.4494 21.8665 13.4395 21.8891 13.4342C21.891 13.4389 21.8938 13.4429 21.8959 13.4479C22.1515 14.0877 21.9235 14.8277 21.3532 15.208L21.3153 15.2328C19.871 16.1868 18.1556 16.6145 16.4203 16.4529C15.1602 16.3347 13.3737 16.1434 12.0174 15.9021C11.2337 15.7631 10.4304 15.7827 9.67458 15.9607L8.06647 16.34L7.99514 16.3639C7.65274 16.4724 7.29173 16.5273 6.92172 16.5273C5.91622 16.5273 5.03944 16.131 4.51622 15.4396C4.25632 15.096 4.002 14.565 4.00014 13.8027C4.03766 13.8734 4.07426 13.9457 4.11644 14.0105ZM20.6032 14.0793C20.6609 14.1783 20.7648 14.2338 20.8718 14.2338C20.9245 14.2338 20.9782 14.2205 21.0272 14.1919C21.1243 14.1355 21.2179 14.0769 21.3082 14.0161C21.4499 13.9199 21.4872 13.7273 21.3913 13.5853C21.2955 13.4439 21.1029 13.406 20.9605 13.5022C20.8824 13.5552 20.8005 13.6061 20.7158 13.6551C20.5679 13.7416 20.5173 13.9314 20.6032 14.0793ZM19.4498 14.5387C19.4948 14.6658 19.6142 14.7452 19.742 14.7452C19.7761 14.7452 19.8114 14.7393 19.8455 14.7272C19.9476 14.6913 20.0481 14.6537 20.1473 14.6143C20.3064 14.5511 20.3843 14.3709 20.3213 14.2115C20.2577 14.0524 20.0775 13.9745 19.9184 14.0375C19.8266 14.0738 19.7333 14.1088 19.6387 14.1426C19.4771 14.1997 19.3924 14.3768 19.4498 14.5387ZM18.2443 14.8377C18.2759 14.9831 18.4043 15.0824 18.5473 15.0824C18.569 15.0824 18.591 15.0802 18.613 15.0755C18.7172 15.0532 18.8211 15.0287 18.9253 15.003C19.0913 14.9614 19.1924 14.793 19.1514 14.6268C19.1105 14.4605 18.9433 14.3603 18.7752 14.4007C18.6778 14.4252 18.5798 14.4478 18.4824 14.4692C18.3147 14.5055 18.2083 14.6705 18.2443 14.8377ZM17.3222 15.2774C17.3324 15.2774 17.3427 15.2768 17.3532 15.2759C17.4568 15.2657 17.5632 15.2536 17.6708 15.2393C17.8408 15.2176 17.9605 15.0619 17.9381 14.8919C17.9164 14.722 17.7632 14.601 17.5908 14.6246C17.489 14.6376 17.3895 14.6491 17.2918 14.6587C17.1212 14.6758 16.9968 14.8277 17.0139 14.998C17.03 15.158 17.1649 15.2774 17.3222 15.2774ZM16.0431 15.2939C16.0478 15.2945 16.0742 15.2973 16.0788 15.2976C16.1709 15.3063 16.2739 15.3128 16.3831 15.3162C16.3862 15.3162 16.3893 15.3162 16.3924 15.3162C16.5592 15.3162 16.6969 15.1832 16.7022 15.0151C16.7072 14.8439 16.5726 14.7009 16.4011 14.6959C16.3061 14.6931 16.2165 14.6882 16.1337 14.6801C15.9656 14.6615 15.8043 14.7852 15.7854 14.953C15.7668 15.1208 15.8754 15.2719 16.0431 15.2939ZM14.8084 15.141L15.1177 15.1841C15.1319 15.1859 15.1459 15.1869 15.1598 15.1869C15.3127 15.1869 15.4458 15.0743 15.4669 14.9186C15.4898 14.749 15.3707 14.5926 15.2014 14.5694L14.8959 14.5269C14.7259 14.5027 14.5693 14.6209 14.5451 14.7905C14.5209 14.9598 14.6388 15.1171 14.8084 15.141ZM13.5806 14.9633L13.8864 15.0073C13.9016 15.0098 13.9165 15.0107 13.9314 15.0107C14.083 15.0107 14.2154 14.8997 14.2378 14.7452C14.2626 14.5756 14.145 14.4183 13.9754 14.3938L13.6677 14.3492C13.4987 14.324 13.3411 14.4431 13.317 14.6128C13.2928 14.7818 13.4109 14.9391 13.5806 14.9633ZM12.362 14.8132C12.4637 14.8234 12.5652 14.8339 12.6666 14.8454C12.6784 14.8466 12.6898 14.8473 12.7013 14.8473C12.8573 14.8473 12.9916 14.73 13.0093 14.5715C13.0285 14.4013 12.9057 14.2478 12.7354 14.2288C12.6315 14.2174 12.5276 14.2062 12.4234 14.196C12.2507 14.1808 12.1009 14.3036 12.0838 14.4738C12.0674 14.6441 12.1914 14.7961 12.362 14.8132ZM11.1521 14.7424C11.2526 14.7434 11.3528 14.7462 11.4533 14.7496C11.4573 14.7499 11.4613 14.7499 11.4654 14.7499C11.631 14.7499 11.7687 14.6187 11.7749 14.4515C11.7814 14.2803 11.648 14.1361 11.4768 14.1299C11.3705 14.1256 11.2641 14.1231 11.1577 14.1221C10.9912 14.11 10.8463 14.2583 10.8448 14.4295C10.8432 14.601 10.9809 14.7409 11.1521 14.7424ZM9.91774 14.8181C9.93108 14.8181 9.94503 14.8172 9.95868 14.8153C10.0613 14.8017 10.1615 14.7893 10.2586 14.779C10.4292 14.7607 10.5523 14.6081 10.5343 14.4379C10.5163 14.2676 10.3662 14.1429 10.1932 14.1622C10.0908 14.173 9.98566 14.186 9.87742 14.2003C9.70746 14.2226 9.58805 14.3786 9.61069 14.5483C9.63116 14.7046 9.76453 14.8181 9.91774 14.8181ZM8.69049 15.0045C8.70569 15.0045 8.72119 15.0033 8.7367 15.0011L9.04499 14.9536C9.21402 14.9273 9.33001 14.7685 9.30365 14.5991C9.27729 14.4301 9.12159 14.3147 8.94915 14.3405L8.64459 14.3873C8.47525 14.4128 8.35832 14.5709 8.38375 14.7403C8.40701 14.8941 8.53945 15.0045 8.69049 15.0045ZM7.45858 15.1537C7.46665 15.1537 7.47533 15.1534 7.48371 15.1528C7.58823 15.1444 7.69399 15.1345 7.79975 15.1239C7.97002 15.1062 8.09377 14.954 8.07671 14.7834C8.05903 14.6131 7.90892 14.4952 7.73617 14.5064C7.63537 14.517 7.53457 14.526 7.43408 14.534C7.2635 14.5477 7.13603 14.6972 7.14968 14.868C7.1627 15.0309 7.29824 15.1537 7.45858 15.1537ZM6.18481 15.1453C6.29274 15.1577 6.40253 15.1664 6.51388 15.172C6.51915 15.1723 6.52411 15.1723 6.52938 15.1723C6.69345 15.1723 6.83085 15.0433 6.83891 14.8773C6.84729 14.7065 6.71547 14.5607 6.54427 14.5523C6.44658 14.5474 6.34981 14.5399 6.25459 14.5294C6.08432 14.508 5.93111 14.6323 5.91188 14.8026C5.89265 14.9729 6.01454 15.1261 6.18481 15.1453ZM4.88467 14.7431C4.98237 14.8014 5.08813 14.8541 5.19885 14.9009C5.23824 14.9177 5.27949 14.9254 5.31981 14.9254C5.44077 14.9254 5.55552 14.8544 5.60546 14.7362C5.67214 14.5784 5.59863 14.3963 5.44077 14.3296C5.35579 14.2937 5.27515 14.2533 5.20133 14.2093C5.05339 14.1221 4.86358 14.1708 4.77643 14.3182C4.68866 14.4658 4.73704 14.6559 4.88467 14.7431Z" fill="#0099A8"/>
</g>
<defs>
<clipPath id="clip0_4171_31832">
<rect width="18" height="18" fill="white" transform="matrix(-1 0 0 1 22 4)"/>
</clipPath>
</defs>
</svg>
