<svg width="46" height="33" viewBox="0 0 46 33" fill="none" xmlns="http://www.w3.org/2000/svg">
<path d="M2.25112 26.9909H11.3767C11.3189 27.3518 11.29 27.7128 11.29 28.0594C11.29 30.6151 12.734 32.3622 15.5929 32.3622C18.8128 32.3622 21.4263 30.3263 23.1735 26.9909H43.7637C44.4568 26.9909 45.02 26.3989 45.02 25.7058C45.02 25.0127 44.4568 24.4351 43.7637 24.4351H24.2709C25.065 22.0815 25.5415 19.3237 25.6426 16.3059C26.5667 16.1182 27.5052 16.0027 28.4871 16.0027C28.9203 16.0027 29.1802 16.2048 29.1802 16.5225C29.1802 17.7209 28.4727 18.6883 28.4727 19.9879C28.4727 21.1574 29.339 21.8794 30.4941 21.8794C33.4975 21.8794 37.1073 16.9412 38.1902 16.9412C39.1721 16.9412 38.0458 21.3451 41.6989 21.3451C42.3343 21.3451 43.1429 21.1863 43.7493 20.7676C44.1536 20.5077 44.4279 20.1034 44.4279 19.598C44.4279 18.9627 43.9948 18.414 43.3306 18.414C42.8396 18.414 42.4209 18.7894 41.9733 18.7894C40.5727 18.7894 41.93 14.0534 38.9122 14.0534C36.342 14.0534 32.5734 18.7172 31.6348 18.7172C31.5193 18.7172 31.4327 18.645 31.4327 18.4862C31.4327 18.0097 31.9525 17.0278 31.9525 16.0315C31.9525 14.4432 30.7107 13.4614 28.7326 13.4614C27.6641 13.4614 26.6389 13.5624 25.6281 13.7501C25.2383 6.05406 21.513 0.148438 15.9972 0.148438C12.0986 0.148438 9.2108 3.32506 9.2108 7.51242C9.2108 12.2918 12.3008 16.3348 15.9395 19.006C14.2212 20.6954 12.9217 22.6014 12.1275 24.4351H2.25112C1.5436 24.4351 0.980469 25.0127 0.980469 25.7058C0.980469 26.3989 1.55804 26.9909 2.25112 26.9909ZM11.7521 7.49798C11.7521 4.76897 13.5714 2.70417 15.9972 2.70417C20.1413 2.70417 22.928 7.88784 23.1013 14.4432C21.152 15.1363 19.3615 16.1615 17.8021 17.3599C14.8998 15.2807 11.7521 11.9019 11.7521 7.49798ZM1.70243 21.4029C2.12116 21.8216 2.75649 21.8072 3.16078 21.4029L4.90792 19.6702L6.64062 21.4029C7.05936 21.8216 7.68025 21.8216 8.09898 21.4029C8.51772 20.9986 8.51772 20.3488 8.09898 19.9445L6.36628 18.2118L8.09898 16.4791C8.51772 16.0748 8.51772 15.4395 8.09898 15.0208C7.69468 14.6021 7.05936 14.6165 6.64062 15.0208L4.90792 16.7535L3.16078 15.0208C2.74205 14.6165 2.12116 14.6165 1.70243 15.0208C1.28369 15.4395 1.28369 16.0893 1.70243 16.4936L3.43513 18.2118L1.70243 19.9445C1.28369 20.3633 1.28369 20.9842 1.70243 21.4029ZM19.1883 20.9553C19.4049 21.0708 19.6214 21.1141 19.838 21.1141C20.5022 21.1141 21.0076 20.6087 21.0076 20.0023C21.0076 19.598 20.8199 19.2081 20.3434 18.9338C20.2423 18.8905 20.1557 18.8327 20.0546 18.7894C20.9787 18.1396 21.975 17.5765 23.058 17.1289C22.8703 19.8868 22.336 22.3848 21.5274 24.4351H14.9143C15.6218 23.0923 16.7047 21.6628 18.0765 20.3777C18.4519 20.5799 18.8128 20.782 19.1883 20.9553ZM13.9324 27.6839C13.9324 27.4674 13.9613 27.2363 13.9902 26.9909H20.2134C19.015 28.7669 17.5422 29.8209 15.8817 29.8209C14.5677 29.8209 13.9324 28.9546 13.9324 27.6839Z" fill="#212529"/>
</svg>
