<svg width="67" height="81" viewBox="0 0 67 81" fill="none" xmlns="http://www.w3.org/2000/svg">
<path d="M3.79865 52.8652L10.5641 75.7133C10.5641 75.7133 1.72155 74.4077 1.06875 74.289C0.415941 74.2297 0.653324 54.8829 3.79865 52.8652Z" fill="#04808C"/>
<path d="M37.3882 43.4312C28.9017 42.185 25.9344 37.8527 25.9344 37.8527L37.6849 33.2238H28.3676C26.4685 33.2238 24.8662 34.4107 24.8662 35.9537V42.9565C24.8662 44.4401 27.8335 47.7635 29.7326 47.7635L39.3466 47.5261C41.2457 47.5261 42.9073 44.4401 42.9073 42.8971V42.7191C41.6611 43.4312 39.8807 43.7873 37.3882 43.4312Z" fill="#EDC89F"/>
<path d="M39.4654 33.2238H37.6851L25.1038 36.4284C25.1038 36.4284 27.0028 42.2443 37.329 43.3719C39.8215 43.6686 41.6019 43.5499 42.9075 42.8971V35.9537C42.9669 34.47 41.4239 33.2238 39.4654 33.2238Z" fill="#C9AA85"/>
<path d="M18.991 20.2257C18.991 20.4631 18.991 20.7598 18.991 21.0565C18.5163 20.5224 18.0415 20.2257 17.5667 20.3444C16.4985 20.6411 16.2018 23.0743 16.8546 25.8042C17.5074 28.5341 18.9317 30.4925 19.9406 30.1958C20.2966 30.0771 20.5934 29.721 20.7714 29.1276C23.3233 35.6556 28.1896 41.5902 33.8868 41.5902V4.38037C25.6971 4.38037 18.991 11.5019 18.991 20.2257Z" fill="#FFE2C2"/>
<path d="M50.2663 20.3445C49.8509 20.2258 49.3168 20.5225 48.842 21.0566C48.842 20.7599 48.842 20.5225 48.842 20.2258C48.842 11.4426 42.1359 4.38043 33.8868 4.38043V41.6496C39.5247 41.6496 44.4504 35.715 47.0023 29.187C47.1803 29.7211 47.477 30.1365 47.8331 30.2552C48.9013 30.5519 50.2663 28.5935 50.9191 25.8636C51.6312 23.0744 51.2752 20.6412 50.2663 20.3445Z" fill="#FFE2C2"/>
<path d="M18.9911 20.642C18.5757 17.4966 18.7537 14.292 19.2878 11.1466C20.3561 7.82327 22.6706 5.15271 26.4093 3.25364C29.614 0.701768 33.1154 0.10831 36.9136 1.47326C39.8215 1.71065 42.4327 3.01626 44.6285 5.50878C46.5276 7.76392 47.7738 10.4345 48.6047 13.4018C49.0795 15.7756 49.1388 18.1494 48.7827 20.642L46.4682 26.3392C46.4089 23.1345 46.1122 19.7518 44.8066 15.6569C44.1537 13.8172 43.0262 12.5116 41.3052 11.8588C38.7533 14.47 37.2103 16.3691 31.9879 17.4966C28.9019 17.734 26.1126 17.2593 23.5607 15.7163C24.2136 14.648 24.7477 13.4611 24.8664 12.2149C23.7388 12.927 22.9079 14.0546 22.3145 15.3602C21.365 18.8616 21.2463 22.363 21.1276 25.9237L18.9911 20.642Z" fill="#0F303F"/>
<path d="M22.9079 45.6844L14.8962 53.2213L33.4121 78.9181H34.6584L46.1121 46.5746L32.8187 48.4736L22.9079 45.6844Z" fill="#AEB9BF"/>
<path d="M38.6346 51.2039L33.8869 55.1801L29.1393 51.2039L33.8869 47.2277L38.6346 51.2039Z" fill="#0099A8"/>
<path d="M35.5486 54.0524H32.0472V56.0108H35.5486V54.0524Z" fill="#0099A8"/>
<path d="M29.5548 71.1441L37.5072 67.9987L37.2698 66.9899L29.8515 69.8978L29.5548 71.1441Z" fill="#0099A8"/>
<path d="M31.2759 63.4893L36.0829 61.5309L35.8455 60.522L31.5726 62.243L31.2759 63.4893Z" fill="#0099A8"/>
<path d="M30.4449 67.2868L36.7949 64.7943L36.5576 63.7261L30.6823 66.0999L30.4449 67.2868Z" fill="#0099A8"/>
<path d="M29.9702 69.2457L37.1511 66.3971L36.9137 65.3289L30.2669 67.9995L29.9702 69.2457Z" fill="#0099A8"/>
<path d="M30.8604 65.3872L36.4389 63.1914L36.2015 62.1232L31.0977 64.1409L30.8604 65.3872Z" fill="#0099A8"/>
<path d="M29.1393 73.1031L37.8631 69.6017L37.6851 68.5928L29.3767 71.8568L29.1393 73.1031Z" fill="#0099A8"/>
<path d="M33.8871 79.9861L35.1927 78.3245L33.2343 79.096L33.8871 79.9861Z" fill="#0099A8"/>
<path d="M32.8188 78.6211L35.8455 77.3748L37.0917 75.7725L32.166 77.7309L32.8188 78.6211Z" fill="#0099A8"/>
<path d="M29.7921 74.5855L38.2785 71.2028L38.0412 70.1939L29.1393 73.6953L29.7921 74.5855Z" fill="#0099A8"/>
<path d="M31.8099 77.2572L37.7445 74.8834L38.8127 73.5778L38.7534 73.3997L31.1571 76.4264L31.8099 77.2572Z" fill="#0099A8"/>
<path d="M30.8011 75.8917L38.6348 72.8057L38.3974 71.7968L30.1483 75.0608L30.8011 75.8917Z" fill="#0099A8"/>
<path d="M34.8366 56.012H33.887H32.9375L32.5814 57.6737L35.0146 56.7242L34.8366 56.012Z" fill="#0099A8"/>
<path d="M31.9879 60.284L31.6912 61.5303L35.7267 59.9279L35.4893 58.9191L31.9879 60.284Z" fill="#0099A8"/>
<path d="M35.1333 57.3162L32.4034 58.3844L32.166 59.6307L35.3707 58.3251L35.1333 57.3162Z" fill="#0099A8"/>
<path d="M35.0145 56.7239L32.5814 57.6734L32.4033 58.3856L35.1332 57.3173L35.0145 56.7239Z" fill="#BB6125"/>
<path d="M35.3706 58.3251L32.166 59.6307L31.9879 60.2835L35.4893 58.9185L35.3706 58.3251Z" fill="#BB6125"/>
<path d="M31.5726 62.2424L35.8455 60.5214L35.7268 59.9279L31.6913 61.5303L31.5726 62.2424Z" fill="#BB6125"/>
<path d="M31.0978 64.1403L36.2015 62.1226L36.0828 61.5291L31.2758 63.4875L31.0978 64.1403Z" fill="#BB6125"/>
<path d="M30.6824 66.0997L36.5576 63.7259L36.4389 63.1918L30.8604 65.3876L30.6824 66.0997Z" fill="#BB6125"/>
<path d="M30.267 67.9993L36.9137 65.3287L36.795 64.7946L30.445 67.2871L30.267 67.9993Z" fill="#BB6125"/>
<path d="M29.8516 69.8989L37.2698 66.991L37.1511 66.3975L29.9703 69.2461L29.8516 69.8989Z" fill="#BB6125"/>
<path d="M29.3767 71.8562L37.6851 68.5922L37.5071 67.9987L29.5547 71.144L29.3767 71.8562Z" fill="#BB6125"/>
<path d="M29.0208 73.5761L29.1394 73.6948L38.0413 70.1934L37.8633 69.5999L29.1394 73.1013L29.0208 73.5761Z" fill="#BB6125"/>
<path d="M30.1483 75.0619L38.3974 71.7979L38.2787 71.2045L29.7922 74.5872L30.1483 75.0619Z" fill="#BB6125"/>
<path d="M31.1571 76.4258L38.7534 73.3991L38.6347 72.8057L30.801 75.8916L31.1571 76.4258Z" fill="#BB6125"/>
<path d="M32.166 77.7317L37.0917 75.7733L37.7445 74.8831L31.8099 77.2569L32.166 77.7317Z" fill="#BB6125"/>
<path d="M33.2343 79.0964L35.1927 78.3249L35.8455 77.3754L32.8188 78.6216L33.2343 79.0964Z" fill="#4C3020"/>
<path d="M23.7387 41.3516L33.8275 47.2269L30.5042 54.289L22.6705 46.9895C22.6705 46.9895 20.5934 46.4554 21.3056 45.5058C21.9584 44.6156 23.62 43.7255 23.7387 41.3516Z" fill="#D4DCDD"/>
<path d="M43.9758 41.3516L33.887 47.2269L37.2103 54.289L45.1033 46.9895C45.1033 46.9895 47.1804 46.4554 46.4683 45.5058C45.8155 44.6156 44.0944 43.7848 43.9758 41.3516Z" fill="#D4DCDD"/>
<path d="M15.015 48.7705C15.015 48.7705 5.51962 50.2542 3.79859 52.8654C2.07756 55.4766 3.79859 74.3486 3.79859 74.3486L33.8869 80.6392V77.7906L21.1276 47.2275L15.015 48.7705Z" fill="#0099A8"/>
<path d="M33.887 77.7312L22.3145 44.4382L18.457 47.7023L14.3622 49.8981L19.3472 58.1471L21.6024 58.0878L20.1781 62.8948L33.887 77.7312Z" fill="#04808C"/>
<path d="M52.6996 48.7705C52.6996 48.7705 62.1949 50.2542 63.9753 52.8654C65.6963 55.4766 63.9753 74.3486 63.9753 74.3486L33.887 80.6392V77.7906L46.6463 47.2275L52.6996 48.7705Z" fill="#0099A8"/>
<path d="M33.887 77.7312L45.4594 44.4382L49.3169 47.4649L53.7085 49.8981L48.3673 58.1471L46.1122 58.0878L47.5365 62.8948L33.887 77.7312Z" fill="#04808C"/>
<path d="M63.9753 52.8658L57.2098 75.7139C57.2098 75.7139 66.0524 74.4083 66.7052 74.2896C67.358 74.2303 67.1206 54.8835 63.9753 52.8658Z" fill="#04808C"/>
<path d="M34.3023 53.755H32.7593L31.4537 52.5087L33.7682 47.6423C33.6495 47.6423 31.0977 53.3989 34.3023 53.755Z" fill="#04808C"/>
</svg>
