<svg width="14" height="14" viewBox="0 0 14 14" fill="none" xmlns="http://www.w3.org/2000/svg">
<path d="M9.33333 1.1665H4.66667C2.625 1.1665 1.75 2.33317 1.75 4.08317V9.9165C1.75 11.6665 2.625 12.8332 4.66667 12.8332H9.33333C11.375 12.8332 12.25 11.6665 12.25 9.9165V4.08317C12.25 2.33317 11.375 1.1665 9.33333 1.1665ZM4.66667 7.14567H7C7.23917 7.14567 7.4375 7.344 7.4375 7.58317C7.4375 7.82234 7.23917 8.02067 7 8.02067H4.66667C4.4275 8.02067 4.22917 7.82234 4.22917 7.58317C4.22917 7.344 4.4275 7.14567 4.66667 7.14567ZM9.33333 10.354H4.66667C4.4275 10.354 4.22917 10.1557 4.22917 9.9165C4.22917 9.67734 4.4275 9.479 4.66667 9.479H9.33333C9.5725 9.479 9.77083 9.67734 9.77083 9.9165C9.77083 10.1557 9.5725 10.354 9.33333 10.354ZM10.7917 5.39567H9.625C8.73833 5.39567 8.02083 4.67817 8.02083 3.7915V2.62484C8.02083 2.38567 8.21917 2.18734 8.45833 2.18734C8.6975 2.18734 8.89583 2.38567 8.89583 2.62484V3.7915C8.89583 4.194 9.2225 4.52067 9.625 4.52067H10.7917C11.0308 4.52067 11.2292 4.719 11.2292 4.95817C11.2292 5.19734 11.0308 5.39567 10.7917 5.39567Z" fill="white"/>
</svg>
