<svg width="16" height="16" viewBox="0 0 16 16" fill="none" xmlns="http://www.w3.org/2000/svg">
<g clip-path="url(#clip0_2012_11431)">
<path d="M12.9413 4.94016L9.7213 1.72016C9.47464 1.4735 9.13464 1.3335 8.7813 1.3335H4.0013C3.26797 1.3335 2.67464 1.9335 2.67464 2.66683L2.66797 13.3335C2.66797 14.0668 3.2613 14.6668 3.99464 14.6668H12.0013C12.7346 14.6668 13.3346 14.0668 13.3346 13.3335V5.88683C13.3346 5.5335 13.1946 5.1935 12.9413 4.94016ZM6.8213 11.5268L5.40797 10.1135C5.14797 9.8535 5.14797 9.4335 5.40797 9.1735C5.66797 8.9135 6.08797 8.9135 6.34797 9.1735L7.28797 10.1135L9.64797 7.7535C9.90797 7.4935 10.328 7.4935 10.588 7.7535C10.848 8.0135 10.848 8.4335 10.588 8.6935L7.7613 11.5202C7.50797 11.7868 7.0813 11.7868 6.8213 11.5268ZM9.33464 6.00016C8.96797 6.00016 8.66797 5.70016 8.66797 5.3335V2.3335L12.3346 6.00016H9.33464Z" fill="white"/>
</g>
<defs>
<clipPath id="clip0_2012_11431">
<rect width="16" height="16" fill="white"/>
</clipPath>
</defs>
</svg>
