<svg width="16" height="16" viewBox="0 0 16 16" fill="none" xmlns="http://www.w3.org/2000/svg">
<path d="M1.72052 12.6735L1.70719 12.6868C1.52719 12.2935 1.41385 11.8468 1.36719 11.3535C1.41385 11.8402 1.54052 12.2802 1.72052 12.6735Z" fill="white"/>
<path d="M6.00073 6.91992C6.87702 6.91992 7.5874 6.20954 7.5874 5.33325C7.5874 4.45696 6.87702 3.74658 6.00073 3.74658C5.12444 3.74658 4.41406 4.45696 4.41406 5.33325C4.41406 6.20954 5.12444 6.91992 6.00073 6.91992Z" fill="white"/>
<path d="M10.794 1.3335H5.20732C2.78065 1.3335 1.33398 2.78016 1.33398 5.20683V10.7935C1.33398 11.5202 1.46065 12.1535 1.70732 12.6868C2.28065 13.9535 3.50732 14.6668 5.20732 14.6668H10.794C13.2207 14.6668 14.6673 13.2202 14.6673 10.7935V9.26683V5.20683C14.6673 2.78016 13.2207 1.3335 10.794 1.3335ZM13.5807 8.3335C13.0607 7.88683 12.2207 7.88683 11.7007 8.3335L8.92732 10.7135C8.40732 11.1602 7.56732 11.1602 7.04732 10.7135L6.82065 10.5268C6.34732 10.1135 5.59398 10.0735 5.06065 10.4335L2.56732 12.1068C2.42065 11.7335 2.33398 11.3002 2.33398 10.7935V5.20683C2.33398 3.32683 3.32732 2.3335 5.20732 2.3335H10.794C12.674 2.3335 13.6673 3.32683 13.6673 5.20683V8.40683L13.5807 8.3335Z" fill="white"/>
</svg>
