<svg width="16" height="16" viewBox="0 0 16 16" fill="none" xmlns="http://www.w3.org/2000/svg">
<path d="M13.4735 5.21329L8.34014 8.18663C8.13348 8.30663 7.87348 8.30663 7.66014 8.18663L2.52681 5.21329C2.16014 4.99996 2.06681 4.49996 2.34681 4.18663C2.54014 3.96663 2.76014 3.78663 2.99348 3.65996L6.60681 1.65996C7.38014 1.22663 8.63348 1.22663 9.40681 1.65996L13.0201 3.65996C13.2535 3.78663 13.4735 3.97329 13.6668 4.18663C13.9335 4.49996 13.8401 4.99996 13.4735 5.21329Z" fill="white"/>
<path d="M7.61966 9.42675V13.9734C7.61966 14.4801 7.10633 14.8134 6.65299 14.5934C5.27966 13.9201 2.96633 12.6601 2.96633 12.6601C2.15299 12.2001 1.48633 11.0401 1.48633 10.0867V6.64675C1.48633 6.12008 2.03966 5.78675 2.49299 6.04675L7.28633 8.82675C7.48633 8.95342 7.61966 9.18008 7.61966 9.42675Z" fill="white"/>
<path d="M8.38086 9.42675V13.9734C8.38086 14.4801 8.89419 14.8134 9.34753 14.5934C10.7209 13.9201 13.0342 12.6601 13.0342 12.6601C13.8475 12.2001 14.5142 11.0401 14.5142 10.0867V6.64675C14.5142 6.12008 13.9609 5.78675 13.5075 6.04675L8.71419 8.82675C8.51419 8.95342 8.38086 9.18008 8.38086 9.42675Z" fill="white"/>
</svg>
