<svg width="88" height="74" viewBox="0 0 88 74" fill="none" xmlns="http://www.w3.org/2000/svg">
<path d="M51.9224 4.58447H9.26611V73.219H51.9224V4.58447Z" fill="#36D7B7"/>
<path d="M24.2978 4.58447H14.9541V73.219H24.2978V4.58447Z" fill="#58595B"/>
<path d="M36.2817 21.1304H31.6099V67.4995H36.2817V21.1304Z" fill="#29A189"/>
<path d="M45.2192 39.9229H40.5474V67.4992H45.2192V39.9229Z" fill="#29A189"/>
<path d="M54.7656 45.4385C64.0768 45.4385 71.625 37.8478 71.625 28.4841C71.625 19.1205 64.0768 11.5298 54.7656 11.5298C45.4544 11.5298 37.9062 19.1205 37.9062 28.4841C37.9062 37.8478 45.4544 45.4385 54.7656 45.4385Z" fill="#F5AB35"/>
<path d="M54.7656 45.4385C64.0768 45.4385 71.625 37.8478 71.625 28.4841C71.625 19.1205 64.0768 11.5298 54.7656 11.5298C45.4544 11.5298 37.9062 19.1205 37.9062 28.4841C37.9062 37.8478 45.4544 45.4385 54.7656 45.4385Z" stroke="#414042" stroke-miterlimit="10"/>
<path d="M53.9536 36.0421V34.8164C52.3286 34.6122 50.9067 33.7951 49.4849 32.5695L51.313 30.5268C52.3286 31.3439 53.1411 31.9567 53.9536 32.1609V29.3012C52.7349 28.8926 51.7192 28.4841 51.1099 27.8713C50.5005 27.2585 50.0942 26.4414 50.0942 25.42C50.0942 24.3987 50.5005 23.3774 51.1099 22.7645C51.7192 22.1517 52.7349 21.7432 53.9536 21.5389V20.5176H55.9849V21.5389C57.2036 21.7432 58.4224 22.1517 59.6411 23.1731L58.2192 25.42C57.4067 24.8072 56.7974 24.3987 55.9849 24.1944V26.8499C57.4067 27.2585 58.4224 27.667 59.0317 28.2798C59.6411 28.8926 60.0474 29.7097 60.0474 30.731C60.0474 31.7524 59.6411 32.7737 59.0317 33.3865C58.2192 33.9994 57.4067 34.4079 56.188 34.6122V35.8378H53.9536V36.0421ZM53.9536 24.1944C53.3442 24.3987 53.1411 24.8072 53.1411 25.2158C53.1411 25.6243 53.3442 26.0329 53.9536 26.4414V24.1944ZM57.0005 30.9353C57.0005 30.731 57.0005 30.5268 56.7974 30.3225C56.5942 30.1182 56.3911 29.914 55.9849 29.914V32.1609C56.5942 31.9567 57.0005 31.5481 57.0005 30.9353Z" fill="#414042"/>
<path d="M73.8594 45.4385H33.8438V52.3836H73.8594V45.4385Z" fill="#F7BC5D"/>
<path d="M76.0947 52.3838H36.0791V59.329H76.0947V52.3838Z" fill="#F5AB35"/>
<path d="M72.2349 59.1245H32.2192V66.0697H72.2349V59.1245Z" fill="#F7BC5D"/>
<path d="M74.875 66.0698H34.8594V73.015H74.875V66.0698Z" fill="#F5AB35"/>
<path d="M38.9219 45.4385V52.3836" stroke="#414042" stroke-miterlimit="10"/>
<path d="M42.3755 45.4385V52.3836" stroke="#414042" stroke-miterlimit="10"/>
<path d="M64.9224 52.3838V59.1247" stroke="#414042" stroke-miterlimit="10"/>
<path d="M68.375 52.3838V59.1247" stroke="#414042" stroke-miterlimit="10"/>
<path d="M66.5479 66.0698V73.015" stroke="#414042" stroke-miterlimit="10"/>
<path d="M70.2036 66.0698V73.015" stroke="#414042" stroke-miterlimit="10"/>
<path d="M0.937988 73.4233H87.063" stroke="#414042" stroke-miterlimit="10"/>
<path d="M36.0791 59.1245V66.0697" stroke="#414042" stroke-miterlimit="10"/>
<path d="M39.5317 59.1245V66.0697" stroke="#414042" stroke-miterlimit="10"/>
<path d="M54.3604 0.294922V7.44435" stroke="#414042" stroke-miterlimit="10"/>
<path d="M61.6724 1.11182L59.8442 8.05697" stroke="#414042" stroke-miterlimit="10"/>
<path d="M68.7817 3.76758L65.1255 10.0999" stroke="#414042" stroke-miterlimit="10"/>
<path d="M74.6729 8.26123L69.5947 13.368" stroke="#414042" stroke-miterlimit="10"/>
<path d="M79.3442 14.1851L73.0474 17.8619" stroke="#414042" stroke-miterlimit="10"/>
<path d="M82.3911 21.1304L75.2817 22.9688" stroke="#414042" stroke-miterlimit="10"/>
<path d="M83.4067 28.4839H76.2974" stroke="#414042" stroke-miterlimit="10"/>
<path d="M82.5947 36.042L75.6885 34.2036" stroke="#414042" stroke-miterlimit="10"/>
<path d="M79.9541 42.9874L73.6572 39.3105" stroke="#414042" stroke-miterlimit="10"/>
</svg>
