<svg width="32" height="32" viewBox="0 0 32 32" fill="none" xmlns="http://www.w3.org/2000/svg">
<circle cx="16" cy="16" r="16" fill="#F9FEFF"/>
<path d="M8.75643 9.90039H22.5822C23.0912 9.90039 23.5039 10.3135 23.5039 10.8231V20.0504C23.5039 20.56 23.0912 20.9732 22.5822 20.9732H10.5999L8.30676 23.2688C8.13256 23.4432 7.83472 23.3197 7.83472 23.0731V10.8231C7.83472 10.3135 8.24738 9.90039 8.75643 9.90039Z" fill="#068C84"/>
<path d="M22.5822 9.90039H8.75643C8.24738 9.90039 7.83472 10.3135 7.83472 10.8231V20.0504C7.83472 20.56 8.24738 20.9732 8.75643 20.9732H22.5822C23.0912 20.9732 23.5039 20.56 23.5039 20.0504V10.8231C23.5039 10.3135 23.0912 9.90039 22.5822 9.90039Z" fill="#05ADA3"/>
<path d="M15.0281 18.7893C15.0281 18.9469 15.0906 19.098 15.2019 19.2094C15.3131 19.3208 15.4641 19.3834 15.6214 19.3834C15.7788 19.3834 15.9297 19.3208 16.041 19.2094C16.1523 19.098 16.2148 18.9469 16.2148 18.7893C16.2148 18.7113 16.1994 18.6341 16.1696 18.562C16.1398 18.49 16.0961 18.4245 16.041 18.3693C15.9859 18.3142 15.9205 18.2704 15.8485 18.2406C15.7765 18.2107 15.6994 18.1953 15.6214 18.1953C15.5435 18.1953 15.4664 18.2107 15.3944 18.2406C15.3224 18.2704 15.257 18.3142 15.2019 18.3693C15.1468 18.4245 15.1031 18.49 15.0732 18.562C15.0434 18.6341 15.0281 18.7113 15.0281 18.7893V18.7893ZM16.667 16.5471C17.5017 16.0869 17.9257 15.4197 17.9257 14.5644C17.9257 13.0955 16.7684 12.4375 15.6214 12.4375C14.5044 12.4375 13.3171 13.2501 13.3171 14.7564C13.3171 14.9094 13.3778 15.0561 13.4859 15.1642C13.5939 15.2724 13.7404 15.3331 13.8932 15.3331C14.046 15.3331 14.1925 15.2724 14.3006 15.1642C14.4086 15.0561 14.4693 14.9094 14.4693 14.7564C14.4693 13.9554 15.0667 13.5909 15.6214 13.5909C16.0518 13.5909 16.7736 13.7172 16.7736 14.5644C16.7736 14.8649 16.6947 15.2155 16.1117 15.5373C15.7153 15.7547 15.0454 16.3193 15.0454 17.0512C15.0454 17.2041 15.1061 17.3508 15.2141 17.4589C15.3221 17.5671 15.4686 17.6279 15.6214 17.6279C15.7742 17.6279 15.9207 17.5671 16.0288 17.4589C16.1368 17.3508 16.1975 17.2041 16.1975 17.0512C16.1975 16.9439 16.4251 16.6803 16.667 16.5471V16.5471Z" fill="white"/>
</svg>
