<svg width="288" height="288" viewBox="0 0 288 288" fill="none" xmlns="http://www.w3.org/2000/svg">
<path d="M144 288C223.529 288 288 223.529 288 144C288 64.471 223.529 0 144 0C64.471 0 0 64.471 0 144C0 223.529 64.471 288 144 288Z" fill="url(#paint0_linear_3982_18281)"/>
<path d="M94.5262 150.998C94.5262 150.998 84.6565 144.873 86.3694 144.586C88.0823 144.299 114.567 145.304 116.857 145.585C119.147 145.866 126.733 146.727 127.731 147.152C128.728 147.576 138.893 151.141 145.337 151.709C151.781 152.277 158.513 151.853 159.649 152.421C160.784 152.989 165.089 157.415 164.085 158.969C163.081 160.524 160.364 160.967 160.364 160.967L139.181 163.246C139.181 163.246 135.749 159.257 133.026 158.114C130.303 156.972 111.988 151.566 106.837 151.566C101.685 151.566 94.5262 150.998 94.5262 150.998Z" fill="#263238" stroke="#263238" stroke-width="1.31594" stroke-miterlimit="10"/>
<path d="M92.0996 162.39C92.0996 162.39 82.7821 180.045 73.0629 186.593C73.0629 186.593 71.488 187.167 74.3492 187.167C77.2103 187.167 86.0887 177.622 88.9498 174.208C91.811 170.793 94.8164 168.652 98.5372 168.652H103.977L92.0996 162.39Z" fill="#263238" stroke="#263238" stroke-width="1.31594" stroke-miterlimit="10"/>
<path d="M101.26 177.486C97.3531 177.485 93.5334 178.636 90.2842 180.795C87.0351 182.954 84.5024 186.023 83.0067 189.615C81.5109 193.206 81.1193 197.158 81.8812 200.97C82.6431 204.783 84.5244 208.285 87.2872 211.034C90.0499 213.783 93.5699 215.655 97.402 216.413C101.234 217.171 105.206 216.781 108.816 215.293C112.425 213.805 115.51 211.285 117.68 208.052C119.85 204.819 121.007 201.019 121.006 197.132C121.006 191.921 118.926 186.924 115.222 183.24C111.519 179.556 106.497 177.486 101.26 177.486ZM101.26 208.387C99.0265 208.387 96.8429 207.728 94.9856 206.494C93.1283 205.259 91.6807 203.504 90.8259 201.451C89.9711 199.397 89.7474 197.138 90.1832 194.958C90.619 192.778 91.6946 190.776 93.2741 189.205C94.8536 187.633 96.866 186.563 99.0569 186.129C101.248 185.696 103.519 185.918 105.582 186.769C107.646 187.619 109.41 189.06 110.651 190.908C111.892 192.755 112.554 194.928 112.554 197.15C112.554 200.131 111.364 202.989 109.246 205.096C107.128 207.203 104.256 208.387 101.26 208.387Z" fill="#263238" stroke="#263238" stroke-width="1.31594" stroke-miterlimit="10"/>
<path d="M101.26 189.018C99.6464 189.018 98.0694 189.494 96.728 190.385C95.3867 191.277 94.3412 192.545 93.7238 194.027C93.1064 195.51 92.9449 197.142 93.2596 198.716C93.5744 200.291 94.3512 201.737 95.492 202.872C96.6327 204.007 98.0861 204.78 99.6684 205.093C101.251 205.406 102.891 205.245 104.381 204.631C105.872 204.017 107.146 202.976 108.042 201.642C108.938 200.307 109.416 198.738 109.416 197.133C109.416 194.981 108.557 192.917 107.027 191.395C105.498 189.873 103.423 189.018 101.26 189.018ZM101.26 201.784C100.335 201.785 99.4305 201.513 98.661 201.003C97.8915 200.493 97.2913 199.767 96.9366 198.917C96.5818 198.068 96.4883 197.132 96.668 196.23C96.8477 195.327 97.2924 194.498 97.9458 193.847C98.5993 193.196 99.4322 192.752 100.339 192.572C101.246 192.392 102.186 192.484 103.041 192.836C103.895 193.188 104.626 193.784 105.14 194.549C105.654 195.314 105.928 196.213 105.928 197.133C105.928 198.366 105.436 199.548 104.561 200.42C103.686 201.292 102.498 201.782 101.26 201.784Z" fill="#263238" stroke="#263238" stroke-width="1.31594" stroke-miterlimit="10"/>
<path d="M101.259 183.036C98.4563 183.032 95.7152 183.856 93.3829 185.403C91.0506 186.949 89.2317 189.149 88.1565 191.725C87.0813 194.3 86.798 197.135 87.3426 199.871C87.8871 202.606 89.235 205.12 91.2156 207.093C93.1963 209.066 95.7207 210.411 98.4694 210.956C101.218 211.501 104.068 211.223 106.658 210.157C109.248 209.091 111.461 207.284 113.019 204.965C114.577 202.647 115.408 199.921 115.408 197.132C115.41 193.396 113.92 189.813 111.267 187.17C108.614 184.526 105.014 183.039 101.259 183.036ZM101.259 208.388C99.0254 208.388 96.8419 207.729 94.9846 206.494C93.1273 205.259 91.6797 203.504 90.8249 201.451C89.9701 199.398 89.7464 197.138 90.1822 194.959C90.618 192.779 91.6936 190.777 93.2731 189.205C94.8526 187.634 96.865 186.564 99.0558 186.13C101.247 185.696 103.517 185.919 105.581 186.769C107.645 187.62 109.409 189.06 110.65 190.908C111.891 192.756 112.553 194.928 112.553 197.151C112.553 200.131 111.363 202.989 109.245 205.097C107.127 207.204 104.255 208.388 101.259 208.388Z" fill="white" stroke="#263238" stroke-width="1.31594" stroke-miterlimit="10"/>
<path d="M110.131 169.795L104.547 184.89L107.126 185.883L112.848 170.788L110.131 169.795Z" fill="#263238" stroke="#263238" stroke-width="1.31594" stroke-miterlimit="10"/>
<path d="M104.547 184.89C104.547 184.89 98.6808 182.324 93.9562 185.883C89.2315 189.441 88.6605 193.836 88.6605 193.836C88.6605 193.836 96.102 199.242 105.834 200.079C115.565 200.915 125.441 199.511 130.304 198.087C133.284 197.207 136.161 196.014 138.887 194.529L126.866 181.419C126.866 181.419 125.153 178.997 121.143 181.276C117.134 183.554 116.99 186.544 116.99 186.544L104.547 184.89Z" fill="#263238" stroke="#263238" stroke-width="1.31594" stroke-miterlimit="10"/>
<path d="M112.849 170.789L108.701 186.027L120.723 191.44C120.594 189.699 120.992 187.959 121.865 186.445C123.296 184.167 125.159 184.304 125.586 184.573C126.013 184.841 128.591 186.139 128.591 186.139L127.449 177.169L112.849 170.789Z" fill="#263238" stroke="#263238" stroke-width="1.31594" stroke-miterlimit="10"/>
<path d="M220.054 177.486C216.146 177.485 212.327 178.636 209.078 180.795C205.828 182.954 203.296 186.023 201.8 189.615C200.304 193.206 199.913 197.158 200.675 200.97C201.436 204.783 203.318 208.285 206.08 211.034C208.843 213.783 212.363 215.655 216.195 216.413C220.027 217.171 223.999 216.781 227.609 215.293C231.218 213.805 234.303 211.285 236.473 208.052C238.643 204.819 239.8 201.019 239.799 197.132C239.799 194.552 239.288 191.997 238.296 189.614C237.304 187.23 235.849 185.064 234.016 183.24C232.182 181.416 230.006 179.969 227.61 178.981C225.214 177.994 222.647 177.486 220.054 177.486ZM220.054 208.387C217.82 208.387 215.636 207.728 213.779 206.494C211.922 205.259 210.474 203.504 209.619 201.451C208.764 199.397 208.541 197.138 208.977 194.958C209.412 192.778 210.488 190.776 212.067 189.205C213.647 187.633 215.659 186.563 217.85 186.129C220.041 185.696 222.312 185.918 224.376 186.769C226.439 187.619 228.203 189.06 229.444 190.908C230.685 192.755 231.348 194.928 231.348 197.15C231.348 200.131 230.158 202.989 228.04 205.096C225.922 207.203 223.049 208.387 220.054 208.387Z" fill="#263238" stroke="#263238" stroke-width="1.31594" stroke-miterlimit="10"/>
<path d="M220.055 189.018C218.441 189.018 216.864 189.494 215.523 190.385C214.181 191.277 213.136 192.545 212.519 194.027C211.901 195.51 211.74 197.142 212.054 198.716C212.369 200.291 213.146 201.737 214.287 202.872C215.428 204.007 216.881 204.78 218.463 205.093C220.045 205.406 221.685 205.245 223.176 204.631C224.666 204.017 225.94 202.976 226.837 201.642C227.733 200.307 228.211 198.738 228.211 197.133C228.211 194.981 227.352 192.917 225.822 191.395C224.293 189.873 222.218 189.018 220.055 189.018ZM220.055 201.784C219.13 201.785 218.225 201.513 217.456 201.003C216.686 200.493 216.086 199.767 215.731 198.917C215.377 198.068 215.283 197.132 215.463 196.23C215.642 195.327 216.087 194.498 216.741 193.847C217.394 193.196 218.227 192.752 219.134 192.572C220.041 192.392 220.981 192.484 221.836 192.836C222.69 193.188 223.421 193.784 223.934 194.549C224.448 195.314 224.723 196.213 224.723 197.133C224.723 198.366 224.231 199.548 223.356 200.42C222.481 201.292 221.293 201.782 220.055 201.784Z" fill="#263238" stroke="#263238" stroke-width="1.31594" stroke-miterlimit="10"/>
<path d="M220.054 183.036C217.252 183.036 214.513 183.863 212.183 185.412C209.853 186.961 208.038 189.162 206.965 191.738C205.893 194.314 205.612 197.148 206.159 199.882C206.706 202.617 208.055 205.128 210.036 207.1C212.018 209.071 214.542 210.413 217.29 210.957C220.039 211.501 222.887 211.222 225.476 210.155C228.065 209.088 230.278 207.282 231.834 204.964C233.391 202.645 234.222 199.92 234.222 197.132C234.222 193.394 232.729 189.808 230.073 187.165C227.416 184.521 223.812 183.036 220.054 183.036ZM220.054 208.388C217.821 208.388 215.637 207.729 213.78 206.494C211.923 205.259 210.475 203.504 209.62 201.451C208.765 199.398 208.542 197.138 208.977 194.959C209.413 192.779 210.489 190.777 212.068 189.205C213.648 187.634 215.66 186.564 217.851 186.13C220.042 185.696 222.313 185.919 224.376 186.769C226.44 187.62 228.204 189.06 229.445 190.908C230.686 192.756 231.348 194.928 231.348 197.151C231.348 200.131 230.159 202.989 228.041 205.097C225.922 207.204 223.05 208.388 220.054 208.388Z" fill="white" stroke="#263238" stroke-width="1.31594" stroke-miterlimit="10"/>
<path d="M201.933 178.853L217.513 183.623C217.513 183.623 225.902 177.318 235.483 179.534C235.483 179.534 232.063 169.826 210.492 168.122L201.933 178.853Z" fill="#0099A8" stroke="#263238" stroke-width="1.31594" stroke-miterlimit="10"/>
<path d="M217.965 197.132L204.538 173.859L207.211 172.335L220.638 195.627C220.794 195.911 220.834 196.244 220.748 196.556C220.663 196.868 220.459 197.135 220.18 197.3L219.64 197.606C219.354 197.758 219.019 197.794 218.706 197.705C218.394 197.617 218.128 197.411 217.965 197.132Z" fill="#6E6E6E" stroke="#263238" stroke-width="1.31594" stroke-miterlimit="10"/>
<path d="M188.13 136.333C188.13 136.333 200.722 142.314 204.161 144.873C207.599 147.433 214.608 152.989 215.75 154.555C216.892 156.122 220.186 161.248 219.044 162.958C217.902 164.669 217.162 165.661 216.465 166.08C215.769 166.498 212.462 167.072 210.887 168.926C209.312 170.78 196.142 191.569 196.142 191.569C196.142 191.569 191.424 199.116 190.702 199.116C189.981 199.116 181.686 202.106 171.101 201.676C160.516 201.245 147.772 198.404 145.482 198.261C143.192 198.117 140.613 196.837 139.609 196.263C138.605 195.689 135.751 193.847 131.597 189.571C127.443 185.295 124.726 183.878 125.015 178.465C125.015 178.465 92.3878 164.225 90.8067 162.659C89.2255 161.092 85.511 153.831 87.0859 152.552C88.6608 151.272 95.2427 149.842 103.544 150.841C111.845 151.84 130.022 155.966 133.598 158.389C135.662 159.756 137.54 161.385 139.183 163.233L160.365 160.954L161.651 163.245C161.651 163.245 154.066 173.065 154.066 173.777C154.066 174.489 162.511 188.591 162.511 188.591C162.511 188.591 158.075 189.159 154.925 189.302C151.775 189.446 149.059 189.871 149.059 189.871C149.059 189.871 177.112 191.438 181.548 191.15C185.984 190.863 188.845 186.156 189.56 184.315C190.275 182.473 188.412 173.496 189.987 168.083C191.562 162.671 193.57 159.113 191.424 155.411C189.278 151.709 181.83 143.45 181.83 141.053C181.83 138.655 188.13 136.333 188.13 136.333Z" fill="#0099A8" stroke="#263238" stroke-width="1.31594" stroke-miterlimit="10"/>
<path d="M188.13 136.333C188.13 136.333 179.829 141.171 179.829 142.026C179.829 142.882 186.843 156.266 187.841 159.113C188.839 161.959 185.84 180.613 185.124 182.61C184.409 184.608 180.255 188.853 180.255 188.853L162.511 188.572L159.154 189.321L154.925 189.284C154.925 189.284 150.063 187.005 149.203 186.862C148.343 186.718 133.028 182.729 130.882 184.015C128.736 185.301 129.451 186.862 130.311 187.136C131.17 187.411 162.655 193.117 163.371 193.117C164.086 193.117 179.829 195.676 185.269 193.685C190.709 191.693 195.998 184.002 197.146 181.437L198.288 178.877L193.57 174.744C193.57 174.744 193.708 170.755 194.567 168.62C195.427 166.485 198.288 160.08 197.435 157.802C196.581 155.523 184.428 143.025 184.553 141.171C184.679 139.317 188.13 136.333 188.13 136.333Z" fill="#263238" stroke="#263238" stroke-width="1.31594" stroke-miterlimit="10"/>
<path d="M189.849 178.622C188.299 179.053 186.749 180.257 185.375 181.656C185.275 182.099 185.187 182.424 185.124 182.611C184.409 184.602 180.255 188.854 180.255 188.854L162.511 188.573L159.154 189.322L154.925 189.284C153.296 189.67 151.701 190.188 150.157 190.833C157.002 192.081 163.063 193.13 163.371 193.13C164.086 193.13 179.829 195.689 185.269 193.698C190.709 191.707 195.998 184.016 197.146 181.45L198.288 178.89C195.568 177.95 192.624 177.857 189.849 178.622Z" fill="#263238" stroke="#263238" stroke-width="1.31594" stroke-miterlimit="10"/>
<path d="M189.134 123.798C189.134 123.798 181.686 121.095 178.969 122.231C176.253 123.367 171.817 126.932 171.239 129.354C170.662 131.776 171.817 132.912 173.674 134.623C175.531 136.333 180.544 141.739 180.544 141.739L188.13 136.333L189.134 135.047C189.134 135.047 192.71 134.055 192.855 133.343C192.954 131.182 192.713 129.019 192.14 126.932C191.944 126.2 191.567 125.529 191.041 124.981C190.516 124.433 189.86 124.026 189.134 123.798Z" fill="#0099A8" stroke="#263238" stroke-width="1.31594" stroke-miterlimit="10"/>
<path d="M188.819 124.374C188.819 124.374 187.564 126.789 188.53 128.5C189.496 130.21 191.667 134.905 192.251 133.494C192.834 132.083 191.969 127.514 190.996 126.234C190.406 125.472 189.665 124.839 188.819 124.374Z" fill="white" stroke="#263238" stroke-width="1.31594" stroke-miterlimit="10"/>
<path d="M175.901 136.841C178.035 139.032 180.544 141.741 180.544 141.741L188.13 136.335L189.134 135.049C190.169 134.761 191.178 134.389 192.152 133.938C189.228 132.564 182.665 129.68 181.115 130.779C179.566 131.878 177.093 135.199 175.901 136.841Z" fill="#6E6E6E" stroke="#263238" stroke-width="1.31594" stroke-miterlimit="10"/>
<path d="M177.965 125.51C177.965 125.51 177.827 115.403 176.083 115.116C174.339 114.829 171.214 116.115 171.214 116.115C170.524 115.139 170.055 114.026 169.839 112.852C169.622 111.679 169.663 110.473 169.959 109.317C169.997 109.167 170.041 109.011 170.091 108.848C171.377 104.578 177.677 112.55 178.248 113.843C178.604 114.843 178.749 115.905 178.674 116.964L179.534 124.942C179.534 124.942 181.968 126.365 180.826 126.509C179.685 126.653 175.098 126.509 176.246 125.367C177.394 124.224 177.965 125.51 177.965 125.51Z" fill="#263238" stroke="#263238" stroke-width="1.31594" stroke-miterlimit="10"/>
<path d="M186.222 137.695L171.113 130.828C171.238 132.308 172.242 133.288 173.673 134.574C175.555 136.284 180.543 141.69 180.543 141.69L186.222 137.695Z" fill="#263238" stroke="#263238" stroke-width="1.31594" stroke-miterlimit="10"/>
<path d="M118.32 103.385H70.9602V143.919H118.32V103.385Z" fill="#CB6E10" stroke="#CB6E10" stroke-width="1.31594" stroke-miterlimit="10"/>
<path d="M114.247 143.927H74.5239V144.938H114.247V143.927Z" fill="#263238" stroke="#263238" stroke-width="1.31594" stroke-miterlimit="10"/>
<path d="M160.459 188.842C161.67 188.71 162.511 188.604 162.511 188.604C162.511 188.604 154.066 174.483 154.066 173.778C154.066 173.072 161.652 163.246 161.652 163.246L160.365 160.968L139.183 163.246C139.183 163.246 151.349 177.342 155.214 181.9C157.088 184.117 158.839 186.435 160.459 188.842Z" fill="#6E6E6E" stroke="#263238" stroke-width="1.31594" stroke-miterlimit="10"/>
<path d="M215.887 162.042L218.366 162.685" stroke="#263238" stroke-width="1.31594" stroke-miterlimit="10"/>
<path d="M198.683 157.578L213.811 161.505" stroke="#263238" stroke-width="1.31594" stroke-miterlimit="10"/>
<path d="M207.587 158.596L197.999 150.424L203.646 151.953L213.579 160.131L207.587 158.596Z" fill="white" stroke="#263238" stroke-width="1.31594" stroke-miterlimit="10"/>
<path d="M143.87 175.938C146.191 176.144 147.848 176.306 147.848 176.306" stroke="#263238" stroke-width="1.31594" stroke-miterlimit="10"/>
<path d="M126.018 177.605C126.018 177.605 126.018 175.564 130.642 175.308C134.413 175.274 138.183 175.436 141.936 175.795" stroke="#263238" stroke-width="1.31594" stroke-miterlimit="10"/>
<path d="M161.488 143.808C160.917 143.67 157.667 141.017 158.251 140.948C163.414 140.324 176.766 141.854 179.025 142.197C182.062 142.628 177.927 160.02 176.917 166.2C176.045 171.525 177.256 175.109 177.149 176.189C177.14 176.272 177.152 176.356 177.183 176.433C177.215 176.511 177.266 176.579 177.331 176.632L177.959 177.181C178.06 177.272 178.124 177.396 178.141 177.531L178.354 179.572C178.369 179.703 178.433 179.823 178.533 179.91C178.633 179.996 178.761 180.043 178.893 180.04C180.443 180.033 181.983 179.793 183.461 179.329C185.193 178.611 187.935 177.606 187.226 179.185C186.517 180.764 184.195 183.642 182.897 184.217C181.598 184.791 174.665 186.658 172.926 187.095C171.628 187.413 168.459 187.413 166.953 187.394C166.865 187.394 166.778 187.372 166.701 187.33C166.624 187.288 166.558 187.227 166.511 187.152C166.464 187.078 166.437 186.993 166.432 186.906C166.427 186.818 166.444 186.73 166.483 186.651C167.11 185.228 168.484 182.05 168.597 180.196C168.741 177.749 169.325 162.361 170.624 157.904C171.759 154.014 173.341 149.364 173.723 147.21C173.739 147.143 173.741 147.073 173.729 147.005C173.717 146.937 173.692 146.872 173.655 146.814C173.617 146.755 173.569 146.705 173.511 146.666C173.454 146.627 173.39 146.6 173.322 146.586L161.488 143.808Z" fill="#4E4E4E" stroke="#4E4E4E" stroke-width="1.31594" stroke-miterlimit="10"/>
<path d="M169.325 182.993L172.976 184.741C173.042 184.775 173.115 184.794 173.19 184.797C173.949 184.797 178.498 184.96 179.288 185.222C180.079 185.484 180.587 185.653 179.866 186.514C179.144 187.376 175.969 188.843 172.506 189.535C169.418 190.219 166.255 190.509 163.094 190.397C161.897 190.352 160.707 190.201 159.536 189.948C159.4 189.918 159.281 189.835 159.206 189.718C159.131 189.601 159.105 189.459 159.135 189.323L159.994 184.573C160.014 184.463 160.068 184.363 160.148 184.286C160.228 184.209 160.33 184.158 160.44 184.142L168.998 182.931C169.111 182.915 169.226 182.937 169.325 182.993Z" fill="white" stroke="#263238" stroke-width="1.31594" stroke-miterlimit="10"/>
<path d="M179.866 186.513C180.494 185.746 180.237 185.546 179.553 185.309L178.963 185.377C177.764 186.17 175.688 187.1 172.061 187.956C168.034 188.974 163.862 189.297 159.725 188.911C159.592 188.897 159.459 188.934 159.352 189.014C159.246 189.094 159.173 189.211 159.148 189.341C159.118 189.477 159.144 189.619 159.219 189.736C159.294 189.853 159.413 189.936 159.55 189.966C160.72 190.219 161.911 190.37 163.107 190.415C166.269 190.527 169.431 190.238 172.519 189.554C175.97 188.842 179.145 187.381 179.866 186.513Z" fill="white" stroke="#263238" stroke-width="1.31594" stroke-miterlimit="10"/>
<path d="M132.074 134.53C132.074 134.53 130.343 145.311 131.208 148.039C132.074 150.767 152.234 153.096 157.724 152.665C162.022 152.328 161.363 152.827 165.799 152.509C166.214 152.478 166.59 152.69 166.508 153.102L160.203 183.61C160.188 183.683 160.19 183.759 160.207 183.831C160.224 183.904 160.256 183.972 160.302 184.031C160.348 184.09 160.406 184.139 160.472 184.174C160.538 184.209 160.611 184.23 160.686 184.234C162.357 184.358 164.036 184.344 165.705 184.191C167.129 183.99 168.517 183.589 169.828 182.998C169.895 182.967 169.955 182.922 170.004 182.866C170.053 182.81 170.089 182.745 170.11 182.674L170.593 181.119C170.606 181.057 170.606 180.994 170.593 180.932L170.317 176.687C170.312 176.615 170.322 176.542 170.348 176.475C170.976 174.783 177.715 151.91 178.411 149.138C179.133 146.266 179.999 143.969 178.122 142.677C176.246 141.384 151.977 136.534 151.977 136.534L132.074 134.53Z" fill="#4E4E4E" stroke="#263238" stroke-width="1.31594" stroke-miterlimit="10"/>
<path d="M137.269 141.446C137.269 141.446 146.518 138.287 152.002 136.558" stroke="#263238" stroke-width="1.31594" stroke-miterlimit="10"/>
<path d="M166.702 152.16C166.702 152.16 171.094 151.898 174.394 149.888" stroke="#263238" stroke-width="1.31594" stroke-miterlimit="10"/>
<path d="M167.029 153.621C167.029 153.621 172.506 152.635 174.828 151.467" stroke="#263238" stroke-width="1.31594" stroke-miterlimit="10"/>
<path d="M154.893 119.86L155.728 126.908L161.557 128.356L171.238 129.355L164.468 131.671L151.976 134.156L154.893 119.86Z" fill="#263238" stroke="#263238" stroke-width="1.31594" stroke-miterlimit="10"/>
<path d="M151.279 95.319C151.279 95.319 148.104 94.6011 143.191 99.1957C138.767 103.438 135.71 108.891 134.407 114.865C133.108 120.321 131.809 130.672 131.376 132.682C130.943 134.692 131.52 134.979 132.531 135.553C133.541 136.128 139.752 137.283 145.243 137.57C150.733 137.857 153.33 136.846 154.027 135.841C154.723 134.835 154.027 124.204 154.893 120.752C155.759 117.3 157.49 105.376 157.49 105.376L151.843 95.6062L151.279 95.319Z" fill="#263238" stroke="#263238" stroke-width="1.31594" stroke-miterlimit="10"/>
<path d="M156.913 89.4268L152.584 95.7506L159.222 102.792C159.222 102.792 163.847 96.8993 164.568 96.4685C165.29 96.0378 166.877 95.3199 166.877 95.3199L156.913 89.4268Z" fill="white" stroke="#263238" stroke-width="1.31594" stroke-miterlimit="10"/>
<path d="M159.105 94.5254L161.741 99.5008L164.57 96.4669L159.105 94.5254Z" fill="#263238" stroke="#263238" stroke-width="1.31594" stroke-miterlimit="10"/>
<path d="M171.214 85.1188L171.647 87.2725C171.647 87.2725 173.378 88.9955 172.946 90.0006C172.513 91.0056 170.492 91.8734 170.492 91.8734C170.492 91.8734 167.844 97.3607 167.261 97.9351C166.677 98.5094 162.116 96.6178 160.095 95.4692C158.075 94.3205 157.636 91.0119 157.636 91.0119L156.626 90.294C156.626 90.294 153.595 89.5761 153.307 87.9966C153.018 86.4172 152.874 84.688 154.605 83.6829C156.337 82.6778 157.636 82.1035 158.37 82.1035C159.104 82.1035 169.206 83.6829 169.206 83.6829L171.214 85.1188Z" fill="white" stroke="#263238" stroke-width="1.31594" stroke-miterlimit="10"/>
<path d="M169.771 92.5911C169.771 92.5911 167.173 92.4412 166.589 90.8618" stroke="#263238" stroke-width="1.31594" stroke-miterlimit="10"/>
<path d="M161.105 83.9637C161.105 83.9637 159.951 86.8416 159.512 87.1287C159.072 87.4159 158.934 84.8252 156.337 85.4057C153.739 85.9863 154.172 88.8517 154.894 89.426C155.417 89.8092 156.003 90.1006 156.625 90.2875L155.245 91.998C155.245 91.998 154.617 91.2926 152.44 91.149C150.263 91.0054 147.672 88.5645 147.527 86.698C147.383 84.8314 149.115 82.5278 149.115 82.5278C149.037 82.8136 149.067 83.1179 149.2 83.3827C149.333 83.6476 149.56 83.8544 149.836 83.9637C150.579 84.216 151.377 84.2655 152.145 84.1072L161.105 83.9637Z" fill="#263238" stroke="#263238" stroke-width="1.31594" stroke-miterlimit="10"/>
<path d="M150.847 84.3945L172.08 85.2622C172.08 85.2622 171.359 78.9696 170.624 76.6348C169.89 74.3 161.84 71.6406 157.479 72.0401C153.119 72.4397 151.556 77.3527 151.556 77.3527L150.847 84.3945Z" fill="#0099A8" stroke="#0099A8" stroke-width="1.31594" stroke-miterlimit="10"/>
<path d="M164.977 84.97C167.781 85.6142 170.629 86.0482 173.498 86.2684C177.833 86.5556 180.72 85.2634 180.72 84.2521C180.72 83.2407 171.189 85.1198 171.189 85.1198L164.977 84.97Z" fill="#0099A8" stroke="#263238" stroke-width="1.31594" stroke-miterlimit="10"/>
<path d="M152.008 92.4414L160.384 103.797L156.915 107.68L150.126 95.0322L152.008 92.4414Z" fill="#CB6E10" stroke="#263238" stroke-width="1.31594" stroke-miterlimit="10"/>
<path d="M144.038 126.453L164.16 129.275C164.16 129.275 170.767 128.088 172.537 127.046C174.306 126.003 175.379 126.603 175.743 127.096C176.107 127.589 176.609 131.004 176.785 131.759C176.96 132.515 175.423 133.008 174.808 133.207C174.193 133.407 171.044 132.053 171.044 132.053C171.044 132.053 167.593 133.57 166.313 133.376C165.424 133.213 164.574 132.889 163.803 132.421C163.803 132.421 140.474 134.999 137.08 135.218C133.685 135.436 134.915 131.946 135.292 130.355C135.863 127.932 136.296 125.797 136.296 125.797L144.038 126.453Z" fill="white" stroke="#263238" stroke-width="1.31594" stroke-miterlimit="10"/>
<path d="M147.879 101.674C145.846 101.767 143.487 104.015 142.301 105.938C139.044 111.281 134.263 128.031 134.263 128.031L149.504 126.576C149.504 126.576 151.512 106.824 150.941 104.726C150.32 102.41 149.171 101.611 147.879 101.674Z" fill="#CB6E10" stroke="#263238" stroke-width="1.31594" stroke-miterlimit="10"/>
<path d="M174.676 130.635C174.678 130.211 174.552 129.796 174.316 129.443C174.08 129.09 173.744 128.814 173.351 128.651C172.957 128.489 172.524 128.446 172.106 128.528C171.688 128.611 171.304 128.815 171.003 129.114C170.701 129.414 170.496 129.796 170.413 130.212C170.33 130.628 170.374 131.059 170.537 131.451C170.701 131.842 170.978 132.177 171.333 132.412C171.687 132.646 172.104 132.771 172.531 132.77C173.1 132.77 173.646 132.545 174.048 132.144C174.45 131.744 174.676 131.201 174.676 130.635Z" fill="#263238" stroke="#263238" stroke-width="1.31594" stroke-miterlimit="10"/>
<path d="M84.4511 157.26H71.6199" stroke="#263238" stroke-width="1.31594" stroke-miterlimit="10"/>
<path d="M75.8986 166.381H49" stroke="#263238" stroke-width="1.31594" stroke-miterlimit="10"/>
<path d="M147.414 89.75H129.074" stroke="#263238" stroke-width="1.31594" stroke-miterlimit="10"/>
<path d="M65.502 133.538H58.7821" stroke="#263238" stroke-width="1.31594" stroke-miterlimit="10"/>
<defs>
<linearGradient id="paint0_linear_3982_18281" x1="144" y1="0" x2="144" y2="288" gradientUnits="userSpaceOnUse">
<stop stop-color="#E3ECFA" stop-opacity="0.27"/>
<stop offset="1" stop-color="#DAE7FF" stop-opacity="0.22"/>
</linearGradient>
</defs>
</svg>
