<svg width="32" height="32" viewBox="0 0 32 32" fill="none" xmlns="http://www.w3.org/2000/svg">
<circle cx="16" cy="16" r="16" fill="#F9FEFF"/>
<path d="M8.75619 10.8228H22.5819C23.091 10.8228 23.5037 11.2359 23.5037 11.7455V20.9728C23.5037 21.4824 23.091 21.8955 22.5819 21.8955H10.5996L8.30651 24.1912C8.13232 24.3655 7.83447 24.242 7.83447 23.9954V11.7455C7.83447 11.2359 8.24714 10.8228 8.75619 10.8228Z" fill="#049663"/>
<path d="M22.5819 10.8228H8.75619C8.24714 10.8228 7.83447 11.2359 7.83447 11.7455V20.9728C7.83447 21.4824 8.24714 21.8955 8.75619 21.8955H22.5819C23.091 21.8955 23.5037 21.4824 23.5037 20.9728V11.7455C23.5037 11.2359 23.091 10.8228 22.5819 10.8228Z" fill="#00AB6F"/>
<path d="M15.1468 19.4989C14.9293 19.4989 14.7233 19.3974 14.5913 19.2224L12.8048 16.8619C12.7496 16.789 12.7093 16.7059 12.6862 16.6174C12.663 16.5289 12.6576 16.4367 12.6701 16.3461C12.6827 16.2555 12.713 16.1683 12.7592 16.0894C12.8055 16.0105 12.8669 15.9415 12.9398 15.8864C13.0128 15.831 13.0959 15.7905 13.1845 15.7673C13.2731 15.7441 13.3654 15.7386 13.4561 15.7512C13.5468 15.7637 13.6342 15.794 13.7131 15.8404C13.7921 15.8868 13.8612 15.9483 13.9163 16.0214L15.0918 17.5734L18.0473 12.8274C18.1453 12.6707 18.3015 12.5592 18.4816 12.5175C18.6616 12.4758 18.8509 12.5072 19.0078 12.6049C19.3343 12.8079 19.4348 13.2379 19.2308 13.5649L15.7388 19.1699C15.6792 19.266 15.597 19.3461 15.4995 19.4032C15.4019 19.4604 15.2918 19.4929 15.1788 19.4979C15.1678 19.4989 15.1578 19.4989 15.1468 19.4989Z" fill="white"/>
</svg>
