<svg width="32" height="32" viewBox="0 0 32 32" fill="none" xmlns="http://www.w3.org/2000/svg">
<path d="M16.635 25.4277C21.4495 25.4277 25.3525 21.5247 25.3525 16.7102C25.3525 11.8956 21.4495 7.99268 16.635 7.99268C11.8204 7.99268 7.91748 11.8956 7.91748 16.7102C7.91748 21.5247 11.8204 25.4277 16.635 25.4277Z" fill="#FFCD3E"/>
<path d="M15.365 24.0073C20.1795 24.0073 24.0825 20.1043 24.0825 15.2898C24.0825 10.4752 20.1795 6.57227 15.365 6.57227C10.5504 6.57227 6.64746 10.4752 6.64746 15.2898C6.64746 20.1043 10.5504 24.0073 15.365 24.0073Z" fill="#FF6F5B"/>
<path d="M15.3652 24.4856C10.2946 24.4856 6.16895 20.3606 6.16895 15.29C6.16895 10.2194 10.2946 6.09375 15.3652 6.09375C20.4358 6.09375 24.5627 10.2188 24.5627 15.29C24.5627 20.3612 20.4377 24.4856 15.3652 24.4856ZM15.3652 7.04812C10.8221 7.05062 7.1252 10.7463 7.1252 15.29C7.1252 19.8337 10.8214 23.5294 15.3646 23.5294C19.9077 23.5294 23.6039 19.8331 23.6039 15.29C23.6039 10.7469 19.9083 7.05062 15.3652 7.05062V7.04812Z" fill="white"/>
<path d="M18.0376 17.7332C17.7958 18.0972 17.4585 18.3875 17.0626 18.5726C16.6343 18.7851 16.1201 18.9022 15.5201 18.9238V19.7988H14.8276V18.902C14.0231 18.8286 13.3664 18.5834 12.8576 18.1663C12.3489 17.7492 12.0801 17.1824 12.0514 16.4657H14.3451C14.3739 16.8382 14.5347 17.0832 14.8276 17.2007V15.7957C14.3364 15.668 13.8529 15.5123 13.3795 15.3295C13.015 15.1769 12.6932 14.9377 12.442 14.6326C12.1674 14.3105 12.0304 13.8715 12.0308 13.3157C12.0212 12.886 12.15 12.4647 12.3983 12.1138C12.6554 11.7644 13.0025 11.4914 13.4026 11.3238C13.8543 11.1311 14.337 11.0214 14.8276 11.0001V10.1113H15.5189V11.0001C16.3314 11.0588 16.9772 11.293 17.4564 11.7026C17.9356 12.1122 18.2008 12.6747 18.252 13.3901H15.9376C15.9081 13.0538 15.7689 12.8307 15.5201 12.7207V14.1145L15.7945 14.202C16.2427 14.3212 16.6814 14.4735 17.107 14.6576C17.4567 14.8179 17.763 15.0597 18.0001 15.3626C18.2501 15.6738 18.3751 16.0817 18.3751 16.5863C18.3773 16.9934 18.2599 17.3922 18.0376 17.7332ZM14.8276 13.8645V12.6576C14.4914 12.7155 14.3231 12.902 14.3226 13.217C14.3226 13.4807 14.491 13.6965 14.8276 13.8645ZM15.9376 17.0413C15.9887 16.9882 16.0286 16.9254 16.0551 16.8566C16.0815 16.7878 16.0938 16.7144 16.0914 16.6407C16.0914 16.3853 15.901 16.177 15.5201 16.0157V17.2557C15.678 17.2286 15.8237 17.1538 15.9376 17.0413Z" fill="white"/>
</svg>
