<svg width="32" height="32" viewBox="0 0 32 32" fill="none" xmlns="http://www.w3.org/2000/svg">
<circle cx="16" cy="16" r="16" fill="#F9FEFF"/>
<g style="mix-blend-mode:multiply">
<path d="M8.29541 13.1294H23.0429V23.2794C23.0429 23.789 22.6302 24.2022 22.1212 24.2022H9.21713C8.70808 24.2022 8.29541 23.789 8.29541 23.2794V13.1294Z" fill="#FFE543"/>
</g>
<g style="mix-blend-mode:multiply">
<path d="M8.29541 13.1294L9.88409 9.94855C10.0402 9.63594 10.3594 9.43848 10.7085 9.43848H20.6298C20.9789 9.43848 21.2981 9.63594 21.4542 9.94855L23.0429 13.1294H8.29541Z" fill="#FFC143"/>
</g>
<g style="mix-blend-mode:multiply">
<path d="M13.8257 13.1294H17.5126V17.9975C17.5126 18.2441 17.2147 18.3676 17.0405 18.1932L15.6691 16.8203L14.2977 18.1932C14.1235 18.3676 13.8257 18.2441 13.8257 17.9975V13.1294Z" fill="#FFC143"/>
</g>
</svg>
