<svg width="24" height="25" viewBox="0 0 24 25" fill="none" xmlns="http://www.w3.org/2000/svg">
<path d="M14.892 9.5C15.232 9.5 15.562 9.64 15.802 9.89C16.032 10.14 16.162 10.48 16.142 10.84L15.522 21.09C15.412 22.62 15.272 24.51 11.782 24.51H5.36202C1.87202 24.51 1.73202 22.61 1.62202 21.09L1.00202 10.83C0.982015 10.48 1.11202 10.14 1.34202 9.89C1.57202 9.64 1.91202 9.5 2.25202 9.5H14.892Z" fill="#0099A8"/>
<path d="M21 6.47998C17.67 6.14998 14.32 5.97998 10.98 5.97998C9 5.97998 7.02 6.07998 5.04 6.27998L3 6.47998" stroke="#151B33" stroke-width="1.5" stroke-linecap="round" stroke-linejoin="round"/>
<path d="M8.5 5.47L8.72 4.16C8.88 3.21 9 2.5 10.69 2.5H13.31C15 2.5 15.13 3.25 15.28 4.17L15.5 5.47" stroke="#151B33" stroke-width="1.5" stroke-linecap="round" stroke-linejoin="round"/>
<path d="M18.8499 9.64014L18.1999 19.7101C18.0899 21.2801 17.9999 22.5001 15.2099 22.5001H8.7899C5.9999 22.5001 5.9099 21.2801 5.7999 19.7101L5.1499 9.64014" stroke="#151B33" stroke-width="1.5" stroke-linecap="round" stroke-linejoin="round"/>
<path d="M10.3301 17H13.6601" stroke="#151B33" stroke-width="1.5" stroke-linecap="round" stroke-linejoin="round"/>
<path d="M9.5 13H14.5" stroke="#151B33" stroke-width="1.5" stroke-linecap="round" stroke-linejoin="round"/>
</svg>
