<svg width="48" height="48" viewBox="0 0 48 48" fill="none" xmlns="http://www.w3.org/2000/svg">
<g clip-path="url(#clip0_4164_18152)">
<path d="M47.5 24C47.5 36.9787 36.9787 47.5 24 47.5C11.0213 47.5 0.5 36.9787 0.5 24C0.5 11.0213 11.0213 0.5 24 0.5C36.9787 0.5 47.5 11.0213 47.5 24Z" stroke="#0099A8"/>
<path d="M24.2539 10C16.6628 10 10.5084 16.1063 10.5084 23.6395C10.5084 26.2164 11.2291 28.6264 12.4808 30.6824L10 38L17.6103 35.5824C19.5795 36.6627 21.8443 37.279 24.2539 37.279C31.8459 37.279 38 31.1718 38 23.6395C38 16.1063 31.8459 10 24.2539 10ZM31.089 28.8194C30.7656 29.6211 29.3031 30.3527 28.6578 30.3864C28.0132 30.4206 27.9948 30.886 24.4803 29.3592C20.9662 27.8321 18.8521 24.119 18.6854 23.8799C18.5186 23.6416 17.3241 21.9394 17.3886 20.2264C17.4534 18.5131 18.3915 17.7048 18.7263 17.3686C19.0608 17.0319 19.4442 16.9716 19.6783 16.9678C19.9551 16.9633 20.1343 16.9596 20.3391 16.9671C20.5437 16.9749 20.8511 16.9243 21.1173 17.6321C21.3833 18.3398 22.0199 20.0791 22.1014 20.2564C22.1827 20.4338 22.2331 20.6393 22.1077 20.8671C21.982 21.0954 21.9176 21.238 21.7352 21.4347C21.5518 21.6315 21.3493 21.8749 21.1857 22.0253C21.0032 22.1919 20.8126 22.3736 21.0044 22.7296C21.1962 23.0854 21.8578 24.2519 22.8656 25.2131C24.1609 26.4488 25.278 26.8587 25.6217 27.0454C25.9664 27.2332 26.1721 27.2123 26.3859 26.9874C26.5986 26.7624 27.3008 26.0032 27.5481 25.6643C27.7953 25.3244 28.0269 25.391 28.3445 25.5187C28.6619 25.647 30.3543 26.5535 30.6991 26.7407C31.0434 26.9275 31.2736 27.0238 31.3559 27.1719C31.4383 27.3207 31.4123 28.0176 31.089 28.8194V28.8194Z" fill="#14DC58"/>
</g>
<defs>
<clipPath id="clip0_4164_18152">
<rect width="48" height="48" fill="white"/>
</clipPath>
</defs>
</svg>
