<svg width="22" height="22" viewBox="0 0 22 22" fill="none" xmlns="http://www.w3.org/2000/svg">
<g filter="url(#filter0_d_3982_18647)">
<path d="M7.22877 14.7514L7.49035 14.8811C8.58027 15.5298 9.80098 15.8325 11.0217 15.8325C14.8582 15.8325 17.9972 12.719 17.9972 8.91355C17.9972 7.09733 17.256 5.32436 15.9481 4.02706C14.6402 2.72976 12.8963 1.99463 11.0217 1.99463C7.18517 1.99463 4.04621 5.10814 4.0898 8.95679C4.0898 10.2541 4.48217 11.5081 5.13613 12.5892L5.31051 12.8487L4.61296 15.4L7.22877 14.7514Z" fill="#25D366"/>
<path d="M16.6894 3.33514C15.2071 1.82162 13.158 1 11.0654 1C6.61853 1 3.0436 4.58919 3.08719 8.95676C3.08719 10.3405 3.47956 11.6811 4.13351 12.8919L3 17L7.22888 15.9189C8.40599 16.5676 9.7139 16.8703 11.0218 16.8703C15.4251 16.8703 19 13.2811 19 8.91351C19 6.79459 18.1717 4.80541 16.6894 3.33514ZM11.0654 15.5297C9.88828 15.5297 8.71117 15.227 7.70845 14.6216L7.44687 14.4919L4.91826 15.1405L5.57221 12.6757L5.39782 12.4162C3.47956 9.34595 4.3951 5.28108 7.53406 3.37838C10.673 1.47568 14.7275 2.38378 16.6458 5.4973C18.564 8.61081 17.6485 12.6324 14.5095 14.5351C13.5068 15.1838 12.2861 15.5297 11.0654 15.5297ZM14.9019 10.7297L14.4223 10.5135C14.4223 10.5135 13.7248 10.2108 13.2888 9.99459C13.2452 9.99459 13.2016 9.95135 13.158 9.95135C13.0272 9.95135 12.9401 9.99459 12.8529 10.0378C12.8529 10.0378 12.8093 10.0811 12.1989 10.773C12.1553 10.8595 12.0681 10.9027 11.9809 10.9027H11.9373C11.8937 10.9027 11.8065 10.8595 11.7629 10.8162L11.545 10.7297C11.0654 10.5135 10.6294 10.2541 10.2807 9.90811C10.1935 9.82162 10.0627 9.73514 9.97548 9.64865C9.6703 9.34595 9.36512 9 9.14714 8.61081L9.10354 8.52432C9.05995 8.48108 9.05995 8.43784 9.01635 8.35135C9.01635 8.26486 9.01635 8.17838 9.05995 8.13514C9.05995 8.13514 9.23433 7.91892 9.36512 7.78919C9.45232 7.7027 9.49591 7.57297 9.58311 7.48649C9.6703 7.35676 9.7139 7.18378 9.6703 7.05405C9.6267 6.83784 9.10354 5.67027 8.97275 5.41081C8.88556 5.28108 8.79837 5.23784 8.66757 5.19459H8.18801C8.10082 5.19459 8.01362 5.23784 7.92643 5.23784L7.88283 5.28108C7.79564 5.32432 7.70845 5.41081 7.62125 5.45405C7.53406 5.54054 7.49046 5.62703 7.40327 5.71351C7.09809 6.1027 6.92371 6.57838 6.92371 7.05405C6.92371 7.4 7.0109 7.74595 7.14169 8.04865L7.18529 8.17838C7.57766 9 8.10082 9.73514 8.79837 10.3838L8.97275 10.5568C9.10354 10.6865 9.23433 10.773 9.32153 10.9027C10.2371 11.6811 11.2834 12.2432 12.4605 12.5459C12.5913 12.5892 12.7657 12.5892 12.8965 12.6324H13.3324C13.5504 12.6324 13.812 12.5459 13.9864 12.4595C14.1172 12.373 14.2044 12.373 14.2916 12.2865L14.3787 12.2C14.4659 12.1135 14.5531 12.0703 14.6403 11.9838C14.7275 11.8973 14.8147 11.8108 14.8583 11.7243C14.9455 11.5514 14.9891 11.3351 15.0327 11.1189V10.8162C15.0327 10.8162 14.9891 10.773 14.9019 10.7297Z" fill="white"/>
</g>
<defs>
<filter id="filter0_d_3982_18647" x="0" y="0" width="22" height="22" filterUnits="userSpaceOnUse" color-interpolation-filters="sRGB">
<feFlood flood-opacity="0" result="BackgroundImageFix"/>
<feColorMatrix in="SourceAlpha" type="matrix" values="0 0 0 0 0 0 0 0 0 0 0 0 0 0 0 0 0 0 127 0" result="hardAlpha"/>
<feOffset dy="2"/>
<feGaussianBlur stdDeviation="1.5"/>
<feColorMatrix type="matrix" values="0 0 0 0 0.0554688 0 0 0 0 0.295833 0 0 0 0 0.223724 0 0 0 0.54 0"/>
<feBlend mode="normal" in2="BackgroundImageFix" result="effect1_dropShadow_3982_18647"/>
<feBlend mode="normal" in="SourceGraphic" in2="effect1_dropShadow_3982_18647" result="shape"/>
</filter>
</defs>
</svg>
