<svg width="45" height="60" viewBox="0 0 45 60" fill="none" xmlns="http://www.w3.org/2000/svg">
<path d="M41.0602 30.99L37.4002 27.33C36.5302 26.58 36.0202 25.47 35.9902 24.24C35.9302 22.89 36.4702 21.54 37.4602 20.55L41.0602 16.95C44.1802 13.83 45.3502 10.83 44.3602 8.46C43.4002 6.12 40.4302 4.83 36.0502 4.83H4.70019V2.25C4.70019 1.02 3.6802 0 2.4502 0C1.2202 0 0.200195 1.02 0.200195 2.25V57.75C0.200195 58.98 1.2202 60 2.4502 60C3.6802 60 4.70019 58.98 4.70019 57.75V43.11H36.0502C40.3702 43.11 43.2802 41.79 44.2702 39.42C45.2602 37.05 44.1202 34.08 41.0602 30.99Z" fill="#F5AB35"/>
</svg>
